<?xml version="1.0" encoding="utf-8"?>
<!-- Generator: Adobe Illustrator 24.0.1, SVG Export Plug-In . SVG Version: 6.00 Build 0)  -->
<svg version="1.1" id="Layer_1" xmlns="http://www.w3.org/2000/svg" xmlns:xlink="http://www.w3.org/1999/xlink" x="0px" y="0px"
	 viewBox="0 0 700 350" style="enable-background:new 0 0 700 350;" xml:space="preserve">
<style type="text/css">
	.st0{fill:#05031B;}
</style>
<g>
	<path class="st0" d="M258,212.5c-5.2,0-9.5-4.3-9.5-9.5v-58c0-5.2,4.3-9.5,9.5-9.5h193c5.2,0,9.5,4.3,9.5,9.5v58
		c0,5.2-4.3,9.5-9.5,9.5H258z"/>
	<path d="M451,136c5,0,9,4,9,9v58c0,5-4,9-9,9H258c-5,0-9-4-9-9v-58c0-5,4-9,9-9H451 M451,135H258c-5.5,0-10,4.5-10,10v58
		c0,5.5,4.5,10,10,10h193c5.5,0,10-4.5,10-10v-58C461,139.5,456.5,135,451,135L451,135z"/>
</g>
<image style="overflow:visible;" width="650" height="325" xlink:href="../ICOK.png"  transform="matrix(0.24 0 0 0.24 278 139)">
</image>
</svg>
