<?xml version="1.0" encoding="utf-8"?>
<!-- Generator: Adobe Illustrator 24.0.1, SVG Export Plug-In . SVG Version: 6.00 Build 0)  -->
<svg version="1.1" id="Layer_1" xmlns="http://www.w3.org/2000/svg" xmlns:xlink="http://www.w3.org/1999/xlink" x="0px" y="0px"
	 viewBox="0 0 2560 1200" style="enable-background:new 0 0 2560 1200;" xml:space="preserve">
<style type="text/css">
	.st0{fill:#E6E6E6;}
	.st1{fill:url(#SVGID_1_);}
	.st2{opacity:0.62;clip-path:url(#SVGID_3_);fill:url(#SVGID_4_);enable-background:new    ;}
	.st3{clip-path:url(#SVGID_6_);fill:url(#SVGID_7_);}
	.st4{fill:#D8D8D8;}
	.st5{fill:#05031B;}
	.st6{fill:#FFFFFF;}
	.st7{opacity:0.8;clip-path:url(#SVGID_9_);fill:url(#SVGID_10_);enable-background:new    ;}
	.st8{clip-path:url(#SVGID_12_);fill:url(#SVGID_13_);}
	.st9{fill:#CB0111;}
	.st10{fill:#74818E;}
	.st11{fill:#FDA080;}
	.st12{fill:#F4907C;}
	.st13{fill:#D4D2D1;}
	.st14{opacity:0.4;fill:#808080;enable-background:new    ;}
	.st15{opacity:0.4;}
	.st16{fill:#808080;}
	.st17{fill:#E5E5E5;}
	.st18{fill:#666666;}
	.st19{fill:#CBCBCB;}
	.st20{fill:#A5B4C2;}
	.st21{fill:#EAC9B8;}
	.st22{fill:#C4CCD7;}
	.st23{fill:#FAD1B1;}
	.st24{fill:#647889;}
	.st25{fill:#F8FBFC;}
	.st26{fill:#FDF5EA;}
	.st27{fill:#80C1D8;}
	.st28{fill:#F39475;}
	.st29{fill:#E74A5F;}
	.st30{fill:#C9364F;}
	.st31{fill:#393F4B;}
	.st32{fill:#11114E;}
	.st33{fill:#63ADC1;}
	.st34{fill:#6F251E;}
	.st35{fill:#E28166;}
	.st36{fill:#F16A44;}
	.st37{fill:#93603D;}
	.st38{fill:#A4704C;}
	.st39{opacity:0.5;}
	.st40{fill:#F9E1DF;}
</style>
<g>
	<rect x="0.5" y="0.5" class="st0" width="2559" height="1199"/>
	<path d="M2559,1v1198H1V1H2559 M2560,0H0v1200h2560V0L2560,0z"/>
</g>
<g>
	<g>
		<g>
			
				<image style="overflow:visible;enable-background:new    ;" width="1427" height="172" xlink:href="87D3BC04.png"  transform="matrix(1 0 0 1 93 966)">
			</image>
		</g>
		
			<linearGradient id="SVGID_1_" gradientUnits="userSpaceOnUse" x1="805.5579" y1="739.9176" x2="808.8375" y2="102.5149" gradientTransform="matrix(1 0 0 -1 0 1200)">
			<stop  offset="0.8215" style="stop-color:#FFFFFF"/>
			<stop  offset="0.9185" style="stop-color:#FDFDFD"/>
			<stop  offset="0.9534" style="stop-color:#F6F6F6"/>
			<stop  offset="0.9782" style="stop-color:#EBEBEB"/>
			<stop  offset="0.9983" style="stop-color:#DADADA"/>
			<stop  offset="1" style="stop-color:#D8D8D8"/>
		</linearGradient>
		<path class="st1" d="M1466.5,1055.4H146.6c-9.4,0-17-7.6-17-17v-771c0-9.4,7.6-17,17-17h1319.9c9.4,0,17,7.6,17,17v771
			C1483.5,1047.7,1475.9,1055.4,1466.5,1055.4z"/>
	</g>
	<g>
		<g>
			<defs>
				<path id="SVGID_2_" d="M1466.5,1055.4H146.6c-9.4,0-17-7.6-17-17v-771c0-9.4,7.6-17,17-17h1319.9c9.4,0,17,7.6,17,17v771
					C1483.5,1047.7,1475.9,1055.4,1466.5,1055.4z"/>
			</defs>
			<clipPath id="SVGID_3_">
				<use xlink:href="#SVGID_2_"  style="overflow:visible;"/>
			</clipPath>
			
				<linearGradient id="SVGID_4_" gradientUnits="userSpaceOnUse" x1="792.1238" y1="1.8056" x2="796.9625" y2="440.5876" gradientTransform="matrix(1 0 0 -1 0 1200)">
				<stop  offset="5.874290e-02" style="stop-color:#FFFFFF"/>
				<stop  offset="0.2522" style="stop-color:#FDFCFD"/>
				<stop  offset="0.3883" style="stop-color:#F8F3F8"/>
				<stop  offset="0.5069" style="stop-color:#EFE3F0"/>
				<stop  offset="0.6155" style="stop-color:#E2CDE3"/>
				<stop  offset="0.7172" style="stop-color:#D1B1D3"/>
				<stop  offset="0.8138" style="stop-color:#BC8EC0"/>
				<stop  offset="0.9065" style="stop-color:#A465A8"/>
				<stop  offset="0.9937" style="stop-color:#88368E"/>
				<stop  offset="1" style="stop-color:#86328C"/>
			</linearGradient>
			<path class="st2" d="M11.8,1154.9v-83.5c0,0,209.9-171.3,541.9-41.4c361.8,141.5,683.7-137.5,1020.9-16.5v116.3L11.8,1154.9z"/>
		</g>
		<g>
			<defs>
				<path id="SVGID_5_" d="M1466.5,1055.4H146.6c-9.4,0-17-7.6-17-17v-771c0-9.4,7.6-17,17-17h1319.9c9.4,0,17,7.6,17,17v771
					C1483.5,1047.7,1475.9,1055.4,1466.5,1055.4z"/>
			</defs>
			<clipPath id="SVGID_6_">
				<use xlink:href="#SVGID_5_"  style="overflow:visible;"/>
			</clipPath>
			
				<linearGradient id="SVGID_7_" gradientUnits="userSpaceOnUse" x1="776.5765" y1="-54.5817" x2="781.6716" y2="407.461" gradientTransform="matrix(1 0 0 -1 0 1200)">
				<stop  offset="5.874290e-02" style="stop-color:#FFFFFF"/>
				<stop  offset="0.2713" style="stop-color:#FEFCFC"/>
				<stop  offset="0.4208" style="stop-color:#FDF3F3"/>
				<stop  offset="0.5511" style="stop-color:#FAE3E3"/>
				<stop  offset="0.6702" style="stop-color:#F6CDCD"/>
				<stop  offset="0.7819" style="stop-color:#F1B1B1"/>
				<stop  offset="0.888" style="stop-color:#EA8E8E"/>
				<stop  offset="0.9878" style="stop-color:#E36565"/>
				<stop  offset="1" style="stop-color:#E26060"/>
			</linearGradient>
			<path class="st3" d="M129.6,1207.6V1105c0,0,172.6-210.5,445.6-50.9c297.5,174,548.6-175.7,852.2,1.2l-12.6,121.4L129.6,1207.6z"
				/>
		</g>
	</g>
	<g>
		<path class="st4" d="M251.4,464.8v-2.5c0-0.3,0.2-0.5,0.5-0.5h215.7c0.3,0,0.5,0.2,0.5,0.5v2.5c0,0.3-0.2,0.5-0.5,0.5H251.9
			C251.7,465.3,251.4,465.1,251.4,464.8z"/>
		<path class="st5" d="M482.2,941.1H237.3c-3.4,0-6.1-2.7-6.1-6.1v-53.4c0-3.4,2.7-6.1,6.1-6.1h244.9c3.4,0,6.1,2.7,6.1,6.1V935
			C488.3,938.4,485.6,941.1,482.2,941.1z"/>
	</g>
	<g>
		<path class="st4" d="M1144,464.8v-2.5c0-0.3,0.2-0.5,0.5-0.5h215.7c0.3,0,0.5,0.2,0.5,0.5v2.5c0,0.3-0.2,0.5-0.5,0.5h-215.7
			C1144.2,465.3,1144,465.1,1144,464.8z"/>
		<g>
			<path class="st5" d="M1374.8,941.1h-244.9c-3.4,0-6.1-2.7-6.1-6.1v-53.4c0-3.4,2.7-6.1,6.1-6.1h244.9c3.4,0,6.1,2.7,6.1,6.1V935
				C1380.9,938.4,1378.1,941.1,1374.8,941.1z"/>
		</g>
	</g>
	<g>
		<g>
			
				<image style="overflow:visible;opacity:0.15;enable-background:new    ;" width="761" height="950" xlink:href="87D3BC07.png"  transform="matrix(1 0 0 1 435 213)">
			</image>
			<g>
				<g>
					<path class="st6" d="M1015.3,1114.5H597.8c-9.4,0-17-7.6-17-17V241.8c0-9.4,7.6-17,17-17h417.5c9.4,0,17,7.6,17,17v855.7
						C1032.3,1106.9,1024.7,1114.5,1015.3,1114.5z"/>
					<g>
						<g>
							<defs>
								<path id="SVGID_8_" d="M1015.3,1114.5H597.8c-9.4,0-17-7.6-17-17V276.7c0-9.4,7.6-17,17-17h417.5c9.4,0,17,7.6,17,17v820.8
									C1032.3,1106.9,1024.7,1114.5,1015.3,1114.5z"/>
							</defs>
							<clipPath id="SVGID_9_">
								<use xlink:href="#SVGID_8_"  style="overflow:visible;"/>
							</clipPath>
							
								<linearGradient id="SVGID_10_" gradientUnits="userSpaceOnUse" x1="761.5643" y1="66.044" x2="763.5515" y2="246.2371" gradientTransform="matrix(0.9995 -3.150000e-02 -3.150000e-02 -0.9995 14.6967 1234.5682)">
								<stop  offset="5.874290e-02" style="stop-color:#FFFFFF"/>
								<stop  offset="0.2522" style="stop-color:#FDFCFD"/>
								<stop  offset="0.3883" style="stop-color:#F8F3F8"/>
								<stop  offset="0.5069" style="stop-color:#EFE3F0"/>
								<stop  offset="0.6155" style="stop-color:#E2CDE3"/>
								<stop  offset="0.7172" style="stop-color:#D1B1D3"/>
								<stop  offset="0.8138" style="stop-color:#BC8EC0"/>
								<stop  offset="0.9065" style="stop-color:#A465A8"/>
								<stop  offset="0.9937" style="stop-color:#88368E"/>
								<stop  offset="1" style="stop-color:#86328C"/>
							</linearGradient>
							<path class="st7" d="M471,1131.2l-1.4-41.3c0,0,78.4-87,209.2-26.4c142.6,66,262.5-75.5,395.2-19.4l2,57.5L471,1131.2z"/>
						</g>
						<g>
							<defs>
								<path id="SVGID_11_" d="M1015.3,1114.5H597.8c-9.4,0-17-7.6-17-17V276.7c0-9.4,7.6-17,17-17h417.5c9.4,0,17,7.6,17,17v820.8
									C1032.3,1106.9,1024.7,1114.5,1015.3,1114.5z"/>
							</defs>
							<clipPath id="SVGID_12_">
								<use xlink:href="#SVGID_11_"  style="overflow:visible;"/>
							</clipPath>
							
								<linearGradient id="SVGID_13_" gradientUnits="userSpaceOnUse" x1="900.5273" y1="-35.0223" x2="930.2161" y2="286.1595" gradientTransform="matrix(1.1821 3.010000e-02 2.550000e-02 -0.9997 -264.8865 1168.9862)">
								<stop  offset="5.874290e-02" style="stop-color:#FFFFFF"/>
								<stop  offset="0.2713" style="stop-color:#FEFCFC"/>
								<stop  offset="0.4208" style="stop-color:#FDF3F3"/>
								<stop  offset="0.5511" style="stop-color:#FAE3E3"/>
								<stop  offset="0.6702" style="stop-color:#F6CDCD"/>
								<stop  offset="0.7819" style="stop-color:#F1B1B1"/>
								<stop  offset="0.888" style="stop-color:#EA8E8E"/>
								<stop  offset="0.9878" style="stop-color:#E36565"/>
								<stop  offset="1" style="stop-color:#E26060"/>
							</linearGradient>
							<path class="st8" d="M456.7,1126.1l1.2-41.3c0,0,83.2-87.4,248.8-14.8c164.6,72.2,315.1-60.8,467.9,2.6l-1.6,57.5
								L456.7,1126.1z"/>
						</g>
					</g>
				</g>
			</g>
		</g>
		<g>
			<path class="st9" d="M932.1,995.8H687.3c-3.4,0-6.1-2.7-6.1-6.1v-53.4c0-3.4,2.7-6.1,6.1-6.1h244.9c3.4,0,6.1,2.7,6.1,6.1v53.4
				C938.2,993.1,935.5,995.8,932.1,995.8z"/>
		</g>
		<path class="st9" d="M698.2,443.6v-2.5c0-0.3,0.2-0.5,0.5-0.5h215.7c0.3,0,0.5,0.2,0.5,0.5v2.5c0,0.3-0.2,0.5-0.5,0.5H698.7
			C698.4,444.1,698.2,443.9,698.2,443.6z"/>
		<g>
			<path class="st9" d="M1032.3,250.4V221c0-33.2-26.9-60-60-60H640.8c-33.2,0-60,26.9-60,60v29.4H1032.3z"/>
		</g>
	</g>
</g>
<path class="st10" d="M2306,1175c-9.5,0-17.4-7.4-18-16.9c-0.6-9.9,6.9-18.5,16.9-19.1c0.5,0,22.1-1.7,50.5-13.3
	c38-15.5,69.8-40.5,94.5-74.4c5.9-8,17.2-9.8,25.2-3.9c8.1,5.9,9.8,17.2,3.9,25.2c-69.5,95-167.8,102.2-171.9,102.4
	C2306.7,1175,2306.3,1175,2306,1175z"/>
<path class="st10" d="M1605.1,849.4c0-9.5,7.4-17.4,16.9-18c9.9-0.6,18.5,6.9,19.1,16.8c0,0.5,1.7,22.1,13.3,50.5
	c15.5,38,40.5,69.8,74.4,94.5c8,5.9,9.8,17.2,3.9,25.2c-5.9,8.1-17.2,9.8-25.2,3.9c-95-69.5-102.2-167.8-102.4-171.9
	C1605.1,850.2,1605.1,849.8,1605.1,849.4z"/>
<path class="st10" d="M2143,137.1c7,6.3,8,17.1,2,24.6c-6.2,7.8-17.5,9.1-25.3,3c-0.4-0.3-17.5-13.5-46.5-23.9
	c-38.6-13.9-79-16.6-120-8c-9.8,2-19.3-4.2-21.4-14c-2-9.8,4.2-19.3,14-21.4c115.2-24.1,193,36.4,196.3,38.9
	C2142.4,136.6,2142.7,136.9,2143,137.1z"/>
<polygon class="st11" points="1697.4,834.3 1801.4,779.8 1840.6,882.9 1737.5,919.2 "/>
<path class="st12" d="M1730.8,829.8c0,0,32.7-6.7,46.7,0s25.8,48.1,25.8,48.1l68.6,4.9l-62.1-116.7l-64.3,30.5L1730.8,829.8z"/>
<path class="st13" d="M1755.9,443.6c-54.8,23.2-79.7,84.7-55.6,137.4l183.4,402.2c24,52.7,87.9,76.7,142.7,53.6L2560,811.1V103.5
	L1755.9,443.6z"/>
<ellipse transform="matrix(0.2289 -0.9735 0.9735 0.2289 1145.6073 2968.4934)" class="st14" cx="2446.5" cy="761.1" rx="35.1" ry="35.1"/>
<ellipse transform="matrix(0.2289 -0.9735 0.9735 0.2289 1488.9581 2477.1147)" class="st14" cx="2308" cy="298.7" rx="35.1" ry="35.1"/>
<ellipse class="st14" cx="1810" cy="562.5" rx="35.1" ry="35.1"/>
<g class="st15">
	<path class="st16" d="M2052.2,785.8l-33.5,34.2l-140.5,121.9l-22-5.1l20.4,46.4c1.9,4.3,4.1,8.4,6.4,12.3
		c16.7-4.5,37.4-11.2,46.5-18.3c16.2-12.8,89.9-116.3,89.9-116.3s21.8-13.5,24.7-20.9c2.9-7.3,8.4-39.3,10.6-44.6
		C2057.1,790.3,2052.2,785.8,2052.2,785.8z"/>
	<path class="st16" d="M1925,767c7.5-0.7,13.1-11.3,13.1-11.3l11.7-5.3l1.5-11.7l-19.6-8.3L1822,699l-68.2-14.9l-3.5,11.5l19.9,45.4
		l114.5,22.6C1884.7,763.6,1917.5,767.7,1925,767z"/>
</g>
<path class="st14" d="M2262.1,680.6l7.6,71l40.4,65.4l61.7,62.7l-255.1,111.5l-15.1-122.9l-14.6-65.5l-40.5-69.4l211.7-92.1
	c0,0,1.5,2.5,1.6,4.6C2260.1,648,2262.1,680.6,2262.1,680.6z"/>
<g>
	<path class="st17" d="M2259.1,684.7L2077.8,763c-3.6,1.6-5.3,5.8-3.8,9.5l51.7,119.6c1.6,3.6,5.8,5.3,9.5,3.8l181.3-78.3
		c3.6-1.6,5.3-5.8,3.8-9.5l-51.7-119.6C2267,684.8,2262.7,683.1,2259.1,684.7z"/>
	<path class="st18" d="M2242.4,697.9l-143.6,62c-3,1.3-4.3,4.7-3,7.7l31,71.9c1.3,3,4.7,4.3,7.7,3l143.6-62c3-1.3,4.3-4.7,3-7.7
		l-31-71.9C2248.8,697.9,2245.4,696.6,2242.4,697.9z"/>
	<path class="st19" d="M2220.9,811.9l-24.3,10.5c-3.1,1.3-4.5,4.9-3.2,8l8.7,20.1c1.3,3.1,4.9,4.5,8,3.2l24.3-10.5
		c3.1-1.3,4.5-4.9,3.2-8l-8.7-20.1C2227.5,812,2224,810.6,2220.9,811.9z"/>
	<path class="st6" d="M2252.5,640.1l-101.3,43.8l-101.3,43.8c-3.4,1.5-4.3,5.8-1.8,8.5l24.6,26.2c1.1,1.2,2.9,1.6,4.4,0.9l91.3-39.5
		l91.3-39.5c1.5-0.6,2.4-2.2,2.3-3.8l-2.2-35.9C2259.7,641,2255.9,638.7,2252.5,640.1z"/>
	<path class="st16" d="M2262.1,680.6l-2.2-35.7c-1.4-1.3-3.6-1.7-5.7-0.8l-101.3,43.8l-101.3,43.8c-2.1,0.9-3.3,2.8-3.3,4.7
		l24.5,26.1c1.1,1.2,2.9,1.6,4.4,0.9l91.3-39.5l91.3-39.5C2261.3,683.8,2262.2,682.2,2262.1,680.6z"/>
	<path class="st20" d="M2253.1,682.9l-0.7-29.5c-1.2-1-3.2-1.3-5.1-0.5l-92.3,39.9l-92.3,39.9c-1.9,0.8-3.1,2.5-3.2,4l21,20.7
		c1,0.9,2.5,1.2,3.9,0.6l83.2-36l83.2-36C2252.3,685.5,2253.2,684.2,2253.1,682.9z"/>
</g>
<path class="st21" d="M2163.4,899.2l-8.2-39.5c0,0,7.7-25.1,7.2-29.8c-0.6-4.8-9.1-34.7-9.1-34.7s-5.7-0.6-6.9,2.4s0,17.7,0,17.7
	s-4.3-4.6-5.5-7.3c-0.9-2.1-2.9-22.6-3.8-32.5c-0.3-3-2.8-5.2-5.7-5.2l0,0c-2.9,0-5.4,2.2-5.7,5l-1.5,11.6l-9.7,1.9l-4.6,10.7
	l-10.2,21.9l6.4,24.7l14.5,19.1l3,34L2163.4,899.2L2163.4,899.2z"/>
<path class="st21" d="M2301.5,840.2l-27.2-29.8c0,0-24.8-8.4-28.4-11.7c-3.5-3.3-22.8-27.7-22.8-27.7s2.8-5,6-4.2
	s14.3,10.4,14.3,10.4s-1.2-6.2-2.7-8.7c-1.1-2-16.7-15.6-24.1-22.1c-2.2-2-2.6-5.3-0.9-7.7l0,0c1.7-2.4,4.9-3.1,7.4-1.7l10.3,5.6
	l7.3-6.8l11.3,2.5l23.8,4.5l16.3,19.7l7,22.9l25.8,22.4L2301.5,840.2z"/>
<rect x="1858.2" y="712.4" transform="matrix(0.942 -0.3355 0.3355 0.942 -147.4706 698.1418)" class="st6" width="177.1" height="126.9"/>
<rect x="1856.8" y="713.4" transform="matrix(0.942 -0.3355 0.3355 0.942 -146.4372 696.698)" class="st22" width="172.6" height="117.5"/>
<rect x="1849.5" y="703.5" transform="matrix(0.942 -0.3355 0.3355 0.942 -144.9852 694.7017)" class="st6" width="177.1" height="126.9"/>
<path class="st23" d="M1863,699l20.9,8.8c0,0,23.8-5,31.7-2c7.9,3,31.4,18,33.9,19.8s6.3,10.1,6.3,11.8c0,1.8-5,9.3-10.5,9.8
	s-30.6,1.3-30.6,1.3s6.4,5.5,7.4,7c1.1,1.5,1.3,5.8,0.4,6.5c-0.9,0.8-20.2-7.5-25.8-9.3s-13.8-9-15.3-10.5s-6.6-7.3-6.6-7.3l-23-9.3
	L1863,699z"/>
<path class="st23" d="M1994.5,868.3l14.5-17.4c0,0,23.5-6.5,29.1-12.7c5.6-6.3,3.8-16.2,5.2-18.9c1.4-2.7-0.7-20.3,0.5-21.6
	c4.3-4.6,10.4-9.1,14-13.1c6.3-7,1.8-10.1-1.4-8.8c-5.1,2.1-38.7,24.9-38.7,24.9s3.1-7.8,3.4-9.7c0.3-1.8-1.5-5.7-2.6-6
	s-14.5,16-18.6,20c-4.1,4.1-8.2,14.4-8.8,16.4c-0.6,2-2.5,9.5-2.5,9.5l-16.2,18.8L1994.5,868.3z"/>
<g>
	<path class="st24" d="M2117.2,440.5l-132.1,44c-7.9,2.6-12.1,11.1-9.5,19l26.4,79.2c2.6,7.9,11.1,12.1,19,9.5l132.1-44
		c7.9-2.6,12.1-11.1,9.5-19l-26.4-79.2C2133.6,442.1,2125.1,437.9,2117.2,440.5z"/>
	<path class="st25" d="M2154.3,551.9l-132.1,44c-9.9,3.3-20.6-2.1-23.9-12l-26.4-79.2c-3.3-9.9,2.1-20.6,12-23.9l132.1-44
		c9.9-3.3,20.6,2.1,23.9,12l26.4,79.2C2169.5,537.9,2164.2,548.6,2154.3,551.9z M1992.2,486.2c-5.9,2-9,8.3-7.1,14.2l26.4,79.2
		c1.9,5.9,8.3,9,14.2,7.1l126.2-42c5.9-2,9-8.3,7.1-14.2l-26.4-79.2c-1.9-5.9-8.3-9-14.2-7.1L1992.2,486.2z"/>
	<path class="st13" d="M1997.1,540.3c0.8,2.5-0.5,5.1-3,5.9c-2.5,0.8-5.1-0.5-5.9-3s0.5-5.1,3-5.9
		C1993.6,536.5,1996.2,537.9,1997.1,540.3z"/>
</g>
<polygon class="st14" points="1875.6,390 2000.2,569 2056.3,554.8 2040.5,517.2 2008.1,508.1 1969.9,439.4 2165.5,368.1 
	2168.5,337.1 2142.7,272.7 "/>
<path class="st26" d="M2049.4,534.8l-25.8-11.8c-1.3-0.6-2.8-0.2-3.7,0.9l-0.3,0.3c-1.2,1.6-0.6,3.8,1.2,4.6l26.1,11.5
	c1.5,0.6,3.2,0.1,3.9-1.4C2051.6,537.5,2051,535.6,2049.4,534.8z"/>
<path class="st21" d="M1993.9,368.1c0,0-7.6,3.2-14.7,4.1s-16.1-3-22.2-2.1c-6,1-21.1,11.5-21.1,11.5l-5.8,14l-3.5,23.1l25.8,10.5
	c0,0,6.6,3,17.4-2.8s30.2-22.5,30.2-22.5l13-6.8L1993.9,368.1z"/>
<path class="st21" d="M2012,498.5l17.6,6.1c0,0,9.2,9.9,10.9,12.6c1.7,2.7,0,10.9,0,10.9s6.1,6.1,5.8,11.9
	c-0.3,5.8-9.6,13.6-21.1,14s-23.8,1.7-26.6,0c-2.7-1.7-15.7-27.8-15.7-27.8l-18.4-25.4l35.8-17.4L2012,498.5z"/>
<path class="st27" d="M1639,864.6c0,0-5.7-60.3,7.9-79.1c13.7-18.8,87.7-148.8,93.9-154c6.3-5.2,137.4,67.1,137.4,67.1
	s-14.7,34.5-16.3,35.2c-1.5,0.7-98.7-34.7-98.7-34.7l-16.9,54.3l25.2-9.7l22.6,51.4c0,0-26.8,16.8-72.2,39.2
	C1676.4,856.7,1639,864.6,1639,864.6z"/>
<path class="st27" d="M1689.6,963.1c-0.6,1.6,65.2,50,90.7,41.3c25.4-8.7,124.4-33.3,137.9-42.9c13.5-9.6,87.7-97.7,87.7-97.7
	l-23.6-28.7L1904,906l-54,16.7l-25.5-58.1C1824.5,864.6,1715.1,897.6,1689.6,963.1z"/>
<path class="st28" d="M2112.1,886.5l58.4-7.8l22,79.7l149.2-65.5l-51.8-51.2l35.5-43.2l114.7,94.2c0,0,33.6,99.2,32.7,110.1
	c-0.9,11-40.7,94.3-101.1,122.4c-60.4,28.1-142.2-8.3-153.1-10.8c-10.9-2.5-75.4-84.4-76.6-87.2
	C2140.9,1024.5,2112.1,886.5,2112.1,886.5z"/>
<g>
	<path class="st29" d="M2172,329.5c-7.4-39.6-10.8-128.3-18.2-140.9c-9.7-16.5-32-39.6-67.3-53.3c0,0-150.8-13-185.4,8.2
		c-34.6,21.3-47.1,208.1-47.1,216.6c0.1,8.5,116.2,156.3,116.2,156.3l36.8-28.9L1932.5,365l165.6-72.7l3,20.6l-115.6,53.3l22.9,41
		l148.1-51.3C2167.5,352.3,2174.1,341,2172,329.5z"/>
	<polygon class="st30" points="1987.9,502.5 1973.9,505.4 1854.9,362.5 1970.2,516.3 	"/>
	<path class="st30" d="M2172.1,337.1c-0.3,0.4-7.3,10-17.9,14.1c-10.9,4.1-138.9,43.3-138.9,43.3l-15.1-1.8l8.2,14.7l148.1-51.3
		C2165,353.1,2170.9,345.6,2172.1,337.1z"/>
	<path class="st30" d="M1932.5,365l23.7-175.3c0,0,68.2-7,87.3,0s47.6,19.8,47.6,19.8l7,82.8L1932.5,365z"/>
	<path class="st30" d="M1912.1,156.1c0,0,36.1,44.2,36.8,87.6c0.8,43.4,14.8,25.3,14.8,25.3l-7.5-79.3
		C1956.2,189.7,1937.7,164.1,1912.1,156.1z"/>
	<path class="st30" d="M2092.6,227.8c0,0-8-46.6,14.6-69.2c0,0-28.6,12.5-37.1,45.2S2092.6,227.8,2092.6,227.8z"/>
</g>
<g>
	<path class="st21" d="M2060.9,194.9c1.2-0.4-0.9,31.8-0.9,31.8l-10.6,16.5c0,0-24.6,17.5-29.2,19.7c-4.6,2.1-31.4,2.5-31.4,2.5
		s-8,3.8-11.8,2.1c-3.8-1.8-7.8-15.1-7.8-15.1s-14.9-8-14.3-38.8c0.5-30.7,39.6-44.2,39.6-44.2L2060.9,194.9z"/>
	<path class="st21" d="M1965.3,137.8c0,0-9.1-3.7-14.3,3.2c-5.2,7,3.6,19.9,3.6,19.9L1965.3,137.8z"/>
	<path class="st21" d="M2086.5,196.4c0,0,6.8,1.9,6.8,7.6c0.1,5.7-13.1,19.6-22.2,18.6S2086.5,196.4,2086.5,196.4z"/>
	<path class="st31" d="M1950.6,203.9c0,0-5.1-55.6,13-82c18.2-26.4,38-31,38-31s18.8-12.3,42.6-3.9c23.7,8.4,44.4,30.4,52,53.7
		c7.6,23.2-3.4,56.9-16.2,73.3s-30.6,29.2-30.6,29.2s7.3-21.6-1.2-22.9c0,0-34.4,26.1-57.4,24.7c-23-1.4-27.4-6.1-27.4-6.1
		s28.1-6.7,39.8-16.4c0,0-32.8,9.8-47.7,9.4l11.1-13.9l-7.6,3.7C1958.8,221.5,1951.1,214.7,1950.6,203.9z"/>
</g>
<path class="st32" d="M1767.3,903.9c0,0,3.1,12.4-2.5,21.1c-5.5,8.7-16.1,10.5-23.1,20.3s-20.8,29-40.1,29.4
	c-19.3,0.4-33.9-19.9-45.2-24.2c-11.3-4.3-40.1,3.8-49.2-14.3c-9-18.1,12.3-48.4-1.8-64c-14-15.6-12-34.2-4-43.1
	c13-14.5,30.1-15.9,49.9-4.6c19.8,11.3,31.1,2.9,40.1-0.1s24.3-4.1,30.1-1.6c5.8,2.6,9.7,12.7,9.7,12.7L1767.3,903.9z"/>
<path class="st33" d="M1771.4,743.7l-25.2,9.7l-15.4,39.1c0,0,24.5-3.4,30.1,0c2.6,1.6,7.5,8.3,11.9,15
	c13.7-7.7,21.2-12.4,21.2-12.4L1771.4,743.7z"/>
<path class="st33" d="M1824.5,864.6c0,0-6.7,2-17.3,6.1c4.6,10.5,11.3,28.3,9.7,38.9c-2.3,15.8-23,27.8-23,27.8l56-14.7
	L1824.5,864.6z"/>
<path class="st23" d="M2263.7,1025.4c0,0-10-27.1,0.2-43.1c11.9-18.6,44.4-30.7,65-22.8c30.2,11.6,28.1,21.4,28.1,21.4
	L2263.7,1025.4z"/>
<path class="st34" d="M2371.7,983.4c0,0-21.8-23.6-54.3-18.4c-32.5,5.2-39.7,12-39.7,12l8.4-0.2l-15.1,11.5c0,0-17.8,29.2-17.4,49.9
	c0.5,20.7,10.3,34,10.3,34s3.8,20.3,13.4,29s32.7,17.9,50.1,16.1c17.4-1.8,32.6-11,32.6-11s14.8-1,25.9-14.2
	c11.1-13.2,10.2-27.5,10.2-27.5s10.5-13.1,11.1-20.8s-5.3-27.2-5.3-27.2S2394.6,984.6,2371.7,983.4z"/>
<path class="st35" d="M2192.5,958.5l9.1,37.3l24.8,29.7c0,0,6.8-41.6,39.1-68.3c32.4-26.8,88.8-20,97.1-19.6s39.9,37.3,39.9,37.3
	l-17.3-46.1l-43.5-35.7L2192.5,958.5z"/>
<path class="st35" d="M2462.9,1027.2c0,0-61.1,78.6-117.5,94.2c-49.4,13.6-109.5-2-123.6-6.1c18.5,6.2,93.6,36.2,150,9.9
	C2414.8,1105.2,2447.3,1057.2,2462.9,1027.2z"/>
<path class="st26" d="M2035.3,528.2l-28.7-13.2c-1.4-0.7-3.2-0.2-4.1,1l-0.3,0.4c-1.3,1.7-0.7,4.3,1.3,5.1l29,12.8
	c1.6,0.7,3.5,0.1,4.4-1.5C2037.8,531.1,2037.1,529,2035.3,528.2z"/>
<rect x="2234.2" y="491.8" class="st6" width="177.1" height="126.9"/>
<rect x="2234.2" y="491.8" class="st22" width="172.6" height="117.5"/>
<rect x="2228.9" y="480.5" class="st6" width="177.1" height="126.9"/>
<rect x="2256.7" y="362.5" transform="matrix(0.9883 -0.1525 0.1525 0.9883 -37.5262 362.6332)" class="st6" width="177.1" height="126.9"/>
<rect x="2256" y="362.9" transform="matrix(0.9883 -0.1525 0.1525 0.9883 -36.9059 362.1332)" class="st22" width="172.6" height="117.5"/>
<rect x="2249.8" y="352.1" transform="matrix(0.9883 -0.1525 0.1525 0.9883 -36.0213 361.4582)" class="st6" width="177.1" height="126.9"/>
<g>
	<path class="st36" d="M1769.5,577.2c1.5,2.5,4.8,3.3,7.3,1.7l18.3-11.4l-5.6-9l-18.3,11.4C1768.7,571.5,1767.9,574.7,1769.5,577.2z
		"/>
	<ellipse class="st36" cx="1812.1" cy="550.8" rx="32.6" ry="32.6"/>
	<path class="st25" d="M1782,545.4c0.4-3.1,1.3-6.1,2.6-8.9c1.4-2.8,3.1-5.4,5.3-7.7c4.4-4.5,10.2-7.7,16.4-8.9
		c0.8-0.1,1.6-0.2,2.4-0.3s1.6-0.1,2.4-0.1c0.4,0,0.8,0,1.2,0h1.2c0.8,0,1.6,0.1,2.4,0.2c3.1,0.4,6.2,1.3,9,2.6s5.5,3.1,7.7,5.3
		s4.2,4.6,5.6,7.4c-3.5-5.1-8.4-9.1-13.9-11.4c-5.5-2.4-11.8-3-17.7-1.9c-5.9,1.1-11.4,4-15.8,8.2
		C1786.5,533.9,1783.4,539.4,1782,545.4z"/>
	<circle class="st37" cx="1812.1" cy="550.8" r="26.4"/>
	<path class="st38" d="M1786.8,558.3c3.2,10.9,13.3,18.9,25.3,18.9c13.4,0,24.4-9.9,26.1-22.8c-3.2-10.9-13.3-18.9-25.3-18.9
		C1799.6,535.5,1788.5,545.4,1786.8,558.3z"/>
	<g class="st39">
		<path class="st25" d="M1830.5,539.2c-0.1-0.2-0.4-0.3-0.6-0.1c-0.2,0.1-0.3,0.4-0.1,0.6c2.1,3.3,3.2,7.2,3.2,11.2
			c0,11.5-9.4,20.9-20.9,20.9c-1.1,0-2.2-0.1-3.3-0.3c-0.2,0-0.4,0.1-0.5,0.3c0,0.2,0.1,0.4,0.3,0.5c1.1,0.2,2.3,0.3,3.5,0.3
			c12,0,21.8-9.8,21.8-21.8C1833.8,546.7,1832.7,542.6,1830.5,539.2z"/>
		<path class="st25" d="M1799.8,533.8c0.2-0.1,0.2-0.4,0.1-0.6c-0.1-0.2-0.4-0.2-0.6-0.1c-5.6,4.1-9,10.7-9,17.6
			c0,5.4,2,10.6,5.6,14.6c0.1,0.1,0.2,0.1,0.3,0.1c0.1,0,0.2,0,0.3-0.1c0.2-0.2,0.2-0.4,0-0.6c-3.5-3.8-5.4-8.8-5.4-14
			C1791.2,544.1,1794.4,537.8,1799.8,533.8z"/>
		<path class="st25" d="M1812.1,537.3c0.7,0,1.3,0,2,0.1c0.2,0,0.4-0.1,0.5-0.4c0-0.2-0.1-0.4-0.4-0.5c-0.7-0.1-1.4-0.2-2.1-0.2
			c-7.9,0-14.4,6.4-14.4,14.4c0,0.7,0.1,1.4,0.1,2.1c0,0.2,0.2,0.4,0.4,0.4c0,0,0,0,0.1,0c0.2,0,0.4-0.2,0.4-0.5
			c-0.1-0.6-0.1-1.3-0.1-2C1798.6,543.3,1804.6,537.3,1812.1,537.3z"/>
		<path class="st25" d="M1822.6,560.6c0.2-0.2,0.1-0.4,0-0.6c-0.2-0.2-0.4-0.1-0.6,0c-2.5,2.7-6.1,4.3-9.9,4.3s-7.4-1.6-10-4.4
			c-0.2-0.2-0.4-0.2-0.6,0s-0.2,0.4,0,0.6c2.7,3,6.6,4.6,10.6,4.6C1816,565.1,1819.9,563.5,1822.6,560.6z"/>
		<path class="st25" d="M1818.2,538.7c4.6,2.3,7.4,6.9,7.4,12.1c0,0.3,0,0.7,0,1c0,0.2,0.2,0.4,0.4,0.5l0,0c0.2,0,0.4-0.2,0.4-0.4
			c0-0.4,0-0.7,0-1.1c0-5.4-3-10.3-7.9-12.8c-0.2-0.1-0.5,0-0.6,0.2C1817.9,538.4,1818,538.6,1818.2,538.7z"/>
		<path class="st25" d="M1812.1,561.9c3.9,0,7.5-2,9.5-5.4c0.1-0.2,0.1-0.5-0.1-0.6s-0.5-0.1-0.6,0.1c-1.9,3.1-5.2,5-8.8,5
			c-0.2,0-0.4,0.2-0.4,0.4C1811.7,561.7,1811.9,561.9,1812.1,561.9z"/>
		<path class="st25" d="M1819.4,543.5c0.2,0.2,0.4,0.2,0.6,0s0.2-0.4,0-0.6c-2.1-2.1-4.9-3.3-7.9-3.3c-3.9,0-7.6,2.1-9.6,5.5
			c-0.1,0.2,0,0.5,0.2,0.6c0.1,0,0.1,0.1,0.2,0.1s0.3-0.1,0.4-0.2c1.8-3.2,5.3-5.1,8.9-5.1C1814.8,540.5,1817.4,541.6,1819.4,543.5z
			"/>
	</g>
</g>
<g>
	<path class="st36" d="M2341.9,253.2c-2.1-2.1-5.4-2.1-7.5,0l-15.3,15.3l7.5,7.5l15.3-15.3C2344,258.6,2344,255.3,2341.9,253.2z"/>
	
		<ellipse transform="matrix(0.2306 -0.9731 0.9731 0.2306 1491.9979 2466.3662)" class="st36" cx="2305.6" cy="289.7" rx="32.6" ry="32.6"/>
	<path class="st25" d="M2275.4,284.4c0.4-3.1,1.3-6.1,2.6-8.9c1.4-2.8,3.1-5.4,5.3-7.7c4.4-4.5,10.2-7.7,16.4-8.9
		c0.8-0.1,1.6-0.2,2.4-0.3c0.8-0.1,1.6-0.1,2.4-0.1c0.4,0,0.8,0,1.2,0h1.2c0.8,0,1.6,0.1,2.4,0.2c3.1,0.4,6.2,1.3,9,2.6
		c2.8,1.3,5.5,3.1,7.7,5.3c2.2,2.2,4.2,4.6,5.6,7.4c-3.5-5.1-8.4-9.1-13.9-11.4c-5.5-2.4-11.8-3-17.7-1.9s-11.4,4-15.8,8.2
		C2280,273,2276.9,278.4,2275.4,284.4z"/>
	<circle class="st37" cx="2305.5" cy="289.8" r="26.4"/>
	<path class="st38" d="M2280.2,297.3c3.2,10.9,13.3,18.9,25.3,18.9c13.4,0,24.4-9.9,26.1-22.8c-3.2-10.9-13.3-18.9-25.3-18.9
		C2293,274.5,2282,284.4,2280.2,297.3z"/>
	<g class="st39">
		<path class="st25" d="M2323.9,278.2c-0.1-0.2-0.4-0.3-0.6-0.1c-0.2,0.1-0.3,0.4-0.1,0.6c2.1,3.3,3.2,7.2,3.2,11.2
			c0,11.5-9.4,20.9-20.9,20.9c-1.1,0-2.2-0.1-3.3-0.3c-0.2,0-0.4,0.1-0.5,0.3c0,0.2,0.1,0.4,0.3,0.5c1.1,0.2,2.3,0.3,3.5,0.3
			c12,0,21.8-9.8,21.8-21.8C2327.3,285.7,2326.1,281.7,2323.9,278.2z"/>
		<path class="st25" d="M2293.3,272.9c0.2-0.1,0.2-0.4,0.1-0.6c-0.1-0.2-0.4-0.2-0.6-0.1c-5.6,4.1-9,10.7-9,17.6
			c0,5.4,2,10.6,5.6,14.6c0.1,0.1,0.2,0.1,0.3,0.1s0.2,0,0.3-0.1c0.2-0.2,0.2-0.4,0-0.6c-3.5-3.8-5.4-8.8-5.4-14
			C2284.6,283.1,2287.8,276.8,2293.3,272.9z"/>
		<path class="st25" d="M2305.5,276.3c0.7,0,1.3,0.1,2,0.1c0.2,0,0.4-0.1,0.5-0.4c0-0.2-0.1-0.4-0.4-0.5c-0.7-0.1-1.4-0.2-2.1-0.2
			c-7.9,0-14.4,6.4-14.4,14.4c0,0.7,0.1,1.4,0.1,2.1c0,0.2,0.2,0.4,0.4,0.4c0,0,0,0,0.1,0c0.2,0,0.4-0.2,0.4-0.5
			c-0.1-0.6-0.1-1.3-0.1-2C2292,282.4,2298.1,276.3,2305.5,276.3z"/>
		<path class="st25" d="M2316,299.6c0.2-0.2,0.1-0.4,0-0.6c-0.2-0.2-0.4-0.1-0.6,0c-2.5,2.7-6.1,4.3-9.9,4.3c-3.8,0-7.4-1.6-10-4.4
			c-0.2-0.2-0.4-0.2-0.6,0c-0.2,0.2-0.2,0.4,0,0.6c2.7,3,6.6,4.6,10.6,4.6C2309.5,304.2,2313.3,302.5,2316,299.6z"/>
		<path class="st25" d="M2311.6,277.8c4.6,2.3,7.4,6.9,7.4,12.1c0,0.3,0,0.7,0,1c0,0.2,0.2,0.4,0.4,0.4l0,0c0.2,0,0.4-0.2,0.4-0.4
			c0-0.4,0-0.7,0-1.1c0-5.4-3-10.3-7.9-12.8c-0.2-0.1-0.5,0-0.6,0.2C2311.3,277.4,2311.4,277.7,2311.6,277.8z"/>
		<path class="st25" d="M2305.5,301c3.9,0,7.5-2,9.5-5.4c0.1-0.2,0.1-0.5-0.1-0.6c-0.2-0.1-0.5-0.1-0.6,0.1c-1.9,3.1-5.2,5-8.8,5
			c-0.2,0-0.4,0.2-0.4,0.4C2305.1,300.8,2305.3,301,2305.5,301z"/>
		<path class="st25" d="M2312.8,282.5c0.2,0.2,0.4,0.2,0.6,0c0.2-0.2,0.2-0.4,0-0.6c-2.1-2.1-4.9-3.3-7.9-3.3
			c-3.9,0-7.6,2.1-9.6,5.5c-0.1,0.2,0,0.5,0.2,0.6c0.1,0,0.1,0.1,0.2,0.1c0.1,0,0.3-0.1,0.4-0.2c1.8-3.2,5.3-5.1,8.9-5.1
			C2308.3,279.5,2310.9,280.6,2312.8,282.5z"/>
	</g>
</g>
<g>
	<path class="st36" d="M2470.8,791.5c2.5-1.6,3.2-4.8,1.6-7.3l-11.6-18.2l-9,5.7l11.6,18.2C2465.1,792.3,2468.4,793.1,2470.8,791.5z
		"/>
	
		<ellipse transform="matrix(0.2306 -0.9731 0.9731 0.2306 1154.2595 2952.4712)" class="st36" cx="2444.1" cy="746.4" rx="32.6" ry="32.6"/>
	<path class="st25" d="M2413.8,741.1c0.4-3.1,1.3-6.1,2.6-8.9c1.4-2.8,3.1-5.4,5.3-7.7c4.4-4.5,10.2-7.7,16.4-8.9
		c0.8-0.1,1.6-0.2,2.4-0.3c0.8-0.1,1.6-0.1,2.4-0.1c0.4,0,0.8,0,1.2,0h1.2c0.8,0,1.6,0.1,2.4,0.2c3.1,0.4,6.2,1.3,9,2.6
		s5.5,3.1,7.7,5.3s4.2,4.6,5.6,7.4c-3.5-5.1-8.4-9.1-13.9-11.4c-5.5-2.4-11.8-3-17.7-1.9s-11.4,4-15.8,8.2
		C2418.4,729.6,2415.3,735.1,2413.8,741.1z"/>
	<circle class="st37" cx="2444" cy="746.5" r="26.4"/>
	<path class="st38" d="M2418.7,754c3.2,10.9,13.3,18.9,25.3,18.9c13.4,0,24.4-9.9,26.1-22.8c-3.2-10.9-13.3-18.9-25.3-18.9
		C2431.4,731.2,2420.4,741.1,2418.7,754z"/>
	<g class="st39">
		<path class="st25" d="M2462.3,734.8c-0.1-0.2-0.4-0.3-0.6-0.1c-0.2,0.1-0.3,0.4-0.1,0.6c2.1,3.3,3.2,7.2,3.2,11.2
			c0,11.5-9.4,20.9-20.9,20.9c-1.1,0-2.2-0.1-3.3-0.3c-0.2,0-0.4,0.1-0.5,0.3c0,0.2,0.1,0.4,0.3,0.5c1.1,0.2,2.3,0.3,3.5,0.3
			c12,0,21.8-9.8,21.8-21.8C2465.7,742.3,2464.5,738.3,2462.3,734.8z"/>
		<path class="st25" d="M2431.7,729.5c0.2-0.1,0.2-0.4,0.1-0.6c-0.1-0.2-0.4-0.2-0.6-0.1c-5.6,4.1-9,10.7-9,17.6
			c0,5.4,2,10.6,5.6,14.6c0.1,0.1,0.2,0.1,0.3,0.1s0.2,0,0.3-0.1c0.2-0.2,0.2-0.4,0-0.6c-3.5-3.8-5.4-8.8-5.4-14
			C2423,739.8,2426.3,733.5,2431.7,729.5z"/>
		<path class="st25" d="M2444,733c0.7,0,1.3,0.1,2,0.1c0.2,0,0.4-0.1,0.5-0.4c0-0.2-0.1-0.4-0.4-0.5c-0.7-0.1-1.4-0.2-2.1-0.2
			c-7.9,0-14.4,6.4-14.4,14.4c0,0.7,0.1,1.4,0.1,2.1c0,0.2,0.2,0.4,0.4,0.4c0,0,0,0,0.1,0c0.2,0,0.4-0.2,0.4-0.5
			c-0.1-0.6-0.1-1.3-0.1-2C2430.4,739,2436.5,733,2444,733z"/>
		<path class="st25" d="M2454.4,756.3c0.2-0.2,0.1-0.4,0-0.6c-0.2-0.2-0.4-0.1-0.6,0c-2.5,2.7-6.1,4.3-9.9,4.3
			c-3.8,0-7.4-1.6-10-4.4c-0.2-0.2-0.4-0.2-0.6,0c-0.2,0.2-0.2,0.4,0,0.6c2.7,3,6.6,4.6,10.6,4.6
			C2447.9,760.8,2451.7,759.2,2454.4,756.3z"/>
		<path class="st25" d="M2450.1,734.4c4.6,2.3,7.4,6.9,7.4,12.1c0,0.3,0,0.7,0,1c0,0.2,0.2,0.4,0.4,0.5l0,0c0.2,0,0.4-0.2,0.4-0.4
			c0-0.4,0-0.7,0-1.1c0-5.4-3-10.3-7.9-12.8c-0.2-0.1-0.5,0-0.6,0.2S2449.9,734.3,2450.1,734.4z"/>
		<path class="st25" d="M2444,757.6c3.9,0,7.5-2,9.5-5.4c0.1-0.2,0.1-0.5-0.1-0.6c-0.2-0.1-0.5-0.1-0.6,0.1c-1.9,3.1-5.2,5-8.8,5
			c-0.2,0-0.4,0.2-0.4,0.4C2443.5,757.4,2443.7,757.6,2444,757.6z"/>
		<path class="st25" d="M2451.2,739.2c0.2,0.2,0.4,0.2,0.6,0c0.2-0.2,0.2-0.4,0-0.6c-2.1-2.1-4.9-3.3-7.9-3.3
			c-3.9,0-7.6,2.1-9.6,5.5c-0.1,0.2,0,0.5,0.2,0.6c0.1,0,0.1,0.1,0.2,0.1c0.1,0,0.3-0.1,0.4-0.2c1.8-3.2,5.3-5.1,8.9-5.1
			C2446.7,736.2,2449.3,737.3,2451.2,739.2z"/>
	</g>
</g>
<path class="st23" d="M1783.9,864.6c-0.7-1.8-5.1-2.5-9.4-2.7c-16.2-30.1-57.3-31.1-57.3-31.1s-3.3,12.9,14.2,34.3
	c17.5,21.4,17.4,63.7,17.4,63.7s9.2-4.9,18.5-15.2c7.8-8.6,15.5-21.2,12.2-37.8C1782.1,871.4,1784.7,866.5,1783.9,864.6z"/>
<path class="st40" d="M2179.7,892.5l-4.1-14.8c-1-3.7-4.7-6.2-8.5-5.7l-51.3,6.5c-4.6,0.6-7.7,5.1-6.6,9.6l3.8,16
	c0.9,3.9,4.7,6.5,8.8,5.9l51.5-7.7C2177.9,901.6,2180.9,897,2179.7,892.5z"/>
<path class="st40" d="M2272.7,833.7l12,9.6c3,2.4,7.4,2.3,10.2-0.4l37.7-35.3c3.4-3.2,3.3-8.6-0.2-11.6l-12.4-10.7
	c-3.1-2.6-7.7-2.5-10.6,0.3l-37.3,36.4C2268.8,825.3,2269,830.8,2272.7,833.7z"/>
</svg>
