<?xml version="1.0" encoding="utf-8"?>
<!-- Generator: Adobe Illustrator 24.0.1, SVG Export Plug-In . SVG Version: 6.00 Build 0)  -->
<svg version="1.1" id="Layer_1" xmlns="http://www.w3.org/2000/svg" xmlns:xlink="http://www.w3.org/1999/xlink" x="0px" y="0px"
	 viewBox="0 0 2560 1200" style="enable-background:new 0 0 2560 1200;" xml:space="preserve">
<style type="text/css">
	.st0{fill:#FFFFFF;}
	.st1{opacity:0.38;}
	.st2{opacity:0.17;enable-background:new    ;}
	.st3{fill:#F2F5F7;}
	.st4{clip-path:url(#SVGID_9_);}
	.st5{clip-path:url(#SVGID_14_);fill:url(#SVGID_17_);}
	.st6{opacity:0.16;fill:url(#SVGID_19_);enable-background:new    ;}
	.st7{opacity:0.37;}
	.st8{fill-rule:evenodd;clip-rule:evenodd;fill:#086078;}
	.st9{fill-rule:evenodd;clip-rule:evenodd;fill:#F7F7F7;}
	.st10{fill-rule:evenodd;clip-rule:evenodd;fill:#10A1A1;}
	.st11{opacity:0.21;clip-path:url(#SVGID_21_);fill-rule:evenodd;clip-rule:evenodd;fill:#360000;enable-background:new    ;}
	.st12{opacity:9.000000e-02;enable-background:new    ;}
	.st13{fill:#EFBF87;}
	.st14{clip-path:url(#SVGID_24_);}
	.st15{clip-path:url(#SVGID_25_);fill:url(#SVGID_26_);}
	.st16{opacity:0.88;fill:url(#SVGID_27_);enable-background:new    ;}
	.st17{clip-path:url(#SVGID_30_);}
	.st18{clip-path:url(#SVGID_31_);fill:url(#SVGID_32_);}
	.st19{opacity:0.31;fill:url(#SVGID_33_);enable-background:new    ;}
	.st20{fill:url(#SVGID_34_);}
	.st21{fill:url(#SVGID_35_);}
	.st22{clip-path:url(#SVGID_38_);}
	.st23{clip-path:url(#SVGID_39_);fill:url(#SVGID_40_);}
	.st24{fill:url(#SVGID_41_);}
	.st25{clip-path:url(#SVGID_44_);}
	.st26{clip-path:url(#SVGID_45_);fill:url(#SVGID_46_);}
	.st27{opacity:0.32;fill:#FFFFFF;enable-background:new    ;}
	.st28{fill:#E64047;}
	.st29{opacity:0.49;fill:#BD151D;enable-background:new    ;}
	.st30{fill:#AEAEB3;}
	.st31{fill:#E2E2E8;}
	.st32{fill:#7F7F82;}
	.st33{fill:#717173;}
	.st34{clip-path:url(#SVGID_49_);}
	.st35{clip-path:url(#SVGID_50_);fill:url(#SVGID_51_);}
	.st36{opacity:3.000000e-02;fill:url(#SVGID_52_);enable-background:new    ;}
	.st37{clip-path:url(#SVGID_55_);}
	.st38{clip-path:url(#SVGID_56_);fill:url(#SVGID_57_);}
	.st39{opacity:3.000000e-02;fill:url(#SVGID_58_);enable-background:new    ;}
	.st40{fill:#05091B;}
	.st41{fill:#D6F2F5;}
	.st42{fill:#CB0111;}
	.st43{fill:#303024;}
	.st44{fill:#403F34;}
	.st45{fill:#91A678;}
	.st46{fill:#CAE8A5;}
	.st47{opacity:0.51;}
	.st48{clip-path:url(#SVGID_60_);fill:#FFFFFF;}
	.st49{clip-path:url(#SVGID_62_);fill:#FFFFFF;}
	.st50{opacity:0.43;fill:#001C5C;enable-background:new    ;}
	.st51{fill:#4F4F4F;}
	.st52{fill:#8C5F79;}
	.st53{fill-rule:evenodd;clip-rule:evenodd;fill:#333333;}
	.st54{fill-rule:evenodd;clip-rule:evenodd;fill:#666666;}
	.st55{fill-rule:evenodd;clip-rule:evenodd;fill:#DB1F21;}
	.st56{opacity:0.17;fill-rule:evenodd;clip-rule:evenodd;enable-background:new    ;}
	.st57{opacity:0.55;fill-rule:evenodd;clip-rule:evenodd;enable-background:new    ;}
	.st58{fill-rule:evenodd;clip-rule:evenodd;fill:#C4C4C4;}
	.st59{fill-rule:evenodd;clip-rule:evenodd;fill:#F5F5F5;}
	.st60{fill:#586066;}
	.st61{fill-rule:evenodd;clip-rule:evenodd;fill:#C5D5D9;}
	.st62{fill:#C3D82E;}
	.st63{opacity:0.13;enable-background:new    ;}
	.st64{fill:#2E2E2E;}
	.st65{fill:#333333;}
	.st66{fill:#1C1C1C;}
	.st67{fill:#3B3B3B;}
	.st68{clip-path:url(#SVGID_65_);}
	.st69{clip-path:url(#SVGID_66_);fill:url(#SVGID_67_);}
	.st70{opacity:0.23;fill:url(#SVGID_68_);enable-background:new    ;}
	.st71{opacity:0.11;}
	.st72{fill:#D1D1D1;}
	.st73{clip-path:url(#SVGID_71_);}
	.st74{clip-path:url(#SVGID_72_);fill:url(#SVGID_73_);}
	.st75{opacity:0.23;fill:url(#SVGID_74_);enable-background:new    ;}
	.st76{opacity:0.23;}
	.st77{clip-path:url(#SVGID_77_);}
	.st78{clip-path:url(#SVGID_78_);fill:url(#SVGID_79_);}
	.st79{fill:url(#SVGID_80_);}
	.st80{fill:#A7CCCC;}
	.st81{fill:#95B8B8;}
	.st82{opacity:0.15;enable-background:new    ;}
	.st83{fill:#ADD4D4;}
	.st84{fill:#F0F6F7;}
	.st85{fill:#3C5B61;}
	.st86{opacity:0.71;fill:#B4D9DE;enable-background:new    ;}
	.st87{opacity:2.000000e-02;fill:#FFFFFF;enable-background:new    ;}
	.st88{opacity:0.16;clip-path:url(#SVGID_82_);enable-background:new    ;}
	.st89{fill:#E6E6E6;}
	.st90{fill:#304A59;}
	.st91{fill:#C2C9BF;}
	.st92{fill:#EFF7EB;}
	.st93{fill:#E3EBDF;}
	.st94{clip-path:url(#SVGID_85_);}
	.st95{clip-path:url(#SVGID_86_);fill:url(#SVGID_87_);}
	.st96{opacity:0.25;fill:url(#SVGID_88_);enable-background:new    ;}
	.st97{clip-path:url(#SVGID_91_);}
	.st98{clip-path:url(#SVGID_92_);fill:url(#SVGID_93_);}
	.st99{opacity:0.72;fill:url(#SVGID_94_);enable-background:new    ;}
	.st100{fill:#E1E8DC;}
	.st101{fill:#C1C7BD;}
	.st102{fill:#E3E3E3;}
	.st103{fill:#CFB076;}
	.st104{fill:#54421A;}
	.st105{fill:#422E00;}
	.st106{clip-path:url(#SVGID_97_);}
	.st107{clip-path:url(#SVGID_98_);fill:url(#SVGID_99_);}
	.st108{opacity:0.5;fill:url(#SVGID_100_);enable-background:new    ;}
</style>
<rect class="st0" width="2560" height="1200"/>
<g class="st1">
	<path class="st0" d="M2258.7,292c-2.4,0-4.3-1.9-4.3-4.3v-34.8c0-2.4,1.9-4.3,4.3-4.3s4.3,1.9,4.3,4.3v34.8
		C2263.1,290,2261.1,292,2258.7,292z"/>
	<path class="st0" d="M2276.2,274.6h-34.8c-2.4,0-4.3-1.9-4.3-4.3s1.9-4.3,4.3-4.3h34.8c2.4,0,4.3,1.9,4.3,4.3
		C2280.5,272.6,2278.6,274.6,2276.2,274.6z"/>
	<path class="st0" d="M1146.6,394.8c-2.4,0-4.3-1.9-4.3-4.3v-29.8c0-2.4,1.9-4.3,4.3-4.3s4.3,1.9,4.3,4.3v29.8
		C1150.9,392.9,1149,394.8,1146.6,394.8z"/>
	<path class="st0" d="M1161.5,379.9h-29.8c-2.4,0-4.3-1.9-4.3-4.3s1.9-4.3,4.3-4.3h29.8c2.4,0,4.3,1.9,4.3,4.3
		S1163.9,379.9,1161.5,379.9z"/>
	<path class="st0" d="M1179,1056.4c-2.2,0-4-1.8-4-4v-27.7c0-2.2,1.8-4,4-4s4,1.8,4,4v27.7C1183,1054.6,1181.2,1056.4,1179,1056.4z"
		/>
	<path class="st0" d="M1192.8,1042.5h-27.7c-2.2,0-4-1.8-4-4s1.8-4,4-4h27.7c2.2,0,4,1.8,4,4S1195,1042.5,1192.8,1042.5z"/>
	<path class="st0" d="M1754.2,273c-2.4,0-4.3-1.9-4.3-4.3v-29.8c0-2.4,1.9-4.3,4.3-4.3s4.3,1.9,4.3,4.3v29.8
		C1758.5,271,1756.6,273,1754.2,273z"/>
	<path class="st0" d="M1769.1,258.1h-29.8c-2.4,0-4.3-1.9-4.3-4.3s1.9-4.3,4.3-4.3h29.8c2.4,0,4.3,1.9,4.3,4.3
		S1771.5,258.1,1769.1,258.1z"/>
	<path class="st0" d="M1311.3,227.4c-7.9,0-14.4-6.5-14.4-14.4s6.5-14.4,14.4-14.4s14.4,6.5,14.4,14.4
		C1325.7,221,1319.3,227.4,1311.3,227.4z M1311.3,207.3c-3.2,0-5.8,2.6-5.8,5.8s2.6,5.8,5.8,5.8c3.2,0,5.8-2.6,5.8-5.8
		C1317.1,209.8,1314.5,207.3,1311.3,207.3z"/>
	<path class="st0" d="M2356.3,450.3c-7.9,0-14.4-6.5-14.4-14.4s6.5-14.4,14.4-14.4s14.4,6.5,14.4,14.4
		C2370.7,443.9,2364.3,450.3,2356.3,450.3z M2356.3,430.2c-3.2,0-5.8,2.6-5.8,5.8c0,3.2,2.6,5.8,5.8,5.8s5.8-2.6,5.8-5.8
		C2362.1,432.7,2359.5,430.2,2356.3,430.2z"/>
	<path class="st0" d="M1236,490.1c-4.9,0-9-4-9-9s4-9,9-9c4.9,0,9,4,9,9S1241,490.1,1236,490.1z"/>
	<path class="st0" d="M1074.9,753.7c-2.7,0-4.9-2.2-4.9-4.9s2.2-4.9,4.9-4.9c2.7,0,4.9,2.2,4.9,4.9S1077.6,753.7,1074.9,753.7z"/>
	<path class="st0" d="M2012.6,1086.3c-4.9,0-9-4-9-9s4-9,9-9c4.9,0,9,4,9,9C2021.6,1082.2,2017.6,1086.3,2012.6,1086.3z"/>
	<path class="st0" d="M2049.4,253.8c-4.9,0-9-4-9-9s4-9,9-9c4.9,0,9,4,9,9S2054.4,253.8,2049.4,253.8z"/>
	<path class="st0" d="M2364.5,1018.9c-6.5,0-11.7-5.3-11.7-11.7c0-6.5,5.3-11.7,11.7-11.7c6.5,0,11.7,5.3,11.7,11.7
		C2376.3,1013.6,2371,1018.9,2364.5,1018.9z M2364.5,1004.1c-1.7,0-3.1,1.4-3.1,3.1c0,1.7,1.4,3.1,3.1,3.1s3.1-1.4,3.1-3.1
		S2366.2,1004.1,2364.5,1004.1z"/>
	<circle class="st0" cx="1615.9" cy="1054.3" r="8.1"/>
	<path class="st0" d="M2485.3,666.6c0,2.5-2,4.5-4.5,4.5s-4.5-2-4.5-4.5s2-4.5,4.5-4.5S2485.3,664.1,2485.3,666.6z"/>
</g>
<g>
	<polygon class="st2" points="2136.2,789.4 2078.3,749.7 1981.5,696.8 2173.1,614 2323.5,687.7 2291.2,705.2 2170.1,762.5 	"/>
	<polygon class="st3" points="2130.8,776.4 2079.8,748.7 1985.6,693.2 2176.6,610.8 2324,686.8 2183.6,753.8 	"/>
	<g>
		<g>
			<defs>
				<polygon id="SVGID_1_" points="1,1 2,1 1,2 				"/>
			</defs>
			<defs>
				<polygon id="SVGID_6_" points="-1,-1 -2,-1 -1,-2 				"/>
			</defs>
			<clipPath id="SVGID_9_">
				<use xlink:href="#SVGID_1_"  style="overflow:visible;"/>
			</clipPath>
			<clipPath id="SVGID_14_" class="st4">
				<use xlink:href="#SVGID_6_"  style="overflow:visible;"/>
			</clipPath>
			
				<linearGradient id="SVGID_17_" gradientUnits="userSpaceOnUse" x1="1852.7517" y1="1164.9565" x2="2002.1093" y2="1089.5946" gradientTransform="matrix(0.6113 0.7687 0.7739 -0.6154 87.4839 -178.7664)">
				<stop  offset="0.3602" style="stop-color:#FFFFFF"/>
				<stop  offset="1" style="stop-color:#000000"/>
			</linearGradient>
			<polygon class="st5" points="2130.7,773.4 2079.4,748.5 1986.5,693.7 2176.7,611.6 2323,687.1 2174.8,757.9 			"/>
		</g>
	</g>
	
		<linearGradient id="SVGID_19_" gradientUnits="userSpaceOnUse" x1="1852.7517" y1="1164.9565" x2="2002.1093" y2="1089.5946" gradientTransform="matrix(0.6113 0.7687 0.7739 -0.6154 87.4839 -178.7664)">
		<stop  offset="0.3602" style="stop-color:#000000"/>
		<stop  offset="1" style="stop-color:#000000"/>
	</linearGradient>
	<polygon class="st6" points="2130.7,773.4 2079.4,748.5 1986.5,693.7 2176.7,611.6 2323,687.1 2174.8,757.9 	"/>
</g>
<g>
	<g class="st7">
		
			<image style="overflow:visible;opacity:0.28;enable-background:new    ;" width="189" height="29" xlink:href="../../Downloads/4F84D316.png"  transform="matrix(1 0 0 1 2029 648)">
		</image>
	</g>
	<path class="st8" d="M2047.8,642l-11.4-1.3c1.6-4.4,8.4-7.2,16-6.3l57.2,6.7c4.2,0.5,8,2,10.6,4c-0.2,0-0.3-0.1-0.5-0.1l-57.5-6.7
		C2056.2,637.5,2050.7,639.1,2047.8,642z"/>
	<path class="st8" d="M2032.8,652.8c-1.8-0.3-3.1-1.6-2.9-3.1l1.1-7.5c0.2-1.5,1.9-2.5,3.7-2.3l65.2,6.6l-1.9,15.3L2032.8,652.8z
		 M2107.7,662.9c21.3,2.6,80.2,7.1,98,5.8l0.3-3.8c-17.3-5.5-76.5-15-96.5-17.4L2107.7,662.9z"/>
	<path class="st9" d="M2205.8,664.9c4.6,0.9,8.3,2,8.2,2.9s-3.9,1.2-8.5,0.9L2205.8,664.9z"/>
	<polygon class="st10" points="2107.7,663.2 2109.5,647.3 2099.9,646.2 2098,662 	"/>
	<g>
		<g>
			<defs>
				<path id="SVGID_20_" d="M2049.8,641.4l49.7,5v-0.3l12.8,1.5v0.3c22.1,2.8,76.8,11.7,93.6,17c4.5,0.9,8.2,2,8.2,2.9
					c-0.1,0.9-3.9,1.2-8.5,0.9c-17.2,1.2-74.7-3.2-97.9-5.8v0.3l-9.7-1.2v-0.3l-65.3-9c-1.8-0.3-3.1-1.6-2.9-3.1l1.1-7.5
					c0.2-1.5,1.9-2.5,3.7-2.3l2.9,0.3L2049.8,641.4z"/>
			</defs>
			<clipPath id="SVGID_21_">
				<use xlink:href="#SVGID_20_"  style="overflow:visible;"/>
			</clipPath>
			<polygon class="st11" points="2221.5,689.2 2223,669 2013.7,644 2010.8,663.4 			"/>
		</g>
	</g>
</g>
<g>
	<path class="st12" d="M2303.5,653.8l-167.8-19c-3.2-0.4-6.3-1.1-9.3-2.3l-17.6-7.3c-0.3-0.1-0.2-0.6,0.1-0.6l16.9-1.1l183.4,21.3
		l2.5,3.9c1,1.6-0.9,5.7-2.7,5.7C2306.5,654.4,2304.3,653.9,2303.5,653.8z"/>
	<g>
		<path class="st13" d="M2106.6,620.9c0.1-0.6,28.3-2.6,28.3-2.6l10.2,1.1l-1.2,11.3l-10.2-1.1
			C2133.6,629.7,2106.5,621.5,2106.6,620.9z"/>
		<g>
			<g>
				<defs>
					<polygon id="SVGID_22_" points="1,1 2,1 1,2 					"/>
				</defs>
				<defs>
					<polygon id="SVGID_23_" points="-1,-1 -2,-1 -1,-2 					"/>
				</defs>
				<clipPath id="SVGID_24_">
					<use xlink:href="#SVGID_22_"  style="overflow:visible;"/>
				</clipPath>
				<clipPath id="SVGID_25_" class="st14">
					<use xlink:href="#SVGID_23_"  style="overflow:visible;"/>
				</clipPath>
				
					<linearGradient id="SVGID_26_" gradientUnits="userSpaceOnUse" x1="1151.754" y1="1142.8083" x2="1164.0316" y2="1144.9733" gradientTransform="matrix(-0.1721 0.9851 0.9851 0.1721 1198.2836 -712.8788)">
					<stop  offset="2.586150e-02" style="stop-color:#000000"/>
					<stop  offset="0.1248" style="stop-color:#232323"/>
					<stop  offset="0.1536" style="stop-color:#616161"/>
					<stop  offset="0.195" style="stop-color:#B5B5B5"/>
					<stop  offset="0.2242" style="stop-color:#EBEBEB"/>
					<stop  offset="0.2384" style="stop-color:#FFFFFF"/>
					<stop  offset="0.4004" style="stop-color:#9D9D9D"/>
					<stop  offset="0.5789" style="stop-color:#2D2D2D"/>
					<stop  offset="0.8451" style="stop-color:#000000"/>
				</linearGradient>
				<path class="st15" d="M2106.6,620.9c0.1-0.6,28.3-2.6,28.3-2.6l10.2,1.1l-1.2,11.3l-10.2-1.1
					C2133.6,629.7,2106.5,621.5,2106.6,620.9z"/>
			</g>
		</g>
		
			<linearGradient id="SVGID_27_" gradientUnits="userSpaceOnUse" x1="1152.5959" y1="1138.033" x2="1163.79" y2="1140.0067" gradientTransform="matrix(-0.1721 0.9851 0.9851 0.1721 1198.2836 -712.8788)">
			<stop  offset="2.586150e-02" style="stop-color:#FFFFFF"/>
			<stop  offset="0.1248" style="stop-color:#FFFFFF"/>
			<stop  offset="0.2384" style="stop-color:#FFFFFF"/>
			<stop  offset="0.5789" style="stop-color:#FFFFFF"/>
			<stop  offset="0.8451" style="stop-color:#FFFFFF"/>
		</linearGradient>
		<path class="st16" d="M2106.6,620.9c0.1-0.6,28.3-2.6,28.3-2.6l0.5,0.1l-1.2,11.3l-0.5-0.1
			C2133.6,629.7,2106.5,621.5,2106.6,620.9z"/>
		<g>
			<g>
				<defs>
					<polygon id="SVGID_28_" points="1,1 2,1 1,2 					"/>
				</defs>
				<defs>
					<polygon id="SVGID_29_" points="-1,-1 -2,-1 -1,-2 					"/>
				</defs>
				<clipPath id="SVGID_30_">
					<use xlink:href="#SVGID_28_"  style="overflow:visible;"/>
				</clipPath>
				<clipPath id="SVGID_31_" class="st17">
					<use xlink:href="#SVGID_29_"  style="overflow:visible;"/>
				</clipPath>
				
					<linearGradient id="SVGID_32_" gradientUnits="userSpaceOnUse" x1="1144.7229" y1="1148.6675" x2="1163.8574" y2="1141.7031" gradientTransform="matrix(-0.1721 0.9851 0.9851 0.1721 1198.2836 -712.8788)">
					<stop  offset="0.7988" style="stop-color:#555555"/>
					<stop  offset="0.8452" style="stop-color:#B3B3B3"/>
					<stop  offset="0.9257" style="stop-color:#000000"/>
				</linearGradient>
				<path class="st18" d="M2106.6,620.8c0.1-0.6,28.3-2.5,28.3-2.5l10.2,1.1l-1.2,11.1l-10.2-1.1
					C2133.7,629.5,2106.5,621.4,2106.6,620.8z"/>
			</g>
		</g>
		
			<linearGradient id="SVGID_33_" gradientUnits="userSpaceOnUse" x1="1144.7229" y1="1148.6675" x2="1163.8574" y2="1141.7031" gradientTransform="matrix(-0.1721 0.9851 0.9851 0.1721 1198.2836 -712.8788)">
			<stop  offset="0.7988" style="stop-color:#FFFFFF"/>
			<stop  offset="0.8452" style="stop-color:#FFFFFF"/>
			<stop  offset="0.9257" style="stop-color:#FFFFFF"/>
		</linearGradient>
		<path class="st19" d="M2106.6,620.8c0.1-0.6,28.3-2.5,28.3-2.5l10.2,1.1l-1.2,11.1l-10.2-1.1
			C2133.7,629.5,2106.5,621.4,2106.6,620.8z"/>
		
			<linearGradient id="SVGID_34_" gradientUnits="userSpaceOnUse" x1="1082.6458" y1="1208.3268" x2="1219.7333" y2="1235.424" gradientTransform="matrix(-0.1721 0.9851 0.9851 0.1721 1198.2836 -712.8788)">
			<stop  offset="0.2427" style="stop-color:#FFD468"/>
			<stop  offset="0.2609" style="stop-color:#F89C38"/>
			<stop  offset="0.2782" style="stop-color:#F9A941"/>
			<stop  offset="0.7365" style="stop-color:#FBB34A"/>
			<stop  offset="0.7365" style="stop-color:#FBB34A"/>
			<stop  offset="0.7405" style="stop-color:#F49939"/>
			<stop  offset="0.7447" style="stop-color:#EE872D"/>
			<stop  offset="0.7491" style="stop-color:#EB7D26"/>
			<stop  offset="0.7541" style="stop-color:#EA7924"/>
			<stop  offset="0.7797" style="stop-color:#EE8222"/>
		</linearGradient>
		<path class="st20" d="M2133.8,629.7c0,0-0.3-0.1-0.7-1c-0.3-1-0.2-1.9-0.2-1.9s-1.6-1-1.3-2.9s1.9-2.8,1.9-2.8s0-1.1,0.2-1.9
			c0-0.1,0.1-0.3,0.2-0.4c0.4-0.5,1.1-0.5,1.1-0.5l141,15.5l-0.7,11.6L2133.8,629.7z"/>
		
			<linearGradient id="SVGID_35_" gradientUnits="userSpaceOnUse" x1="1155.6866" y1="1127.4249" x2="1158.708" y2="1127.4249" gradientTransform="matrix(-0.1721 0.9851 0.9851 0.1721 1198.2836 -712.8788)">
			<stop  offset="0" style="stop-color:#999999"/>
			<stop  offset="1" style="stop-color:#363636"/>
		</linearGradient>
		<path class="st21" d="M2112.3,621.6c0.1-0.5,0.4-1,0.6-1.5c-3.7,0.3-6.3,0.7-6.3,0.8c0,0.2,2.5,1,6,2.2
			C2112.5,622.6,2112.2,622.1,2112.3,621.6z"/>
		<g>
			<g>
				<defs>
					<polygon id="SVGID_36_" points="1,1 2,1 1,2 					"/>
				</defs>
				<defs>
					<polygon id="SVGID_37_" points="-1,-1 -2,-1 -1,-2 					"/>
				</defs>
				<clipPath id="SVGID_38_">
					<use xlink:href="#SVGID_36_"  style="overflow:visible;"/>
				</clipPath>
				<clipPath id="SVGID_39_" class="st22">
					<use xlink:href="#SVGID_37_"  style="overflow:visible;"/>
				</clipPath>
				
					<linearGradient id="SVGID_40_" gradientUnits="userSpaceOnUse" x1="1583.9045" y1="1057.8887" x2="1596.3816" y2="1057.8887" gradientTransform="matrix(0.5984 0.8011 0.8011 -0.5984 324.2375 -20.2993)">
					<stop  offset="0" style="stop-color:#B3B3B3"/>
					<stop  offset="1" style="stop-color:#B3B3B3"/>
				</linearGradient>
				<path class="st23" d="M2112.9,620.5l20.4-1.7c0,0-0.1,0.3,0,0.7s-1.5,2.3-1.5,2.3l-19.3-0.5L2112.9,620.5z"/>
			</g>
		</g>
		
			<linearGradient id="SVGID_41_" gradientUnits="userSpaceOnUse" x1="1583.9045" y1="1057.8887" x2="1596.3816" y2="1057.8887" gradientTransform="matrix(0.5984 0.8011 0.8011 -0.5984 324.2375 -20.2993)">
			<stop  offset="0" style="stop-color:#FFFFFF"/>
			<stop  offset="1" style="stop-color:#FFFFFF"/>
		</linearGradient>
		<path class="st24" d="M2112.9,620.5l20.4-1.7c0,0-0.1,0.3,0,0.7s-1.5,2.3-1.5,2.3l-19.3-0.5L2112.9,620.5z"/>
		<g>
			<g>
				<defs>
					<polygon id="SVGID_42_" points="1,1 2,1 1,2 					"/>
				</defs>
				<defs>
					<polygon id="SVGID_43_" points="-1,-1 -2,-1 -1,-2 					"/>
				</defs>
				<clipPath id="SVGID_44_">
					<use xlink:href="#SVGID_42_"  style="overflow:visible;"/>
				</clipPath>
				<clipPath id="SVGID_45_" class="st25">
					<use xlink:href="#SVGID_43_"  style="overflow:visible;"/>
				</clipPath>
				
					<linearGradient id="SVGID_46_" gradientUnits="userSpaceOnUse" x1="1616.1819" y1="1117.7559" x2="1609.3898" y2="1124.5481" gradientTransform="matrix(0.5701 0.8216 0.8216 -0.5701 344.9508 -60.4949)">
					<stop  offset="0" style="stop-color:#000000"/>
					<stop  offset="3.705668e-02" style="stop-color:#202020"/>
					<stop  offset="9.896553e-02" style="stop-color:#4E4E4E"/>
					<stop  offset="0.1665" style="stop-color:#787878"/>
					<stop  offset="0.2382" style="stop-color:#9D9D9D"/>
					<stop  offset="0.3153" style="stop-color:#BBBBBB"/>
					<stop  offset="0.3992" style="stop-color:#D4D4D4"/>
					<stop  offset="0.4928" style="stop-color:#E7E7E7"/>
					<stop  offset="0.6015" style="stop-color:#F5F5F5"/>
					<stop  offset="0.739" style="stop-color:#FDFDFD"/>
					<stop  offset="1" style="stop-color:#FFFFFF"/>
				</linearGradient>
				<path class="st26" d="M2133.8,620.9c0,0-0.2-2.3,0.9-2.4c1.1-0.1,101.6,11.2,101.6,11.2l0.7,2.7L2133.8,620.9z"/>
			</g>
		</g>
		<path class="st27" d="M2133,624.1c0,0,0.6-5.5,1.7-5.6c1.1-0.1,138.9,15.3,138.9,15.3l-0.1,5.9L2133,624.1z"/>
	</g>
	<path class="st28" d="M2308.7,647.7c0,0,0.5-2.2,0.6-4.4s-0.2-4.1-0.2-4.1c0-0.7-0.9-1.4-2-1.5l-28.2-3.1c-1.1-0.1-2.1,0.3-2.1,1
		l-0.5,8.4c0,0.7,0.9,1.4,2,1.5l28.3,3.2C2307.7,648.9,2308.7,648.4,2308.7,647.7z"/>
	<path class="st29" d="M2308.1,648.3c0,0,0.5-0.9,0.5-1.9c0-0.9-0.3-1.8-0.3-1.8c0-0.3-0.9-0.7-2-0.8l-27.7-3.1
		c-1.1-0.1-2,0-2.1,0.3l-0.2,3.6c0,0.3,0.9,0.7,2,0.8l27.7,3.1C2307.1,648.8,2308.1,648.6,2308.1,648.3z"/>
	<polygon class="st30" points="2274.2,645.8 2274.9,633.5 2299.1,636.2 2298.5,648.5 	"/>
	<polygon class="st31" points="2274.7,637 2274.9,634.1 2299.1,636.8 2298.9,639.7 	"/>
	<polygon class="st32" points="2274.2,645.8 2274.5,641.7 2298.7,644.4 2298.5,648.5 	"/>
	<polygon class="st33" points="2274.2,645.8 2274.3,645.4 2298.5,648.1 2298.5,648.6 	"/>
</g>
<g>
	<polygon class="st2" points="2267.4,1008.6 2190.6,974.5 2052.1,918.8 2297.2,763.1 2510.7,843 2463.4,874.1 2352.4,945.4 
		2308.9,979.8 	"/>
	<polygon class="st0" points="2265.7,994.3 2195.1,968.8 2056.6,913.1 2301.7,757.4 2511.4,841.7 2330.1,956.8 	"/>
	<g>
		<g>
			<defs>
				<polygon id="SVGID_47_" points="1,1 2,1 1,2 				"/>
			</defs>
			<defs>
				<polygon id="SVGID_48_" points="-1,-1 -2,-1 -1,-2 				"/>
			</defs>
			<clipPath id="SVGID_49_">
				<use xlink:href="#SVGID_47_"  style="overflow:visible;"/>
			</clipPath>
			<clipPath id="SVGID_50_" class="st34">
				<use xlink:href="#SVGID_48_"  style="overflow:visible;"/>
			</clipPath>
			
				<linearGradient id="SVGID_51_" gradientUnits="userSpaceOnUse" x1="2021.0404" y1="1197.5037" x2="2215.6091" y2="1099.3295" gradientTransform="matrix(0.7731 0.6342 0.6342 -0.7731 -128.8223 316.7211)">
				<stop  offset="0.3602" style="stop-color:#FFFFFF"/>
				<stop  offset="1" style="stop-color:#000000"/>
			</linearGradient>
			<polygon class="st35" points="2265,990.6 2194.6,968.6 2057.9,913.7 2301.9,758.7 2510,842.4 2319.3,963.5 			"/>
		</g>
	</g>
	
		<linearGradient id="SVGID_52_" gradientUnits="userSpaceOnUse" x1="2021.0404" y1="1197.5037" x2="2215.6091" y2="1099.3295" gradientTransform="matrix(0.7731 0.6342 0.6342 -0.7731 -128.8223 316.7211)">
		<stop  offset="0.3602" style="stop-color:#000000"/>
		<stop  offset="1" style="stop-color:#000000"/>
	</linearGradient>
	<polygon class="st36" points="2265,990.6 2194.6,968.6 2057.9,913.7 2301.9,758.7 2510,842.4 2319.3,963.5 	"/>
	<g>
		<g>
			<defs>
				<polygon id="SVGID_53_" points="1,1 2,1 1,2 				"/>
			</defs>
			<defs>
				<polygon id="SVGID_54_" points="-1,-1 -2,-1 -1,-2 				"/>
			</defs>
			<clipPath id="SVGID_55_">
				<use xlink:href="#SVGID_53_"  style="overflow:visible;"/>
			</clipPath>
			<clipPath id="SVGID_56_" class="st37">
				<use xlink:href="#SVGID_54_"  style="overflow:visible;"/>
			</clipPath>
			
				<linearGradient id="SVGID_57_" gradientUnits="userSpaceOnUse" x1="2021.0404" y1="1197.5037" x2="2215.6091" y2="1099.3295" gradientTransform="matrix(0.7731 0.6342 0.6342 -0.7731 -128.8223 316.7211)">
				<stop  offset="0.3602" style="stop-color:#FFFFFF"/>
				<stop  offset="1" style="stop-color:#000000"/>
			</linearGradient>
			<polygon class="st38" points="2265,990.6 2194.6,968.6 2057.9,913.7 2301.9,758.7 2510,842.4 2319.3,963.5 			"/>
		</g>
	</g>
	
		<linearGradient id="SVGID_58_" gradientUnits="userSpaceOnUse" x1="2021.0404" y1="1197.5037" x2="2215.6091" y2="1099.3295" gradientTransform="matrix(0.7731 0.6342 0.6342 -0.7731 -128.8223 316.7211)">
		<stop  offset="0.3602" style="stop-color:#000000"/>
		<stop  offset="1" style="stop-color:#000000"/>
	</linearGradient>
	<polygon class="st39" points="2265,990.6 2194.6,968.6 2057.9,913.7 2301.9,758.7 2510,842.4 2319.3,963.5 	"/>
	<path class="st40" d="M2289.9,918.5l-68.4-27.5c-1.5-0.6-1.6-1.8-0.3-2.6l0,0c1.3-0.8,3.6-1,5.1-0.4l68.4,27.5
		c1.5,0.6,1.6,1.8,0.3,2.6l0,0C2293.7,918.9,2291.4,919.1,2289.9,918.5z"/>
	<path class="st40" d="M2334.8,923.1l-100.3-40.3c-1.5-0.6-1.6-1.8-0.3-2.6l0,0c1.3-0.8,3.6-1,5.1-0.4l100.3,40.3
		c1.5,0.6,1.6,1.8,0.3,2.6l0,0C2338.6,923.5,2336.3,923.7,2334.8,923.1z"/>
	<g>
		<path class="st40" d="M2446.3,852.2l-42.5-17.1c-1.5-0.6-1.6-1.8-0.3-2.6l0,0c1.3-0.8,3.6-1,5.1-0.4l42.5,17.1
			c1.5,0.6,1.6,1.8,0.3,2.6l0,0C2450,852.7,2447.8,852.8,2446.3,852.2z"/>
		<path class="st40" d="M2433.3,860.5l-42.5-17.1c-1.5-0.6-1.6-1.8-0.3-2.6l0,0c1.3-0.8,3.6-1,5.1-0.4l42.4,17.1
			c1.5,0.6,1.6,1.8,0.3,2.6l0,0C2437.1,860.9,2434.8,861.1,2433.3,860.5z"/>
	</g>
	<g>
		<path class="st40" d="M2409,875.9l-42.5-17.1c-1.5-0.6-1.6-1.8-0.3-2.6l0,0c1.3-0.8,3.6-1,5.1-0.4l42.5,17.1
			c1.5,0.6,1.6,1.8,0.3,2.6l0,0C2412.8,876.3,2410.5,876.5,2409,875.9z"/>
		<path class="st40" d="M2396.1,884.1l-42.5-17.1c-1.5-0.6-1.6-1.8-0.3-2.6l0,0c1.3-0.8,3.6-1,5.1-0.4l42.5,17.1
			c1.5,0.6,1.6,1.8,0.3,2.6l0,0C2399.8,884.5,2397.6,884.7,2396.1,884.1z"/>
		<path class="st40" d="M2378.1,895.5l-149.6-60.1c-1.5-0.6-1.6-1.8-0.3-2.6l0,0c1.3-0.8,3.6-1,5.1-0.4l149.6,60.1
			c1.5,0.6,1.6,1.8,0.3,2.6l0,0C2381.9,896,2379.6,896.1,2378.1,895.5z"/>
		<path class="st40" d="M2366.6,902.9L2217,842.7c-1.5-0.6-1.6-1.8-0.3-2.6l0,0c1.3-0.8,3.6-1,5.1-0.4l149.6,60.1
			c1.5,0.6,1.6,1.8,0.3,2.6l0,0C2370.4,903.3,2368.1,903.5,2366.6,902.9z"/>
	</g>
	<g>
		<g>
			<path class="st40" d="M2193.4,889.1l-31.6-12.7l27.6-17.5l31.6,12.7L2193.4,889.1z M2168.9,875.8l24,9.6l21-13.3l-24-9.6
				L2168.9,875.8z"/>
			<polygon class="st40" points="2184.3,877.6 2182,871 2187.7,870.4 2189,874.2 2204.3,872.6 2205.2,875.5 			"/>
		</g>
		<g>
			<path class="st40" d="M2193.4,889.1l-31.6-12.7l27.6-17.5l31.6,12.7L2193.4,889.1z M2168.9,875.8l24,9.6l21-13.3l-24-9.6
				L2168.9,875.8z"/>
			<polygon class="st40" points="2184.3,877.6 2182,871 2187.7,870.4 2189,874.2 2204.3,872.6 2205.2,875.5 			"/>
		</g>
	</g>
	<g>
		<polygon class="st40" points="2304.6,847.4 2277.1,836.3 2313.2,813.4 2340.7,824.5 		"/>
		<polygon class="st40" points="2272.6,834.5 2245.1,823.5 2270.4,807.4 2297.9,818.4 		"/>
		<polygon class="st40" points="2336.6,860.2 2309.1,849.2 2363.3,814.7 2390.8,825.8 		"/>
	</g>
	<path class="st41" d="M2291.6,935.9c-14.9-6.4-38.3-4.9-52.1,3.4c-13.9,8.3-13,20.3,1.9,26.7s38.3,4.9,52.1-3.4
		C2307.4,954.3,2306.6,942.3,2291.6,935.9z M2286.2,959.5c-10.1,6.1-27.1,7.2-37.9,2.5c-10.9-4.7-11.5-13.4-1.4-19.4
		c10.1-6.1,27.1-7.2,37.9-2.5C2295.6,944.7,2296.3,953.4,2286.2,959.5z"/>
	<g>
		<path class="st41" d="M2236.9,969.9c-0.4-0.1-0.7-0.3-1-0.4c-18.2-7.8-19.3-22.5-2.3-32.6c17-10.2,45.3-12.2,63.7-4.2
			c8.8,3.8,13.9,9.3,14.4,15.4c0.4,6.2-3.8,12.3-12,17.2C2282.9,975.2,2255.3,977.3,2236.9,969.9z M2293.8,933.6
			c-17-6.8-42.4-5-57.8,4.3c-15.6,9.4-14.6,22.8,2.2,30.1c17,7.3,43,5.5,58.7-3.9c7.6-4.5,11.5-10.2,11.1-15.8
			c-0.4-5.7-5.1-10.7-13.2-14.2C2294.5,933.9,2294.2,933.8,2293.8,933.6z"/>
	</g>
	<polygon class="st42" points="2252.6,956.1 2251.2,945.8 2259.8,945.4 2260.6,951.3 2283.9,950.2 2284.5,954.5 	"/>
</g>
<g>
	<path class="st2" d="M2400.8,831.1l-216-50.3c-0.9-0.2-8.4-5.5-8-5.9l85.7-96.8c0.3-0.4,1.2-0.6,2-0.4l206.1,44.2
		c0.9,0.2,1.4,0.7,1.1,1.1L2403,830.7C2402.7,831.1,2401.7,831.3,2400.8,831.1z"/>
	<path class="st43" d="M2396.3,822.3l-215.3-50c-0.8-0.2-1.3-0.7-0.9-1.1l-0.1-9.3l77.4-90c0.3-0.4,1.2-0.5,2-0.4l206,35.1
		c0.9,0.2,0.9,9.7,0.7,10.1l-67.7,105.2C2398.1,822.3,2397.2,822.5,2396.3,822.3z"/>
	<g>
		<path class="st44" d="M2396,812.8L2180.9,763c-0.8-0.2-1.3-0.7-0.9-1.1l77.2-99.1c0.3-0.4,1.2-0.5,2-0.4l205.4,44
			c0.9,0.2,1.3,0.7,1.1,1.1l-67.5,105C2397.8,812.8,2396.9,813,2396,812.8z"/>
	</g>
	<polygon class="st45" points="2424.4,735.7 2252.2,697.9 2270.6,673.8 2441,710.4 	"/>
	<polygon class="st46" points="2424.4,735.7 2254,698.3 2271.9,674.9 2440.5,711.2 	"/>
	<g class="st47">
		<g>
			<defs>
				<polygon id="SVGID_59_" points="2424.4,735.7 2252.2,697.9 2270.1,674.5 2440.5,711.2 				"/>
			</defs>
			<clipPath id="SVGID_60_">
				<use xlink:href="#SVGID_59_"  style="overflow:visible;"/>
			</clipPath>
			<polygon class="st48" points="2283.8,739.8 2257.2,725.6 2352.5,680.9 2379.2,694.4 			"/>
		</g>
		<g>
			<defs>
				<polygon id="SVGID_61_" points="2424.4,735.7 2252.2,697.9 2270.1,674.5 2440.5,711.2 				"/>
			</defs>
			<clipPath id="SVGID_62_">
				<use xlink:href="#SVGID_61_"  style="overflow:visible;"/>
			</clipPath>
			<polygon class="st49" points="2316.4,743 2302.9,735.8 2397.7,690.6 2411.3,697.4 			"/>
		</g>
	</g>
	<path class="st50" d="M2294.1,769.7l-5.5,7.7c-0.6,0.8-2.5,1.2-4.1,0.8l-29.8-6.9c-1.7-0.4-2.5-1.4-1.9-2.2l5.6-7.6
		c0.6-0.8,2.4-1.2,4.1-0.8l29.6,6.8C2293.9,767.9,2294.7,768.9,2294.1,769.7z M2302.8,752.7l-29.5-6.7c-1.7-0.4-3.5,0-4.1,0.8
		l-5.5,7.5c-0.6,0.8,0.3,1.8,1.9,2.2l29.6,6.7c1.7,0.4,3.5,0,4.1-0.8l5.4-7.6C2305.3,754.1,2304.4,753.1,2302.8,752.7z
		 M2313.2,738.2l-29.3-6.5c-1.6-0.4-3.4,0-4,0.8l-5.4,7.4c-0.6,0.8,0.3,1.8,1.9,2.1l29.4,6.6c1.7,0.4,3.5,0,4.1-0.8l5.3-7.5
		C2315.7,739.5,2314.9,738.5,2313.2,738.2z M2245.8,756.9l-29.2-6.7c-1.6-0.4-3.5,0-4.1,0.8l-5.8,7.5c-0.6,0.8,0.2,1.8,1.8,2.2
		l29.4,6.8c1.7,0.4,3.5,0,4.1-0.8l5.7-7.6C2248.3,758.3,2247.4,757.3,2245.8,756.9z M2277.9,713.8l-28.7-6.3c-1.6-0.4-3.4,0-4,0.8
		l-5.5,7.2c-0.6,0.8,0.2,1.7,1.8,2.1l28.8,6.4c1.6,0.4,3.4,0,4-0.8l5.4-7.3C2280.4,715,2279.6,714.1,2277.9,713.8z M2323.5,723.8
		l-29.1-6.4c-1.6-0.4-3.4,0-4,0.8l-5.4,7.3c-0.6,0.8,0.3,1.7,1.9,2.1l29.2,6.5c1.7,0.4,3.5,0,4-0.8l5.2-7.3
		C2326,725.1,2325.1,724.2,2323.5,723.8z M2256.7,742.3l-29.1-6.6c-1.6-0.4-3.4,0-4.1,0.8l-5.7,7.4c-0.6,0.8,0.2,1.8,1.8,2.1
		l29.2,6.6c1.7,0.4,3.5,0,4.1-0.8l5.6-7.5C2259.2,743.6,2258.3,742.7,2256.7,742.3z M2267.4,727.9l-28.9-6.5c-1.6-0.4-3.4,0-4,0.8
		l-5.6,7.3c-0.6,0.8,0.2,1.7,1.8,2.1l29,6.5c1.6,0.4,3.5,0,4.1-0.8l5.5-7.4C2269.9,729.2,2269,728.3,2267.4,727.9z M2339.2,778.3
		l-30.1-6.9c-1.7-0.4-3.5,0-4.1,0.8l-5.5,7.7c-0.6,0.8,0.3,1.8,2,2.2l30.2,7c1.7,0.4,3.6,0,4.2-0.8l5.3-7.8
		C2341.8,779.7,2340.9,778.7,2339.2,778.3z M2359.6,748.5l-29.7-6.6c-1.7-0.4-3.5,0-4,0.8l-5.3,7.5c-0.6,0.8,0.3,1.8,2,2.2l29.8,6.7
		c1.7,0.4,3.5,0,4.1-0.8l5.2-7.6C2362.2,749.9,2361.3,748.9,2359.6,748.5z M2369.6,734l-29.5-6.5c-1.7-0.4-3.4,0-4,0.8l-5.2,7.4
		c-0.6,0.8,0.3,1.8,2,2.1l29.6,6.6c1.7,0.4,3.5,0,4-0.8l5.1-7.4C2372.2,735.3,2371.3,734.4,2369.6,734z M2349.5,763.3l-29.9-6.8
		c-1.7-0.4-3.5,0-4.1,0.8l-5.4,7.6c-0.6,0.8,0.3,1.8,2,2.2l30,6.8c1.7,0.4,3.5,0,4.1-0.8l5.3-7.7
		C2352.1,764.6,2351.2,763.7,2349.5,763.3z M2416.4,744.4l-29.9-6.6c-1.7-0.4-3.5,0-4,0.8l-5.1,7.5c-0.6,0.8,0.4,1.8,2.1,2.2l30,6.7
		c1.7,0.4,3.5,0,4.1-0.8l4.9-7.5C2419,745.7,2418.1,744.7,2416.4,744.4z M2406.7,759.1l-30.1-6.7c-1.7-0.4-3.5,0-4.1,0.8l-5.1,7.6
		c-0.6,0.8,0.4,1.8,2.1,2.2l30.2,6.8c1.7,0.4,3.5,0,4.1-0.8l5-7.7C2409.4,760.4,2408.4,759.4,2406.7,759.1z M2396.9,774l-30.3-6.8
		c-1.7-0.4-3.5,0-4.1,0.8l-5.2,7.7c-0.6,0.8,0.4,1.8,2.1,2.2l30.4,6.9c1.7,0.4,3.6,0,4.1-0.8l5.1-7.8
		C2399.6,775.4,2398.6,774.4,2396.9,774z M2386.9,789.2l-30.5-7c-1.7-0.4-3.6,0-4.1,0.8l-5.3,7.8c-0.6,0.9,0.3,1.9,2.1,2.3l30.6,7.1
		c1.7,0.4,3.6,0,4.2-0.8l5.2-7.9C2389.6,790.6,2388.6,789.6,2386.9,789.2z"/>
	<g>
		<path class="st51" d="M2323.5,722.4l-29.1-6.4c-1.6-0.4-3.4,0-4,0.8l-5.4,7.3c-0.6,0.8,0.3,1.7,1.9,2.1l29.2,6.5
			c1.7,0.4,3.5,0,4-0.8l5.2-7.3C2326,723.7,2325.1,722.7,2323.5,722.4z"/>
		<path class="st51" d="M2359.6,747l-29.7-6.6c-1.7-0.4-3.5,0-4,0.8l-5.3,7.5c-0.6,0.8,0.3,1.8,2,2.2l29.8,6.7
			c1.7,0.4,3.5,0,4.1-0.8l5.2-7.5C2362.2,748.4,2361.3,747.4,2359.6,747z"/>
		<path class="st51" d="M2349.5,761.8l-29.8-6.7c-1.7-0.4-3.5,0-4.1,0.8l-5.4,7.6c-0.6,0.8,0.3,1.8,2,2.2l30,6.8
			c1.7,0.4,3.5,0,4.1-0.8l5.3-7.7C2352.1,763.1,2351.2,762.1,2349.5,761.8z"/>
		<path class="st51" d="M2369.6,732.5l-29.5-6.5c-1.7-0.4-3.4,0-4,0.8l-5.2,7.4c-0.6,0.8,0.3,1.7,2,2.1l29.6,6.6
			c1.7,0.4,3.5,0,4-0.8l5.1-7.4C2372.2,733.9,2371.3,732.9,2369.6,732.5z"/>
		<path class="st51" d="M2313.2,736.7l-29.2-6.5c-1.6-0.4-3.4,0-4,0.8l-5.4,7.4c-0.6,0.8,0.3,1.8,1.9,2.1l29.4,6.6
			c1.7,0.4,3.5,0,4.1-0.8l5.3-7.4C2315.8,738,2314.9,737,2313.2,736.7z"/>
		<path class="st51" d="M2267.5,726.4l-28.9-6.4c-1.6-0.4-3.4,0-4,0.8l-5.6,7.3c-0.6,0.8,0.2,1.7,1.8,2.1l29,6.5
			c1.6,0.4,3.5,0,4-0.8l5.5-7.4C2269.9,727.8,2269.1,726.8,2267.5,726.4z"/>
		<path class="st51" d="M2256.8,740.8l-29-6.6c-1.6-0.4-3.4,0-4.1,0.8l-5.7,7.4c-0.6,0.8,0.2,1.8,1.8,2.1l29.2,6.6
			c1.7,0.4,3.5,0,4.1-0.8l5.6-7.5C2259.3,742.1,2258.4,741.2,2256.8,740.8z"/>
		<path class="st51" d="M2278,712.3l-28.7-6.3c-1.6-0.4-3.4,0-4,0.8l-5.5,7.2c-0.6,0.8,0.2,1.7,1.8,2.1l28.8,6.4
			c1.6,0.4,3.4,0,4-0.8l5.4-7.2C2280.5,713.6,2279.6,712.7,2278,712.3z"/>
		<path class="st51" d="M2302.8,751.2l-29.4-6.6c-1.7-0.4-3.5,0-4.1,0.8l-5.5,7.5c-0.6,0.8,0.3,1.8,1.9,2.2l29.6,6.7
			c1.7,0.4,3.5,0,4.1-0.8l5.4-7.6C2305.4,752.6,2304.5,751.6,2302.8,751.2z"/>
	</g>
	<path class="st52" d="M2386.9,787.6l-30.5-7c-1.7-0.4-3.6,0-4.1,0.8l-5.3,7.8c-0.6,0.9,0.3,1.9,2.1,2.3l30.6,7
		c1.7,0.4,3.6,0,4.2-0.8l5.2-7.9C2389.6,789,2388.6,788,2386.9,787.6z"/>
	<path class="st51" d="M2292.2,766l-29.6-6.8c-1.7-0.4-3.5,0-4.1,0.8l-5.6,7.6c-0.6,0.8,0.2,1.8,1.9,2.2l29.8,6.9
		c1.7,0.4,3.5,0,4.1-0.8l5.5-7.7C2294.8,767.3,2293.9,766.4,2292.2,766z"/>
	<path class="st51" d="M2245.9,755.4l-29.2-6.7c-1.6-0.4-3.5,0-4.1,0.8l-5.8,7.5c-0.6,0.8,0.2,1.8,1.8,2.2l29.3,6.8
		c1.7,0.4,3.5,0,4.1-0.8l5.6-7.6C2248.4,756.7,2247.5,755.8,2245.9,755.4z"/>
	<path class="st51" d="M2339.2,776.7l-30-6.9c-1.7-0.4-3.5,0-4.1,0.8l-5.5,7.7c-0.6,0.8,0.3,1.8,2,2.2l30.2,6.9
		c1.7,0.4,3.6,0,4.1-0.8l5.3-7.8C2341.9,778.1,2340.9,777.1,2339.2,776.7z"/>
	<path class="st42" d="M2416.3,742.8l-29.9-6.6c-1.7-0.4-3.5,0-4,0.8l-5,7.4c-0.6,0.8,0.4,1.8,2,2.1l30,6.7c1.7,0.4,3.5,0,4-0.8
		l4.9-7.5C2419,744.2,2418,743.2,2416.3,742.8z"/>
	<path class="st52" d="M2406.7,757.5l-30.1-6.7c-1.7-0.4-3.5,0-4.1,0.8l-5.1,7.6c-0.6,0.8,0.4,1.8,2.1,2.2l30.2,6.8
		c1.7,0.4,3.5,0,4.1-0.8l5-7.6C2409.3,758.9,2408.4,757.9,2406.7,757.5z"/>
	<path class="st52" d="M2396.9,772.4l-30.3-6.8c-1.7-0.4-3.5,0-4.1,0.8l-5.2,7.7c-0.6,0.8,0.4,1.8,2.1,2.2l30.4,6.9
		c1.7,0.4,3.6,0,4.1-0.8l5.1-7.8C2399.5,773.8,2398.6,772.8,2396.9,772.4z"/>
	<g>
		<path class="st0" d="M2236.1,741.6c0-0.1-0.1-0.2-0.1-0.2c0-0.1,0-0.2-0.1-0.3c0-0.1,0-0.2,0-0.3s0-0.2,0.1-0.2l4.3,0.1l0.5,0.1
			l-2.4,3.1l1.6,0.4c0,0.2-0.1,0.3-0.2,0.5c-0.1,0.2-0.3,0.3-0.5,0.5l-5.4-1.2c0-0.2,0.1-0.3,0.2-0.5c0.1-0.1,0.3-0.3,0.5-0.4
			l1.7,0.4l1.3-1.8L2236.1,741.6z"/>
	</g>
	<g>
		<path class="st0" d="M2228.9,755.1c0.6,0.1,1,0.3,1.4,0.5c0.3,0.2,0.6,0.4,0.7,0.7c0.1,0.3,0.2,0.5,0.1,0.8
			c-0.1,0.3-0.2,0.6-0.4,0.9c-0.2,0.3-0.5,0.6-0.8,0.8s-0.7,0.4-1.1,0.5c-0.4,0.1-0.9,0.2-1.4,0.2s-1-0.1-1.6-0.2
			c-0.6-0.1-1-0.3-1.4-0.5c-0.3-0.2-0.6-0.4-0.7-0.7c-0.1-0.3-0.2-0.5-0.1-0.8c0.1-0.3,0.2-0.6,0.4-0.9c0.2-0.3,0.5-0.6,0.8-0.8
			s0.7-0.4,1.1-0.5c0.4-0.1,0.9-0.2,1.4-0.2C2227.8,754.9,2228.3,755,2228.9,755.1z M2228.2,756.1c-0.3-0.1-0.7,0-1,0.1
			c-0.3,0.2-0.7,0.4-1,0.8c-0.3,0.4-0.4,0.7-0.4,1c0,0.2,0.2,0.4,0.6,0.5c0.3,0.1,0.7,0,1-0.1c0.3-0.2,0.7-0.4,1-0.8
			c0.3-0.4,0.4-0.7,0.4-1C2228.7,756.3,2228.5,756.1,2228.2,756.1z"/>
	</g>
	<g>
		<path class="st0" d="M2252.2,729.5c0,0.2-0.1,0.3-0.2,0.5c-0.1,0.1-0.3,0.3-0.5,0.4l-0.7-0.2l-0.5,0.7c-0.2,0-0.4,0-0.6-0.1
			c-0.2,0-0.3-0.1-0.5-0.1s-0.3-0.1-0.5-0.1s-0.3-0.1-0.5-0.2l0.5-0.7l-4-0.9l-0.1-0.2l6.1-2.8c0.3,0.1,0.6,0.2,0.9,0.3
			c0.3,0.1,0.5,0.3,0.7,0.4l-4.2,1.9l1.3,0.3l0.5-0.7c0.2,0,0.4,0,0.6,0.1c0.2,0,0.3,0.1,0.5,0.1s0.3,0.1,0.5,0.1s0.3,0.1,0.5,0.2
			l-0.5,0.7L2252.2,729.5z"/>
	</g>
	<g>
		<path class="st0" d="M2298,736.6c0,0.2-0.1,0.4-0.2,0.5c-0.1,0.1-0.3,0.3-0.5,0.5l-2.7-0.6l-0.5,0.6c0.1,0,0.2,0,0.2,0
			c0.1,0,0.1,0,0.2,0.1c0.4,0.1,0.8,0.2,1.1,0.3s0.5,0.3,0.7,0.5s0.3,0.4,0.3,0.5c0,0.2-0.1,0.4-0.2,0.6c-0.2,0.3-0.4,0.5-0.8,0.6
			c-0.3,0.2-0.7,0.3-1.1,0.3c-0.4,0.1-0.9,0.1-1.4,0c-0.5,0-1.1-0.1-1.7-0.3c-0.1,0-0.2-0.1-0.4-0.1s-0.3-0.1-0.5-0.2
			c-0.2-0.1-0.4-0.1-0.6-0.2c-0.2-0.1-0.4-0.2-0.6-0.2c0.1-0.1,0.1-0.2,0.3-0.2c0.1-0.1,0.2-0.1,0.3-0.2c0.1-0.1,0.2-0.1,0.3-0.2
			c0.1-0.1,0.2-0.1,0.3-0.2c0.3,0.1,0.6,0.2,0.8,0.3c0.3,0.1,0.5,0.2,0.8,0.2c0.3,0.1,0.6,0.1,0.8,0.1s0.4,0,0.6,0
			c0.2,0,0.3-0.1,0.4-0.1c0.1-0.1,0.2-0.1,0.2-0.2c0.1-0.2,0.1-0.3-0.1-0.5c-0.2-0.1-0.5-0.3-1-0.4c-0.2,0-0.4-0.1-0.7-0.1
			s-0.5,0-0.8,0l-0.3-0.2l2-2.4L2298,736.6z"/>
	</g>
	<g>
		<path class="st0" d="M2344.6,746.5c0,0,0.1,0.1,0.1,0.2c0,0.1,0,0.2-0.1,0.3s-0.1,0.2-0.2,0.3c-0.1,0.1-0.2,0.1-0.2,0.2
			c-0.3-0.1-0.7-0.1-1-0.1s-0.7,0-1,0s-0.6,0.1-0.8,0.1c-0.3,0.1-0.5,0.1-0.7,0.3l0,0c0.1,0,0.3-0.1,0.6,0c0.3,0,0.6,0.1,1,0.1
			c0.4,0.1,0.7,0.2,1,0.3s0.5,0.3,0.7,0.4c0.2,0.2,0.3,0.4,0.3,0.6c0,0.2-0.1,0.4-0.2,0.7c-0.2,0.3-0.4,0.5-0.7,0.6
			s-0.7,0.3-1.1,0.3c-0.4,0.1-0.8,0.1-1.3,0.1c-0.4,0-0.9-0.1-1.3-0.2c-1.1-0.2-1.8-0.6-2.2-1s-0.3-1,0.1-1.6c0.2-0.4,0.6-0.7,1-0.9
			c0.4-0.3,0.9-0.5,1.5-0.7s1.3-0.3,2-0.3C2342.8,746.3,2343.7,746.4,2344.6,746.5z M2341.1,748.6c-0.3-0.1-0.6-0.1-0.9,0
			c-0.3,0.1-0.5,0.2-0.6,0.4c-0.2,0.2-0.2,0.4-0.1,0.6c0.1,0.2,0.3,0.3,0.6,0.3c0.3,0.1,0.6,0.1,0.9,0c0.3-0.1,0.5-0.2,0.7-0.4
			s0.2-0.4,0-0.6C2341.6,748.8,2341.4,748.7,2341.1,748.6z"/>
	</g>
	<g>
		<path class="st0" d="M2278.9,754.2V754l3.4-1c0.6-0.2,1-0.3,1.4-0.5c0.3-0.1,0.5-0.3,0.6-0.4c0.1-0.1,0.1-0.3-0.1-0.4
			c-0.1-0.1-0.4-0.2-0.7-0.3s-0.7-0.1-1-0.1s-0.6,0-0.9,0c0-0.2,0-0.4,0-0.5c0-0.2,0.1-0.3,0.2-0.5c0.4,0,0.8,0,1.2,0
			c0.5,0,1,0.1,1.5,0.2c0.4,0.1,0.8,0.2,1.2,0.4c0.3,0.1,0.6,0.3,0.8,0.5s0.3,0.3,0.4,0.5c0,0.2,0,0.4-0.2,0.6
			c-0.1,0.2-0.3,0.3-0.4,0.4c-0.2,0.1-0.4,0.2-0.6,0.3c-0.2,0.1-0.4,0.2-0.7,0.3c-0.2,0.1-0.5,0.1-0.7,0.2l-1.1,0.3l2.3,0.5
			c-0.1,0.2-0.1,0.4-0.2,0.5c-0.1,0.1-0.3,0.3-0.5,0.5L2278.9,754.2z"/>
	</g>
	<g>
		<path class="st0" d="M2328.2,761.6c0-0.2,0.1-0.4,0.2-0.5c0.1-0.2,0.3-0.3,0.5-0.5l5.5,1.2l0.1,0.2l-2.9,1.1
			c0.6,0.2,1,0.4,1.2,0.7s0.2,0.6,0,0.9c-0.2,0.3-0.4,0.5-0.8,0.6c-0.3,0.2-0.7,0.3-1.2,0.3c-0.4,0.1-0.9,0.1-1.4,0
			c-0.5,0-1-0.1-1.6-0.2c-0.2-0.1-0.5-0.1-0.7-0.2c-0.2-0.1-0.4-0.1-0.6-0.2c-0.2-0.1-0.4-0.1-0.6-0.2c-0.2-0.1-0.4-0.2-0.6-0.3
			c0.1-0.2,0.3-0.3,0.5-0.4c0.2-0.1,0.5-0.3,0.7-0.3c0.3,0.1,0.6,0.2,0.9,0.4c0.3,0.1,0.6,0.2,0.9,0.3c0.5,0.1,1,0.2,1.3,0.1
			c0.4,0,0.6-0.2,0.8-0.4c0.1-0.1,0.1-0.2,0-0.3c0-0.1-0.1-0.2-0.2-0.2c-0.1-0.1-0.2-0.1-0.4-0.2c-0.1-0.1-0.3-0.1-0.5-0.2
			c-0.1,0-0.3-0.1-0.4-0.1c-0.2,0-0.3-0.1-0.6-0.1l-0.1-0.3l2.6-1L2328.2,761.6z"/>
	</g>
	<g>
		<path class="st0" d="M2316.7,777.6c0-0.1,0.1-0.2,0.1-0.3s0.1-0.2,0.1-0.2c0.1-0.1,0.1-0.1,0.2-0.2c0.1-0.1,0.2-0.1,0.3-0.2
			l7.6,1.7c0,0.1,0,0.2-0.1,0.3c0,0.1-0.1,0.2-0.1,0.2c-0.1,0.1-0.1,0.1-0.2,0.2c-0.1,0.1-0.2,0.1-0.3,0.2L2316.7,777.6z
			 M2315.7,779c0-0.1,0.1-0.2,0.1-0.3s0.1-0.2,0.1-0.2c0.1-0.1,0.1-0.1,0.2-0.2c0.1-0.1,0.2-0.1,0.3-0.2l7.6,1.7
			c0,0.1,0,0.2-0.1,0.3c0,0.1-0.1,0.2-0.1,0.2c-0.1,0.1-0.1,0.1-0.2,0.2c-0.1,0.1-0.2,0.1-0.3,0.2L2315.7,779z"/>
	</g>
	<g>
		<path class="st0" d="M2308.2,723.7c-0.1,0.2-0.3,0.3-0.6,0.4c-0.3,0.1-0.6,0.2-1,0.2c0.3,0.2,0.5,0.4,0.7,0.7
			c0.1,0.2,0.1,0.5-0.1,0.8c-0.2,0.2-0.4,0.4-0.7,0.5s-0.6,0.2-1,0.2s-0.8,0-1.2,0s-0.8-0.1-1.2-0.2c-0.4-0.1-0.8-0.2-1.1-0.3
			c-0.4-0.1-0.6-0.3-0.9-0.5c-0.2-0.2-0.4-0.4-0.4-0.6c-0.1-0.2,0-0.4,0.2-0.6c0.2-0.3,0.5-0.5,0.9-0.6s0.8-0.2,1.3-0.2
			c-0.3-0.2-0.4-0.4-0.5-0.6c-0.1-0.2,0-0.4,0.1-0.6c0.1-0.2,0.3-0.3,0.6-0.4c0.3-0.1,0.5-0.2,0.9-0.2c0.3,0,0.7-0.1,1.1,0
			c0.4,0,0.8,0.1,1.2,0.2c0.4,0.1,0.8,0.2,1.1,0.3s0.5,0.3,0.7,0.4c0.2,0.2,0.3,0.3,0.3,0.5C2308.4,723.4,2308.3,723.5,2308.2,723.7
			z M2305,725.3c0.1-0.2,0.1-0.3,0-0.5s-0.3-0.3-0.6-0.4c-0.4,0-0.7,0-1,0.1s-0.5,0.2-0.6,0.3s-0.1,0.3,0,0.4
			c0.1,0.1,0.4,0.2,0.7,0.3c0.4,0.1,0.7,0.1,0.9,0C2304.8,725.5,2304.9,725.4,2305,725.3z M2304.5,722.9c-0.1,0.1-0.1,0.3,0,0.4
			c0.1,0.1,0.2,0.2,0.5,0.3c0.3,0,0.6,0,0.8-0.1s0.4-0.1,0.5-0.3c0.1-0.1,0.1-0.2,0-0.3s-0.3-0.2-0.5-0.3c-0.3-0.1-0.5-0.1-0.7,0
			C2304.7,722.7,2304.6,722.8,2304.5,722.9z"/>
	</g>
	<g>
		<path class="st0" d="M2347.4,736.1c0,0-0.1-0.1-0.1-0.2c0-0.1,0-0.2,0.1-0.3s0.1-0.2,0.2-0.3c0.1-0.1,0.2-0.1,0.2-0.2
			c0.3,0.1,0.7,0.1,1,0.1s0.7,0,1,0s0.6-0.1,0.8-0.1c0.3-0.1,0.5-0.2,0.7-0.3l0,0c-0.1,0-0.3,0.1-0.6,0c-0.3,0-0.6,0-1-0.1
			s-0.7-0.2-1-0.3s-0.5-0.3-0.7-0.4c-0.2-0.2-0.3-0.4-0.3-0.6c0-0.2,0.1-0.4,0.2-0.7c0.2-0.3,0.4-0.5,0.7-0.6s0.7-0.3,1-0.3
			c0.4-0.1,0.8-0.1,1.2-0.1s0.9,0.1,1.3,0.2c1.1,0.2,1.8,0.6,2.2,1s0.3,0.9-0.1,1.5c-0.2,0.3-0.6,0.7-1,0.9
			c-0.4,0.3-0.9,0.5-1.5,0.7s-1.3,0.2-2,0.3C2349.2,736.3,2348.3,736.3,2347.4,736.1z M2350.9,734c0.3,0.1,0.6,0.1,0.9,0
			c0.3-0.1,0.5-0.2,0.6-0.4c0.2-0.2,0.2-0.4,0-0.6c-0.1-0.2-0.3-0.3-0.6-0.3c-0.3-0.1-0.6-0.1-0.9,0c-0.3,0.1-0.5,0.2-0.7,0.4
			s-0.2,0.4,0,0.6C2350.4,733.9,2350.6,734,2350.9,734z"/>
	</g>
	<g>
		<path class="st0" d="M2257.5,712c0-0.1,0.1-0.2,0.1-0.3s0.1-0.2,0.1-0.2c0.1-0.1,0.2-0.3,0.4-0.4l6.1,1.3l0.1,0.2l-6.8,3.4
			c-0.3-0.1-0.6-0.2-0.9-0.4c-0.3-0.1-0.5-0.3-0.8-0.5l5-2.5L2257.5,712z"/>
	</g>
	<g>
		<g>
			<path class="st0" d="M2372.7,773.3c0.1-0.2,0.3-0.3,0.7-0.4l10.2,2.3c0.1,0.1,0.1,0.2,0.1,0.3s-0.1,0.2-0.1,0.3
				c-0.1,0.1-0.1,0.2-0.2,0.2c-0.1,0.1-0.2,0.1-0.4,0.2l-10.2-2.3C2372.6,773.6,2372.6,773.4,2372.7,773.3z"/>
		</g>
		<g>
			<path class="st0" d="M2391.6,743.3c0.1-0.1,0.3-0.3,0.7-0.4l11.9,2.6c0.1,0.1,0.1,0.2,0.1,0.3s0,0.2-0.1,0.2
				c0,0.1-0.1,0.1-0.2,0.2c-0.1,0.1-0.3,0.1-0.5,0.2l-11.9-2.6C2391.6,743.7,2391.5,743.5,2391.6,743.3z"/>
		</g>
		<path class="st0" d="M2389.4,759.7l2.3,2.4c-0.2,0.2-0.4,0.3-0.6,0.4c-0.2,0-0.6,0-1,0l-2.3-2.4l-4.5,0.9
			c-0.4-0.1-0.6-0.2-0.8-0.4c-0.1-0.1-0.1-0.3-0.1-0.5l4.5-0.9l-2.3-2.4c0.1-0.1,0.2-0.2,0.3-0.2s0.2-0.1,0.4-0.1c0.1,0,0.3,0,0.4,0
			c0.2,0,0.3,0,0.6,0.1l2.3,2.4l4.5-0.9c0.2,0.1,0.4,0.1,0.5,0.2c0.1,0.1,0.2,0.1,0.3,0.2c0.1,0.1,0.1,0.1,0.1,0.2
			c0,0.1,0,0.2,0,0.3L2389.4,759.7z"/>
		<path class="st0" d="M2368.6,790.3l-1.6,2.4c-0.4,0.1-0.7,0-1,0c-0.3-0.1-0.5-0.2-0.7-0.4l1.6-2.4l-4.8-1.1
			c-0.1-0.2-0.2-0.4-0.1-0.5c0.1-0.1,0.3-0.2,0.7-0.3l4.8,1.1l1.6-2.4c0.2,0,0.4,0,0.6,0c0.2,0,0.3,0,0.4,0.1c0.1,0,0.3,0.1,0.4,0.1
			c0.1,0.1,0.3,0.1,0.4,0.2l-1.6,2.4l4.8,1.1c0.1,0.1,0.1,0.2,0.1,0.3s0,0.2-0.1,0.2c0,0.1-0.1,0.1-0.2,0.2
			c-0.1,0.1-0.2,0.1-0.4,0.2L2368.6,790.3z"/>
		<g>
			<g>
				<path class="st0" d="M2271.7,769.1c0.3-0.5,1.2-0.6,2.1-0.4c0.9,0.2,1.3,0.7,0.9,1.1c-0.3,0.5-1.2,0.7-2.1,0.4
					C2271.7,770,2271.4,769.6,2271.7,769.1z"/>
			</g>
		</g>
		<g>
			<g>
				<path class="st0" d="M2398,742.6c0.3-0.4,1-0.5,1.7-0.4c0.7,0.2,1.1,0.5,0.8,0.9c-0.2,0.4-0.9,0.5-1.7,0.4
					S2397.7,743,2398,742.6z"/>
			</g>
		</g>
		<g>
			<g>
				<path class="st0" d="M2395.5,746.4c0.3-0.4,1-0.5,1.7-0.4c0.7,0.2,1.1,0.5,0.8,0.9c-0.2,0.4-0.9,0.5-1.7,0.4
					C2395.5,747.1,2395.2,746.7,2395.5,746.4z"/>
			</g>
		</g>
	</g>
</g>
<g>
	<g>
		<path class="st53" d="M1195.6,637.3l93.8,106.3c1.4,1.6,5,2.1,8.2,1.1l182.9-56.1c2.9-0.9,4.1-2.8,2.6-4.3L1381,584.7
			c-1.3-1.3-4.7-1.7-7.5-0.9l-174.7,49.4C1195.8,634.1,1194.4,635.9,1195.6,637.3z"/>
		<path class="st54" d="M1195.7,634.1l93.7,106.2c1.4,1.6,5,2.1,8.2,1.1l182.8-56c2.9-0.9,4.1-2.8,2.6-4.3l-102-99.5
			c-1.3-1.3-4.7-1.7-7.5-0.9L1198.9,630C1195.9,631,1194.5,632.8,1195.7,634.1z"/>
		<polygon class="st55" points="1318.3,733.3 1330.9,747.3 1339.2,738.3 1355.4,739.3 1342.9,725.8 1321.1,732.5 		"/>
		<g>
			<path class="st56" d="M1362.3,582.9c-0.9,0.3-1.8,0.3-2.7,0.3c-0.8-0.1-1.6-0.4-2-0.8c-0.4-0.4-0.4-0.9-0.1-1.4s1-0.9,1.8-1.1
				c1.8-0.5,3.8-0.3,4.6,0.5c0.4,0.4,0.4,0.9,0.1,1.4C1363.8,582.2,1363.2,582.7,1362.3,582.9z M1299.4,751l5.7-1.9l-1-1.1l25.6-8.5
				l1,1.1l158.1-52.8L1381,574.3l-21.7-4.3l-6.9,2.1l7.9,8.5l-3.6,1.1c0.5,0.1,0.9,0.3,1.1,0.6c0.8,0.8,0,2-1.8,2.5
				s-3.8,0.3-4.6-0.5c-0.3-0.3-0.3-0.6-0.3-0.9l-6.2,1.9c0.5,0.1,0.9,0.3,1.1,0.6c0.8,0.8,0,2-1.8,2.5s-3.9,0.3-4.6-0.5
				c-0.3-0.3-0.3-0.6-0.3-0.9l-6.3,1.9c0.5,0.1,0.9,0.3,1.1,0.6c0.8,0.9,0,2-1.8,2.5c-1.8,0.6-3.9,0.3-4.6-0.5
				c-0.3-0.3-0.3-0.6-0.3-0.9l-6.3,1.9c0.5,0.1,0.9,0.4,1.1,0.6c0.8,0.9,0,2-1.8,2.6s-3.9,0.3-4.7-0.6c-0.3-0.3-0.3-0.6-0.3-0.9
				l-6.3,2c0.5,0.1,0.9,0.4,1.1,0.6c0.8,0.9-0.1,2-1.8,2.6c-1.8,0.6-3.9,0.3-4.7-0.6c-0.3-0.3-0.3-0.6-0.2-0.9l-6.3,2
				c0.5,0.1,0.9,0.4,1.1,0.6c0.8,0.9-0.1,2-1.9,2.6s-3.9,0.3-4.7-0.6c-0.3-0.3-0.3-0.6-0.2-0.9l-6.4,2c0.5,0.1,0.9,0.4,1.1,0.6
				c0.8,0.9-0.1,2-1.9,2.6s-3.9,0.3-4.7-0.6c-0.3-0.3-0.3-0.6-0.2-0.9l-5.5,1.7c0.5,0.1,0.9,0.4,1.1,0.6c0.8,0.9-0.1,2-1.9,2.6
				s-3.9,0.3-4.7-0.6c-0.2-0.3-0.3-0.6-0.2-0.9l-6.4,2c0.5,0.1,0.9,0.4,1.1,0.6c0.8,0.9-0.1,2-1.9,2.6s-3.9,0.3-4.7-0.6
				c-0.2-0.3-0.3-0.6-0.2-0.9l-6.4,2c0.5,0.1,0.9,0.4,1.1,0.6c0.8,0.9-0.1,2-2,2.6c-1.8,0.6-3.9,0.3-4.7-0.6
				c-0.2-0.3-0.3-0.6-0.2-0.9l-6.5,2c0.5,0.1,0.9,0.4,1.1,0.6c0.8,0.9-0.1,2.1-2,2.6c-1.8,0.6-3.9,0.3-4.7-0.6
				c-0.2-0.3-0.3-0.6-0.2-0.9l-6.5,2c0.5,0.1,0.9,0.4,1.1,0.7c0.7,0.9-0.1,2.1-2,2.6c-1.8,0.6-4,0.3-4.7-0.6
				c-0.2-0.3-0.3-0.6-0.2-0.9l-6.5,2c0.5,0.1,0.9,0.4,1.1,0.7c0.7,0.9-0.2,2.1-2,2.6c-1.9,0.6-4,0.3-4.7-0.6
				c-0.2-0.3-0.3-0.6-0.2-0.9l-12.2,3.8l12.9,15.6l-6.3,1.5l77.6,94.6L1299.4,751z"/>
		</g>
		<polygon class="st57" points="1372.6,586.5 1367.7,581.7 1207.7,627 1212.2,632.1 		"/>
		<path class="st58" d="M1293.5,739.1l179.9-55l-102.8-100.8L1198.5,632L1293.5,739.1z M1364.4,590.2c-1.7,0.5-3.7,0.3-4.5-0.5
			s0-1.8,1.7-2.2c1.7-0.5,3.7-0.3,4.5,0.5C1366.8,588.7,1366.1,589.7,1364.4,590.2z M1353,593.4c-1.7,0.5-3.7,0.3-4.5-0.5
			s0-1.8,1.7-2.2c1.7-0.5,3.7-0.3,4.5,0.5C1355.5,591.9,1354.7,592.9,1353,593.4z M1341.5,596.7c-1.7,0.5-3.7,0.3-4.5-0.5
			s0-1.8,1.8-2.3c1.7-0.5,3.7-0.3,4.5,0.5C1344,595.2,1343.2,596.2,1341.5,596.7z M1330,599.9c-1.7,0.5-3.7,0.3-4.5-0.5
			c-0.7-0.8,0-1.8,1.8-2.3c1.7-0.5,3.7-0.3,4.5,0.5C1332.5,598.4,1331.7,599.4,1330,599.9z M1318.5,603.2c-1.7,0.5-3.8,0.3-4.5-0.5
			s0.1-1.8,1.8-2.3c1.7-0.5,3.7-0.3,4.5,0.5C1321,601.7,1320.2,602.7,1318.5,603.2z M1306.9,606.5c-1.7,0.5-3.8,0.3-4.5-0.5
			s0.1-1.8,1.8-2.3c1.7-0.5,3.8-0.3,4.5,0.5S1308.6,606,1306.9,606.5z M1295.3,609.8c-1.8,0.5-3.8,0.3-4.5-0.5s0.1-1.8,1.8-2.3
			c1.7-0.5,3.8-0.3,4.5,0.5S1297,609.3,1295.3,609.8z M1283.6,613.1c-1.8,0.5-3.8,0.3-4.5-0.5s0.1-1.8,1.9-2.3s3.8-0.3,4.5,0.5
			S1285.3,612.6,1283.6,613.1z M1272.7,616.2c-1.8,0.5-3.8,0.3-4.5-0.5s0.1-1.8,1.9-2.3s3.8-0.3,4.5,0.5
			C1275.3,614.7,1274.4,615.7,1272.7,616.2z M1260.9,619.5c-1.8,0.5-3.8,0.3-4.5-0.5s0.1-1.8,1.9-2.3s3.8-0.3,4.5,0.5
			S1262.7,619,1260.9,619.5z M1249.1,622.9c-1.8,0.5-3.8,0.3-4.5-0.5s0.1-1.8,1.9-2.3s3.8-0.3,4.5,0.5
			C1251.7,621.3,1250.9,622.4,1249.1,622.9z M1237.2,626.3c-1.8,0.5-3.8,0.3-4.5-0.5s0.1-1.8,1.9-2.3s3.8-0.3,4.5,0.5
			C1239.9,624.7,1239,625.7,1237.2,626.3z M1225.3,629.6c-1.8,0.5-3.8,0.3-4.5-0.5s0.2-1.8,2-2.3s3.8-0.3,4.5,0.5
			S1227.1,629.1,1225.3,629.6z M1213.3,633c-1.8,0.5-3.8,0.3-4.5-0.5s0.2-1.8,2-2.4c1.8-0.5,3.8-0.3,4.5,0.5
			C1216,631.5,1215.1,632.5,1213.3,633z"/>
		<path class="st59" d="M1293.5,728.8l179.9-55L1370.6,573l-172.1,48.7L1293.5,728.8z M1364.4,579.9c-1.7,0.5-3.7,0.3-4.5-0.5
			s0-1.8,1.7-2.2c1.7-0.5,3.7-0.3,4.5,0.5C1366.8,578.5,1366.1,579.5,1364.4,579.9z M1353,583.2c-1.7,0.5-3.7,0.3-4.5-0.5
			s0-1.8,1.7-2.2c1.7-0.5,3.7-0.3,4.5,0.5C1355.5,581.7,1354.7,582.7,1353,583.2z M1341.5,586.4c-1.7,0.5-3.7,0.3-4.5-0.5
			s0-1.8,1.8-2.3c1.7-0.5,3.7-0.3,4.5,0.5C1344,584.9,1343.2,585.9,1341.5,586.4z M1330,589.7c-1.7,0.5-3.7,0.3-4.5-0.5
			c-0.7-0.8,0-1.8,1.8-2.3c1.7-0.5,3.7-0.3,4.5,0.5C1332.5,588.2,1331.7,589.2,1330,589.7z M1318.5,593c-1.7,0.5-3.8,0.3-4.5-0.5
			s0.1-1.8,1.8-2.3c1.7-0.5,3.7-0.3,4.5,0.5C1321,591.4,1320.2,592.5,1318.5,593z M1306.9,596.2c-1.7,0.5-3.8,0.3-4.5-0.5
			s0.1-1.8,1.8-2.3c1.7-0.5,3.8-0.3,4.5,0.5S1308.6,595.8,1306.9,596.2z M1295.3,599.5c-1.8,0.5-3.8,0.3-4.5-0.5s0.1-1.8,1.8-2.3
			c1.7-0.5,3.8-0.3,4.5,0.5S1297,599.1,1295.3,599.5z M1283.6,602.9c-1.8,0.5-3.8,0.3-4.5-0.5s0.1-1.8,1.9-2.3s3.8-0.3,4.5,0.5
			C1286.2,601.3,1285.3,602.4,1283.6,602.9z M1272.7,606c-1.8,0.5-3.8,0.3-4.5-0.5s0.1-1.8,1.9-2.3s3.8-0.3,4.5,0.5
			C1275.3,604.4,1274.4,605.5,1272.7,606z M1260.9,609.3c-1.8,0.5-3.8,0.3-4.5-0.5s0.1-1.8,1.9-2.3s3.8-0.3,4.5,0.5
			C1263.5,607.7,1262.7,608.8,1260.9,609.3z M1249.1,612.6c-1.8,0.5-3.8,0.3-4.5-0.5s0.1-1.8,1.9-2.3s3.8-0.3,4.5,0.5
			S1250.9,612.1,1249.1,612.6z M1237.2,616c-1.8,0.5-3.8,0.3-4.5-0.5s0.1-1.8,1.9-2.3s3.8-0.3,4.5,0.5
			C1239.9,614.5,1239,615.5,1237.2,616z M1225.3,619.4c-1.8,0.5-3.8,0.3-4.5-0.5s0.2-1.8,2-2.3s3.8-0.3,4.5,0.5
			C1228,617.8,1227.1,618.9,1225.3,619.4z M1213.3,622.8c-1.8,0.5-3.8,0.3-4.5-0.5s0.2-1.8,2-2.4c1.8-0.5,3.8-0.3,4.5,0.5
			C1216,621.2,1215.1,622.3,1213.3,622.8z"/>
		<path class="st60" d="M1313.6,585.2l3,3.1l2.2,2.3c0.5,0.5,0,1.2-1.1,1.5h-0.1c-1.1,0.3-2.4,0.2-2.9-0.4l-2.2-2.3l-3-3.1
			c-0.5-0.5,0-1.2,1.1-1.5h0.1C1311.9,584.5,1313.2,584.7,1313.6,585.2z M1229.5,607.8L1229.5,607.8c-1.2,0.3-1.8,1-1.3,1.5l2.9,3.2
			l2.1,2.4c0.5,0.5,1.8,0.7,2.9,0.4h0.1c1.1-0.3,1.7-1,1.2-1.5l-2.2-2.4l-2.9-3.2C1232,607.6,1230.7,607.4,1229.5,607.8z
			 M1299.2,588.2L1299.2,588.2c-1.2,0.3-1.7,1-1.2,1.5l3,3.1l2.2,2.3c0.5,0.5,1.8,0.7,2.9,0.4h0.1c1.1-0.3,1.6-1,1.1-1.5l-2.2-2.3
			l-3-3.1C1301.6,588,1300.3,587.8,1299.2,588.2z M1276,594.7L1276,594.7c-1.2,0.3-1.7,1-1.2,1.5l2.9,3.1l2.2,2.3
			c0.5,0.5,1.8,0.7,2.9,0.4h0.1c1.1-0.3,1.6-1,1.1-1.5l-2.2-2.3l-3-3.1C1278.4,594.5,1277.1,594.4,1276,594.7z M1287.5,591.4
			L1287.5,591.4c-1.2,0.3-1.7,1-1.2,1.5l3,3.1l2.2,2.3c0.5,0.5,1.8,0.7,2.9,0.4h0.1c1.1-0.3,1.6-1,1.1-1.5l-2.2-2.3l-3-3.1
			C1289.9,591.3,1288.6,591.1,1287.5,591.4z M1241.6,604.4L1241.6,604.4c-1.2,0.3-1.7,1-1.3,1.5l2.9,3.1l2.2,2.3
			c0.5,0.5,1.8,0.7,2.9,0.4h0.1c1.1-0.3,1.6-1,1.2-1.5l-2.2-2.3l-2.9-3.1C1244,604.2,1242.7,604,1241.6,604.4z M1253.3,601.1
			L1253.3,601.1c-1.2,0.3-1.7,1-1.3,1.5l2.9,3.1l2.2,2.3c0.5,0.5,1.8,0.7,2.9,0.4h0.1c1.1-0.3,1.6-1,1.2-1.5l-2.2-2.3l-2.9-3.1
			C1255.7,600.9,1254.4,600.7,1253.3,601.1z M1264.9,597.8L1264.9,597.8c-1.2,0.3-1.7,1-1.2,1.5l2.9,3.1l2.2,2.3
			c0.5,0.5,1.8,0.7,2.9,0.4h0.1c1.1-0.3,1.6-1,1.1-1.5l-2.2-2.3l-2.9-3.1C1267.3,597.6,1266,597.5,1264.9,597.8z M1322.2,581.6
			L1322.2,581.6c-1.2,0.3-1.7,1-1.2,1.5l3,3.1l2.2,2.3c0.5,0.5,1.8,0.7,2.9,0.4h0.1c1.1-0.3,1.6-1,1.1-1.5l-2.2-2.3l-3-3.1
			C1324.6,581.5,1323.3,581.3,1322.2,581.6z M1205.9,614.4L1205.9,614.4c-1.2,0.3-1.8,1-1.3,1.5l2.8,3.2l2.1,2.4
			c0.5,0.5,1.8,0.7,2.9,0.4h0.1c1.1-0.3,1.7-1,1.2-1.5l-2.1-2.4l-2.9-3.2C1208.3,614.3,1207,614.1,1205.9,614.4z M1333.6,578.4
			L1333.6,578.4c-1.2,0.3-1.7,1-1.2,1.5l3,3l2.3,2.3c0.5,0.5,1.8,0.7,2.9,0.4h0.1c1.1-0.3,1.6-1,1.1-1.5l-2.3-2.3l-3-3
			C1335.9,578.3,1334.7,578.1,1333.6,578.4z M1345.2,575.2L1345.2,575.2c-1.2,0.3-1.7,1-1.2,1.5l3,3l2.3,2.3
			c0.5,0.5,1.8,0.7,2.9,0.4h0.1c1.1-0.3,1.6-1,1-1.5l-2.3-2.3l-3-3C1347.6,575,1346.3,574.9,1345.2,575.2z M1356.5,572L1356.5,572
			c-1.2,0.3-1.6,1-1.1,1.5l3.1,3l2.3,2.3c0.5,0.5,1.8,0.7,2.9,0.4h0.1c1.1-0.3,1.5-1,1-1.5l-2.3-2.3l-3.1-3
			C1358.8,571.8,1357.6,571.7,1356.5,572z M1217.9,611L1217.9,611c-1.2,0.3-1.8,1-1.3,1.5l2.9,3.2l2.1,2.4c0.5,0.5,1.8,0.7,2.9,0.4
			h0.1c1.1-0.3,1.7-1,1.2-1.5l-2.1-2.4l-2.9-3.2C1220.3,610.9,1219,610.7,1217.9,611z"/>
	</g>
	<g>
		<polygon class="st61" points="1347,614.5 1245.6,643.6 1243.1,640.9 1344.4,611.8 		"/>
		<polygon class="st61" points="1361.5,629.3 1259.5,659 1257,656.1 1358.9,626.6 		"/>
		<polygon class="st61" points="1376.4,644.3 1273.7,674.6 1271.1,671.7 1373.6,641.6 		"/>
		<polygon class="st61" points="1391.4,659.7 1288.1,690.5 1285.4,687.6 1388.7,656.9 		"/>
		<polygon class="st61" points="1406.8,675.3 1302.7,706.7 1300,703.7 1404,672.4 		"/>
	</g>
	<g>
		<polygon class="st62" points="1367.1,609.6 1358.1,609 1359.3,607.1 1364.5,607.4 1367.7,602.2 1371.5,602.5 		"/>
		<polygon class="st62" points="1382.1,624.6 1373,624 1374.1,622 1379.4,622.4 1382.6,617.1 1386.4,617.3 		"/>
		<polygon class="st62" points="1397.7,640.3 1388.5,639.6 1389.7,637.6 1394.9,638 1398.1,632.6 1402,632.8 		"/>
	</g>
</g>
<g>
	<path class="st63" d="M1291,644.7l-7.9,2.2l-23.5,6.5c-6.7,1.8-13.4,3.9-20,6c-5.8,1.9-11.5,3.8-17.1,5.9l-37.3,13.7
		c-0.2,0.1-0.5,0.2-0.7,0.2c-0.2,0.1-0.5,0.1-0.7,0.2l-40.4,11.4c-6.1,1.7-12.3,3.6-18.3,5.5c-6.8,2.2-13.6,4.6-20.2,7l-23.3,8.7
		l-8,3c-1.1,0.4-1.6,1.1-1.2,1.6l5,5.4c0.4,0.5,1.6,0.6,2.8,0.3l9-2.3c0.7-0.2,1.4-0.1,1.8,0.1l11.7,8.4c-1.6,2-2.1,4-1.2,5.8
		l2.2,4.7c0.4,0.8,1.4,1.3,2.9,1.5s3.4,0,5-0.5c1.1-0.4,2.1-0.9,2.8-1.5l4.3-4c5.2,0.3,10.9-0.4,16.3-2l10-2.9
		c2.7-0.8,5.5-1.6,8.2-2.5c3.6-1.2,7.1-2.4,10.5-3.8l12.4-4.8c7.1-2.8,11.4-6.9,11.2-10.7l-0.6-14.7l0.5-0.1
		c1.7-0.4,3.3-0.9,4.9-1.4c1.2-0.4,2.3-0.8,3.4-1.2c1.2-0.3,2.4-0.7,3.6-1c1.6-0.5,3.1-1.1,4.6-1.7l0.5-0.2l21.7,7.7
		c5.6,2,13.9,2,21.4-0.1l13.1-3.6c3.6-1,7.1-2,10.6-3.2c2.6-0.8,5.1-1.7,7.6-2.7l8.9-3.3c4.7-1.8,8.3-4.1,10.4-6.7l7.6-0.1
		c1.2,0,2.4-0.2,3.5-0.6l0,0c1.5-0.5,2.6-1.3,3.1-2.1c0.4-0.8,0.2-1.6-0.8-2.1l-5.7-3.4c-2.1-1.2-5.2-2-8.7-2.3l-6.7-9.7
		c-0.2-0.3,0.1-0.7,0.7-0.9l7.5-3c1-0.4,1.3-1,0.9-1.4l-5.4-5C1293.3,644.5,1292,644.4,1291,644.7z M1237.9,673.3
		c0.8-0.3,1.6-0.6,2.3-0.9l44-16c0.9,0.6,1.6,1.2,2,1.9l4.6,6.8c-0.3,0-0.6,0.1-1,0.1C1272.6,667.4,1255.1,670.1,1237.9,673.3z
		 M1241.3,661.9c6-1.9,12.2-3.8,18.4-5.5l1.6-0.5l-52.4,19.9c-0.6,0.2-1.2,0.4-1.7,0.7c1.5-2.1,4.5-4.1,8.5-5.6l9.9-3.6
		C1230.7,665.5,1236,663.7,1241.3,661.9z M1292.7,675.5c-1.4,1.6-3.6,3-6.4,4.2c-5.7,2.4-11.8,4.6-18,6.7c-6.2,2-12.7,3.9-19.3,5.6
		l-2.5,0.6c-6.6,1.7-13.8,1.5-18.3-0.4l-17.8-7.5l6.5-2.8l0.3-0.1c11.3-3.7,23.6-5.7,35.6-5.8L1292.7,675.5z M1143.7,711.5
		c6.6-6,16.2-11.1,27.7-14.9l0.3-0.1l7.7-1.8l2.3,12.7c0.6,3.2-2.9,6.9-8.9,9.4l-2.2,0.9c-6,2.5-12.4,4.8-18.8,7
		c-6.5,2.1-13.2,4.1-20.1,5.8c-3.4,0.9-6.9,1.3-10.1,1.2L1143.7,711.5z M1106.8,725c-0.2,0.1-0.4,0.3-0.6,0.4l-8.2-5.9
		c-0.8-0.6-1.5-1.3-1.8-2l48.9-14.1c0.9-0.2,1.7-0.5,2.6-0.7C1133.4,709.7,1119.7,717.2,1106.8,725z M1145.1,693.4l10.8-3.1
		c4.3-1.2,8.9-1.7,13-1.3c-0.7,0.2-1.4,0.4-2.1,0.6l-58.8,16l1.7-0.6c6.1-2.3,12.3-4.4,18.6-6.5
		C1133.8,696.7,1139.4,695,1145.1,693.4z"/>
	<g>
		<g>
			<path class="st64" d="M1076.8,700.5l7.6,6.1l59-18.6c5.7-1.8,11.5-3.5,17.4-5l21.5-5.5c2.7-0.7,5.3-1.6,7.5-2.6l12.7-5.9
				c11.4-5.3,25.9-8.3,40.6-8.4l52.4-0.6c3.9,0,6-2.4,3.3-3.7l-6.7-3.3c-3.9-1.9-9.6-2.6-15.2-1.9l0,0
				c-39.7,5.2-78.4,13.4-115.1,24.2L1076.8,700.5z"/>
			<path class="st65" d="M1272.1,630.5l7.9,5.7l-51.3,21c-5.1,2.1-9.9,4.3-14.6,6.6l-17.3,8.5c-2.2,1.1-4.7,2-7.4,2.7l-15,4.1
				c-13.7,3.8-24.5,10-30.3,17.3l-21,26.7c-1.6,2-6.9,2.3-8.3,0.4l-3.6-4.7c-2.1-2.7-1.2-5.9,2.3-8.5l0,0
				c24.9-18.4,54-34.8,86.5-48.8L1272.1,630.5z"/>
		</g>
		<path class="st66" d="M1272.3,634.5l-7.2,2.2l-22.7,3.4c-10.9,1.8-20.6,8.4-32.3,11.6l-33,13.7c0.2,3.3,0,3.4-0.3,3.5
			c-0.2,0.1-0.5,0.2-0.8-3.3l-36.8,11.3c-12,5-33.9,10.4-44.6,18.1l-10.2,6.6l-7.8-0.7c-0.5,0.2,0.2,4.2,0.4,4.4l6.7,5.4
			c0.3,0.2,0.8,0.3,1.3,0.1l8.2-2.3c1.2-0.3,2.5-0.2,3.3,0.2c5.8,3.4,12.7,7.5,18.4,10.8c6.6,3.9,18.3,4.5,27.9,1.5
			c3.1-1,6.3-2,9.1-2.9c5.8-1.8,11.3-3.9,16.5-6.2l10.9-4.8c5.8-2.6,8.7-6.5,7.4-10.1l-6.3-18c-0.6-1.7,0.9-3.5,3.9-4.5l0,0
			c2.9-1.1,6.6-1.2,9.4-0.3l29.6,9.4c5.9,1.9,13.6,1.8,20.1-0.1l12-3.6c5.7-1.7,11.1-3.6,16.1-5.8l7.9-3.3c8.2-3.5,10.7-9,6.4-13.7
			c-3.9-4.3-8-11.1-11.7-14c-0.6-0.4-0.9,0.4,0,0c1.9-0.9,5.1-2.3,6.5-3c0.4-0.2,0.5-0.5,0.2-0.7l-0.3-4.1
			C1280,635.3,1272.8,634.4,1272.3,634.5z M1178.1,683.8l6.2,12.6c1.7,3.5-2.3,4.7-5.4,6l-3.6,1.5c-10.2,5.4-22.2,8.8-35.5,13.5
			c-1.7,0.6-1.7,0.6-21.6-0.7l-14.2-8.1c-12.2-14.4-7.2-10.8,2.1-13.5l3.4-1.4c10.2-4.3,20.9-8.1,31.9-11.6l9.8-3
			C1162.2,675.7,1175.3,678,1178.1,683.8z M1273.3,647.3l10.9,10.9c3.6,3.6-1.6,6.7-4.2,8c-9.1,4.7-21.4,8-35,11.7l-11.8,2
			c-8.4,0.4-6.9-1.9-10.3-0.3l-20-7.9c-9.2-3.4-7.4-7.9,2.2-11.9l8.8-3.6c9.8-4,20.1-7.7,30.8-10.9l3.5-1.1
			C1257.4,641.4,1268.8,642.8,1273.3,647.3z"/>
		<path class="st67" d="M1272,630.4l-7.2,2.2l-21.5,6.4c-11.5,3.5-22.6,7.4-33.2,11.8l-33,13.7c-0.2,0.1-0.5,0.2-0.7,0.3
			s-0.5,0.2-0.7,0.2l-36.8,11.3c-11.9,3.7-23.5,7.8-34.4,12.4l-20.6,8.7l-7,2.9c-0.5,0.2-0.6,0.5-0.3,0.7l6.7,5.4
			c0.3,0.2,0.8,0.3,1.3,0.1l8.2-2.3c1.2-0.3,2.5-0.2,3.3,0.2c5.8,3.4,12.7,7.5,18.4,10.8c6.6,3.9,18.3,4.5,27.9,1.5
			c3.1-1,6.3-2,9.1-2.9c5.8-1.8,11.3-3.9,16.5-6.2l10.9-4.8c5.8-2.6,8.7-6.5,7.4-10.1l-6.3-18c-0.6-1.7,0.9-3.5,3.9-4.5l0,0
			c2.9-1.1,6.6-1.2,9.4-0.3l29.6,9.4c5.9,1.9,13.6,1.8,20.1-0.1l12-3.6c5.7-1.7,11.1-3.6,16.1-5.8l7.9-3.3
			c8.2-3.5,10.9-9.2,6.4-13.7c-3.8-3.9-8.5-8.5-12.4-12.4c-0.5-0.5-0.2-1.2,0.7-1.6c1.9-0.9,5.1-2.3,6.5-3c0.4-0.2,0.5-0.5,0.2-0.7
			l-7-5C1273,630.3,1272.5,630.3,1272,630.4z M1176.9,679.7l6.2,12.6c1.7,3.5-0.7,7.4-6.3,10l-2,0.9c-10.6,5-22.5,9.4-35.2,12.9
			c-7.9,2.2-17.1,1.5-22.4-1.6L1101,705c-6.7-3.9-4.8-10.3,4-14l3.4-1.4c10.2-4.3,20.9-8.1,31.9-11.6l9.8-3
			C1160.9,671.6,1174,673.9,1176.9,679.7z M1272,643.2l10.9,10.9c3.6,3.6,1.7,8.1-4.5,11.1c-10.1,4.8-21.5,9-33.7,12.3l-2.3,0.6
			c-6.5,1.8-14.1,1.6-19.6-0.4l-20-7.5c-9.2-3.4-8.7-10.6,1-14.6l8.8-3.6c9.8-4,20.1-7.7,30.8-10.9l3.5-1.1
			C1256.1,637.3,1267.5,638.7,1272,643.2z"/>
		<g>
			<g>
				<g>
					<defs>
						<polygon id="SVGID_63_" points="1,1 2,1 1,2 						"/>
					</defs>
					<defs>
						<polygon id="SVGID_64_" points="-1,-1 -2,-1 -1,-2 						"/>
					</defs>
					<clipPath id="SVGID_65_">
						<use xlink:href="#SVGID_63_"  style="overflow:visible;"/>
					</clipPath>
					<clipPath id="SVGID_66_" class="st68">
						<use xlink:href="#SVGID_64_"  style="overflow:visible;"/>
					</clipPath>
					
						<linearGradient id="SVGID_67_" gradientUnits="userSpaceOnUse" x1="909.636" y1="521.3943" x2="909.636" y2="472.1065" gradientTransform="matrix(0.6181 -0.5663 -0.8663 -0.8242 1010.134 1619.8414)">
						<stop  offset="0" style="stop-color:#F7F7F7"/>
						<stop  offset="1" style="stop-color:#000000"/>
					</linearGradient>
					<path class="st69" d="M1176.7,702.3l-2,0.9c-10.6,5-22.5,9.4-35.2,12.9l0,0c-7.9,2.2-17.1,1.5-22.4-1.6L1101,705
						c-6.7-3.9-4.8-10.3,4-14l3.4-1.4c10.2-4.3,20.9-8.1,31.9-11.6l9.8-3c10.8-3.3,23.9-1,26.7,4.7l6.2,12.6
						C1184.8,695.7,1182.3,699.6,1176.7,702.3z"/>
				</g>
			</g>
			
				<linearGradient id="SVGID_68_" gradientUnits="userSpaceOnUse" x1="909.636" y1="521.3943" x2="909.636" y2="472.1065" gradientTransform="matrix(0.6181 -0.5663 -0.8663 -0.8242 1010.134 1619.8414)">
				<stop  offset="0" style="stop-color:#FFFFFF"/>
				<stop  offset="1" style="stop-color:#FFFFFF"/>
			</linearGradient>
			<path class="st70" d="M1176.7,702.3l-2,0.9c-10.6,5-22.5,9.4-35.2,12.9l0,0c-7.9,2.2-17.1,1.5-22.4-1.6L1101,705
				c-6.7-3.9-4.8-10.3,4-14l3.4-1.4c10.2-4.3,20.9-8.1,31.9-11.6l9.8-3c10.8-3.3,23.9-1,26.7,4.7l6.2,12.6
				C1184.8,695.7,1182.3,699.6,1176.7,702.3z"/>
			<g class="st71">
				<path class="st0" d="M1125.1,683.1l0.6,0.5l0,0c5-1.8,10.1-3.5,15.2-5.1l9.8-3.1c4.8-1.5,10.4-1.8,15.3-1
					c4.9,0.9,8.4,2.8,9.7,5.4l6.2,12.6c1.6,3.2-0.7,6.9-5.9,9.4l-2,0.9c-5.2,2.5-10.8,4.8-16.6,6.9c-5.8,2.1-12,4.1-18.2,5.8
					c-7.4,2-16,1.4-21-1.5l-16.2-9.5c-3-1.8-4.3-4.1-3.6-6.6c0.7-2.5,3.3-4.8,7.3-6.5l3.4-1.4c5.4-2.2,10.9-4.4,16.6-6.4
					L1125.1,683.1 M1125.1,683.1c-5.7,2-11.2,4.2-16.7,6.5l-3.4,1.4c-8.8,3.7-10.7,10.1-4,14l16.2,9.5c5.3,3.1,14.5,3.8,22.4,1.6
					l0,0c6.4-1.8,12.5-3.7,18.4-5.9c5.9-2.1,11.5-4.5,16.8-7l2-0.9c5.6-2.6,8.1-6.5,6.3-10l-6.2-12.6c-2.8-5.8-15.9-8.1-26.7-4.7
					l-9.8,3C1135.1,679.6,1130,681.3,1125.1,683.1L1125.1,683.1z"/>
			</g>
			<path class="st72" d="M1092.2,699.7l-8,2.5c-0.4,0.1-0.9,0.1-1.1-0.1l0,0c-0.2-0.2-0.1-0.5,0.3-0.6l7.3-3
				c0.8-0.3,1.8-0.3,2.3,0.1l0,0C1093.4,698.9,1093.1,699.4,1092.2,699.7z"/>
		</g>
		<g>
			<g>
				<g class="st71">
					<path class="st0" d="M1242.4,678.2l2.3-0.6c12.2-3.4,23.6-7.5,33.7-12.3l0,0c6.3-3,8.1-7.5,4.5-11.1l-10.9-10.9
						c-4.5-4.5-15.9-5.9-25.1-3.1l-3.5,1.1c-10.7,3.2-21,6.9-30.8,10.9l-8.8,3.6c-9.7,4-10.2,11.2-1,14.6l20,7.5
						C1228.2,679.8,1235.9,680,1242.4,678.2z"/>
				</g>
			</g>
			<g>
				<g>
					<defs>
						<polygon id="SVGID_69_" points="1,1 2,1 1,2 						"/>
					</defs>
					<defs>
						<polygon id="SVGID_70_" points="-1,-1 -2,-1 -1,-2 						"/>
					</defs>
					<clipPath id="SVGID_71_">
						<use xlink:href="#SVGID_69_"  style="overflow:visible;"/>
					</clipPath>
					<clipPath id="SVGID_72_" class="st73">
						<use xlink:href="#SVGID_70_"  style="overflow:visible;"/>
					</clipPath>
					
						<linearGradient id="SVGID_73_" gradientUnits="userSpaceOnUse" x1="909.636" y1="521.3943" x2="909.636" y2="472.1065" gradientTransform="matrix(0.6181 -0.5663 -0.8663 -0.8242 1010.134 1619.8414)">
						<stop  offset="0" style="stop-color:#F7F7F7"/>
						<stop  offset="1" style="stop-color:#000000"/>
					</linearGradient>
					<path class="st74" d="M1176.7,702.3l-2,0.9c-10.6,5-22.5,9.4-35.2,12.9l0,0c-7.9,2.2-17.1,1.5-22.4-1.6L1101,705
						c-6.7-3.9-4.8-10.3,4-14l3.4-1.4c10.2-4.3,20.9-8.1,31.9-11.6l9.8-3c10.8-3.3,23.9-1,26.7,4.7l6.2,12.6
						C1184.8,695.7,1182.3,699.6,1176.7,702.3z"/>
				</g>
			</g>
			
				<linearGradient id="SVGID_74_" gradientUnits="userSpaceOnUse" x1="909.636" y1="521.3943" x2="909.636" y2="472.1065" gradientTransform="matrix(0.6181 -0.5663 -0.8663 -0.8242 1010.134 1619.8414)">
				<stop  offset="0" style="stop-color:#FFFFFF"/>
				<stop  offset="1" style="stop-color:#FFFFFF"/>
			</linearGradient>
			<path class="st75" d="M1176.7,702.3l-2,0.9c-10.6,5-22.5,9.4-35.2,12.9l0,0c-7.9,2.2-17.1,1.5-22.4-1.6L1101,705
				c-6.7-3.9-4.8-10.3,4-14l3.4-1.4c10.2-4.3,20.9-8.1,31.9-11.6l9.8-3c10.8-3.3,23.9-1,26.7,4.7l6.2,12.6
				C1184.8,695.7,1182.3,699.6,1176.7,702.3z"/>
			<g class="st76">
				<g>
					<g>
						<defs>
							<polygon id="SVGID_75_" points="1,1 2,1 1,2 							"/>
						</defs>
						<defs>
							<polygon id="SVGID_76_" points="-1,-1 -2,-1 -1,-2 							"/>
						</defs>
						<clipPath id="SVGID_77_">
							<use xlink:href="#SVGID_75_"  style="overflow:visible;"/>
						</clipPath>
						<clipPath id="SVGID_78_" class="st77">
							<use xlink:href="#SVGID_76_"  style="overflow:visible;"/>
						</clipPath>
						
							<linearGradient id="SVGID_79_" gradientUnits="userSpaceOnUse" x1="1020.7842" y1="487.2505" x2="1020.7842" y2="437.4914" gradientTransform="matrix(0.6181 -0.5663 -0.8663 -0.8242 1010.134 1619.8414)">
							<stop  offset="0" style="stop-color:#F7F7F7"/>
							<stop  offset="1" style="stop-color:#000000"/>
						</linearGradient>
						<path class="st78" d="M1242.4,678.2l2.3-0.6c12.2-3.4,23.6-7.5,33.7-12.3l0,0c6.3-3,8.1-7.5,4.5-11.1l-10.9-10.9
							c-4.5-4.5-15.9-5.9-25.1-3.1l-3.5,1.1c-10.7,3.2-21,6.9-30.8,10.9l-8.8,3.6c-9.7,4-10.2,11.2-1,14.6l20,7.5
							C1228.2,679.8,1235.9,680,1242.4,678.2z"/>
					</g>
				</g>
				
					<linearGradient id="SVGID_80_" gradientUnits="userSpaceOnUse" x1="1020.7842" y1="487.2505" x2="1020.7842" y2="437.4914" gradientTransform="matrix(0.6181 -0.5663 -0.8663 -0.8242 1010.134 1619.8414)">
					<stop  offset="0" style="stop-color:#FFFFFF"/>
					<stop  offset="1" style="stop-color:#FFFFFF"/>
				</linearGradient>
				<path class="st79" d="M1242.4,678.2l2.3-0.6c12.2-3.4,23.6-7.5,33.7-12.3l0,0c6.3-3,8.1-7.5,4.5-11.1l-10.9-10.9
					c-4.5-4.5-15.9-5.9-25.1-3.1l-3.5,1.1c-10.7,3.2-21,6.9-30.8,10.9l-8.8,3.6c-9.7,4-10.2,11.2-1,14.6l20,7.5
					C1228.2,679.8,1235.9,680,1242.4,678.2z"/>
			</g>
			<g>
				<g class="st71">
					<path class="st0" d="M1227.2,647.2c5.4-1.9,11-3.8,16.7-5.5l3.5-1.1c4.2-1.3,8.9-1.7,13.4-1.1c4.5,0.6,8.1,2,10.1,4l10.9,10.9
						c3.3,3.3,1.6,7.6-4.2,10.4c-5,2.4-10.3,4.6-15.9,6.6s-11.5,3.9-17.5,5.6l-2.3,0.6c-6,1.7-13.3,1.5-18.4-0.4l-20-7.5
						c-4.1-1.5-6.4-4-6.2-6.6c0.2-2.7,2.8-5.2,7.1-7l8.8-3.6C1217.7,650.7,1222.5,648.9,1227.2,647.2 M1226.6,646.7
						c-4.8,1.7-9.5,3.5-14.1,5.4l-8.8,3.6c-9.7,4-10.2,11.2-1,14.6l20,7.5c5.5,2.1,13.1,2.2,19.6,0.4l2.3-0.6
						c6.1-1.7,12-3.6,17.7-5.6c5.6-2.1,11-4.3,16-6.7l0,0c6.3-3,8.1-7.5,4.5-11.1l-10.9-10.9c-4.5-4.5-15.9-5.9-25.1-3.1l-3.5,1.1
						C1237.6,642.9,1232,644.8,1226.6,646.7L1226.6,646.7z"/>
				</g>
			</g>
			<path class="st72" d="M1265.9,637.3l6.7-2.8c0.4-0.1,0.4-0.4,0.2-0.6l0,0c-0.2-0.2-0.7-0.2-1.1-0.1l-7.5,2.3
				c-0.8,0.2-1,0.7-0.6,1.1l0,0C1264.2,637.5,1265.2,637.6,1265.9,637.3z"/>
		</g>
	</g>
</g>
<g>
	<g>
		<polygon class="st80" points="1339.7,831.1 1339.7,787.7 1385.7,809.4 		"/>
		<polygon class="st81" points="2189.1,931.3 2189.1,890 2154.1,913.2 2169,946.7 		"/>
	</g>
	<g>
		<path class="st82" d="M2197.7,978.3L1903,1121.7c-23.7,11.5-58.6,12.6-77.7,2.3l-483.6-259.9c-17.2-9.3-12.2-25.1,11.2-35.4
			l293-129.2c22.3-9.8,54.5-10.7,72-2l485.5,243.9C2222.4,951,2220,967.4,2197.7,978.3z"/>
		<path class="st81" d="M2171.1,951.5l-284.3,137.7c-22.8,11.1-56.3,12.1-74.6,2.3l-462.8-247.9c-16.5-8.9-11.6-24,10.9-34L1643,685
			c21.6-9.5,52.6-10.4,69.3-2L2177,916.2C2195.2,925.3,2192.6,941.1,2171.1,951.5z"/>
		<path class="st83" d="M1378.6,813.9l-38.7-24l-0.2,41.2l0.7,3.5c0.1,4.6,7.7,8.3,14.1,11.7l457.3,245.4c6.4,3.4,14.7,5.5,23.7,6.3
			v-35.8L1378.6,813.9z"/>
		<path class="st84" d="M2171.1,908.5l-284.3,137.7c-22.8,11.1-56.3,12.1-74.6,2.3l-462.8-247.9c-16.5-8.9-11.6-24,10.9-34
			L1643.1,642c21.6-9.5,52.6-10.4,69.3-2L2177,873.1C2195.2,882.3,2192.6,898,2171.1,908.5z"/>
		<polygon class="st85" points="2135.2,852.2 1770.9,1026.3 1377.8,815.7 1740.6,654.2 		"/>
		<path class="st86" d="M1577.1,708.8l-68.5,30.4c-3.5,1.6-8.5,1.7-11.2,0.3l0,0c-2.7-1.4-2-3.8,1.5-5.3l68.4-30.3
			c3.5-1.5,8.5-1.7,11.1-0.3l0,0C1581.2,704.9,1580.6,707.2,1577.1,708.8z"/>
		<path class="st86" d="M2055.5,927.7l-113.7,54.5c-3.5,1.6-8.5,1.7-11.2,0.3l0,0c-2.7-1.4-2-3.8,1.5-5.3l113.6-54.5
			c3.5-1.5,8.5-1.7,11.1-0.3l0,0C2059.6,923.8,2059,926.2,2055.5,927.7z"/>
	</g>
	<polygon class="st87" points="1744.8,656.5 1773.6,1027.1 1385.7,814 	"/>
</g>
<g>
	<g>
		<defs>
			<path id="SVGID_81_" d="M2171.1,908.5l-284.3,137.7c-22.8,11.1-56.3,12.1-74.6,2.3l-462.8-247.9c-16.5-8.9-11.6-24,10.9-34
				L1643.1,642c21.6-9.5,52.6-10.4,69.3-2L2177,873.1C2195.2,882.3,2192.6,898,2171.1,908.5z"/>
		</defs>
		<clipPath id="SVGID_82_">
			<use xlink:href="#SVGID_81_"  style="overflow:visible;"/>
		</clipPath>
		<path class="st88" d="M2225.7,875.6l-191.7,85l-700.5-97.3c-13.1-1.8-15.6-17.6-3.6-22.6l435.6-179.6L2225.7,875.6z"/>
	</g>
</g>
<g>
	<g>
		<path class="st89" d="M2166.2,839.4h-794.6c-18.4,0-33.4-14.9-33.4-33.4V294.4c0-18.4,14.9-33.4,33.4-33.4h794.6
			c18.4,0,33.4,14.9,33.4,33.4V806C2199.6,824.4,2184.6,839.4,2166.2,839.4z"/>
		<g>
			<path class="st90" d="M1379.3,731.6V320.8c0-8,6.5-14.6,14.6-14.6H2144c8,0,14.6,6.5,14.6,14.6v410.8c0,8-6.5,14.6-14.6,14.6
				h-750.1C1385.8,746.1,1379.3,739.6,1379.3,731.6z"/>
		</g>
	</g>
</g>
<g>
	<g>
		<ellipse class="st2" cx="1295.8" cy="985.3" rx="124.7" ry="44.9"/>
		<path class="st91" d="M1405.4,963.2c0,28-55.8,54.8-124.5,54.8c-68.8,0-124.5-26.8-124.5-54.8s55.8-50.7,124.5-50.7
			S1405.4,935.2,1405.4,963.2z"/>
		<path class="st92" d="M1406.1,952.5c0,30.4-56.1,57.9-125.2,57.9c-69.2,0-125.2-27.6-125.2-57.9c0-30.4,56.1-55,125.2-55
			S1406.1,922.2,1406.1,952.5z"/>
		<ellipse class="st93" cx="1280.9" cy="952.5" rx="124.5" ry="54.4"/>
		<g>
			<g>
				<defs>
					<polygon id="SVGID_83_" points="1,1 2,1 1,2 					"/>
				</defs>
				<defs>
					<polygon id="SVGID_84_" points="-1,-1 -2,-1 -1,-2 					"/>
				</defs>
				<clipPath id="SVGID_85_">
					<use xlink:href="#SVGID_83_"  style="overflow:visible;"/>
				</clipPath>
				<clipPath id="SVGID_86_" class="st94">
					<use xlink:href="#SVGID_84_"  style="overflow:visible;"/>
				</clipPath>
				
					<linearGradient id="SVGID_87_" gradientUnits="userSpaceOnUse" x1="1275.4357" y1="262.4575" x2="1328.1653" y2="118.1212" gradientTransform="matrix(1 0 0 -1 0 1200)">
					<stop  offset="0" style="stop-color:#000000"/>
					<stop  offset="0.9416" style="stop-color:#F0F0F0"/>
					<stop  offset="1" style="stop-color:#FFFFFF"/>
				</linearGradient>
				<ellipse class="st95" cx="1280.9" cy="952.5" rx="124.5" ry="54.4"/>
			</g>
		</g>
		
			<linearGradient id="SVGID_88_" gradientUnits="userSpaceOnUse" x1="1275.4357" y1="262.4575" x2="1328.1653" y2="118.1212" gradientTransform="matrix(1 0 0 -1 0 1200)">
			<stop  offset="0" style="stop-color:#000000"/>
			<stop  offset="0.9416" style="stop-color:#211D1E"/>
			<stop  offset="1" style="stop-color:#231F20"/>
		</linearGradient>
		<ellipse class="st96" cx="1280.9" cy="952.5" rx="124.5" ry="54.4"/>
		<g>
			<g>
				<defs>
					<polygon id="SVGID_89_" points="1,1 2,1 1,2 					"/>
				</defs>
				<defs>
					<polygon id="SVGID_90_" points="-1,-1 -2,-1 -1,-2 					"/>
				</defs>
				<clipPath id="SVGID_91_">
					<use xlink:href="#SVGID_89_"  style="overflow:visible;"/>
				</clipPath>
				<clipPath id="SVGID_92_" class="st97">
					<use xlink:href="#SVGID_90_"  style="overflow:visible;"/>
				</clipPath>
				
					<linearGradient id="SVGID_93_" gradientUnits="userSpaceOnUse" x1="1278.8434" y1="289.3428" x2="1281.7759" y2="229.6802" gradientTransform="matrix(1 0 0 -1 0 1200)">
					<stop  offset="0" style="stop-color:#FFFFFF"/>
					<stop  offset="1" style="stop-color:#000000"/>
				</linearGradient>
				<ellipse class="st98" cx="1280.9" cy="952.5" rx="124.5" ry="54.4"/>
			</g>
		</g>
		
			<linearGradient id="SVGID_94_" gradientUnits="userSpaceOnUse" x1="1278.8434" y1="289.3428" x2="1281.7759" y2="229.6802" gradientTransform="matrix(1 0 0 -1 0 1200)">
			<stop  offset="0" style="stop-color:#FFFFFF"/>
			<stop  offset="1" style="stop-color:#FFFFFF"/>
		</linearGradient>
		<ellipse class="st99" cx="1280.9" cy="952.5" rx="124.5" ry="54.4"/>
	</g>
	<g>
		<path class="st100" d="M1341.9,859.2c-18.9,13.7-49.4,16.5-49.4,30.3c0,10.4,11.1,27.8,26.9,35.7c-10-7.6-14.2-23.9-14.2-33.8
			c0-13.2,19.6-10.9,34.6-23.9c14.8-12.9,36.4-14.3,34.6,4.3c-2.6,26-22.1,55.5-40.6,57.5c0.9,0.1,1.7,0.1,2.6,0.1
			c24.2,0,41-35,45.6-56.8C1387.6,845.6,1360.7,845.7,1341.9,859.2z"/>
		<path class="st101" d="M1340.4,864.5c-18.9,13.7-43.8,11.2-43.8,25.1c0,10.4,11.1,27.8,26.9,35.7c-10-7.6-14.2-23.9-14.2-33.8
			c0-13.2,19.6-10.9,34.6-23.9c14.8-12.9,38.7-14.3,36.8,4.3c-2.6,26-24.4,55.5-42.9,57.5c0.9,0.1,1.7,0.1,2.6,0.1
			c24.2,0,43.7-46.6,43.8-60.5C1384.3,843.7,1359.2,850.9,1340.4,864.5z"/>
	</g>
	<g>
		<ellipse class="st12" cx="1293.3" cy="975.1" rx="64.8" ry="18"/>
		<path class="st2" d="M1323.2,970.1c0,7.6-19.4,16.5-43.2,16.5c-23.9,0-43.2-8.8-43.2-16.5c0-7.6,19.4-13.8,43.2-13.8
			C1303.9,956.2,1323.2,962.4,1323.2,970.1z"/>
		<g>
			<ellipse class="st102" cx="1279.9" cy="861" rx="78.2" ry="35.9"/>
			<g>
				<ellipse class="st103" cx="1279.9" cy="884.5" rx="73.4" ry="38.2"/>
				<path class="st104" d="M1332.8,871.6c-8-15.1-18.9-12.3-53-12.3c-34,0-49.8-1.2-58.8,19.2c-8,18.2,24.2,36.1,58.2,36.1
					C1313.3,914.7,1342.9,890.7,1332.8,871.6z"/>
				<g>
					<path class="st103" d="M1296,854.4c0-1.6-2.5-2.9-5.6-2.9s-5.6,1.3-5.6,2.9c0,1.6,2.5,2.9,5.6,2.9
						C1293.5,857.3,1296,856,1296,854.4z"/>
					<ellipse class="st103" cx="1299.6" cy="855.6" rx="5" ry="2.6"/>
					<ellipse class="st103" cx="1307.9" cy="855.6" rx="5" ry="2.6"/>
					<path class="st103" d="M1316.2,857.3c0-1-1.5-1.7-3.3-1.7s-3.3,0.8-3.3,1.7c0,1,1.5,1.7,3.3,1.7S1316.2,858.3,1316.2,857.3z"/>
					<path class="st105" d="M1293.2,854.4c0-0.8-1.2-1.4-2.7-1.4s-2.7,0.6-2.7,1.4c0,0.8,1.2,1.4,2.7,1.4
						C1292,855.8,1293.2,855.2,1293.2,854.4z"/>
					<path class="st105" d="M1303,855.6c0-1-1.5-1.7-3.3-1.7s-3.3,0.8-3.3,1.7c0,1,1.5,1.7,3.3,1.7S1303,856.5,1303,855.6z"/>
					<path class="st105" d="M1311.2,855.6c0-1-1.5-1.7-3.3-1.7s-3.3,0.8-3.3,1.7c0,1,1.5,1.7,3.3,1.7S1311.2,856.5,1311.2,855.6z"/>
					<path class="st105" d="M1316.4,857.3c0-0.5-0.8-0.9-1.8-0.9s-1.8,0.4-1.8,0.9s0.8,0.9,1.8,0.9S1316.4,857.8,1316.4,857.3z"/>
				</g>
			</g>
		</g>
		<g>
			<path class="st100" d="M1316,975.6L1316,975.6c-22.6,9.8-49.4,9.8-71.9,0l0,0c-4.7-2-8.5-5.3-10.9-9.3l-12-20.1
				c-8.9-14.8-14.6-30.9-17.1-47.4l-4.5-35.7l11.2,15.4c41.8,20.3,90.2,26.6,136.3-0.9l13.4-14.5l-4.6,36.4
				c-2.5,16.9-8.5,33.4-17.7,48.5l-11.3,18.5C1324.4,970.4,1320.7,973.6,1316,975.6z"/>
			<g>
				<g>
					<defs>
						<polygon id="SVGID_95_" points="1,1 2,1 1,2 						"/>
					</defs>
					<defs>
						<polygon id="SVGID_96_" points="-1,-1 -2,-1 -1,-2 						"/>
					</defs>
					<clipPath id="SVGID_97_">
						<use xlink:href="#SVGID_95_"  style="overflow:visible;"/>
					</clipPath>
					<clipPath id="SVGID_98_" class="st106">
						<use xlink:href="#SVGID_96_"  style="overflow:visible;"/>
					</clipPath>
					
						<linearGradient id="SVGID_99_" gradientUnits="userSpaceOnUse" x1="1294.6122" y1="287.6288" x2="1402.0566" y2="176.0834" gradientTransform="matrix(1 0 0 -1 0 1200)">
						<stop  offset="0" style="stop-color:#000000"/>
						<stop  offset="0.9416" style="stop-color:#F0F0F0"/>
						<stop  offset="1" style="stop-color:#FFFFFF"/>
					</linearGradient>
					<path class="st107" d="M1316,975.6L1316,975.6c-22.6,9.8-49.4,9.8-71.9,0l0,0c-4.7-2-8.5-5.3-10.9-9.3l-12-20.1
						c-8.9-14.8-14.6-30.9-17.1-47.4l-4.5-36.4l11.2,12.8c45.1,12.7,102.2,13.3,141.7-1.7l8-11.2l-4.6,37.1
						c-2.5,16.9-8.5,33.4-17.7,48.5l-11.3,18.5C1324.4,970.4,1320.7,973.6,1316,975.6z"/>
				</g>
			</g>
			
				<linearGradient id="SVGID_100_" gradientUnits="userSpaceOnUse" x1="1294.5872" y1="287.6047" x2="1402.0316" y2="176.0593" gradientTransform="matrix(1 0 0 -1 0 1200)">
				<stop  offset="0" style="stop-color:#000000"/>
				<stop  offset="0.9416" style="stop-color:#211D1E"/>
				<stop  offset="1" style="stop-color:#231F20"/>
			</linearGradient>
			<path class="st108" d="M1316,975.6L1316,975.6c-22.6,9.8-49.4,9.8-71.9,0l0,0c-4.7-2-8.5-5.3-10.9-9.3l-12-20.1
				c-8.9-14.8-14.6-30.9-17.1-47.4l-4.5-36.4l11.2,18.1c60.9,28.2,103,14.3,141.7-4.3l8-13.8l-4.6,37.1
				c-2.5,16.9-8.5,33.4-17.7,48.5l-11.3,18.5C1324.4,970.4,1320.7,973.6,1316,975.6z"/>
		</g>
		<path class="st0" d="M1279.9,824c-44.5,0-80.6,16.6-80.6,37s36.1,37,80.6,37s80.6-16.6,80.6-37S1324.4,824,1279.9,824z
			 M1279.9,893.8c-42.4,0-76.8-15-76.8-33.4c0-18.5,34.4-33.4,76.8-33.4s76.8,15,76.8,33.4C1356.6,878.8,1322.3,893.8,1279.9,893.8z
			"/>
	</g>
</g>
<g>
	<path class="st42" d="M196.2,777.8c0.3,2.1-0.6,4.3-2.3,5.5s-4.1,1.4-6,0.5l-16-8.1c-1.6-0.8-3.5-0.8-5.2,0l-16.1,7.9
		c-1.9,1-4.2,0.8-6-0.5c-1.7-1.3-2.6-3.4-2.3-5.5l2.7-17.7c0.3-1.8-0.3-3.6-1.6-4.9l-12.5-12.8c-1.5-1.5-2-3.8-1.3-5.9
		c0.7-2,2.4-3.5,4.6-3.9l17.7-2.9c1.8-0.3,3.3-1.4,4.2-3l8.4-15.9c1-1.9,3-3.1,5.1-3.1c2.2,0,4.1,1.2,5.1,3.1l8.2,15.9
		c0.8,1.6,2.4,2.7,4.2,3.1l17.7,3c2.1,0.4,3.9,1.9,4.5,3.9c0.7,2.1,0.1,4.3-1.4,5.8l-12.6,12.7c-1.3,1.3-1.9,3.1-1.6,4.9
		L196.2,777.8z"/>
	<path class="st42" d="M298.1,777.8c0.3,2.1-0.6,4.3-2.3,5.5c-1.8,1.3-4.1,1.4-6,0.5l-16-8.1c-1.6-0.8-3.5-0.8-5.2,0l-16.1,7.9
		c-1.9,1-4.2,0.8-6-0.5c-1.7-1.3-2.6-3.4-2.3-5.5l2.7-17.7c0.3-1.8-0.3-3.6-1.6-4.9l-12.5-12.8c-1.5-1.5-2-3.8-1.4-5.9
		c0.7-2,2.4-3.5,4.6-3.9l17.7-2.9c1.8-0.3,3.3-1.4,4.2-3l8.4-15.9c1-1.9,3-3.1,5.1-3.1c2.2,0,4.1,1.2,5.1,3.1l8.2,15.9
		c0.8,1.6,2.4,2.7,4.2,3.1l17.7,3c2.1,0.4,3.9,1.9,4.5,3.9c0.7,2.1,0.1,4.3-1.4,5.8l-12.6,12.7c-1.3,1.3-1.9,3.1-1.6,4.9
		L298.1,777.8z"/>
	<path class="st42" d="M406,777.8c0.3,2.1-0.6,4.3-2.3,5.5c-1.8,1.3-4.1,1.4-6,0.5l-16-8.1c-1.6-0.8-3.5-0.8-5.2,0l-16.1,7.9
		c-1.9,1-4.2,0.8-6-0.5c-1.7-1.3-2.6-3.4-2.3-5.5l2.7-17.7c0.3-1.8-0.3-3.6-1.6-4.9l-12.5-12.8c-1.5-1.5-2-3.8-1.3-5.9
		c0.7-2,2.4-3.5,4.6-3.9l17.7-2.9c1.8-0.3,3.3-1.4,4.2-3l8.4-15.9c1-1.9,3-3.1,5.1-3.1c2.2,0,4.1,1.2,5.1,3.1l8.2,15.9
		c0.8,1.6,2.4,2.7,4.2,3.1l17.7,3c2.1,0.4,3.9,1.9,4.5,3.9c0.7,2.1,0.1,4.3-1.4,5.8l-12.6,12.7c-1.3,1.3-1.9,3.1-1.6,4.9L406,777.8z
		"/>
	<path class="st42" d="M512.9,777.8c0.3,2.1-0.6,4.3-2.3,5.5c-1.8,1.3-4.1,1.4-6,0.5l-16-8.1c-1.6-0.8-3.5-0.8-5.2,0l-16.1,7.9
		c-1.9,1-4.2,0.8-6-0.5c-1.7-1.3-2.6-3.4-2.3-5.5l2.7-17.7c0.3-1.8-0.3-3.6-1.6-4.9l-12.5-12.9c-1.5-1.5-2-3.8-1.3-5.9
		c0.7-2,2.4-3.6,4.6-3.9l17.7-2.9c1.8-0.3,3.3-1.4,4.2-3l8.4-15.9c1-1.9,3-3.1,5.2-3.1c2.2,0,4.1,1.2,5.1,3.1l8.2,15.9
		c0.8,1.6,2.4,2.7,4.2,3.1l17.7,3c2.1,0.4,3.9,1.9,4.5,3.9c0.7,2.1,0.1,4.3-1.4,5.8L512,755.2c-1.3,1.3-1.9,3.1-1.6,4.9L512.9,777.8
		z"/>
	<path class="st42" d="M615.8,777.8c0.3,2.1-0.6,4.3-2.3,5.5c-1.7,1.3-4.1,1.4-6,0.5l-16-8.1c-1.6-0.8-3.5-0.8-5.2,0l-16.1,7.9
		c-1.9,1-4.2,0.8-6-0.5c-1.7-1.3-2.6-3.4-2.3-5.5l2.7-17.7c0.3-1.8-0.3-3.6-1.6-4.9l-12.5-12.8c-1.5-1.5-2-3.8-1.4-5.8
		c0.7-2.1,2.4-3.6,4.6-3.9l17.7-2.9c1.8-0.3,3.3-1.4,4.2-3l8.4-15.9c1-1.9,3-3.1,5.1-3.1c2.2,0,4.1,1.2,5.1,3.1l8.2,15.9
		c0.8,1.6,2.4,2.7,4.2,3.1l17.7,3c2.1,0.4,3.9,1.9,4.5,3.9c0.7,2.1,0.1,4.3-1.4,5.8l-12.6,12.7c-1.3,1.3-1.9,3.1-1.6,4.9
		L615.8,777.8z"/>
</g>
</svg>
