<?xml version="1.0" encoding="utf-8"?>
<!-- Generator: Adobe Illustrator 24.0.1, SVG Export Plug-In . SVG Version: 6.00 Build 0)  -->
<svg version="1.1" id="Layer_1" xmlns="http://www.w3.org/2000/svg" xmlns:xlink="http://www.w3.org/1999/xlink" x="0px" y="0px"
	 viewBox="0 0 2560 1200" style="enable-background:new 0 0 2560 1200;" xml:space="preserve">
<style type="text/css">
	.st0{fill:#05031B;}
	.st1{fill:none;}
	.st2{fill:#1D6FFF;}
	.st3{opacity:0.5;fill:#1D6FFF;enable-background:new    ;}
	.st4{fill:#3F3F9E;}
	.st5{opacity:0.5;}
	.st6{fill:url(#SVGID_1_);}
	.st7{fill:url(#SVGID_2_);}
	.st8{fill:url(#SVGID_3_);}
	.st9{fill:url(#SVGID_4_);}
	.st10{opacity:0.5;fill:url(#SVGID_5_);enable-background:new    ;}
	.st11{opacity:0.5;fill:url(#SVGID_6_);enable-background:new    ;}
	.st12{fill:url(#SVGID_7_);}
	.st13{fill:url(#SVGID_8_);}
	.st14{fill:url(#SVGID_9_);}
	.st15{opacity:0.5;fill:url(#SVGID_10_);enable-background:new    ;}
	.st16{fill:url(#SVGID_11_);}
	.st17{fill:url(#SVGID_12_);}
	.st18{fill:url(#SVGID_13_);}
	.st19{fill:url(#SVGID_14_);}
	.st20{opacity:0.5;fill:url(#SVGID_15_);enable-background:new    ;}
	.st21{fill:none;stroke:#FFFFFF;stroke-linecap:round;stroke-miterlimit:10;}
	.st22{fill:#144096;}
	.st23{fill:#040076;}
	.st24{fill:none;stroke:#FFFFFF;stroke-width:0.4677;stroke-miterlimit:10;}
	.st25{fill:none;stroke:#FFFFFF;stroke-width:0.4831;stroke-miterlimit:10;}
	.st26{opacity:0.2;}
	.st27{fill:#6294FB;}
	.st28{fill:none;stroke:#6294FB;stroke-width:0.5903;stroke-miterlimit:10;}
	.st29{fill:#6CFFC3;}
	.st30{fill:none;stroke:#6CFFC3;stroke-width:0.5903;stroke-linecap:round;stroke-miterlimit:10;}
	.st31{fill:#DC3434;}
	.st32{fill:none;stroke:#DC3434;stroke-width:0.5903;stroke-linecap:round;stroke-miterlimit:10;}
	.st33{fill:url(#SVGID_16_);}
	.st34{fill:url(#SVGID_17_);}
	.st35{opacity:0.5;fill:url(#SVGID_18_);enable-background:new    ;}
	.st36{fill:url(#SVGID_19_);}
	.st37{fill:#FFFFFF;}
	.st38{fill:#413ACE;}
	.st39{fill:#FFA88D;}
	.st40{fill:#FF8B6C;}
	.st41{fill:#0D053D;}
	.st42{fill:#060321;}
	.st43{fill:#5057D2;}
	.st44{fill:#F9765D;}
	.st45{fill:#4832B7;}
	.st46{fill:#E8A38C;}
	.st47{fill:#DB8976;}
	.st48{fill:#9AADF8;}
	.st49{fill:#424EB7;}
	.st50{fill:#E5E5E5;}
	.st51{fill:#E48873;}
	.st52{fill:#373799;}
	.st53{fill:#144996;stroke:#FFFFFF;stroke-width:0.468;stroke-miterlimit:10;}
	.st54{opacity:0.5;fill:url(#SVGID_20_);enable-background:new    ;}
	.st55{opacity:0.5;fill:none;stroke:#FFFFFF;stroke-width:0.1459;stroke-miterlimit:10;enable-background:new    ;}
	.st56{fill:none;stroke:url(#SVGID_21_);stroke-width:0.5297;stroke-linecap:round;stroke-miterlimit:10;}
	.st57{fill:none;stroke:#FFFFFF;stroke-width:0.5468;stroke-miterlimit:10;}
	.st58{fill:#144996;}
	.st59{fill:none;stroke:#FFFFFF;stroke-width:0.6655;stroke-miterlimit:10;}
	.st60{fill:url(#SVGID_22_);}
	.st61{fill:url(#SVGID_23_);}
	.st62{fill:url(#SVGID_24_);}
	.st63{fill:url(#SVGID_25_);}
	.st64{fill:url(#SVGID_26_);}
	.st65{opacity:0.5;fill:url(#SVGID_27_);enable-background:new    ;}
	.st66{opacity:0.5;fill:url(#SVGID_28_);enable-background:new    ;}
	.st67{fill:url(#SVGID_29_);}
	.st68{fill:url(#SVGID_30_);}
	.st69{fill:url(#SVGID_31_);}
	.st70{opacity:0.5;fill:url(#SVGID_32_);enable-background:new    ;}
	.st71{fill:url(#SVGID_33_);}
	.st72{fill:url(#SVGID_34_);}
	.st73{fill:url(#SVGID_35_);}
	.st74{fill:url(#SVGID_36_);}
	.st75{opacity:0.5;fill:url(#SVGID_37_);enable-background:new    ;}
</style>
<g>
	<g>
		<g>
			<g>
				
					<image style="overflow:visible;opacity:0.75;enable-background:new    ;" width="2636" height="1657" xlink:href="F02FAE59.png"  transform="matrix(0.9994 0 0 0.9994 -33.4519 -223.56)">
				</image>
				<g>
					<path class="st0" d="M2576.3-162.3V1356c0,28.6-23.2,51.9-51.9,51.9H27.6c-28.6,0-51.9-23.2-51.9-51.9V-162.3
						c0-28.6,23.2-51.9,51.9-51.9h2496.8C2553.1-214.2,2576.3-190.9,2576.3-162.3z"/>
				</g>
			</g>
		</g>
	</g>
	<g>
		<rect x="109.1" y="518.1" class="st1" width="1145.2" height="197.2"/>
	</g>
	<g>
		<g>
			<polygon class="st2" points="929.7,758.1 922.2,800.4 953.7,800.4 961.1,758.1 975.1,758.1 952.3,719.1 915.8,758.1 			"/>
			<polygon class="st3" points="174.9,83.2 171,105.6 187.7,105.6 191.6,83.2 199,83.2 186.9,62.5 167.6,83.2 			"/>
			<polygon class="st4" points="877.7,114.3 873.6,137.6 891,137.6 895.1,114.3 902.7,114.3 890.2,92.8 870.1,114.3 			"/>
			<polygon class="st2" points="127,351.1 122.9,374.4 140.2,374.4 144.3,351.1 152,351.1 139.5,329.6 119.3,351.1 			"/>
			<polygon class="st4" points="1016.9,497.2 1011.8,525.8 1033.1,525.8 1038.2,497.2 1047.6,497.2 1032.2,470.8 1007.5,497.2 			
				"/>
		</g>
		<g class="st5">
			
				<linearGradient id="SVGID_1_" gradientUnits="userSpaceOnUse" x1="-189.8125" y1="1132.0402" x2="1029.6414" y2="1132.0402" gradientTransform="matrix(1 0 0.1763 -1 -98.0678 1202)">
				<stop  offset="0" style="stop-color:#007EDD"/>
				<stop  offset="1" style="stop-color:#45FFFD"/>
			</linearGradient>
			<path class="st6" d="M775.9,70c-1.1,6.3-7.1,11.4-13.4,11.4c-6.3,0-10.5-5.1-9.4-11.4c1.1-6.3,7.1-11.4,13.4-11.4
				S777,63.7,775.9,70z"/>
			
				<linearGradient id="SVGID_2_" gradientUnits="userSpaceOnUse" x1="-421.5446" y1="950.1501" x2="797.8967" y2="950.1501" gradientTransform="matrix(1 0 0.1763 -1 -98.0678 1202)">
				<stop  offset="0" style="stop-color:#007EDD"/>
				<stop  offset="1" style="stop-color:#45FFFD"/>
			</linearGradient>
			<path class="st7" d="M715.6,251.8c-0.8,4.6-5.2,8.3-9.7,8.3s-7.6-3.7-6.8-8.3s5.2-8.3,9.7-8.3
				C713.3,243.6,716.4,247.3,715.6,251.8z"/>
			
				<linearGradient id="SVGID_3_" gradientUnits="userSpaceOnUse" x1="-232.3608" y1="145.2801" x2="987.0803" y2="145.2801" gradientTransform="matrix(1 0 0.1763 -1 -98.0678 1202)">
				<stop  offset="0" style="stop-color:#007EDD"/>
				<stop  offset="1" style="stop-color:#45FFFD"/>
			</linearGradient>
			<path class="st8" d="M979,1056.7c-0.8,4.6-5.2,8.3-9.7,8.3s-7.6-3.7-6.8-8.3c0.8-4.6,5.2-8.3,9.7-8.3S979.8,1052.1,979,1056.7z"
				/>
			
				<linearGradient id="SVGID_4_" gradientUnits="userSpaceOnUse" x1="-232.3592" y1="11.5201" x2="987.0799" y2="11.5201" gradientTransform="matrix(1 0 0.1763 -1 -98.0678 1202)">
				<stop  offset="0" style="stop-color:#007EDD"/>
				<stop  offset="1" style="stop-color:#45FFFD"/>
			</linearGradient>
			<path class="st9" d="M128.1,1190.5c-0.8,4.6-5.2,8.3-9.7,8.3s-7.6-3.7-6.8-8.3c0.8-4.6,5.2-8.3,9.7-8.3
				C125.8,1182.2,128.9,1185.9,128.1,1190.5z"/>
			
				<linearGradient id="SVGID_5_" gradientUnits="userSpaceOnUse" x1="-232.3616" y1="53.5201" x2="987.0797" y2="53.5201" gradientTransform="matrix(1 0 0.1763 -1 -98.0678 1202)">
				<stop  offset="0" style="stop-color:#007EDD"/>
				<stop  offset="1" style="stop-color:#45FFFD"/>
			</linearGradient>
			<path class="st10" d="M812.3,1148.5c-0.8,4.6-5.2,8.3-9.7,8.3s-7.6-3.7-6.8-8.3s5.2-8.3,9.7-8.3S813.1,1143.9,812.3,1148.5z"/>
			
				<linearGradient id="SVGID_6_" gradientUnits="userSpaceOnUse" x1="-198.9269" y1="707.4801" x2="1020.5143" y2="707.4801" gradientTransform="matrix(1 0 0.1763 -1 -98.0678 1202)">
				<stop  offset="0" style="stop-color:#007EDD"/>
				<stop  offset="1" style="stop-color:#45FFFD"/>
			</linearGradient>
			<path class="st11" d="M-133.6,494.5c-0.8,4.6-5.2,8.3-9.7,8.3s-7.6-3.7-6.8-8.3s5.2-8.3,9.7-8.3
				C-135.9,486.2-132.8,489.9-133.6,494.5z"/>
			
				<linearGradient id="SVGID_7_" gradientUnits="userSpaceOnUse" x1="-161.4124" y1="133.4601" x2="1058.0288" y2="133.4601" gradientTransform="matrix(1 0 0.1763 -1 -98.0678 1202)">
				<stop  offset="0" style="stop-color:#007EDD"/>
				<stop  offset="1" style="stop-color:#45FFFD"/>
			</linearGradient>
			<path class="st12" d="M96.6,1068.5c-0.8,4.6-5.2,8.3-9.7,8.3s-7.6-3.7-6.8-8.3s5.2-8.3,9.7-8.3S97.4,1064,96.6,1068.5z"/>
			
				<linearGradient id="SVGID_8_" gradientUnits="userSpaceOnUse" x1="-305.7578" y1="515.3901" x2="913.6833" y2="515.3901" gradientTransform="matrix(1 0 0.1763 -1 -98.0678 1202)">
				<stop  offset="0" style="stop-color:#007EDD"/>
				<stop  offset="1" style="stop-color:#45FFFD"/>
			</linearGradient>
			<path class="st13" d="M-216.3,686.6c-0.8,4.6-5.2,8.3-9.7,8.3s-7.6-3.7-6.8-8.3c0.8-4.6,5.2-8.3,9.7-8.3
				C-218.5,678.3-215.5,682-216.3,686.6z"/>
			
				<linearGradient id="SVGID_9_" gradientUnits="userSpaceOnUse" x1="-224.2473" y1="935.8401" x2="373.5073" y2="935.8401" gradientTransform="matrix(1 0 0.1763 -1 -98.0678 1202)">
				<stop  offset="0" style="stop-color:#007EDD"/>
				<stop  offset="1" style="stop-color:#45FFFD"/>
			</linearGradient>
			<path class="st14" d="M-91.6,266.2c-0.7,3.7-4.2,6.8-7.9,6.8s-6.2-3-5.6-6.8s4.2-6.8,7.9-6.8S-90.9,262.4-91.6,266.2z"/>
			
				<linearGradient id="SVGID_10_" gradientUnits="userSpaceOnUse" x1="-237.9096" y1="1046.5302" x2="981.5209" y2="1046.5302" gradientTransform="matrix(1 0 0.1763 -1 -98.0678 1202)">
				<stop  offset="0" style="stop-color:#007EDD"/>
				<stop  offset="1" style="stop-color:#45FFFD"/>
			</linearGradient>
			<path class="st15" d="M1019.3,155.5c-1.3,7.6-8.6,13.8-16.2,13.8c-7.6,0-12.7-6.2-11.4-13.8s8.6-13.8,16.2-13.8
				S1020.7,147.8,1019.3,155.5z"/>
			
				<linearGradient id="SVGID_11_" gradientUnits="userSpaceOnUse" x1="949.4197" y1="226.6301" x2="2168.8611" y2="226.6301" gradientTransform="matrix(1 0 0.1763 -1 -98.0678 1202)">
				<stop  offset="0" style="stop-color:#007EDD"/>
				<stop  offset="1" style="stop-color:#45FFFD"/>
			</linearGradient>
			<path class="st16" d="M1129.4,975.4c-0.8,4.6-5.2,8.3-9.7,8.3c-4.6,0-7.6-3.7-6.8-8.3c0.8-4.6,5.2-8.3,9.7-8.3
				C1127.2,967.1,1130.3,970.8,1129.4,975.4z"/>
			
				<linearGradient id="SVGID_12_" gradientUnits="userSpaceOnUse" x1="-457.4757" y1="285.7701" x2="761.9366" y2="285.7701" gradientTransform="matrix(1 0 0.1763 -1 -98.0678 1202)">
				<stop  offset="0" style="stop-color:#007EDD"/>
				<stop  offset="1" style="stop-color:#45FFFD"/>
			</linearGradient>
			<path class="st17" d="M-267,916.2c-0.8,4.6-5.2,8.3-9.7,8.3s-7.6-3.7-6.8-8.3s5.2-8.3,9.7-8.3C-269.3,908-266.2,911.7-267,916.2z
				"/>
			
				<linearGradient id="SVGID_13_" gradientUnits="userSpaceOnUse" x1="-343.9807" y1="1189.9701" x2="875.4586" y2="1189.9701" gradientTransform="matrix(1 0 0.1763 -1 -98.0678 1202)">
				<stop  offset="0" style="stop-color:#007EDD"/>
				<stop  offset="1" style="stop-color:#45FFFD"/>
			</linearGradient>
			<path class="st18" d="M-9.6,12c-0.8,4.6-5.2,8.3-9.7,8.3s-7.6-3.7-6.8-8.3c0.8-4.6,5.2-8.3,9.7-8.3C-11.9,3.8-8.8,7.5-9.6,12z"/>
			
				<linearGradient id="SVGID_14_" gradientUnits="userSpaceOnUse" x1="68.476" y1="565.6701" x2="1287.9132" y2="565.6701" gradientTransform="matrix(1 0 0.1763 -1 -98.0678 1202)">
				<stop  offset="0" style="stop-color:#007EDD"/>
				<stop  offset="1" style="stop-color:#45FFFD"/>
			</linearGradient>
			<path class="st19" d="M1121.1,636.3c-0.8,4.6-5.2,8.3-9.7,8.3s-7.6-3.7-6.8-8.3c0.8-4.6,5.2-8.3,9.7-8.3
				C1118.8,628.1,1121.9,631.8,1121.1,636.3z"/>
			
				<linearGradient id="SVGID_15_" gradientUnits="userSpaceOnUse" x1="-232.3303" y1="1143.4202" x2="987.082" y2="1143.4202" gradientTransform="matrix(1 0 0.1763 -1 -98.0678 1202)">
				<stop  offset="0" style="stop-color:#007EDD"/>
				<stop  offset="1" style="stop-color:#45FFFD"/>
			</linearGradient>
			<path class="st20" d="M-213.3,58.6c-0.8,4.6-5.2,8.3-9.7,8.3s-7.6-3.7-6.8-8.3s5.2-8.3,9.7-8.3C-215.6,50.3-212.5,54-213.3,58.6z
				"/>
		</g>
		<g>
			<path class="st2" d="M2145.4,145.6h-64.7c-1.5,0-2.6-1.2-2.3-2.8l0,0c0.3-1.5,1.7-2.8,3.3-2.8h64.7c1.5,0,2.6,1.2,2.3,2.8l0,0
				C2148.4,144.3,2147,145.6,2145.4,145.6z"/>
			<path class="st2" d="M2142.6,161.7h-64.7c-1.5,0-2.6-1.2-2.3-2.8l0,0c0.3-1.5,1.7-2.8,3.3-2.8h64.7c1.5,0,2.6,1.2,2.3,2.8l0,0
				C2145.6,160.4,2144.1,161.7,2142.6,161.7z"/>
			<path class="st2" d="M2139.8,177.7H2075c-1.5,0-2.6-1.2-2.3-2.8l0,0c0.3-1.5,1.7-2.8,3.3-2.8h64.7c1.5,0,2.6,1.2,2.3,2.8l0,0
				C2142.7,176.5,2141.3,177.7,2139.8,177.7z"/>
			<path class="st2" d="M2109.1,193.8h-36.9c-1.5,0-2.6-1.2-2.3-2.8l0,0c0.3-1.5,1.7-2.8,3.3-2.8h36.9c1.5,0,2.6,1.2,2.3,2.8l0,0
				C2112.1,192.6,2110.6,193.8,2109.1,193.8z"/>
		</g>
		<line class="st21" x1="2456.3" y1="1162.7" x2="1045.1" y2="1162.7"/>
		<g>
			<path class="st22" d="M2338,920.1h-916c-21.2,0-35.4-17.2-31.7-38.4l99.4-563.9c3.7-21.2,24-38.4,45.2-38.4h916
				c21.2,0,35.4,17.2,31.6,38.4l-99.4,563.9C2379.4,902.9,2359.2,920.1,2338,920.1z"/>
			<path class="st23" d="M2319,899.2h-916c-21.2,0-35.4-17.2-31.7-38.4l99.4-563.9c3.7-21.2,24-38.4,45.2-38.4h916
				c21.2,0,35.4,17.2,31.6,38.4l-99.4,563.9C2360.5,881.9,2340.3,899.2,2319,899.2z"/>
			<path class="st24" d="M2325.1,904h-929.8c-21.5,0-35.9-17.5-32.1-39l100.9-572.4c3.8-21.5,24.3-39,45.9-39h929.8
				c21.5,0,35.9,17.5,32.1,39L2371,865C2367.2,886.5,2346.6,904,2325.1,904z"/>
			<g>
				<path class="st25" d="M2314.9,882.5h-901.2c-14.7,0-24.6-11.9-22-26.7l97.7-554.1c2.6-14.7,16.6-26.7,31.4-26.7H2422
					c14.7,0,24.6,11.9,22,26.7l-97.7,554.1C2343.6,870.5,2329.6,882.5,2314.9,882.5z"/>
				<g>
					<line class="st25" x1="2275.1" y1="275.1" x2="2168" y2="882.5"/>
					<line class="st25" x1="2361.9" y1="275.1" x2="2254.8" y2="882.5"/>
					<line class="st25" x1="1580.9" y1="275.1" x2="1473.8" y2="882.5"/>
					<line class="st25" x1="1667.7" y1="275.1" x2="1560.6" y2="882.5"/>
					<line class="st25" x1="1754.5" y1="275.1" x2="1647.4" y2="882.5"/>
					<line class="st25" x1="1841.2" y1="275.1" x2="1734.1" y2="882.5"/>
					<line class="st25" x1="1928" y1="275.1" x2="1820.9" y2="882.5"/>
					<line class="st25" x1="2014.8" y1="275.1" x2="1907.7" y2="882.5"/>
					<line class="st25" x1="2101.6" y1="275.1" x2="1994.4" y2="882.5"/>
					<line class="st25" x1="2188.3" y1="275.1" x2="2081.2" y2="882.5"/>
				</g>
				<g>
					<line class="st25" x1="2433.3" y1="361.8" x2="1478.8" y2="361.8"/>
					<line class="st25" x1="2418" y1="448.6" x2="1463.5" y2="448.6"/>
					<line class="st25" x1="2402.7" y1="535.4" x2="1448.2" y2="535.4"/>
					<line class="st25" x1="2387.4" y1="622.2" x2="1432.9" y2="622.2"/>
					<line class="st25" x1="2372.1" y1="708.9" x2="1417.6" y2="708.9"/>
					<line class="st25" x1="2356.8" y1="795.7" x2="1402.3" y2="795.7"/>
				</g>
			</g>
			<g class="st26">
				<g>
					<polygon class="st27" points="1538,792.2 1513.1,792.2 1526,718.8 1551,718.8 					"/>
					<line class="st28" x1="1545.5" y1="678.9" x2="1518.6" y2="831.7"/>
				</g>
				<g>
					<polygon class="st27" points="1584.6,720.7 1559.6,720.7 1571.5,653.3 1596.5,653.3 					"/>
					<line class="st28" x1="1591" y1="613.4" x2="1582" y2="664.6"/>
				</g>
				<g>
					<polygon class="st27" points="1629.8,656.8 1604.9,656.8 1614.7,601 1639.6,601 					"/>
					<line class="st28" x1="1628.4" y1="593.9" x2="1616.3" y2="662.6"/>
				</g>
				<g>
					<polygon class="st27" points="1657.4,692.8 1632.5,692.8 1640,649.9 1665,649.9 					"/>
					<line class="st28" x1="1659.5" y1="610.2" x2="1643.1" y2="703.5"/>
				</g>
				<g>
					<polygon class="st27" points="1677.3,772.7 1652.3,772.7 1667.2,688.5 1692.1,688.5 					"/>
					<line class="st28" x1="1693.2" y1="611.6" x2="1663.3" y2="781.3"/>
				</g>
				<g>
					<polygon class="st27" points="1725.6,691.4 1700.6,691.4 1708.2,648.6 1733.1,648.6 					"/>
					<line class="st28" x1="1723.3" y1="633.7" x2="1700.7" y2="761.6"/>
				</g>
				<g>
					<polygon class="st27" points="1754.7,718.8 1729.8,718.8 1742.7,645.3 1767.7,645.3 					"/>
					<line class="st28" x1="1764.7" y1="591.6" x2="1738.9" y2="737.7"/>
				</g>
				<g>
					<polygon class="st27" points="1801.7,645.2 1776.7,645.2 1782.3,613.4 1807.2,613.4 					"/>
					<line class="st28" x1="1805.9" y1="550.2" x2="1782.2" y2="684.7"/>
				</g>
				<g>
					<polygon class="st27" points="1841.2,613.4 1816.3,613.4 1829.2,540 1854.2,540 					"/>
					<line class="st28" x1="1847.6" y1="506.5" x2="1823.1" y2="645.2"/>
				</g>
				<g>
					<polygon class="st27" points="1861.2,692.5 1836.3,692.5 1851.3,607.4 1876.2,607.4 					"/>
					<line class="st28" x1="1868.1" y1="582.7" x2="1838.6" y2="750"/>
				</g>
				<g>
					<polygon class="st27" points="1928,506.5 1903,506.5 1884.5,611.6 1909.4,611.6 					"/>
					<line class="st28" x1="1918.6" y1="488.7" x2="1891" y2="645.3"/>
				</g>
				<g>
					<polygon class="st27" points="1944.8,603.7 1919.8,603.7 1924.6,576.7 1949.6,576.7 					"/>
					<line class="st28" x1="1949.5" y1="506.5" x2="1927.8" y2="629.3"/>
				</g>
				<g>
					<polygon class="st27" points="1967.8,666 1942.8,666 1955.8,592.6 1980.7,592.6 					"/>
					<line class="st28" x1="1973.5" y1="562.9" x2="1951.4" y2="688.3"/>
				</g>
				<g>
					<polygon class="st27" points="1979.5,792.2 1954.5,792.2 1978.5,656.4 2003.4,656.4 					"/>
					<line class="st28" x1="2003.6" y1="584.6" x2="1964.2" y2="808.3"/>
				</g>
				<g>
					<polygon class="st27" points="2036.2,662.8 2011.3,662.8 2024.3,589.4 2049.2,589.4 					"/>
					<line class="st28" x1="2043.8" y1="549.5" x2="2021.9" y2="673.7"/>
				</g>
				<g>
					<polygon class="st27" points="2059.4,724.3 2034.4,724.3 2046.3,657 2071.2,657 					"/>
					<line class="st28" x1="2061.8" y1="639.9" x2="2044.1" y2="740.3"/>
				</g>
				<g>
					<polygon class="st27" points="2070.5,853.5 2045.6,853.5 2069.3,718.8 2094.3,718.8 					"/>
					<line class="st28" x1="2084.4" y1="703.9" x2="2057.2" y2="858.1"/>
				</g>
				<g>
					<polygon class="st27" points="2111,816.8 2086,816.8 2099,743.3 2123.9,743.3 					"/>
					<line class="st28" x1="2121.9" y1="684.1" x2="2095.9" y2="831.7"/>
				</g>
				<g>
					<line class="st28" x1="2153.5" y1="697.3" x2="2122.6" y2="872.6"/>
				</g>
				<g>
					<polygon class="st27" points="2177.7,823.4 2152.8,823.4 2166.9,743.3 2191.8,743.3 					"/>
					<line class="st28" x1="2189.1" y1="688.3" x2="2158.3" y2="862.9"/>
				</g>
				<g>
					<polygon class="st27" points="2225.5,745.3 2200.5,745.3 2207.4,706.4 2232.3,706.4 					"/>
					<line class="st28" x1="2210.3" y1="760.3" x2="2225" y2="677.3"/>
				</g>
				<g>
					<polygon class="st27" points="2247.1,815 2222.2,815 2235.1,741.5 2260.1,741.5 					"/>
					<line class="st28" x1="2259" y1="676.8" x2="2233.1" y2="823.8"/>
				</g>
				<g>
					<polygon class="st27" points="2377.8,652.6 2352.9,652.6 2365.8,579.1 2390.8,579.1 					"/>
					<line class="st28" x1="2379.9" y1="569.9" x2="2358.4" y2="692.1"/>
				</g>
				<g>
					<g>
						<polygon class="st27" points="2291.2,757.9 2266.2,757.9 2298.2,576.4 2323.2,576.4 						"/>
						<line class="st28" x1="2324.5" y1="497.8" x2="2272.7" y2="791.8"/>
					</g>
					<g>
						<polygon class="st27" points="2356,582.9 2331,582.9 2351.4,467.3 2376.4,467.3 						"/>
						<line class="st28" x1="2373" y1="415.7" x2="2336.5" y2="622.4"/>
					</g>
					<g>
						<polygon class="st27" points="1438.9,776.8 1413.9,776.8 1423.7,721.3 1448.6,721.3 						"/>
						<line class="st28" x1="1450.5" y1="639.8" x2="1416.3" y2="834.3"/>
					</g>
					<g>
						<polygon class="st27" points="1477.7,748.8 1452.8,748.8 1457.7,721.3 1482.6,721.3 						"/>
						<line class="st28" x1="1476.2" y1="687.1" x2="1459.2" y2="783.2"/>
					</g>
					<g>
						<polygon class="st27" points="1515.6,726.8 1490.7,726.8 1509.1,622 1534.1,622 						"/>
						<line class="st28" x1="1523.3" y1="612.6" x2="1493.7" y2="780.3"/>
					</g>
				</g>
			</g>
			<g>
				<g>
					<polygon class="st29" points="2282.2,475.6 2307.1,475.6 2294.2,549.1 2269.2,549.1 					"/>
					<line class="st30" x1="2274.7" y1="588.9" x2="2301.6" y2="436.1"/>
				</g>
				<g>
					<polygon class="st29" points="2257.2,425 2282.1,425 2270.2,492.4 2245.3,492.4 					"/>
					<line class="st30" x1="2250.7" y1="532.3" x2="2259.7" y2="481.1"/>
				</g>
				<g>
					<polygon class="st31" points="2226,409.3 2250.9,409.3 2247.9,426.4 2223,426.4 					"/>
					<line class="st32" x1="2227.4" y1="472.1" x2="2239.5" y2="403.5"/>
				</g>
				<g>
					<polygon class="st31" points="2191.9,409.8 2216.9,409.8 2209.3,452.7 2184.4,452.7 					"/>
					<line class="st32" x1="2189.8" y1="492.4" x2="2206.3" y2="399.1"/>
				</g>
				<g>
					<polygon class="st31" points="2155.8,422.1 2180.7,422.1 2165.9,506.3 2141,506.3 					"/>
					<line class="st32" x1="2139.9" y1="583.2" x2="2169.8" y2="413.5"/>
				</g>
				<g>
					<polygon class="st29" points="2107,506.3 2131.9,506.3 2124.4,549.1 2099.5,549.1 					"/>
					<line class="st30" x1="2109.3" y1="564" x2="2131.8" y2="436.1"/>
				</g>
				<g>
					<polygon class="st29" points="2065.5,549.1 2090.4,549.1 2077.5,622.5 2052.5,622.5 					"/>
					<line class="st30" x1="2055.5" y1="676.2" x2="2081.3" y2="530.2"/>
				</g>
				<g>
					<polygon class="st31" points="2018.6,622.7 2043.5,622.7 2037.9,654.4 2013,654.4 					"/>
					<line class="st32" x1="2014.3" y1="717.6" x2="2038" y2="583.2"/>
				</g>
				<g>
					<polygon class="st31" points="1979,654.4 2004,654.4 1991,727.9 1966.1,727.9 					"/>
					<line class="st32" x1="1972.6" y1="761.3" x2="1997.1" y2="622.7"/>
				</g>
				<g>
					<polygon class="st29" points="1959,575.4 1983.9,575.4 1957,727.9 1932.1,727.9 					"/>
					<line class="st30" x1="1938.7" y1="761.3" x2="1981.6" y2="517.9"/>
				</g>
				<g>
					<polygon class="st29" points="1892.2,761.3 1917.2,761.3 1923.1,727.9 1898.1,727.9 					"/>
					<line class="st30" x1="1901.6" y1="779.2" x2="1929.2" y2="622.5"/>
				</g>
				<g>
					<polygon class="st29" points="1875.4,664.1 1900.4,664.1 1887.4,737.6 1862.5,737.6 					"/>
					<line class="st30" x1="1870.8" y1="761.3" x2="1892.4" y2="638.6"/>
				</g>
				<g>
					<polygon class="st31" points="1852.4,601.8 1877.4,601.8 1864.4,675.3 1839.5,675.3 					"/>
					<line class="st32" x1="1846.7" y1="705" x2="1868.8" y2="579.6"/>
				</g>
				<g>
					<polygon class="st31" points="1840.7,475.6 1865.7,475.6 1841.7,611.4 1816.8,611.4 					"/>
					<line class="st32" x1="1816.6" y1="683.3" x2="1856" y2="459.5"/>
				</g>
				<g>
					<polygon class="st31" points="1817.6,414.4 1842.5,414.4 1829.6,487.8 1804.6,487.8 					"/>
					<line class="st32" x1="1810.1" y1="527.7" x2="1832" y2="403.5"/>
				</g>
				<g>
					<polygon class="st29" points="1784,412.4 1808.9,412.4 1806.3,427.3 1781.3,427.3 					"/>
					<line class="st30" x1="1790.8" y1="444.4" x2="1800" y2="392.1"/>
				</g>
				<g>
					<polygon class="st29" points="1749.7,414.4 1774.6,414.4 1750.9,549.1 1725.9,549.1 					"/>
					<line class="st30" x1="1735.8" y1="564" x2="1763" y2="409.7"/>
				</g>
				<g>
					<polygon class="st29" points="1709.2,451.1 1734.2,451.1 1721.2,524.6 1696.3,524.6 					"/>
					<line class="st30" x1="1698.3" y1="583.7" x2="1724.4" y2="436.1"/>
				</g>
				<g>
					<polygon class="st31" points="1671,475.6 1695.9,475.6 1682.9,549.1 1658,549.1 					"/>
					<line class="st32" x1="1666.7" y1="570.6" x2="1697.6" y2="395.2"/>
				</g>
				<g>
					<polygon class="st31" points="1642.5,444.4 1667.4,444.4 1653.3,524.6 1628.4,524.6 					"/>
					<line class="st32" x1="1631.1" y1="579.6" x2="1661.9" y2="404.9"/>
				</g>
				<g>
					<polygon class="st31" points="1614.2,412.4 1639.1,412.4 1632.3,451.3 1607.3,451.3 					"/>
					<line class="st32" x1="1629.3" y1="397.4" x2="1614.7" y2="480.4"/>
				</g>
				<g>
					<polygon class="st29" points="1574.5,445 1599.4,445 1586.5,518.5 1561.5,518.5 					"/>
					<line class="st30" x1="1562.6" y1="583.2" x2="1588.5" y2="436.1"/>
				</g>
				<g>
					<polygon class="st29" points="1442.8,613.9 1467.8,613.9 1454.8,687.4 1429.9,687.4 					"/>
					<line class="st30" x1="1440.7" y1="696.6" x2="1462.3" y2="574.4"/>
				</g>
				<g>
					<g>
						<polygon class="st31" points="1529.1,510 1554,510 1522,691.5 1497.1,691.5 						"/>
						<line class="st32" x1="1495.7" y1="770.1" x2="1547.5" y2="476"/>
					</g>
					<g>
						<polygon class="st29" points="1464.3,684.9 1489.2,684.9 1468.8,800.6 1443.9,800.6 						"/>
						<line class="st30" x1="1447.2" y1="852.2" x2="1483.7" y2="645.4"/>
					</g>
					<g>
						<polygon class="st31" points="2381.3,491 2406.3,491 2396.5,546.6 2371.6,546.6 						"/>
						<line class="st32" x1="2369.7" y1="628.1" x2="2404" y2="433.6"/>
					</g>
					<g>
						<polygon class="st31" points="2342.5,519 2367.4,519 2362.5,546.6 2337.6,546.6 						"/>
						<line class="st32" x1="2344" y1="580.8" x2="2361" y2="484.6"/>
					</g>
					<g>
						<polygon class="st29" points="2304.6,541.1 2329.6,541.1 2311.1,645.8 2286.1,645.8 						"/>
						<line class="st30" x1="2296.9" y1="655.3" x2="2326.5" y2="487.6"/>
					</g>
				</g>
			</g>
			<g>
				<g>
					
						<linearGradient id="SVGID_16_" gradientUnits="userSpaceOnUse" x1="2327.7058" y1="432.4299" x2="2396.6187" y2="370.5851" gradientTransform="matrix(1 0 0 -1 0 1202)">
						<stop  offset="0" style="stop-color:#000068"/>
						<stop  offset="1" style="stop-color:#1851CC"/>
					</linearGradient>
					<path class="st33" d="M2413.9,788c2.2,17.5-5.8,35.7-19.7,48.1c-6.7,6-14.9,10.8-23.8,13.3c-27.4,7.9-52.3-6.7-55.7-32.7
						c-0.7-5.1-0.4-10.3,0.6-15.4c4.1-20.7,21-39.7,43-46c16.2-4.7,31.6-1.5,42.1,7.3C2407.5,768.7,2412.5,777.4,2413.9,788z"/>
					
						<linearGradient id="SVGID_17_" gradientUnits="userSpaceOnUse" x1="2323.0125" y1="438.8137" x2="2391.9255" y2="376.9689" gradientTransform="matrix(1 0 0 -1 0 1202)">
						<stop  offset="0" style="stop-color:#0072DD"/>
						<stop  offset="1" style="stop-color:#45FFFD"/>
					</linearGradient>
					<path class="st34" d="M2409.2,781.6c2.2,17.5-5.8,35.7-19.7,48.1c-6.7,6-14.9,10.8-23.8,13.3c-27.4,7.9-52.3-6.7-55.7-32.7
						c-0.7-5.1-0.4-10.3,0.6-15.4c4.1-20.7,21-39.7,43-46c16.2-4.7,31.6-1.5,42.1,7.3C2402.9,762.3,2407.8,771,2409.2,781.6z"/>
					
						<linearGradient id="SVGID_18_" gradientUnits="userSpaceOnUse" x1="2339.2271" y1="456.8812" x2="2408.1399" y2="395.0364" gradientTransform="matrix(1 0 0 -1 0 1202)">
						<stop  offset="0" style="stop-color:#0047DD"/>
						<stop  offset="1" style="stop-color:#45FFFD"/>
					</linearGradient>
					<path class="st35" d="M2409.2,781.6c2.2,17.5-5.8,35.7-19.7,48.1l-29.9-33.7l-6.1-47.1c16.2-4.7,31.6-1.5,42.1,7.3
						C2402.9,762.3,2407.8,771,2409.2,781.6z"/>
					
						<linearGradient id="SVGID_19_" gradientUnits="userSpaceOnUse" x1="2305.0889" y1="418.8418" x2="2374.002" y2="356.9969" gradientTransform="matrix(1 0 0 -1 0 1202)">
						<stop  offset="0" style="stop-color:#0047DD"/>
						<stop  offset="1" style="stop-color:#45FFFD"/>
					</linearGradient>
					<path class="st36" d="M2389.4,829.7c-6.7,6-14.9,10.8-23.8,13.3c-27.4,7.9-52.3-6.7-55.7-32.7c-0.7-5.1-0.4-10.3,0.6-15.4l49,1
						L2389.4,829.7z"/>
				</g>
				<g>
					<path class="st37" d="M2488.5,779.5h-64.7c-1.5,0-2.6-1.2-2.3-2.8l0,0c0.3-1.5,1.7-2.8,3.3-2.8h64.7c1.5,0,2.6,1.2,2.3,2.8l0,0
						C2491.5,778.3,2490,779.5,2488.5,779.5z"/>
					<path class="st37" d="M2485.7,795.6h-64.7c-1.5,0-2.6-1.2-2.3-2.8l0,0c0.3-1.5,1.7-2.8,3.3-2.8h64.7c1.5,0,2.6,1.2,2.3,2.8l0,0
						C2488.7,794.4,2487.2,795.6,2485.7,795.6z"/>
					<path class="st37" d="M2482.8,811.7h-64.7c-1.5,0-2.6-1.2-2.3-2.8l0,0c0.3-1.5,1.7-2.8,3.3-2.8h64.7c1.5,0,2.6,1.2,2.3,2.8l0,0
						C2485.8,810.4,2484.4,811.7,2482.8,811.7z"/>
					<path class="st37" d="M2452.1,827.8h-36.9c-1.5,0-2.6-1.2-2.3-2.8l0,0c0.3-1.5,1.7-2.8,3.3-2.8h36.9c1.5,0,2.6,1.2,2.3,2.8l0,0
						C2455.1,826.5,2453.7,827.8,2452.1,827.8z"/>
				</g>
			</g>
			<g>
				<path class="st38" d="M2278.5,287.7h-103.9c-4.9,0-9.5,3.9-10.3,8.8l-9.8,55.7c-0.9,4.9,2.4,8.8,7.2,8.8h37.7c2,0,3.6,1,4.3,2.7
					l5.3,13c0.6,1.3,2.5,1.3,3.5,0l10-13c1.3-1.7,3.3-2.7,5.2-2.7h37.9c4.9,0,9.5-3.9,10.3-8.8l9.8-55.7
					C2286.6,291.6,2283.4,287.7,2278.5,287.7z"/>
				<path class="st37" d="M2172.9,331.7l12.9-15.2c0.4-0.5,1.3-0.4,1.6,0.2l7.5,15.2c0.3,0.6-0.1,1.4-0.8,1.4h-20.4
					C2172.8,333.3,2172.4,332.3,2172.9,331.7z"/>
				<g>
					<path class="st37" d="M2205.6,335.9c-0.6,0-0.9-0.3-0.8-1l0.4-2.2c1.3-7.5,12.6-7.5,13.5-12.9c0.4-2.5-0.6-4.5-3.5-4.5
						c-2.4,0-4.3,1.5-5,3.6c-0.2,0.6-0.6,1-1.2,1h-0.4c-0.7,0-1-0.4-0.8-1c1-3.4,3.9-5.8,7.9-5.8c3.7,0,6.4,2.2,5.6,6.8
						c-1.3,7.3-12.5,7.3-13.4,12.9l-0.2,1h10.1c0.6,0,0.9,0.4,0.8,1l0,0.2c-0.1,0.7-0.5,1-1.2,1L2205.6,335.9L2205.6,335.9z"/>
					<path class="st37" d="M2220.7,334.3c0.2-0.9,1.1-1.7,2.1-1.7c0.9,0,1.6,0.8,1.4,1.7c-0.2,1-1.1,1.8-2,1.8
						C2221.2,336.1,2220.5,335.3,2220.7,334.3z"/>
					<path class="st37" d="M2230.7,335.9c-0.6,0-0.9-0.3-0.8-1l3.4-19.1l-1.5-0.1c-0.6,0-0.9-0.4-0.8-1l0-0.1c0.1-0.7,0.5-1,1.2-1
						h2.7c0.6,0,0.9,0.3,0.8,1l-3.6,20.3c-0.1,0.7-0.5,1-1.2,1L2230.7,335.9L2230.7,335.9z"/>
					<path class="st37" d="M2241.3,322.3c1.1-0.6,2.4-0.9,3.6-0.9c4.6-0.1,6.8,3.3,6.1,7.3c-0.7,4-4.6,7.3-8.7,7.3
						c-3.1,0-5.4-1.9-5.9-4.6c-0.2-0.7,0.3-1.1,1-1.1h0.2c0.6,0,0.9,0.3,1,0.8c0.5,1.7,2.1,2.9,4,2.9c2.9,0,5.5-2.3,6-5.1
						c0.5-2.9-0.8-5.3-4.2-5.2c-1.1,0-2.1,0.3-3.1,0.9c-0.5,0.3-0.8,0.4-1.3,0.4h-0.6c-0.7,0-0.9-0.3-0.8-1l1.6-9.4
						c0.1-0.7,0.5-1,1.2-1h9.3c0.6,0,0.9,0.3,0.8,1l0,0.2c-0.1,0.6-0.5,1-1.2,1h-8L2241.3,322.3z"/>
					<path class="st37" d="M2268.9,315.1c-0.1,0.5-0.2,0.8-0.5,1.3l-11.8,18.8c-0.3,0.5-0.7,0.8-1.3,0.8h-0.5c-0.8,0-1-0.5-0.6-1.2
						l11.9-19h-9.9c-0.7,0-0.9-0.3-0.8-1l0-0.2c0.1-0.7,0.5-1,1.2-1h11.6c0.7,0,0.9,0.3,0.8,1L2268.9,315.1z"/>
				</g>
			</g>
		</g>
		<g>
			<path class="st39" d="M1465.1,1106l-0.1,11.4l-0.2,19.2c0,3.2-6.2,7.1-9.8,7.2c-8.9,0.1-17.7-7.2-17.7-7.2l-2.1-13.8l-2.5-16.9
				l-0.2-1.1l10.3,0.3L1465.1,1106z"/>
			<path class="st40" d="M1465.1,1106l-0.1,11.4c0,0-10.8,3.8-29.8,5.3l-2.5-16.9c3.3-0.3,6.7-0.5,10.1-0.7L1465.1,1106z"/>
			<path class="st39" d="M1321.3,1103.1l-5.3,9.8l-10.1,18.6c-1.2,2.7-7.9,3.6-11,2.2c-3.4-1.5-11.7-2.8-13.8-5.5
				c-2.5-3.2,2.3-9.3,2.3-9.3l3.4-12.3l3.5-12.8L1321.3,1103.1z"/>
			<path class="st40" d="M1321.3,1103.1l-5.3,9.8c0,0-17.5-2.4-29.2-6.2l3.5-12.8L1321.3,1103.1z"/>
			<path class="st41" d="M1469.6,933.1l-4.5-114.2l-0.3,0.1c-0.3-8.1-0.6-14-0.8-15.9c-0.7-9-2.9-21-6.5-23.9
				c-10.3-8.5-36-11.3-48.1,2.6c-12.8,14.8-11.8,51-11.8,51s12.9,154.1,30.4,283.1c0,0,11.6,0.5,44.6-1.7L1469.6,933.1z"/>
			<path class="st41" d="M1335.6,909.1c0,0-2.5-112.8,1.7-171.5l26.4,1.5c4.1-7.5,8.8-6.2,13.6-0.7c1.3-1.2,2.6-2.4,4-3.6
				c0,0,29.9-0.6,53.8,0.9c18.8,1.1,27.9-1.8,27.9-1.8s2,64.9,2,92.5l-49.2-15.6c0,0-15.3,91.5-19.9,108.7
				c-4.1,15.3-55.7,170.9-66.8,194.4c-12.4-1.5-35.9-10.2-43.1-14.6C1287.1,1093.6,1311.1,975.1,1335.6,909.1z"/>
			<polygon class="st42" points="1402.6,887.2 1419,816.4 1406.6,929 			"/>
			<path class="st39" d="M1576.8,614.9c-2.8,2.8-53.8,81.3-67.8,82.4c-5.1,0.4-22.1-13.7-36.7-40.9c-1.8-3.4-3.6-7-5.3-10.8
				c8.4-3.2,24.4-7.6,39-16.5c0.2,0.5,0.4,1,0.6,1.4c2,4.7,3.9,9.1,5.8,13.2c19.2-20.7,49.3-43,49.3-43S1579.6,612.2,1576.8,614.9z"
				/>
			<path class="st40" d="M1506.6,630.5c0,0-18.4,19.2-34.3,25.9c-1.8-3.4-3.6-7-5.3-10.8c8.4-3.2,24.4-7.6,39-16.5
				C1506.2,629.6,1506.4,630.1,1506.6,630.5z"/>
			<path class="st37" d="M1472.9,564.5c-5.8-4.8-10.7-5.5-28.2-8.1c-4.4-0.2-9.6-1.2-15.8-1c-17.7,0.6-65.8,3.5-71.2,15.3
				c-2.8,6-24.3,164.9-21.9,167.7c5.4,6.2,70.5,6.2,87.8,6.2c15.4,0,38.7-1.5,40-6.5c2-7.3,7.1-115.5,11.1-126.3
				C1477.8,603.5,1480,570.4,1472.9,564.5z"/>
			<path class="st37" d="M1493.9,598.9c-8.7-16.8-20.2-33.6-20.2-33.6l-21.8,67.9c0,0,7.9-3.3,13.4,7c1.2,2.2,2.3,4.3,3.5,6.5
				c8.1-2.6,24.8-8.8,38.4-18.4C1502.7,617.4,1497.8,606.4,1493.9,598.9z"/>
			<path class="st39" d="M1396.5,557.8c0,0,15.5,19,35,14.6c8.9-2,7.9-16.4,7.9-16.4s-3.9-0.4-5.6-3.1c-0.4-0.6-1-2.7-1.6-5.3
				c-1.2-5.1-2.6-12.2-2.6-12.2l-6.8-2.5l-21.3-8c0,0,0,19.6-2.1,29.1C1398.9,556.9,1396.5,557.8,1396.5,557.8z"/>
			<path class="st40" d="M1413.3,533.3c0,0,1.3,12.1,19,14.3c-1.2-5.1-2.6-12.2-2.6-12.2l-6.8-2.5L1413.3,533.3z"/>
			<path class="st39" d="M1425.6,468.7c3.8,1,17.6-5.8,20.4-1.6c2.8,4.2,8.9,31.7,10.4,37.4c0.9,3.6,5.1,26.6-2.8,33.8
				c-8.4,7.6-31.8,0.8-34.5-0.1c-7.1-2.3-20.4-9.7-22.2-16.3l-1-40.1L1425.6,468.7z"/>
			<path class="st39" d="M1452.8,493.3c0,0,8.1,11.9,9.5,17.4c0.5,2-7.4,4.9-7.4,4.9"/>
			<path class="st41" d="M1459.1,437.7c-5.3-1.5-83.5-1.4-80.5,36c-13.5,2.7-13.4,16.9-12.8,20.3c2.7,13.8,18.7,28.5,35.7,38
				l2.7-3.9c0,0-8-12-3.3-19.8c5.2-6.8,11.1,0.9,14.6,4.2c0.5,0.5,1.3,0.1,1.3-0.5c0.1-3.8-1.2-5.8,1.3-12.4
				c2.8-7.5-1.6-13.6-2.6-15.3c0,0,22.3,1.6,33.8-7.9C1460.7,466.7,1467.9,440.1,1459.1,437.7z"/>
			<path class="st37" d="M1521.6,1160.4c0.1-3.9-48.1-23.1-56.9-23.8c0,0-19.8-1.1-27.6-1.6c-5.3,5.4-5.2,21.7-3.9,26
				c0.5,1.7,2.1,2.9,3.9,2.9h55.5l0,0h27.5c0.8,0,1.5-0.7,1.5-1.5L1521.6,1160.4L1521.6,1160.4z"/>
			<path class="st43" d="M1380.8,831.4l-82.6-70.6c-0.7-0.6-0.8-1.7-0.2-2.5l104-121.6c0.6-0.7,1.7-0.8,2.5-0.2l82.6,70.6
				c0.7,0.6,0.8,1.7,0.2,2.5l-104,121.6C1382.7,831.9,1381.6,832,1380.8,831.4z"/>
			<path class="st37" d="M1319.7,1149.9c-5.8-5.6-11.7-16.3-13.8-18.3c-9.9-5.4-22.5-12.5-22.5-12.5s-3.5,1.9-6.1,4.3
				c-3.3,3.1-7.4,9.2-8.6,16c-0.4,2.2,6.9,7.3,9.3,9.8s12.5,12.9,19.3,14c2.2,0.4,9.4,0.9,9.4,0.9h37.6c0.7,0,1.3-0.6,1.3-1.3v-2.4
				c0-0.7-0.3-1.3-0.7-1.7C1340.6,1154.6,1319.8,1150,1319.7,1149.9z"/>
			<path class="st39" d="M1429.2,741.9l-15.6,8.5c0,0-17.9-4-38-13.5c-23.4-11.1-53.1-18.1-60.9-37.3c-3.1-7.6,0.1-32,4.7-56.3
				c1.1-6.2,2.4-12.3,3.6-18.1c0.7-3.3,1.4-6.6,2.1-9.7c2.2,1.2,4.8,4.4,8.2,8.3c6.6,7.8,16.3,18.5,32.2,23.3c-0.2,1-0.5,2-0.7,3
				c-5.3,22.6-10.7,36.3-10.7,36.3s6.1,3.9,15.7,10.9c10.6,7.7,30.9,26.3,41.9,34.2C1415.8,734.3,1429.2,741.9,1429.2,741.9z"/>
			<path class="st40" d="M1365.4,647c-0.2,1-0.5,2-0.7,3c0-0.5-19.1-1.2-45.4-6.8c1.1-6.2,2.4-12.3,3.6-18.1c3.4-1.2,6.2-2,6.5-2
				c0.1,0,1.6,0.3,3.9,0.6C1339.9,631.5,1349.5,642.2,1365.4,647z"/>
			<path class="st37" d="M1379.9,607.8l-2.9-46.8c0,0-31.2,6.3-38.3,15.7c-9.4,12.3-15.4,35-18.4,56.9c6.6,3.6,25.2,8.7,48.8,14.5
				C1373.8,633.9,1378.3,618.7,1379.9,607.8z"/>
			<path class="st39" d="M1564.2,591.9c0,0-2.4,8.7-6.5,11.9c0,0,15.9,11.9,18.1,12.5c0,0,4-4,6.4-5.6
				C1584.6,609.1,1564.2,591.9,1564.2,591.9z"/>
			<path class="st39" d="M1601.5,585.2c1.1,0.8,2.6,2.7,1.2,4.5c-1.3,1.8-7,8-8.4,5.7c-1.7-2.9,2.7-9.1,2.7-9.1
				S1598.9,583.3,1601.5,585.2z"/>
			<path class="st39" d="M1594.6,567.6c-1.1-0.8-2.9-2.6-1.5-4.4c1.4-1.8,7.8-8.3,9-5.9c1.6,3-3.1,9.1-3.1,9.1
				S1597.1,569.7,1594.6,567.6z"/>
			<path class="st39" d="M1597.6,581.1c1.1,0.8,2.6,2.7,1.2,4.5c-1.3,1.8-7.8,10.7-10,7.3c-1.9-2.8,3.9-11.4,3.9-11.4
				S1595,579.2,1597.6,581.1z"/>
			<path class="st39" d="M1594.1,576.3c1.1,0.8,2.6,2.7,1.2,4.5c-1.3,1.8-7.8,10.7-10,7.3c-1.9-2.8,3.9-11.4,3.9-11.4
				S1591.5,574.4,1594.1,576.3z"/>
			<g>
				<path class="st39" d="M1415.3,734.1c0,0,6.5,2.5,11,2.8c4.6,0.4,5.7,0,10.9,0.4c5.2,0.4,11,3.5,11.2,4.4c0.1,0.9-2.2,2.5-4.9,2
					c-3-0.5-6.8-0.8-8.3-0.3c-1.5,0.5-1.6,2.7-0.3,4.2c1.1,1.3,5.2,4.4,9.7,5.5c1.9,0.5,5.6,1.6,6,3.4c0.4,1.8-2.8,1.7-5.9,1.5
					c-7-0.5-15-5.5-15-5.5s-9.6,5.3-10.8,5.5c-1.2,0.2-7.6-7.9-13.6-10.3C1399.2,745.5,1415.3,734.1,1415.3,734.1z"/>
				<path class="st39" d="M1428.6,750.3l10.2,5.5c0,0,11.6,2.7,11.7,4.9c0.1,2.2-7.1,2.9-12.1,1.3c-4.9-1.6-15.6-7.9-15.6-7.9"/>
				<path class="st39" d="M1424.9,753.2l9.1,5.2c0,0,10.5,2.9,10.5,4.8c0,2-7.6,1.5-12-0.2c-4.4-1.7-13.6-8-13.6-8"/>
				<path class="st39" d="M1419.8,752.5l8.7,6.1c0,0,9.8,3.8,9.8,5.8c0,2-7.6,1.5-12-0.2s-13.5-11.2-13.5-11.2"/>
			</g>
			<path class="st39" d="M1562.5,598.7c0,0,0.9-8.1,4.2-11.2c3.3-3.2,10.2-9.9,11.6-9.8s2.7,2.8,0.4,6.8c-0.9,1.6-3.4,3.9-6.2,6.2
				l0,0c0,0,1.9,8.5-2.6,13s-5.6-0.5-5.6-0.5l-0.2-5.9C1563.4,597.9,1562.9,598.4,1562.5,598.7z"/>
			<path class="st39" d="M1413.3,510.3c0,0,1.3,1.5,1.7,7.1c0.4,5.6-0.3,13.4-3.6,14.3c-3.2,0.9-9.4-3.8-11.4-9.5
				c-1.7-4.9-3.4-13.6,2.9-16.4C1409.2,503,1413.3,510.3,1413.3,510.3z"/>
			<g>
				<g>
					<g>
						<path class="st44" d="M1406.5,510.8c2.4,2.6,3.4,6.2,2.7,9.6c0,0.2,0.2,0.2,0.3,0.1c0.8-3.5-0.3-7.3-2.8-9.9
							C1406.6,510.5,1406.4,510.7,1406.5,510.8L1406.5,510.8z"/>
					</g>
				</g>
				<g>
					<g>
						<path class="st44" d="M1405.7,513.9c0.8,0.2,1.6,0.5,2.2,1.1c0.6,0.5,1.1,1.2,1.4,2c0.1,0.1,0.3,0,0.3-0.1
							c-0.5-1.7-2.2-2.9-3.8-3.2C1405.6,513.6,1405.5,513.9,1405.7,513.9L1405.7,513.9z"/>
					</g>
				</g>
			</g>
			<g>
				<g>
					<path class="st44" d="M1454.8,524c-1.6,2.4-5,2.4-7.5,1.9c-0.2,0-0.2,0.2-0.1,0.3c2.6,0.7,6.2,0.5,7.8-2
						C1455.1,524,1454.9,523.9,1454.8,524L1454.8,524z"/>
				</g>
			</g>
			<path class="st41" d="M1439,498.6c0.4,1.8,1.6,3,2.7,2.7s1.6-1.9,1.1-3.6c-0.4-1.8-1.6-3-2.7-2.7
				C1439.1,495.2,1438.6,496.8,1439,498.6z"/>
			<g>
				<g>
					<path class="st41" d="M1435,494.9c0.7-2,1.9-4.1,4-4.8c2-0.6,3.7,0.4,5,1.9c0.2,0.2,0.4-0.1,0.3-0.3c-1.3-1.6-3.3-2.7-5.3-2
						c-2.2,0.8-3.5,3-4.2,5.1C1434.6,495,1434.9,495.1,1435,494.9L1435,494.9z"/>
				</g>
			</g>
			<g>
				<g>
					<path class="st41" d="M1381.7,475.4c-1.3-0.4-2.4-1.4-3.3-2.3c-1.3-1.2-2.4-2.6-3.3-4.1c-1.9-3-3.4-6.7-2.4-10.3
						c0.1-0.2-0.3-0.3-0.3-0.1c-1.1,3.6,0.5,7.5,2.4,10.6c1.6,2.5,3.9,5.6,6.9,6.5C1381.8,475.7,1381.9,475.5,1381.7,475.4
						L1381.7,475.4z"/>
				</g>
			</g>
			<g>
				<g>
					<path class="st41" d="M1382.4,474.3c-1.3,0.1-2.6-0.3-3.8-0.7c-1.7-0.6-3.3-1.5-4.8-2.5c-2.9-2-5.8-4.9-6.4-8.5
						c0-0.2-0.4-0.1-0.3,0c0.4,3.7,3.4,6.6,6.3,8.6c1.5,1.1,3.2,2,5,2.6c1.3,0.5,2.7,0.9,4.1,0.8
						C1382.5,474.5,1382.5,474.2,1382.4,474.3L1382.4,474.3z"/>
				</g>
			</g>
			<path class="st39" d="M1601.8,590.8c0,0-0.1,2.7-4.5,9.6c-4.4,6.9-17.3,11.9-17.3,11.9l-12.8-9.4c0,0-1.4-10.4-0.7-11.5
				c0.8-1.1,10.6-9.4,10.6-9.4l2.6-3.1l14.2-16.6l5.1,4.2l-9.6,12.5l1,6.4L1601.8,590.8z"/>
		</g>
		<g>
			<path class="st45" d="M1778.3,457.2c0,0,0.9-24.3,23.8-22.9c16.2,1,26.5,16.5,20.2,31.6c-7.4,17.5-28,13.1-28,13.1"/>
			<g>
				<g>
					<path class="st45" d="M1806.8,471.4c1.5,0.6,2.5,2.4,3.4,3.7c1,1.6,1.9,3.2,2.6,4.9c1.5,3.3,1.8,7,1.4,10.6
						c-0.7,6.3-2.6,12.8-5.7,18.3c-1.9,3.4-4.4,6.6-7.9,8.2c-0.2,0.1,0,0.4,0.2,0.3c6.6-3,9.9-10.9,11.8-17.4
						c1.8-6.1,3.5-13.5,0.9-19.6c-0.9-2-1.9-4-3.2-5.9c-0.9-1.3-1.9-3-3.4-3.6C1806.7,471,1806.6,471.3,1806.8,471.4L1806.8,471.4z"
						/>
				</g>
			</g>
			<path class="st46" d="M1729.9,686.9c-6.9,13.6-24.2,47.6-41.3,26.3c-12.4-15.4-29.4-43.9-29.4-43.9l28,1.4
				c4.5,4.7,11,12.2,11,12.2l7.2-35.1l20.5,24.8C1725.9,672.6,1741.6,664,1729.9,686.9z"/>
			<g>
				<path class="st41" d="M1778.8,841.5c-4.4,8.6-23.1,102.4-27.9,113.8c-0.7,1.7-9.7,9.8-12,12.4c-1,1.2-2.1,2.3-3.3,3.2
					c-14.8,12.2-33.8-3.5-34.3-19.9v-0.3c-0.4-29.5,2.5-98.2,7.1-149.9c1.9-21.8,6.2-40.8,7.4-52.2l72.7-16.8
					C1823.9,806.5,1787.3,825,1778.8,841.5z"/>
				<path class="st37" d="M1843.8,1120.5c0,0,17.7-0.1,20.3-13.5c0,0,8,4.2,12.8,12.9c0.9,1.6,1,3.6,0.2,5.3
					c-1.9,3.9-5.5,11.9-7.5,18.8c-2.8,9.6-16.4,18.6-29.8,18.8h-19.9c0,0-10.5-2.2,10.6-15.7
					C1839.8,1141.1,1843.8,1120.5,1843.8,1120.5z"/>
				<path class="st37" d="M1727.3,1138.1c0,0-4.6,2.9-15.9,2c-1.8-0.1-8.3-1.3-10.9-2c0,0-44.8,16.9-45,21.1
					c-0.2,4.1,5.5,3.6,5.5,3.6l67.7,0C1728.6,1162.7,1737,1151.9,1727.3,1138.1z"/>
				<path class="st41" d="M1751,1013.3c-3.2,25.7-15.2,67.3-19,92.6c-3.1,20.8-3.2,34.7-3.2,34.7s-18.8,2-28.3-2.4
					c0,0,0.4-154.2,1.1-187c0.1-2.8,0.2-4.7,0.4-5.6c2.2-12.8,24.8-1.5,36.5,5.2c4.1,2.3,12.1,3.3,12.1,3.3s0.1,0.9,0.3,2.4
					C1751.7,965.3,1754.3,986.5,1751,1013.3z"/>
				<path class="st41" d="M1791.6,947.3c3.6,14.4,52-0.5,50.5-13.3c-1.7-14.7,0-50.8,0-89.5c0-9.1-0.9-41.4-1.3-46.7
					c-1.4-16.6-5.2-26.2-9.2-35c-4.6-10-6.6-15.6-6.6-15.6l-63-3.7c0,0,2.5,50.7,9.7,101C1779,894.9,1787.4,930.4,1791.6,947.3z"/>
				<path class="st41" d="M1838,926.1c0,0,10.9,11.8,15.1,36.3c3.1,18.2,5.9,68,10.6,107c2.8,23.5,6.5,42,6.5,42s-14,11.2-26.3,9.1
					c0,0-49.8-156-53.7-179.2C1787.3,924,1838,926.1,1838,926.1z"/>
			</g>
			<path class="st37" d="M1839,649.2c8.1-29.4,13.8-63.5,7.2-74.2c-8.9-14.4-25.1-16.2-32.9-15.6l-66.5,4.1c0,0-27.2,4.6-33.4,15
				C1707.2,589,1692,663,1692,663l31.5,10.3c0,0-1.4,21-3.2,33.5c-0.9,6.5-3.6,26.2-3.6,26.2s-3.8,18.5-3.8,20.7s0.7,4.3,1.9,4.5
				c14.1,3.5,30.4,4.5,53.8,4.3c33.2-0.2,60.5-3.8,62.3-6.3c1.8-2.4-5.4-19.2-6.5-23.3c0,0-8.4-22.3,3.6-51.2
				C1831.7,673.2,1835.6,661.6,1839,649.2z"/>
			<path class="st46" d="M1733.1,639.1c0,0-3.4-3.4-5-6.2c-2.1-3.7-2.9-8.4-0.1-9.4c2.8-1,3.2,5.1,9.9,9.6c3.4,2.3,9.1,14,9.1,14
				l0.6,4.4"/>
			<path class="st46" d="M1813.3,559.5c-15.2,31.3-39.7,32.4-39.7,32.4c-29.4,3.1-26.8-28.3-26.8-28.3l8.2-1.8
				c5.4-1.2,9.5-5.8,10.2-11.3c0.1-0.4,0.1-0.8,0.1-1.2c0.6-5.8,0.5-11.8,0.3-15.7c-0.1-2.5-0.3-4.2-0.3-4.2l-2.4-20.6
				c0,0,45.1-31.7,35.7-3c-4.6,14.2-5.7,27.1-5.7,36.6c0.1,8.8,6.8,16.2,15.6,16.8L1813.3,559.5z"/>
			<path class="st47" d="M1765.4,549.1c0.6-5.8,0.5-11.8,0.3-15.7l16-4.2C1781.7,529.3,1780.8,544.2,1765.4,549.1z"/>
			<path class="st46" d="M1729.2,480.2c-0.7,16.5,6.9,59.3,25.5,63.6c17.1,3.9,33.5-16.5,44-38.1c10.4-21.5-8.4-45.8-26.9-48
				C1753.4,455.6,1730,458.8,1729.2,480.2z"/>
			<path class="st48" d="M1753,670l-43.6-74.2c-1.6-2.7-4.4-4.3-7.5-4.3l-87.6,0c-1,0-1.7,0.5-2.2,1.2l0,0l0,0.1c0,0,0,0.1-0.1,0.1
				l-2.4,4.1l4.1,1.4c0,0,0,0,0,0l42.1,71.7c1.6,2.7,4.4,4.3,7.5,4.3l85.6,0c-0.1,0.3-0.1,0.5-0.1,0.5l1.9,1.9l2.2-3.8h0
				C1753.4,672.1,1753.5,671,1753,670z"/>
			<path class="st43" d="M1748.1,678.4l-87.2,0c-3.1,0-6-1.6-7.5-4.3l-43.8-74.6c-1-1.8,0.2-4,2.3-4l87.6,0c3.1,0,6,1.6,7.5,4.3
				l43.6,74.2C1751.7,676,1750.3,678.4,1748.1,678.4z"/>
			<path class="st49" d="M1703,648.7c0,0,7,6.7,9.5,8.1c3,1.7,15.2,3.6,22.6,5.2c6.3,1.4,14.1,6.2,14.1,6.2l-3.8-8.3l-9.4-4
				l-22.6-3.1L1703,648.7z"/>
			<path class="st46" d="M1816,628.4l-14.2,53c0,0,16.4,9,31.5,8.6l15.8-51.7"/>
			<path class="st37" d="M1807.1,608.5l-5.8,26.7c0,0,23,10.7,51.9,12.5c0,0,10.1-71.8-18.6-83.4
				C1834.6,564.4,1818.9,561.7,1807.1,608.5z"/>
			<path class="st46" d="M1809.9,678.2c-18.2-9.4-63-31.1-63-31.1l-10,10.4c0,0,52.6,50,76.7,57.3c13.3,4,22.9-35.2,22.9-35.2"/>
			<path class="st46" d="M1742.6,662.3c-4.4-3-18.6-2.8-26.6-6.8c2.7-5,8-13.3,15.9-18.5c1.6,0.4,2.9,0.8,3.7,1.1
				c4.2,1.5,4.5,4.2,6.9,7.6c2.4,3.4,4.5,3.8,4.5,3.8S1747.9,665.8,1742.6,662.3z"/>
			<path class="st46" d="M1729.5,642l-9.9-2c0,0-6.3-2.9-10.1-5.6c-3.7-2.7-3-4.5,0-4.2c1.9,0.2,12.4,4.6,12.4,4.6s6.5,1.4,8.5,1.1
				c2-0.3,1.4-1.9,1.4-1.9l3.2,1.8l0.8,2.8"/>
			<path class="st46" d="M1724.3,645.3l-11.9-1.5c0,0-8.9-4.2-10.8-4.4c-3-0.4-3.7,1.5,0,4.2s7.3,4.7,10.1,5.6c2.4,0.8,9.9,2,9.9,2"
				/>
			<path class="st46" d="M1723.2,650.8l-9.3-0.5c0,0-8.4-3.1-10-3.3c-2.6-0.3-3.2,1.3,0,3.6s6.4,4.1,8.7,4.9
				c2.1,0.7,10.9,2.3,10.9,2.3"/>
			<path class="st46" d="M1727.3,640.5l-12.2-2l-7.6-3.8c0,0-5.3-3.7-7.6-3c-2,0.6,0.6,4,3.2,6.2c2.6,2.2,9,5.4,9,5.4l13.1,3.2"/>
			<path class="st45" d="M1739.1,476.8c0,0,3.5,19.5,26.1,23.3c15.5,2.6,31,14.1,31,14.1s7.2-11,9.3-25.1
				c2.9-19.2-3.9-43.9-36.8-45.3c-27.3-1.1-45.7,17.2-44.4,37.5c0.8,12.6,7.2,22.7,7.2,22.7S1726.7,485.6,1739.1,476.8z"/>
			<path class="st45" d="M1786.1,512.7c0,0,4.5,0.6,5.7,8.2s1.4,16.1,1.4,16.1l3.1-3c0,0,2.7-6.6,6.9-18.5c10.3-8.7,12.6-27,4-40.6
				c-9.5-15-19.9,22.1-19.9,22.1L1786.1,512.7z"/>
			<path class="st50" d="M1763.3,634.2c0,0,3.4,20.7,22.8,23.8C1786.1,657.9,1758.3,660.4,1763.3,634.2z"/>
			<path class="st46" d="M1776,504.7c0,0-0.6-11.1,8.6-9.1c9.8,2.2,6.9,22.7-2.1,20.2"/>
			<g>
				<g>
					<path class="st45" d="M1738.4,475.9c0,4.7,1.4,9.5,3.8,13.5c3.3,5.6,8.7,9.5,14.9,11.1c5,1.3,10.2,1.2,15.3,0.4
						c0.3,0,0.2-0.5-0.1-0.5c-8,1.1-16.6,0.6-23.3-4.3c-4.5-3.3-7.6-8.2-9.2-13.5c-0.6-2.2-1-4.5-1.1-6.7
						C1738.8,475.6,1738.4,475.6,1738.4,475.9L1738.4,475.9z"/>
				</g>
			</g>
			<path class="st41" d="M1740.9,513c0.5,1.8,0.1,3.5-0.9,3.7c-1,0.3-2.1-1-2.6-2.8s-0.1-3.5,0.9-3.7
				C1739.3,509.9,1740.4,511.1,1740.9,513z"/>
			<path class="st41" d="M1758.2,509.6c0.3,1.8-0.2,3.5-1.2,3.6c-1,0.2-2-1.2-2.4-3c-0.3-1.8,0.2-3.5,1.2-3.7
				C1756.8,506.4,1757.9,507.8,1758.2,509.6z"/>
			<g>
				<g>
					<path class="st47" d="M1748.1,517.3c0.1,1.5-0.2,3,0,4.5c0.1,1.3,0.6,2.6,1.8,3.1c0.9,0.4,2.1,0.3,3.1,0.1
						c0.1,0,0.1-0.2-0.1-0.2c-1.5,0.3-3.3,0.3-4.1-1.2c-0.6-1.2-0.5-2.7-0.5-4c0-0.8,0.1-1.5,0-2.3
						C1748.3,517.1,1748.1,517.1,1748.1,517.3L1748.1,517.3z"/>
				</g>
			</g>
			<g>
				<g>
					<path class="st41" d="M1740.8,508.1c-0.9-1.2-3.3-2.5-4.5-1c-0.4,0.5-0.6,1.2-0.6,1.8c0,0.2,0.2,0.2,0.3,0
						c0.1-0.9,0.4-2,1.4-2.1c0.8-0.2,1.6,0.2,2.3,0.7c0.4,0.2,0.7,0.5,1,0.9C1740.7,508.4,1740.9,508.3,1740.8,508.1L1740.8,508.1z"
						/>
				</g>
			</g>
			<g>
				<g>
					<path class="st41" d="M1758.4,504.9c-0.8-1.2-3.1-2.7-4.4-1.4c-0.5,0.5-0.7,1.1-0.8,1.8c0,0.2,0.2,0.2,0.3,0
						c0.2-0.9,0.6-1.9,1.6-2c0.8-0.1,1.6,0.3,2.2,0.8c0.3,0.3,0.7,0.6,0.9,0.9C1758.3,505.1,1758.5,505,1758.4,504.9L1758.4,504.9z"
						/>
				</g>
			</g>
			<g>
				<g>
					<path class="st44" d="M1750.8,532.9c2.2-0.4,4.4-0.9,6.4-1.7c0.2-0.1,0.1-0.4-0.1-0.3c-1.1,0.3-2.1,0.7-3.2,1
						c-1.1,0.3-2.2,0.5-3.2,0.8C1750.5,532.6,1750.6,532.9,1750.8,532.9L1750.8,532.9z"/>
				</g>
			</g>
			<g>
				<g>
					<path class="st47" d="M1783,502.4c-1,1.2-1.1,2.9-0.8,4.4c0.1,0.8,0.4,1.6,0.9,2.3c0.5,0.7,1.2,1.2,1.9,1.6
						c0.2,0.1,0.3-0.1,0.1-0.2c-0.6-0.4-1.2-0.8-1.7-1.4c-0.6-0.6-0.8-1.4-1-2.2c-0.3-1.4-0.3-3.1,0.7-4.3
						C1783.2,502.4,1783.1,502.3,1783,502.4L1783,502.4z"/>
				</g>
			</g>
			<g>
				<g>
					<path class="st47" d="M1785.7,504.1c-1,0.1-1.8,0.8-2.3,1.7c-0.4,0.7-0.7,1.6-0.7,2.4c0,0.2,0.3,0.2,0.3,0
						c0.2-1.6,1.1-3.6,2.9-3.8C1786,504.4,1785.9,504.1,1785.7,504.1L1785.7,504.1z"/>
				</g>
			</g>
			<path class="st51" d="M1768.2,513.4c0.5,1.5-0.9,3.4-3.2,4.1c-2.2,0.7-4.4,0-4.9-1.5c-0.5-1.5,0.9-3.4,3.2-4.1
				C1765.5,511.2,1767.7,511.9,1768.2,513.4z"/>
			<path class="st51" d="M1742.8,520.6c0.3,1.1-0.6,2.3-2.2,2.8s-3,0-3.4-1.1s0.6-2.3,2.2-2.8C1741,519,1742.5,519.5,1742.8,520.6z"
				/>
		</g>
		<g>
			<polygon class="st52" points="1441.3,188.2 1431.5,243.7 1472.9,243.7 1482.7,188.2 1501,188.2 1471.1,136.9 1423.1,188.2 			"/>
			<polygon class="st2" points="2351.5,990.9 2341.7,1046.4 2383.1,1046.4 2392.9,990.9 2411.1,990.9 2381.2,939.6 2333.2,990.9 			
				"/>
			<polygon class="st3" points="1359.8,104 1354.6,133.5 1376.6,133.5 1381.8,104 1391.5,104 1375.6,76.8 1350.1,104 			"/>
			<polygon class="st4" points="2283.2,144.9 2277.8,175.5 2300.6,175.5 2306,144.9 2316.1,144.9 2299.6,116.7 2273.2,144.9 			"/>
			<polygon class="st2" points="1296.8,456 1291.4,486.6 1314.2,486.6 1319.6,456 1329.7,456 1313.2,427.7 1286.7,456 			"/>
			<polygon class="st4" points="2466.1,648 2459.5,685.5 2487.4,685.5 2494.1,648 2506.4,648 2486.2,613.3 2453.8,648 			"/>
		</g>
		<g>
			<path class="st2" d="M2367.1,300.7h-64.7c-1.5,0-2.6-1.2-2.3-2.8l0,0c0.3-1.5,1.7-2.8,3.3-2.8h64.7c1.5,0,2.6,1.2,2.3,2.8l0,0
				C2370.1,299.4,2368.7,300.7,2367.1,300.7z"/>
			<path class="st2" d="M2364.3,316.8h-64.7c-1.5,0-2.6-1.2-2.3-2.8l0,0c0.3-1.5,1.7-2.8,3.3-2.8h64.7c1.5,0,2.6,1.2,2.3,2.8l0,0
				C2367.3,315.5,2365.8,316.8,2364.3,316.8z"/>
			<path class="st2" d="M2361.5,332.8h-64.7c-1.5,0-2.6-1.2-2.3-2.8l0,0c0.3-1.5,1.7-2.8,3.3-2.8h64.7c1.5,0,2.6,1.2,2.3,2.8l0,0
				C2364.5,331.6,2363,332.8,2361.5,332.8z"/>
			<path class="st2" d="M2330.8,348.9h-36.9c-1.5,0-2.6-1.2-2.3-2.8l0,0c0.3-1.5,1.7-2.8,3.3-2.8h36.9c1.5,0,2.6,1.2,2.3,2.8l0,0
				C2333.8,347.7,2332.3,348.9,2330.8,348.9z"/>
		</g>
		<g>
			<path class="st53" d="M2003.9,333.1h-418.2c-8,0-13.4-6.5-12-14.5l30.1-170.5c1.4-8,9.1-14.5,17.1-14.5h418.2
				c8,0,13.4,6.5,12,14.5L2021,318.5C2019.6,326.6,2011.9,333.1,2003.9,333.1z"/>
			<g>
				
					<linearGradient id="SVGID_20_" gradientUnits="userSpaceOnUse" x1="1568.9099" y1="956.8151" x2="1961.8813" y2="956.8151" gradientTransform="matrix(1 0 0.1763 -1 -126.3063 1202)">
					<stop  offset="0" style="stop-color:#0047DD"/>
					<stop  offset="1" style="stop-color:#45FFFD"/>
				</linearGradient>
				<path class="st54" d="M2003.6,250.9c-17.2-2.8-24.3-21.9-47.2-19.1s-41.8,28.5-62,14.5c-19.4-13.4-24.9-58.2-49.7-58.1
					c-31.8,0-51.2,77.3-91.4,62.7c-32.3-11.7-42.3-20.9-69.4-24.8c-41.5-6.1-79,24.9-79,24.9l-9,51.3h398.7L2003.6,250.9z"/>
				<g>
					<line class="st55" x1="1604.9" y1="250.9" x2="1595.8" y2="302.2"/>
					<line class="st55" x1="1665.3" y1="225.5" x2="1651.8" y2="302.2"/>
					<line class="st55" x1="1720.3" y1="237.6" x2="1708.9" y2="302.2"/>
					<line class="st55" x1="1775.1" y1="250.9" x2="1766" y2="302.2"/>
					<line class="st55" x1="1843.2" y1="188.5" x2="1823.1" y2="302.2"/>
					<line class="st55" x1="1890.6" y1="243.7" x2="1880.3" y2="302.2"/>
					<line class="st55" x1="1949.6" y1="233.3" x2="1937.4" y2="302.2"/>
					<line class="st55" x1="2003.6" y1="250.9" x2="1994.5" y2="302.2"/>
				</g>
				
					<linearGradient id="SVGID_21_" gradientUnits="userSpaceOnUse" x1="1790.5642" y1="1024.6201" x2="1840.7826" y2="1024.6201" gradientTransform="matrix(1 0 0.1763 -1 -126.3063 1202)">
					<stop  offset="0" style="stop-color:#FFFFFF"/>
					<stop  offset="1" style="stop-color:#FFFFFF;stop-opacity:0"/>
				</linearGradient>
				<polyline class="st56" points="1843.4,187.6 1867.1,167.1 1896.7,167.1 				"/>
				<g>
					<path class="st57" d="M1604.9,250.9c0,0,37.5-31,79-24.9c27.1,4,37.1,13.1,69.4,24.8c40.3,14.6,59.7-62.7,91.4-62.7
						c24.2,0,30.3,44.7,49.7,58.1c20.2,14,39.1-11.7,62-14.5s30,16.3,47.2,19.1"/>
					<path class="st37" d="M1848.4,187.6c-0.5,2.8-3.1,5-5.9,5s-4.6-2.3-4.2-5c0.5-2.8,3.1-5,5.9-5
						C1847,182.6,1848.9,184.9,1848.4,187.6z"/>
				</g>
				<g>
					<g>
						<path class="st37" d="M1898.7,173.7c-0.5,0-0.8-0.3-0.7-0.8l0.3-1.7c1.1-6,10.1-6,10.9-10.4c0.4-2-0.5-3.6-2.8-3.6
							c-2,0-3.5,1.2-4,2.9c-0.2,0.5-0.5,0.8-1,0.8h-0.3c-0.5,0-0.8-0.3-0.7-0.8c0.8-2.7,3.2-4.7,6.3-4.7c2.9,0,5.1,1.8,4.5,5.5
							c-1,5.8-10,5.8-10.8,10.4l-0.1,0.8h8.1c0.5,0,0.8,0.3,0.7,0.8l0,0.1c-0.1,0.5-0.4,0.8-0.9,0.8L1898.7,173.7L1898.7,173.7z"/>
						<path class="st37" d="M1911.6,173.7c-0.6-0.2-0.9-0.7-0.8-1.3c0.1-0.8,0.9-1.4,1.7-1.4c0.8,0,1.3,0.6,1.1,1.4
							c-0.1,0.4-0.3,0.7-0.4,1l-1.2,1.7c-0.3,0.4-0.6,0.6-1.1,0.6c-0.1,0,0-0.3,0.2-0.9L1911.6,173.7z"/>
						<path class="st37" d="M1923.7,162.6c2.8,0.4,4.3,2.5,3.8,5.5c-0.6,3.4-3.3,5.6-6.7,5.6h-3.9c-0.5,0-0.8-0.3-0.7-0.8l0-0.1
							c0.1-0.5,0.4-0.8,0.9-0.8h3.9c2.3,0,4.1-1.5,4.5-3.8c0.4-2.3-0.9-3.8-3.2-3.8h-0.9c-0.7,0-0.8-0.4-0.4-1l4.5-5.8h-5.9
							c-0.5,0-0.8-0.3-0.7-0.8l0-0.1c0.1-0.5,0.4-0.8,0.9-0.8h7.8c0.7,0,0.8,0.4,0.4,1L1923.7,162.6z"/>
						<path class="st37" d="M1937.3,173.7c-0.5,0-0.8-0.3-0.7-0.8l0.7-4.2h-7.4c-0.5,0-0.8-0.3-0.7-0.8l0.1-0.4
							c0.1-0.4,0.2-0.7,0.5-1l9.2-10.3c0.3-0.4,0.6-0.5,1-0.5h0.6c0.5,0,0.8,0.3,0.7,0.8l-1.8,10.4h1.8c0.5,0,0.8,0.3,0.7,0.8l0,0.1
							c-0.1,0.5-0.4,0.8-0.9,0.8h-1.8l-0.7,4.2c-0.1,0.5-0.4,0.8-0.9,0.8H1937.3z M1937.7,166.9l1.5-8.5l-7.6,8.5H1937.7z"/>
						<path class="st37" d="M1947.6,162.7c0.9-0.4,1.9-0.7,2.9-0.7c3.7-0.1,5.5,2.6,4.9,5.9c-0.6,3.2-3.7,5.8-7,5.8
							c-2.5,0-4.3-1.5-4.8-3.7c-0.1-0.6,0.3-0.9,0.8-0.9h0.2c0.4,0,0.7,0.2,0.8,0.6c0.4,1.4,1.7,2.3,3.3,2.3c2.3,0,4.4-1.9,4.8-4.1
							c0.4-2.3-0.6-4.2-3.4-4.1c-0.9,0-1.7,0.3-2.5,0.8c-0.4,0.2-0.6,0.4-1.1,0.4h-0.4c-0.5,0-0.8-0.3-0.7-0.8l1.3-7.5
							c0.1-0.5,0.4-0.8,0.9-0.8h7.4c0.5,0,0.8,0.3,0.7,0.8l0,0.1c-0.1,0.5-0.4,0.8-0.9,0.8h-6.4L1947.6,162.7z"/>
					</g>
				</g>
			</g>
		</g>
		<g>
			<path class="st2" d="M2332.4,233.9h-32.3c-2.1,0-3.5-1.7-3.1-3.8l5.7-32.3c0.4-2.1,2.4-3.8,4.4-3.8h32.3c2.1,0,3.5,1.7,3.1,3.8
				l-5.7,32.3C2336.4,232.2,2334.4,233.9,2332.4,233.9z"/>
			<path class="st2" d="M2385.6,233.9h-32.3c-2.1,0-3.5-1.7-3.1-3.8l5.7-32.3c0.4-2.1,2.4-3.8,4.4-3.8h32.3c2.1,0,3.5,1.7,3.1,3.8
				l-5.7,32.3C2389.7,232.2,2387.7,233.9,2385.6,233.9z"/>
			<path class="st2" d="M2438.8,233.9h-32.3c-2.1,0-3.5-1.7-3.1-3.8l5.7-32.3c0.4-2.1,2.4-3.8,4.4-3.8h32.3c2.1,0,3.5,1.7,3.1,3.8
				l-5.7,32.3C2442.9,232.2,2440.9,233.9,2438.8,233.9z"/>
		</g>
		<g>
			<g>
				<path class="st58" d="M1893.2,983.5c-1.5,0-2.7-0.6-3.6-1.6c-0.9-1-1.2-2.4-0.9-3.9l7.5-42.6c0.5-3.1,3.5-5.6,6.6-5.6h244
					c1.5,0,2.7,0.6,3.6,1.6c0.9,1,1.2,2.4,0.9,3.9l-7.5,42.6c-0.5,3.1-3.5,5.6-6.6,5.6H1893.2z"/>
				<g>
					<path class="st37" d="M2146.7,930c1.4,0,2.6,0.5,3.4,1.5c0.8,1,1.1,2.3,0.9,3.7l-7.5,42.6c-0.5,3-3.4,5.4-6.3,5.4h-244
						c-1.4,0-2.6-0.5-3.4-1.5c-0.8-1-1.2-2.3-0.9-3.7l7.5-42.6c0.5-3,3.4-5.4,6.3-5.4H2146.7 M2146.7,929.6h-243.9
						c-3.2,0-6.2,2.6-6.8,5.8l-7.5,42.6c-0.6,3.2,1.6,5.8,4.8,5.8h244c3.2,0,6.2-2.6,6.8-5.8l7.5-42.6
						C2152,932.2,2149.9,929.6,2146.7,929.6L2146.7,929.6z"/>
				</g>
			</g>
			<g>
				<path class="st37" d="M1912,970.5c-0.5,2.8-3.2,5.1-6,5.1c-2.8,0-4.7-2.3-4.2-5.1s3.2-5.1,6-5.1S1912.5,967.6,1912,970.5z"/>
				<path class="st37" d="M1976.6,938.3c-0.5,2.8-3.2,5.1-6,5.1s-4.7-2.3-4.2-5.1s3.2-5.1,6-5.1S1977.1,935.5,1976.6,938.3z"/>
				<path class="st37" d="M2019.1,970.5c-0.5,2.8-3.2,5.1-6,5.1s-4.7-2.3-4.2-5.1s3.2-5.1,6-5.1
					C2017.7,965.3,2019.6,967.6,2019.1,970.5z"/>
				<path class="st37" d="M2068.1,951.5c-0.5,2.8-3.2,5.1-6,5.1s-4.7-2.3-4.2-5.1s3.2-5.1,6-5.1S2068.6,948.7,2068.1,951.5z"/>
				<path class="st37" d="M2126.9,965.3c-0.5,2.8-3.2,5.1-6,5.1s-4.7-2.3-4.2-5.1s3.2-5.1,6-5.1
					C2125.5,960.2,2127.4,962.5,2126.9,965.3z"/>
				<polyline class="st59" points="1906.9,970.5 1971.4,938.3 2014,970.5 2063,951.5 2121.8,965.3 				"/>
			</g>
		</g>
		<g>
			<g>
				<g>
					<path class="st58" d="M1251.8,409.4l-12,68.1c-0.5,2.6-3,4.8-5.7,4.8h-68.1c-2.7,0-4.4-2.1-4-4.8l12-68.1
						c0.5-2.7,3-4.8,5.7-4.8h68.1C1250.5,404.6,1252.3,406.7,1251.8,409.4z"/>
				</g>
			</g>
			
				<linearGradient id="SVGID_22_" gradientUnits="userSpaceOnUse" x1="1170.3204" y1="759.4351" x2="1242.53" y2="759.4351" gradientTransform="matrix(1 0 0 -1 0 1202)">
				<stop  offset="0" style="stop-color:#0047DD"/>
				<stop  offset="1" style="stop-color:#45FFFD"/>
			</linearGradient>
			<path class="st60" d="M1216.8,458.5c-2.6,2.2-6.1,3.5-10.4,4l-0.6,3.5c-0.3,1.5-1.7,2.8-3.3,2.8l0,0c-1.5,0-2.6-1.3-2.3-2.8
				l0.6-3.3c-2.7-0.1-5.3-0.6-7.6-1.5c-1-0.3-1.8-0.7-2.6-1.1c-1.7-0.9-2.2-3.1-1-5l0,0c1.2-1.9,3.5-2.8,5.2-1.9
				c0.5,0.3,1.1,0.5,1.7,0.8c1.8,0.7,3.7,1.2,5.6,1.3l1.6-9.3c-2.5-0.6-4.6-1.3-6.3-2.1c-1.7-0.8-3-1.9-4-3.4c-1-1.5-1.2-3.5-0.8-6
				c0.5-3.1,2.1-5.7,4.8-8c2.6-2.2,6.1-3.6,10.5-4l0.6-3.4c0.3-1.5,1.7-2.8,3.3-2.8l0,0c1.5,0,2.6,1.3,2.3,2.8l-0.6,3.3
				c3,0.3,5.6,0.8,7.8,1.8c1.8,0.7,2.2,3,1.1,4.8l0,0c-1.1,1.9-3.4,2.8-5.2,2c-1.6-0.7-3.2-1.1-4.9-1.3l-1.7,9.5
				c2.5,0.6,4.6,1.3,6.3,2c1.7,0.8,3,1.9,3.9,3.4s1.2,3.5,0.8,6C1221,453.7,1219.4,456.3,1216.8,458.5z M1202.4,436.4
				c0.6,0.6,1.5,1.1,2.8,1.5l1.4-7.9c-1.5,0.3-2.6,0.9-3.4,1.6s-1.3,1.6-1.4,2.5C1201.6,435,1201.8,435.8,1202.4,436.4z M1211,453.7
				c0.8-0.7,1.3-1.5,1.4-2.4c0.2-0.9-0.1-1.7-0.6-2.3c-0.6-0.6-1.5-1.1-2.7-1.6l-1.4,7.7C1209.1,454.9,1210.2,454.4,1211,453.7z"/>
		</g>
		<g class="st5">
			
				<linearGradient id="SVGID_23_" gradientUnits="userSpaceOnUse" x1="1299.4004" y1="1145.5801" x2="2398.7878" y2="1145.5801" gradientTransform="matrix(1 0 0.1763 -1 -98.0678 1202)">
				<stop  offset="0" style="stop-color:#007EDD"/>
				<stop  offset="1" style="stop-color:#45FFFD"/>
			</linearGradient>
			<path class="st61" d="M2182.4,56.4c-1,5.7-6.4,10.3-12.1,10.3c-5.7,0-9.4-4.6-8.4-10.3c1-5.7,6.4-10.3,12.1-10.3
				S2183.4,50.7,2182.4,56.4z"/>
			
				<linearGradient id="SVGID_24_" gradientUnits="userSpaceOnUse" x1="1090.4844" y1="981.6101" x2="2189.8606" y2="981.6101" gradientTransform="matrix(1 0 0.1763 -1 -98.0678 1202)">
				<stop  offset="0" style="stop-color:#007EDD"/>
				<stop  offset="1" style="stop-color:#45FFFD"/>
			</linearGradient>
			<path class="st62" d="M2128,220.4c-0.7,4.1-4.6,7.4-8.8,7.4s-6.9-3.3-6.1-7.4c0.7-4.1,4.6-7.4,8.8-7.4
				C2126,212.9,2128.7,216.3,2128,220.4z"/>
			
				<linearGradient id="SVGID_25_" gradientUnits="userSpaceOnUse" x1="1261.0413" y1="255.9901" x2="2360.4175" y2="255.9901" gradientTransform="matrix(1 0 0.1763 -1 -98.0678 1202)">
				<stop  offset="0" style="stop-color:#007EDD"/>
				<stop  offset="1" style="stop-color:#45FFFD"/>
			</linearGradient>
			<path class="st63" d="M2365.5,946c-0.7,4.1-4.6,7.5-8.8,7.5s-6.9-3.3-6.1-7.5c0.7-4.1,4.6-7.5,8.8-7.5
				C2363.5,938.6,2366.3,941.9,2365.5,946z"/>
			
				<linearGradient id="SVGID_26_" gradientUnits="userSpaceOnUse" x1="1261.0427" y1="135.3901" x2="2360.417" y2="135.3901" gradientTransform="matrix(1 0 0.1763 -1 -98.0678 1202)">
				<stop  offset="0" style="stop-color:#007EDD"/>
				<stop  offset="1" style="stop-color:#45FFFD"/>
			</linearGradient>
			<path class="st64" d="M1598.4,1066.6c-0.7,4.1-4.7,7.4-8.8,7.4s-6.9-3.3-6.1-7.4c0.7-4.1,4.7-7.4,8.8-7.4
				C1596.3,1059.2,1599.1,1062.5,1598.4,1066.6z"/>
			
				<linearGradient id="SVGID_27_" gradientUnits="userSpaceOnUse" x1="1261.0406" y1="173.2501" x2="2360.4167" y2="173.2501" gradientTransform="matrix(1 0 0.1763 -1 -98.0678 1202)">
				<stop  offset="0" style="stop-color:#007EDD"/>
				<stop  offset="1" style="stop-color:#45FFFD"/>
			</linearGradient>
			<path class="st65" d="M2215.2,1028.7c-0.7,4.1-4.6,7.4-8.8,7.4s-6.9-3.3-6.1-7.4c0.7-4.1,4.6-7.4,8.8-7.4
				S2216,1024.6,2215.2,1028.7z"/>
			
				<linearGradient id="SVGID_28_" gradientUnits="userSpaceOnUse" x1="1291.1833" y1="762.8301" x2="2390.5596" y2="762.8301" gradientTransform="matrix(1 0 0.1763 -1 -98.0678 1202)">
				<stop  offset="0" style="stop-color:#007EDD"/>
				<stop  offset="1" style="stop-color:#45FFFD"/>
			</linearGradient>
			<path class="st66" d="M1362.4,439.2c-0.7,4.1-4.7,7.5-8.8,7.5s-6.9-3.3-6.1-7.5s4.7-7.5,8.8-7.5
				C1360.4,431.7,1363.2,435,1362.4,439.2z"/>
			
				<linearGradient id="SVGID_29_" gradientUnits="userSpaceOnUse" x1="1325.0043" y1="245.3201" x2="2424.3804" y2="245.3201" gradientTransform="matrix(1 0 0.1763 -1 -98.0678 1202)">
				<stop  offset="0" style="stop-color:#007EDD"/>
				<stop  offset="1" style="stop-color:#45FFFD"/>
			</linearGradient>
			<path class="st67" d="M1570,956.7c-0.7,4.1-4.7,7.5-8.8,7.5s-6.9-3.3-6.1-7.5c0.7-4.1,4.7-7.5,8.8-7.5
				C1568,949.2,1570.8,952.6,1570,956.7z"/>
			
				<linearGradient id="SVGID_30_" gradientUnits="userSpaceOnUse" x1="1194.871" y1="589.6501" x2="2294.2471" y2="589.6501" gradientTransform="matrix(1 0 0.1763 -1 -98.0678 1202)">
				<stop  offset="0" style="stop-color:#007EDD"/>
				<stop  offset="1" style="stop-color:#45FFFD"/>
			</linearGradient>
			<path class="st68" d="M1287.9,612.3c-0.7,4.1-4.7,7.5-8.8,7.5s-6.9-3.3-6.1-7.5c0.7-4.1,4.7-7.5,8.8-7.5
				C1285.9,604.9,1288.6,608.2,1287.9,612.3z"/>
			
				<linearGradient id="SVGID_31_" gradientUnits="userSpaceOnUse" x1="1268.356" y1="968.7101" x2="1807.2562" y2="968.7101" gradientTransform="matrix(1 0 0.1763 -1 -98.0678 1202)">
				<stop  offset="0" style="stop-color:#007EDD"/>
				<stop  offset="1" style="stop-color:#45FFFD"/>
			</linearGradient>
			<path class="st69" d="M1400.3,233.3c-0.6,3.4-3.8,6.1-7.2,6.1s-5.6-2.7-5-6.1c0.6-3.4,3.8-6.1,7.2-6.1S1400.9,229.9,1400.3,233.3
				z"/>
			
				<linearGradient id="SVGID_32_" gradientUnits="userSpaceOnUse" x1="1256.0389" y1="1068.5001" x2="2355.4055" y2="1068.5001" gradientTransform="matrix(1 0 0.1763 -1 -98.0678 1202)">
				<stop  offset="0" style="stop-color:#007EDD"/>
				<stop  offset="1" style="stop-color:#45FFFD"/>
			</linearGradient>
			<path class="st70" d="M2401.9,133.5c-1.2,6.9-7.8,12.4-14.6,12.4s-11.4-5.6-10.2-12.4c1.2-6.9,7.8-12.4,14.6-12.4
				C2398.5,121.1,2403.1,126.6,2401.9,133.5z"/>
			
				<linearGradient id="SVGID_33_" gradientUnits="userSpaceOnUse" x1="2326.4648" y1="329.3201" x2="3425.8411" y2="329.3201" gradientTransform="matrix(1 0 0.1763 -1 -98.0678 1202)">
				<stop  offset="0" style="stop-color:#007EDD"/>
				<stop  offset="1" style="stop-color:#45FFFD"/>
			</linearGradient>
			<path class="st71" d="M2501.1,872.7c-0.7,4.1-4.6,7.5-8.8,7.5s-6.9-3.3-6.1-7.5c0.7-4.1,4.6-7.5,8.8-7.5
				C2499.1,865.2,2501.9,868.6,2501.1,872.7z"/>
			
				<linearGradient id="SVGID_34_" gradientUnits="userSpaceOnUse" x1="1058.0911" y1="382.6401" x2="2157.4412" y2="382.6401" gradientTransform="matrix(1 0 0.1763 -1 -98.0678 1202)">
				<stop  offset="0" style="stop-color:#007EDD"/>
				<stop  offset="1" style="stop-color:#45FFFD"/>
			</linearGradient>
			<path class="st72" d="M1242.2,819.4c-0.7,4.1-4.7,7.5-8.8,7.5s-6.9-3.3-6.1-7.5c0.7-4.1,4.7-7.5,8.8-7.5
				S1242.9,815.2,1242.2,819.4z"/>
			
				<linearGradient id="SVGID_35_" gradientUnits="userSpaceOnUse" x1="1160.4115" y1="1197.8101" x2="2259.7859" y2="1197.8101" gradientTransform="matrix(1 0 0.1763 -1 -98.0678 1202)">
				<stop  offset="0" style="stop-color:#007EDD"/>
				<stop  offset="1" style="stop-color:#45FFFD"/>
			</linearGradient>
			<path class="st73" d="M1474.2,4.2c-0.7,4.1-4.7,7.5-8.8,7.5s-6.9-3.3-6.1-7.5c0.7-4.1,4.7-7.4,8.8-7.4
				C1472.2-3.3,1475,0.1,1474.2,4.2z"/>
			
				<linearGradient id="SVGID_36_" gradientUnits="userSpaceOnUse" x1="1532.2581" y1="634.9801" x2="2631.6306" y2="634.9801" gradientTransform="matrix(1 0 0.1763 -1 -98.0678 1202)">
				<stop  offset="0" style="stop-color:#007EDD"/>
				<stop  offset="1" style="stop-color:#45FFFD"/>
			</linearGradient>
			<path class="st74" d="M2493.6,567c-0.7,4.1-4.6,7.5-8.8,7.5s-6.9-3.3-6.1-7.5c0.7-4.1,4.6-7.5,8.8-7.5
				C2491.6,559.6,2494.3,562.9,2493.6,567z"/>
			
				<linearGradient id="SVGID_37_" gradientUnits="userSpaceOnUse" x1="1261.0688" y1="1155.8401" x2="2360.4192" y2="1155.8401" gradientTransform="matrix(1 0 0.1763 -1 -98.0678 1202)">
				<stop  offset="0" style="stop-color:#007EDD"/>
				<stop  offset="1" style="stop-color:#45FFFD"/>
			</linearGradient>
			<path class="st75" d="M1290.6,46.2c-0.7,4.1-4.7,7.5-8.8,7.5s-6.9-3.3-6.1-7.5c0.7-4.1,4.7-7.5,8.8-7.5
				C1288.6,38.7,1291.3,42,1290.6,46.2z"/>
		</g>
	</g>
</g>
</svg>
