<svg id="Layer_1" data-name="Layer 1" xmlns="http://www.w3.org/2000/svg" xmlns:xlink="http://www.w3.org/1999/xlink" viewBox="0 0 2306.9 468.4"><defs><style>.cls-1{fill:#05031b;}.cls-2,.cls-22{fill:#fff;}.cls-3{fill:url(#linear-gradient);}.cls-4{fill:url(#linear-gradient-3);}.cls-5{fill:#00213c;}.cls-6{fill:#c8d6fd;}.cls-7{fill:#94b2fd;}.cls-12,.cls-7{opacity:0.3;isolation:isolate;}.cls-8{fill:#0a2a44;}.cls-9{fill:#f9fcff;}.cls-10{fill:#cb0111;}.cls-11,.cls-12{fill:#1de113;}.cls-13{fill:#00141e;}.cls-14,.cls-15,.cls-16,.cls-20,.cls-21{fill:none;stroke-miterlimit:10;}.cls-14,.cls-15,.cls-16{stroke:#f9fcff;}.cls-15{stroke-dasharray:3.05 3.05;}.cls-16{stroke-dasharray:3.03 3.03;}.cls-17{fill:#f1f4fe;}.cls-18{fill:#e2e8fd;}.cls-19{fill:#e8eef6;}.cls-20{stroke:#e8eef6;}.cls-21{stroke:#fff;stroke-width:2px;}.cls-22{fill-rule:evenodd;}</style><linearGradient id="linear-gradient" x1="580.24" y1="-19.42" x2="402.79" y2="293.05" gradientTransform="translate(0 358.11)" gradientUnits="userSpaceOnUse"><stop offset="0" stop-color="#fff"/><stop offset="1" stop-color="#becffd"/></linearGradient><linearGradient id="linear-gradient-3" x1="652.01" y1="-42.26" x2="432.94" y2="228.53" xlink:href="#linear-gradient"/></defs><path class="cls-1" d="M143.89,498.39a30.09,30.09,0,0,1,30-30h2246.9a30.09,30.09,0,0,1,30,30v165.3a30.09,30.09,0,0,1-30,30H173.89a30.09,30.09,0,0,1-30-30Z" transform="translate(-143.89 -225.29)"/><polygon class="cls-2" points="199.9 16.7 198.2 15 204.4 8.3 198.2 1.7 199.9 0 207.8 8.3 199.9 16.7"/><rect class="cls-2" x="181.3" y="7.1" width="24.8" height="2.5"/><path class="cls-3" d="M713.79,637.89H256.29V377.69a11,11,0,0,1,11-11h435.5a11,11,0,0,1,11,11Z" transform="translate(-143.89 -225.29)"/><path class="cls-3" d="M713.79,637.89H256.29V377.69a11,11,0,0,1,11-11h435.5a11,11,0,0,1,11,11Z" transform="translate(-143.89 -225.29)"/><path class="cls-4" d="M632.49,366.69l-271.2,271.2h-20.2l271.3-271.2Zm-376.2,127.4v41l168.5-168.4h-41Zm336.4-127.4H499l-242.6,242.6v28.6h65.1Zm33.6,271.2,87.5-87.5v-40.3L586,637.89Zm76.2-271.2h-12.3L419,637.89h136.7l158.1-158.1V378A11.35,11.35,0,0,0,702.49,366.69Z" transform="translate(-143.89 -225.29)"/><path class="cls-2" d="M702.79,679.69H267.29a11,11,0,0,1-11-11v-30.8h457.5v30.8A11,11,0,0,1,702.79,679.69Z" transform="translate(-143.89 -225.29)"/><path class="cls-5" d="M702.49,366.69H267.59a11.35,11.35,0,0,0-11.3,11.3v259.9h457.5V378A11.35,11.35,0,0,0,702.49,366.69Zm-3,257h-429V380.89h429Z" transform="translate(-143.89 -225.29)"/><path class="cls-6" d="M489.29,658.79a6,6,0,1,1-6-6A6,6,0,0,1,489.29,658.79Z" transform="translate(-143.89 -225.29)"/><path class="cls-7" d="M547.29,441.39h140.4a4.48,4.48,0,0,0,4.5-4.5v-70.2H542.79v70.2A4.48,4.48,0,0,0,547.29,441.39Z" transform="translate(-143.89 -225.29)"/><path class="cls-8" d="M684.89,438.59H544.29a4.44,4.44,0,0,1-4.4-4.4v-84.1a4.44,4.44,0,0,1,4.4-4.4h140.6a4.44,4.44,0,0,1,4.4,4.4v84.1A4.44,4.44,0,0,1,684.89,438.59Z" transform="translate(-143.89 -225.29)"/><path class="cls-7" d="M648.79,339.39a30.4,30.4,0,1,0,30.4,30.4A30.39,30.39,0,0,0,648.79,339.39Zm0,45a14.6,14.6,0,1,1,14.6-14.6A14.62,14.62,0,0,1,648.79,384.39Z" transform="translate(-143.89 -225.29)"/><path class="cls-9" d="M647.89,338.49a30.4,30.4,0,1,0,30.4,30.4A30.39,30.39,0,0,0,647.89,338.49Zm0,45a14.6,14.6,0,1,1,14.6-14.6A14.62,14.62,0,0,1,647.89,383.49Z" transform="translate(-143.89 -225.29)"/><path class="cls-10" d="M634.69,379.89a17.06,17.06,0,0,1-4-11,17.25,17.25,0,0,1,15.6-17.1v-10.6a27.72,27.72,0,0,0-19.1,46.2Z" transform="translate(-143.89 -225.29)"/><path class="cls-11" d="M649.49,351.79a17.18,17.18,0,0,1,15.5,15.5h10.6a27.86,27.86,0,0,0-26.2-26.2v10.7Z" transform="translate(-143.89 -225.29)"/><path class="cls-8" d="M665,370.49a17.25,17.25,0,0,1-17.1,15.6,17.06,17.06,0,0,1-11-4l-7.5,7.5a27.72,27.72,0,0,0,46.2-19.1Z" transform="translate(-143.89 -225.29)"/><path class="cls-7" d="M401.39,476.39H239.59a5.34,5.34,0,0,1-5.3-5.3V359.29a5.34,5.34,0,0,1,5.3-5.3h161.8a5.34,5.34,0,0,1,5.3,5.3v111.8A5.27,5.27,0,0,1,401.39,476.39Z" transform="translate(-143.89 -225.29)"/><path class="cls-9" d="M404.09,477.59H242.29a5.34,5.34,0,0,1-5.3-5.3V360.49a5.34,5.34,0,0,1,5.3-5.3h161.8a5.34,5.34,0,0,1,5.3,5.3v111.8A5.27,5.27,0,0,1,404.09,477.59Z" transform="translate(-143.89 -225.29)"/><rect class="cls-11" x="118.3" y="188.3" width="11.8" height="25.3"/><rect class="cls-12" x="123.3" y="178.2" width="1.9" height="10.2"/><rect class="cls-12" x="123.3" y="213.6" width="1.9" height="10.2"/><rect class="cls-10" x="162.4" y="199.3" width="11.8" height="3.4"/><rect class="cls-7" x="167.3" y="189.2" width="1.9" height="10.2"/><rect class="cls-7" x="167.3" y="202.7" width="1.9" height="10.2"/><rect class="cls-10" x="184.4" y="195.5" width="11.8" height="14.3"/><rect class="cls-7" x="189.4" y="185.4" width="1.9" height="10.2"/><rect class="cls-7" x="189.4" y="209.8" width="1.9" height="10.2"/><rect class="cls-10" x="206.4" y="190" width="11.8" height="39.7"/><rect class="cls-7" x="211.4" y="179.8" width="1.9" height="10.2"/><rect class="cls-7" x="211.4" y="229.7" width="1.9" height="10.2"/><rect class="cls-11" x="228.5" y="166.4" width="11.8" height="47.2"/><rect class="cls-12" x="233.4" y="156.3" width="1.9" height="10.2"/><rect class="cls-12" x="233.4" y="213.6" width="1.9" height="10.2"/><rect class="cls-11" x="140.4" y="153.8" width="11.8" height="47.2"/><rect class="cls-12" x="145.3" y="143.6" width="1.9" height="10.2"/><rect class="cls-12" x="145.3" y="201" width="1.9" height="10.2"/><path class="cls-7" d="M486.29,428.29a39.73,39.73,0,0,0,39.7-39.7,39.25,39.25,0,0,0-6.6-21.9h-66.3a39.68,39.68,0,0,0,33.2,61.6Z" transform="translate(-143.89 -225.29)"/><circle class="cls-9" cx="340.5" cy="160" r="39.7"/><path class="cls-11" d="M460.29,400.89h46a2.58,2.58,0,0,0,2.6-2.6v-25.8a2.58,2.58,0,0,0-2.6-2.6h-46a2.58,2.58,0,0,0-2.6,2.6v25.8A2.47,2.47,0,0,0,460.29,400.89Z" transform="translate(-143.89 -225.29)"/><path class="cls-9" d="M483.29,391.59l-17-10.4a2,2,0,0,1,2-3.4l14.9,9.2,14.9-9.2a2,2,0,0,1,2,3.4Z" transform="translate(-143.89 -225.29)"/><path class="cls-7" d="M677.69,606.29H443.19a4.44,4.44,0,0,1-4.4-4.4V463.29a4.44,4.44,0,0,1,4.4-4.4h234.5a4.44,4.44,0,0,1,4.4,4.4v138.6A4.44,4.44,0,0,1,677.69,606.29Z" transform="translate(-143.89 -225.29)"/><path class="cls-13" d="M672.79,601.39H438.29a4.44,4.44,0,0,1-4.4-4.4V458.49a4.44,4.44,0,0,1,4.4-4.4h234.5a4.44,4.44,0,0,1,4.4,4.4v138.6A4.29,4.29,0,0,1,672.79,601.39Z" transform="translate(-143.89 -225.29)"/><rect class="cls-5" x="302.5" y="241.3" width="218.4" height="122.5"/><rect class="cls-8" x="318.1" y="241.2" width="50.8" height="122.5"/><rect class="cls-8" x="419.6" y="241.2" width="50.8" height="122.5"/><path class="cls-10" d="M597.69,547.79V589H446.39v-50.7l10.8-25.1,1.9,9.9,5.7-7.5,5.9,15.7,2.5-35,11.1,30.2,7.2-8.5,3.4,13.3,10.7,28.4,6.9-44.1,2.3,24.8,6.5-20.2,2.8,7.5,3.3-15.2,3.8,5.4,3.1-13.8,3.8,7.6h5.1l10.1,24.6,4.6-15.2,4.5,28.3,5-9.5,12.2,33.4,9.5-25.5h8.6" transform="translate(-143.89 -225.29)"/><line class="cls-14" x1="453.8" y1="322.5" x2="455.3" y2="322.5"/><line class="cls-15" x1="458.3" y1="322.5" x2="517.9" y2="322.5"/><line class="cls-14" x1="519.4" y1="322.5" x2="520.9" y2="322.5"/><path class="cls-9" d="M600.79,547.79a3.1,3.1,0,1,1-3.1-3.1A3,3,0,0,1,600.79,547.79Z" transform="translate(-143.89 -225.29)"/><line class="cls-14" x1="303.1" y1="271" x2="304.6" y2="271"/><line class="cls-16" x1="307.6" y1="271" x2="517.9" y2="271"/><line class="cls-14" x1="519.4" y1="271" x2="520.9" y2="271"/><polygon class="cls-7" points="569.9 314 538.5 314 526.4 324.6 538.5 335.2 569.9 335.2 569.9 314"/><polygon class="cls-10" points="582.7 333.1 536.4 333.1 524.2 322.5 536.4 311.8 582.7 311.8 582.7 333.1"/><polygon class="cls-7" points="569.9 262.6 538.5 262.6 526.4 273.2 538.5 283.8 569.9 283.8 569.9 262.6"/><polygon class="cls-11" points="582.7 281.6 536.4 281.6 524.2 271 536.4 260.4 582.7 260.4 582.7 281.6"/><path class="cls-7" d="M641,418.59h-7v-2.5a2.5,2.5,0,1,0-5,0v2.5H593v-2.5a2.48,2.48,0,0,0-2.5-2.5h0a2.48,2.48,0,0,0-2.5,2.5v2.5h-7.5a5,5,0,0,0-5,5v60.5a5,5,0,0,0,5,5H641a5,5,0,0,0,5-5v-60.4A5.1,5.1,0,0,0,641,418.59Z" transform="translate(-143.89 -225.29)"/><path class="cls-10" d="M644.09,429.19h-70.5v-7.5a4.91,4.91,0,0,1,4.9-4.9h60.7a4.91,4.91,0,0,1,4.9,4.9v7.5Z" transform="translate(-143.89 -225.29)"/><path class="cls-9" d="M639.19,487.29h-60.7a4.91,4.91,0,0,1-4.9-4.9v-53.2h70.5v53.2A4.91,4.91,0,0,1,639.19,487.29Z" transform="translate(-143.89 -225.29)"/><rect class="cls-17" x="438.1" y="219" width="13.3" height="13.7"/><rect class="cls-17" x="438.1" y="239.9" width="13.3" height="13.7"/><rect class="cls-17" x="458.6" y="219" width="13.3" height="13.7"/><rect class="cls-17" x="458.6" y="239.9" width="13.3" height="13.7"/><rect class="cls-17" x="479" y="219" width="13.3" height="13.7"/><rect class="cls-17" x="479" y="239.9" width="13.3" height="13.7"/><path class="cls-9" d="M588.59,421.79h0a2.48,2.48,0,0,1-2.5-2.5v-5.1a2.48,2.48,0,0,1,2.5-2.5h0a2.48,2.48,0,0,1,2.5,2.5v5.1A2.48,2.48,0,0,1,588.59,421.79Z" transform="translate(-143.89 -225.29)"/><path class="cls-9" d="M629.59,421.79h0a2.48,2.48,0,0,1-2.5-2.5v-5.1a2.48,2.48,0,0,1,2.5-2.5h0a2.48,2.48,0,0,1,2.5,2.5v5.1A2.54,2.54,0,0,1,629.59,421.79Z" transform="translate(-143.89 -225.29)"/><rect class="cls-18" x="451.6" y="210.3" width="27.1" height="3"/><path class="cls-7" d="M409.69,598.59H293a4,4,0,0,1-4-4v-75.8a4,4,0,0,1,4-4h116.7a4,4,0,0,1,4,4v75.8A4,4,0,0,1,409.69,598.59Z" transform="translate(-143.89 -225.29)"/><path class="cls-9" d="M405.09,594H288.39a4,4,0,0,1-4-4v-75.8a4,4,0,0,1,4-4h116.7a4,4,0,0,1,4,4V590A4,4,0,0,1,405.09,594Z" transform="translate(-143.89 -225.29)"/><rect class="cls-11" x="164.3" y="322.2" width="7.9" height="15.7"/><rect class="cls-11" x="181.7" y="337.9" width="7.9" height="7.8"/><rect class="cls-11" x="199.1" y="331.5" width="7.9" height="11.1"/><rect class="cls-11" x="216.5" y="311.1" width="7.9" height="21.2"/><rect class="cls-11" x="233.9" y="300" width="7.9" height="26.8"/><rect class="cls-19" x="164.3" y="337.9" width="7.9" height="15.7"/><rect class="cls-19" x="181.7" y="345.8" width="7.9" height="7.8"/><rect class="cls-19" x="199.1" y="342.5" width="7.9" height="11.1"/><rect class="cls-19" x="216.5" y="332.4" width="7.9" height="21.2"/><rect class="cls-19" x="233.9" y="326.8" width="7.9" height="26.8"/><polyline class="cls-20" points="250.1 353.6 155.6 353.6 155.6 300"/><path class="cls-7" d="M626.89,408.19H587a7.6,7.6,0,0,1-7.6-7.6v-14.5a7.6,7.6,0,0,1,7.6-7.6h39.9a7.6,7.6,0,0,1,7.6,7.6v14.6A7.51,7.51,0,0,1,626.89,408.19Z" transform="translate(-143.89 -225.29)"/><path class="cls-11" d="M624.79,406.09h-39.9a7.6,7.6,0,0,1-7.6-7.6V384a7.6,7.6,0,0,1,7.6-7.6h39.9a7.6,7.6,0,0,1,7.6,7.6v14.5A7.66,7.66,0,0,1,624.79,406.09Z" transform="translate(-143.89 -225.29)"/><path class="cls-7" d="M350.89,544.79h-52.7a10,10,0,0,1-10-10v-19.1a10,10,0,0,1,10-10h52.7a10,10,0,0,1,10,10v19.2A9.94,9.94,0,0,1,350.89,544.79Z" transform="translate(-143.89 -225.29)"/><path class="cls-10" d="M356.09,508.29h-53.6a10.24,10.24,0,0,1-10.2-10.2v-19.5a10.24,10.24,0,0,1,10.2-10.2h53.6a10.24,10.24,0,0,1,10.2,10.2v19.5A10.31,10.31,0,0,1,356.09,508.29Z" transform="translate(-143.89 -225.29)"/><line class="cls-21" x1="1294.2" y1="289.5" x2="1294.2" y2="412.6"/><path class="cls-2" d="M2253.69,604.29l-9.3-15.3a1.62,1.62,0,0,0-2.8,0l-9.8,15.3h-9.5a1.62,1.62,0,0,0-1.6,1.4l-6.1,31.9-3.8-100.1a1.58,1.58,0,0,0-1.6-1.6,1.65,1.65,0,0,0-1.7,1.5l-7.8,79.2-4.1-11.1a1.62,1.62,0,0,0-1.6-1.1h-4.8l-7.2-9.8a1.75,1.75,0,0,0-1.4-.7,1.44,1.44,0,0,0-1.3.8l-6.3,9.7h-15.1l-9.3-15.3a1.63,1.63,0,0,0-2.8,0l-9.8,15.3h-9.5a1.62,1.62,0,0,0-1.6,1.4l-6.1,31.9-3.8-100.1a1.58,1.58,0,0,0-1.6-1.6,1.65,1.65,0,0,0-1.7,1.5l-5,50.9h3.4l2.6-26.3,3.5,90.4a1.71,1.71,0,0,0,1.5,1.6h.1a1.62,1.62,0,0,0,1.6-1.4l8.6-44.9h9a1.6,1.6,0,0,0,1.4-.8l8.9-13.8,8.4,13.8a1.6,1.6,0,0,0,1.4.8H2174a1.6,1.6,0,0,0,1.4-.8l5.5-8.5,6.3,8.6a1.71,1.71,0,0,0,1.3.7h4.5l6.2,16.9a1.75,1.75,0,0,0,1.8,1.1,1.52,1.52,0,0,0,1.4-1.5l6.1-62.2,3.5,90.4a1.71,1.71,0,0,0,1.5,1.6h.1a1.62,1.62,0,0,0,1.6-1.4l8.6-44.9h9a1.6,1.6,0,0,0,1.4-.8l8.9-13.8,8.4,13.8a1.6,1.6,0,0,0,1.4.8h8.3v-3.3h-7.5Z" transform="translate(-143.89 -225.29)"/><path class="cls-2" d="M1857.39,593.49l-9.9-16.2a1.81,1.81,0,0,0-3,0l-10.4,16.2H1824a1.72,1.72,0,0,0-1.7,1.4l-6.5,33.8-4.1-106.2a1.75,1.75,0,0,0-1.7-1.7,1.83,1.83,0,0,0-1.8,1.6l-8.3,84.1-4.4-11.8a1.84,1.84,0,0,0-1.7-1.2h-5.1l-7.7-10.4a1.68,1.68,0,0,0-1.5-.7,1.6,1.6,0,0,0-1.4.8l-6.7,10.3h-16l-9.8-16.2a1.81,1.81,0,0,0-3,0l-10.4,16.2h-10.1a1.72,1.72,0,0,0-1.7,1.4l-6.5,33.8-4.1-106.2a1.75,1.75,0,0,0-1.7-1.7,1.83,1.83,0,0,0-1.8,1.6l-8.3,84.1-.2-.5v9.7a2.39,2.39,0,0,0,1.4.5,1.71,1.71,0,0,0,1.5-1.6l6.5-66,3.7,95.9a1.73,1.73,0,0,0,1.6,1.7h.1a1.72,1.72,0,0,0,1.7-1.4l9.1-47.6h9.6a1.76,1.76,0,0,0,1.5-.8l9.4-14.7,8.9,14.6a1.76,1.76,0,0,0,1.5.8h17.9a1.76,1.76,0,0,0,1.5-.8l5.8-9,6.7,9.1a1.62,1.62,0,0,0,1.4.7h4.8L1799,615a1.75,1.75,0,0,0,1.9,1.1,1.71,1.71,0,0,0,1.5-1.6l6.5-66,3.7,95.9a1.73,1.73,0,0,0,1.6,1.7h.1a1.72,1.72,0,0,0,1.7-1.4l9.1-47.6h9.6a1.76,1.76,0,0,0,1.5-.8l9.4-14.7,8.9,14.6a1.76,1.76,0,0,0,1.5.8h8.8v-3.5Z" transform="translate(-143.89 -225.29)"/><path class="cls-22" d="M2103.59,587.79h.6V570h-1.5v-7.5h-.8V570h-1.5v18.4h1.5v5.2h.8v-5.2h1.5v-.6Z" transform="translate(-143.89 -225.29)"/><polygon class="cls-22" points="1955.6 340.5 1954.1 340.5 1954.1 353.1 1953.3 353.1 1953.3 340.5 1951.8 340.5 1951.8 334.8 1953.3 334.8 1953.3 331.4 1954.1 331.4 1954.1 334.8 1955.6 334.8 1955.6 340.5"/><path class="cls-22" d="M2094.79,568.49h-1.5v6.1h-.8v-6.1H2091v-14.3h1.5v-3.9h.8v3.9h1.5v14.3Zm-.8-1v-12.4h-2.2v12.4Z" transform="translate(-143.89 -225.29)"/><polygon class="cls-22" points="1946.1 315.4 1944.6 315.4 1944.6 303 1943.8 303 1943.8 315.4 1942.3 315.4 1942.3 336.5 1943.8 336.5 1943.8 339.9 1944.6 339.9 1944.6 336.5 1946.1 336.5 1946.1 315.4"/><polygon class="cls-22" points="1941.4 288.6 1939.9 288.6 1939.9 283.5 1939.1 283.5 1939.1 288.6 1937.6 288.6 1937.6 314.9 1939.1 314.9 1939.1 323.3 1939.9 323.3 1939.9 314.9 1941.4 314.9 1941.4 288.6"/><path class="cls-22" d="M2080.49,512.39H2079v8.7h-.8v-8.7h-1.5v-16.5h1.5v-7h.8v7h1.5v16.5Zm-.7-1v-14.6h-2.2v14.6Z" transform="translate(-143.89 -225.29)"/><path class="cls-22" d="M2075.79,532h-1.5v2.3h-.8V532H2072v-25.5h1.5v-10.7h.8v10.7h1.5V532Zm-.8-.9v-23.5h-2.2v23.5Z" transform="translate(-143.89 -225.29)"/><polygon class="cls-22" points="1927.2 270.6 1925.7 270.6 1925.7 262.1 1924.9 262.1 1924.9 270.6 1923.4 270.6 1923.4 293.3 1924.9 293.3 1924.9 307.2 1925.7 307.2 1925.7 293.3 1927.2 293.3 1927.2 270.6"/><path class="cls-22" d="M2066.29,528.89h-1.5v10.6h-.8v-10.6h-1.5v-21.2h1.5v-3.9h.8v3.9h1.5v21.2Zm-.8-1v-19.2h-2.2v19.2Z" transform="translate(-143.89 -225.29)"/><path class="cls-22" d="M2061.59,538.49h-1.5v4.8h-.8v-4.8h-1.5v-13.1h1.5v-3.9h.8v3.9h1.5v13.1Zm-.8-1v-11.2h-2.2v11.2Z" transform="translate(-143.89 -225.29)"/><path class="cls-22" d="M2056.89,545.49h-1.5v12.2h-.8v-12.2h-1.5v-8.6h1.5V533h.8v3.9h1.5v8.6Zm-.8-1v-6.6h-2.2v6.6Z" transform="translate(-143.89 -225.29)"/><path class="cls-22" d="M2052.09,556.89h-1.5v8.4h-.8v-8.4h-1.5v-11.4h1.5v-8.6h.8v8.6h1.5v11.4Zm-.8-.9v-9.4h-2.2V556Z" transform="translate(-143.89 -225.29)"/><polygon class="cls-22" points="1903.5 330.4 1902 330.4 1902 317.9 1901.2 317.9 1901.2 330.4 1899.7 330.4 1899.7 337.8 1901.2 337.8 1901.2 341.4 1902 341.4 1902 337.8 1903.5 337.8 1903.5 330.4"/><polygon class="cls-22" points="1898.8 321 1897.3 321 1897.3 315.6 1896.5 315.6 1896.5 321 1895 321 1895 335.5 1896.5 335.5 1896.5 353.8 1897.3 353.8 1897.3 335.5 1898.8 335.5 1898.8 321"/><path class="cls-22" d="M2037.89,546.69h-1.5v12.5h-.8v-12.5h-1.5v-3.8h1.5v-6h.8v6h1.5v3.8Zm-.8-.9v-1.9h-2.2v1.9Z" transform="translate(-143.89 -225.29)"/><path class="cls-22" d="M2033.19,549.89h-1.5v6.6h-.8v-6.6h-1.5v-3.1h1.5v-9h.8v9h1.5v3.1Zm-.8-1v-1.1h-2.2v1.1Z" transform="translate(-143.89 -225.29)"/><path class="cls-22" d="M2028.49,566.29H2027V569h-.8v-2.7h-1.5v-18.6h1.5v-4.5h.8v4.5h1.5v18.6Zm-.8-.9v-16.7h-2.2v16.7Z" transform="translate(-143.89 -225.29)"/><path class="cls-22" d="M2023.69,574.89h-1.5v3.6h-.8v-3.6h-1.5v-12.6h1.5V559h.8v3.3h1.5v12.6Zm-.8-.9v-10.7h-2.2V574Z" transform="translate(-143.89 -225.29)"/><path class="cls-22" d="M2019,585.79h-1.5v3.6h-.8v-3.6h-1.5v-15.1h1.5v-4.9h.8v4.9h1.5v15.1Zm-.8-.9v-13.2H2016v13.2Z" transform="translate(-143.89 -225.29)"/><path class="cls-22" d="M2014.19,597.69h-1.5v10.7h-.8v-10.7h-1.5v-14.9h1.5v-2h.8v2h1.5v14.9Zm-.7-1v-13h-2.2v13Z" transform="translate(-143.89 -225.29)"/><polygon class="cls-22" points="1865.6 375.5 1864.1 375.5 1864.1 359.2 1863.3 359.2 1863.3 375.5 1861.8 375.5 1861.8 379.2 1863.3 379.2 1863.3 389.5 1864.1 389.5 1864.1 379.2 1865.6 379.2 1865.6 375.5"/><polygon class="cls-22" points="1860.9 355.1 1859.4 355.1 1859.4 347.7 1858.6 347.7 1858.6 355.1 1857.1 355.1 1857.1 377 1858.6 377 1858.6 384.4 1859.4 384.4 1859.4 377 1860.9 377 1860.9 355.1"/><path class="cls-22" d="M2000,585.19h-1.5v4.2h-.8v-4.2h-1.5v-10.3h1.5v-9.7h.8v9.7h1.5v10.3Zm-.8-1v-8.4H1997v8.4Z" transform="translate(-143.89 -225.29)"/><path class="cls-22" d="M1995.29,596.79h-1.5v9.5h-.8v-9.5h-1.5v-17.1h1.5v-3.1h.8v3.1h1.5v17.1Zm-.8-.9v-15.2h-2.2v15.1h2.2Z" transform="translate(-143.89 -225.29)"/><path class="cls-22" d="M1990.59,613.89h-1.5v10.7h-.8v-10.7h-1.5v-18.1h1.5v-6.4h.8v6.4h1.5v18.1Zm-.8-.9v-16.2h-2.2V613Z" transform="translate(-143.89 -225.29)"/><path class="cls-22" d="M1985.79,636.59h-1.5V645h-.8v-8.4H1982v-30.3h1.5v-6.9h.8v6.9h1.5v30.3Zm-.8-1v-28.3h-2.2v28.3Z" transform="translate(-143.89 -225.29)"/><path class="cls-22" d="M1981.09,647.79h-1.5v17.5h-.8v-17.5h-1.5v-20.6h1.5v-3.1h.8v3.1h1.5v20.6Zm-.8-1v-18.7h-2.2v18.7Z" transform="translate(-143.89 -225.29)"/><polygon class="cls-22" points="1832.5 397.8 1830.9 397.8 1830.9 389.5 1830.2 389.5 1830.2 397.8 1828.7 397.8 1828.7 429.1 1830.2 429.1 1830.2 432.6 1830.9 432.6 1830.9 429.1 1832.5 429.1 1832.5 397.8"/><path class="cls-22" d="M1971.59,640.79h-1.5V646h-.8v-5.2h-1.5v-19.4h1.5v-14.1h.8v14.1h1.5v19.4Zm-.8-.9v-17.5h-2.2v17.5Z" transform="translate(-143.89 -225.29)"/><polygon class="cls-22" points="1823 376.4 1821.5 376.4 1821.5 363.8 1820.7 363.8 1820.7 376.4 1819.2 376.4 1819.2 402 1820.7 402 1820.7 411.6 1821.5 411.6 1821.5 402 1823 402 1823 376.4"/><polygon class="cls-22" points="1818.2 364.1 1816.7 364.1 1816.7 353.4 1816 353.4 1816 364.1 1814.4 364.1 1814.4 381.5 1816 381.5 1816 389.5 1816.7 389.5 1816.7 381.5 1818.2 381.5 1818.2 364.1"/><path class="cls-22" d="M1957.39,594.89h-1.5v5.8h-.8v-5.8h-1.5v-15h1.5v-8.6h.8v8.6h1.5v15Zm-.8-.9v-13.1h-2.2V594Z" transform="translate(-143.89 -225.29)"/><polygon class="cls-22" points="1808.8 341.6 1807.3 341.6 1807.3 326.6 1806.5 326.6 1806.5 341.6 1805 341.6 1805 358.3 1806.5 358.3 1806.5 364.1 1807.3 364.1 1807.3 358.3 1808.8 358.3 1808.8 341.6"/><path class="cls-22" d="M1947.89,592.79h-1.5v7.1h-.8v-7.1h-1.5v-21.6h1.5v-7.7h.8v7.7h1.5v21.6Zm-.8-1v-19.7h-2.2v19.7Z" transform="translate(-143.89 -225.29)"/><path class="cls-22" d="M1943.19,605.89h-1.5v8.8h-.8v-8.8h-1.5v-16.5h1.5v-7.7h.8v7.7h1.5v16.5Zm-.8-.9v-14.6h-2.2V605Z" transform="translate(-143.89 -225.29)"/><polygon class="cls-22" points="1794.6 355 1793.1 355 1793.1 346.6 1792.3 346.6 1792.3 355 1790.8 355 1790.8 371.8 1792.3 371.8 1792.3 385.4 1793.1 385.4 1793.1 371.8 1794.6 371.8 1794.6 355"/><path class="cls-22" d="M1933.69,583.39h-1.5v21.8h-.8v-21.8h-1.5V578h1.5v-20.9h.8V578h1.5v5.4Zm-.8-1v-3.5h-2.2v3.5Z" transform="translate(-143.89 -225.29)"/><polygon class="cls-22" points="1785.1 347.3 1783.6 347.3 1783.6 334 1782.8 334 1782.8 347.3 1781.3 347.3 1781.3 358.9 1782.8 358.9 1782.8 367.9 1783.6 367.9 1783.6 358.9 1785.1 358.9 1785.1 347.3"/><polygon class="cls-22" points="1780.4 329.1 1778.9 329.1 1778.9 311.6 1778.1 311.6 1778.1 329.1 1776.6 329.1 1776.6 353.4 1778.1 353.4 1778.1 357.4 1778.9 357.4 1778.9 353.4 1780.4 353.4 1780.4 329.1"/><polygon class="cls-22" points="1775.6 323.4 1774.1 323.4 1774.1 311.6 1773.3 311.6 1773.3 323.4 1771.8 323.4 1771.8 328.1 1773.3 328.1 1773.3 341.4 1774.1 341.4 1774.1 328.1 1775.6 328.1 1775.6 323.4"/><polygon class="cls-22" points="1770.9 309.9 1769.4 309.9 1769.4 299.9 1768.6 299.9 1768.6 309.9 1767.1 309.9 1767.1 326.5 1768.6 326.5 1768.6 333.2 1769.4 333.2 1769.4 326.5 1770.9 326.5 1770.9 309.9"/><path class="cls-22" d="M1910.09,517.79h-1.5v-11.1h-.8v11.1h-1.5v9.9h1.5V537h.8v-9.3h1.5v-9.9Zm-.8.9v8h-2.2v-8Z" transform="translate(-143.89 -225.29)"/><path class="cls-22" d="M1905.29,541.39h-1.5v8.3h-.8v-8.3h-1.5v-19.7h1.5v-5.4h.8v5.4h1.5v19.7Zm-.8-1v-17.7h-2.2v17.7Z" transform="translate(-143.89 -225.29)"/><polygon class="cls-22" points="1756.7 312.9 1755.2 312.9 1755.2 300.9 1754.4 300.9 1754.4 312.9 1752.9 312.9 1752.9 315.7 1754.4 315.7 1754.4 330.4 1755.2 330.4 1755.2 315.7 1756.7 315.7 1756.7 312.9"/><path class="cls-22" d="M1895.79,557.69h-1.5v5.8h-.8v-5.8H1892v-20.8h1.5v-5.4h.8v5.4h1.5v20.8Zm-.7-1v-18.8h-2.2v18.8Z" transform="translate(-143.89 -225.29)"/><polygon class="cls-22" points="1747.2 320.4 1745.7 320.4 1745.7 314.9 1744.9 314.9 1744.9 320.4 1743.4 320.4 1743.4 335.9 1744.9 335.9 1744.9 344.3 1745.7 344.3 1745.7 335.9 1747.2 335.9 1747.2 320.4"/><path class="cls-22" d="M1868.39,587.19h1.5v-7.6h.8v7.6h1.5V596h-1.5v6.7h-.8V596h-1.5v-8.8Zm.8,1V595h2.2v-6.8Z" transform="translate(-143.89 -225.29)"/><path class="cls-22" d="M1873.09,572.49h1.5v-7.6h.8v7.6h1.5v13.3h-1.5v4.8h-.8v-4.8h-1.5v-13.3Zm.8,1v11.4h2.2v-11.4Z" transform="translate(-143.89 -225.29)"/><path class="cls-22" d="M1877.79,562.29h1.5v-9.4h.8v9.4h1.5v18h-1.5v9.5h-.8v-9.5h-1.5v-18Zm.8,1v16.1h2.2v-16.1Z" transform="translate(-143.89 -225.29)"/><path class="cls-22" d="M1882.59,557.09h1.5v-7.6h.8v7.6h1.5v7.3h-1.5v4.8h-.8v-4.8h-1.5v-7.3Zm.8,1v5.3h2.2v-5.3Z" transform="translate(-143.89 -225.29)"/></svg>