<?xml version="1.0" encoding="utf-8"?>
<!-- Generator: Adobe Illustrator 24.0.1, SVG Export Plug-In . SVG Version: 6.00 Build 0)  -->
<svg version="1.1" id="Layer_1" xmlns="http://www.w3.org/2000/svg" xmlns:xlink="http://www.w3.org/1999/xlink" x="0px" y="0px"
	 viewBox="0 0 2560 1200" style="enable-background:new 0 0 2560 1200;" xml:space="preserve">
<style type="text/css">
	.st0{fill:#05031B;}
	.st1{clip-path:url(#SVGID_2_);}
	.st2{fill:#BFE4FF;}
	.st3{clip-path:url(#SVGID_4_);fill:#BFE4FF;}
	.st4{clip-path:url(#SVGID_6_);fill:#BFE4FF;}
	.st5{clip-path:url(#SVGID_8_);fill:#D4ECFF;}
	.st6{clip-path:url(#SVGID_10_);}
	.st7{fill:#0095EF;}
	.st8{fill:#0C1153;}
	.st9{clip-path:url(#SVGID_12_);}
	.st10{fill:#D4ECFF;}
	.st11{fill:#ABC9EB;}
	.st12{clip-path:url(#SVGID_14_);fill:#FFFFFF;}
	.st13{clip-path:url(#SVGID_16_);}
	.st14{fill:#FFFFFF;}
	.st15{clip-path:url(#SVGID_18_);}
	.st16{fill:#F3645A;}
	.st17{clip-path:url(#SVGID_20_);}
	.st18{fill:#F3AA06;}
	.st19{fill:#2094F1;}
	.st20{fill:#EBF6FF;}
	.st21{fill:#FFBF0D;}
	.st22{fill:#FECE40;}
	.st23{clip-path:url(#SVGID_22_);fill:#F3645A;}
	.st24{clip-path:url(#SVGID_24_);}
	.st25{clip-path:url(#SVGID_26_);}
	.st26{clip-path:url(#SVGID_28_);}
	.st27{fill:#161711;}
	.st28{fill:#E9D6B8;}
	.st29{fill:#D1DBEA;}
	.st30{fill:#B0BFDE;}
	.st31{fill:#194866;}
	.st32{fill:#163F59;}
	.st33{fill:#E2C59C;}
	.st34{clip-path:url(#SVGID_30_);}
	.st35{fill:#DBDAC6;}
	.st36{fill:#FF5931;}
	.st37{fill:#C9C8B6;}
	.st38{clip-path:url(#SVGID_32_);}
	.st39{fill:#4E99FF;}
	.st40{fill:#2B83FD;}
	.st41{fill:#ECB60D;}
	.st42{fill:#C4D1E1;}
	.st43{fill:#E4EEF3;}
	.st44{fill:#282723;}
	.st45{fill:#B6C2C9;}
	.st46{fill:#D8E5ED;}
	.st47{fill:#879BA6;}
	.st48{fill:#323B31;}
	.st49{fill:#3C463B;}
	.st50{clip-path:url(#SVGID_34_);fill:#F3645A;}
	.st51{clip-path:url(#SVGID_36_);}
	.st52{clip-path:url(#SVGID_38_);}
	.st53{clip-path:url(#SVGID_40_);fill:#F3645A;}
</style>
<g>
	<rect class="st0" width="2560" height="1200"/>
	<g>
		<g>
			<g>
				<defs>
					<rect id="SVGID_1_" x="1435" y="175.2" width="1129.5" height="966.2"/>
				</defs>
				<clipPath id="SVGID_2_">
					<use xlink:href="#SVGID_1_"  style="overflow:visible;"/>
				</clipPath>
				<g class="st1">
					<path class="st2" d="M2795.5,750.4c-0.3-0.1,0.5-23.5,6-30.6c3.5-5.1,10.6-7.8,10.6-7.8s-0.9,6.2-3.4,11.9
						C2806,729.4,2796.8,744.1,2795.5,750.4z"/>
					<path class="st2" d="M2794,746.2c0,0-6.1-1.8-11.6-2.5c-5.5-0.8-9.4-1.3-13.7-1s-5.7,0.8-5.7,0.8s9.2,8.1,15.9,8.2
						C2785.6,751.8,2792.6,748.5,2794,746.2z"/>
					<path class="st2" d="M2786.5,726.7c-0.3-0.1,4.7-22.2,9.4-27.1c5.1-6.3,15.3-10.3,17.2-11.5c0,0-5.5,8.4-10.2,16.6
						C2798.2,712.5,2790.7,725.4,2786.5,726.7z"/>
					<path class="st2" d="M2784.9,725c0,0-1.6-1.1-5.7-3.6c-4-2.4-15.4-9.7-19.9-11.5c-4.5-1.7-13.2-2.2-16.2-2.3
						c-1.1,0,7.8,7.1,13.4,10.5c4.3,2.7,10.5,6.4,14.5,6.9c1.9,0.2,10.3-0.3,14.1,3.1C2788.8,731.5,2784.9,725,2784.9,725z"/>
					<path class="st2" d="M2781.7,711.6c-0.2-0.1,2.4-18.2,6.1-24c3.3-5.6,8.1-11.3,13.7-14.7c5.6-3.4,10.6-6.2,10.6-6.2
						s-4.6,8.8-8.6,14.6c-4.1,5.7-7.3,11.9-12.1,17.4C2786.5,704,2781.7,711.6,2781.7,711.6z"/>
					<path class="st2" d="M2779.6,706.3c-1.5-2.8-3.1-5.4-8.1-8.5s-16.4-12.8-23-15.5c-6.7-2.5-16.4-6.8-16.9-7.3
						c-0.5-0.3,12.9,16.2,21.1,20.6c6.7,3.8,13.8,6.1,17.9,7.4c4.2,1.3,8.3,3.4,10.3,6.4C2780.9,709.3,2780.2,707.3,2779.6,706.3z"
						/>
					<path class="st2" d="M2776.7,687.9c0,0,0.6-7.6,5.7-16.6c5.1-9,10.4-16.1,13.5-19s11-6.4,12-7.1c0.9-0.8-4,9.1-5.7,12
						c-1.8,2.8-5.8,8-11.4,13.1C2785.1,675.3,2778.1,684.9,2776.7,687.9z"/>
					<path class="st2" d="M2776.1,686.4c-2.3-2.8-8.2-7.1-11.6-10c-3.4-3-6.8-3.3-19-16.7c-10.7-11.9-17-25.7-16.9-25.7
						c0,0,2,1.8,9.1,6.3c7.1,4.6,16,17.3,24,25.9c7.9,8.7,12.8,16.1,12.8,16.1C2775,683.8,2775.6,685.1,2776.1,686.4z"/>
					<path class="st2" d="M2772,667.5c-0.2-0.1,6.9-18.2,11.9-25.4c4.8-7.4,8.3-13.2,16.1-14.2s11.7-2.6,11.7-2.6s-7,7.7-12.7,13.4
						c-5.8,5.6-13.1,14-15.8,16.5C2780.5,657.4,2773.5,668.3,2772,667.5z"/>
					<path class="st2" d="M2772.3,655.2c-2.3-4.5-4.8-8.4-10.8-16.5c-5.6-7.6-12-17-15.7-20.9c-3.7-3.6-15.6-16.7-15.9-17.1
						c-0.4-0.2,6.1,18.2,11.8,25.3c5.5,7.2,10.2,13.8,18.4,19.4c8.1,5.6,11.9,10.9,13.3,15.4
						C2774.8,665.3,2772.8,656.2,2772.3,655.2z"/>
					<path class="st2" d="M2772.7,642.1c0,0,3.7-8.2,8-10.4c4.2-2.3,14-11.4,17-14.5c2.9-3.4,16.3-14.7,17.2-15.6
						c0.8-1.2-5.9,2.1-11.4,3s-13.1,6.7-18.1,12.7c-5.2,5.8-12.5,18.8-13.1,21.1C2771.6,640.7,2772.7,642.1,2772.7,642.1z"/>
					<path class="st2" d="M2771.9,631.8c0,0-4.9-8.5-9.2-15.9c-4.4-7.3-12.3-18.8-14.2-22.5c-1.9-3.5-12.8-18-12.8-19
						c-0.1-0.9,3.4,15.9,9.8,27.7c6.4,11.9,11.8,17.6,17.2,22.9c5.5,5.3,8.5,9.5,9.3,12.3C2772.8,640.2,2771.9,631.8,2771.9,631.8z"
						/>
					<path class="st2" d="M2774.9,607.3c-0.1-0.1,9.4-12.8,14.7-16.7c5.2-4.1,11-9.3,16.1-11.1c5-1.9,12.8-4.3,12.8-4.3
						c0-0.1-8.1,8.4-13.8,13.6c-5.9,5-12.1,11-18.8,15.5c-6.7,4.6-12.4,7.1-12.4,7.1C2773.9,610,2774.4,608.6,2774.9,607.3z"/>
					<path class="st2" d="M2773.3,605.1c-0.1,0.1-7.4-16.3-11.3-24.6c-4-8.2-10.8-21.3-14-26.1c-3.2-4.7-5.7-10-5.7-10
						c-0.3,0.2,7.2,30,13.4,38.6c5.8,9,16.5,24.5,17.6,31C2774.4,620.5,2773.2,605.1,2773.3,605.1z"/>
					<path class="st2" d="M2778.8,583.1c-0.1-0.1,10.9-13.4,15-16.9c4-3.7,12.1-7.6,16.7-7.8c4.6-0.4,15.5-1.6,17.4-2.9
						c1.9-1.4-6.4,6.8-13.2,10.3c-6.9,3.3-16.7,8.1-24.2,12.6s-11,5.8-13.2,11.6C2775.3,595.8,2778.8,583.1,2778.8,583.1z"/>
					<path class="st2" d="M2778,580.2c0,0-3.2-10.4-6.2-17.8c-3-7.2-8-16.7-10.1-21.9c-2.2-5-10.8-20.9-10.8-22.6
						c-0.2-1.6,2.1,23.2,8.5,35.2c6.1,12.1,11.5,18.3,13.8,22.9c2.2,4.6,4.3,9.6,4.3,9.6C2777.7,583.8,2777.9,582,2778,580.2z"/>
					<path class="st2" d="M2786.5,557c-0.1-0.1,10.1-10.1,18.3-13.6c8.1-3.6,19.4-2.6,23.5-2.5c4.1,0.2,6.3,1,6.3,1
						s-6.9,3.5-14.6,6.9c-7.6,3.3-17.5,4.9-21.9,5.6c-4.5,0.6-12.1,4.7-13.3,6.9C2783.6,563.4,2786.5,557,2786.5,557z"/>
					<path class="st2" d="M2784.7,557.5c-0.1,0-2.8-14.5-6.1-23.8c-3.5-9.2-5.9-18.6-7.9-23c-2-4.3-5.7-17.3-5.6-17.3
						c-0.1,0-1.1,15.4,2.2,27.8c2.3,9.5,13,30,15.8,37.6C2785.3,565,2784.7,557.4,2784.7,557.5z"/>
					<path class="st2" d="M2794.1,537.7c-0.1-0.1,9.9-12.4,21-14.8c7.8-1.8,17.5-1,22.7,0.3c6.5,1.7,10.6,1.5,10.6,1.5
						s-6.9,3.7-12,4.9c-5.1,1.1-13.6,2.8-20.6,4.1c-7,1.1-20.3,2.3-23.2,7.2C2789.7,545.7,2794.1,537.6,2794.1,537.7z"/>
					<path class="st2" d="M2795.1,534.7c0,0-1.2-6.7-2.1-13.3c-1.1-6.5-2.5-20.2-4.6-27.3c-2.3-6.9-7.1-26.7-6.8-28.1
						c0-1.3-2.7,20.5-1,30.8c1.5,10.5,7.7,26.7,10.7,34.2C2794.3,538.7,2795.4,537.1,2795.1,534.7z"/>
					<path class="st2" d="M2804.4,516.9c-0.1-0.2,15.7-11.7,23.7-12.8c7.9-1.5,16.7-1.2,24.4,0.5s9.8,2.7,9.8,2.7
						c0-0.2-14.9,4.3-21.7,5.4c-6.8,0.8-13.7,2.4-20.7,2.6c-7.1,0.2-14.8,1.6-17.9,6.4C2798.9,526.4,2804.3,516.9,2804.4,516.9z"/>
					<path class="st2" d="M2803.3,517.4c0,0,0.3-5.7,1.6-16c1.2-10.2,3.1-23,3.2-28.6c-0.2-5.4-3.7-27.6-3.5-28.5
						c-0.1-0.8-7.9,21.2-7.7,32.1c0,12.8,3.1,22,3.9,34.3c0.9,12.3,0.4,12.7,0.3,12.8C2801.8,521.5,2802.6,519.4,2803.3,517.4z"/>
					<path class="st2" d="M2815.6,499.5c0,0,6.1-5.6,17.4-9.3c11.3-3.7,18.2-4.8,24.2-3.7c6,1.1,14.4,4.3,14.4,4.3
						s-8.3,2.9-14.4,3.7c-6.1,0.7-18.5,1.7-26.1,2.9c-7.6,1.1-15.4,3.1-19.8,8.1C2806.9,510.5,2815.6,499.5,2815.6,499.5z"/>
					<path class="st2" d="M2817.3,496.7c0-0.1,5.6-11.1,7.4-23.8c1.8-12.8,4.1-18.7,3.8-23.9c-0.4-5.2,0.5-23.9,0.6-24
						c-0.4-0.1-11.9,27.7-12.1,38.8c-0.7,11,1.2,21.6-0.7,33C2815.2,502.8,2817.3,496.7,2817.3,496.7z"/>
					<path class="st2" d="M2829.3,480.9c0-0.1,10.7-6.1,17.9-7.7c7.2-1.7,14.6-2.8,24.3-0.8s13.9,3.7,13.9,3.6c0,0-6.6,4.1-17.8,4.8
						c-11.2,0.8-20.3,0.1-25.5,0.7c-5.1,0.6-12.3,1.1-15.2,2.9C2824.1,486.3,2829.3,480.9,2829.3,480.9z"/>
					<path class="st2" d="M2837.4,470c-0.2,0,7.6-20.8,11.9-28.2c5.6-10.5,6.4-29,7.2-30.9c0.4-2-14.4,20-16.4,28.9
						c-1.5,4.9-4.8,24-6.3,31C2832.2,477.9,2834.9,475.1,2837.4,470z"/>
					<path class="st2" d="M2844,465.2c0,0,7.8-3.1,15.1-4.8c7.3-1.9,20.4-3.3,25.4-1.5c5,1.7,13.3,5.7,13.3,5.7s-5.9,4-15,3.6
						c-9.1-0.3-17.4-0.6-23.4-1.2s-16.1-0.3-19.4,2.5C2836.7,472.3,2843.9,465.1,2844,465.2z"/>
					<path class="st2" d="M2854.4,454.5c0,0,4.9-6.5,9.2-13.8c4.2-7.4,9.8-15.9,13.2-21.5c3.3-5.6,7.8-15.5,7.9-15.5
						c-0.1-0.1-13.7,11.2-18.7,19.5c-5.3,8.1-11.2,26.1-15,33.8C2847.6,463.5,2854.4,454.5,2854.4,454.5z"/>
					<path class="st2" d="M2858.8,452.5c0,0,9.7-3.3,15.2-6.4c5.4-3.3,18-5.8,24.4-4.1c6.4,1.5,14.4,4,14.4,4s-8.7,1.8-13.4,2.6
						c-4.7,0.8-10.2,1.7-20.9,2.9c-10.8,1.1-22.8,3.9-25.1,5C2851,457.4,2858.8,452.4,2858.8,452.5z"/>
					<path class="st2" d="M2862.2,448.1c0,0,2.4-2.5,8.6-8.9c6.1-6.5,18.7-15.7,23.4-17.3c4.6-2,22.8-2.5,24.3-2.8
						c1.4-0.7-14.8,8.6-19.5,11.5c-4.9,2.7-10.1,7.2-15.3,8.9c-5.3,1.5-20.7,8.7-22.4,10.9C2859.5,452.5,2862.2,448.1,2862.2,448.1z
						"/>
					<path class="st2" d="M2815.9,789.8c-0.5,0.3-25.2-38.9-34.2-71.3c-5.5-16.7-10.1-42-10.9-65c-1.2-23,1.3-43.7,2.6-52.2
						c1.2-8.5,5.5-27.5,12-45c6.2-17.6,14.6-33.7,17.8-39.8c6.8-15.6,35.2-51.3,50.8-62.7c8.7-7.4,16.7-10.2,17.3-10.8
						c0.6-0.7-10.2,8.4-13.6,11.4c-3.7,2.7-19.6,17.6-27.7,27.4c-8.6,9.3-20.2,27.8-24.6,35.9c-5.5,7.3-25.7,53.4-29.1,84.3
						c-1,6.7-3.8,30.8-1.6,56.6c1.6,25.8,8.1,53.4,13,66.6c7.1,20.6,16.5,36.5,21.2,43.4C2813.4,775.4,2817,787.6,2815.9,789.8z"/>
				</g>
			</g>
		</g>
		<g>
			<g>
				<defs>
					<rect id="SVGID_3_" x="1435" y="175.2" width="1129.5" height="966.2"/>
				</defs>
				<clipPath id="SVGID_4_">
					<use xlink:href="#SVGID_3_"  style="overflow:visible;"/>
				</clipPath>
				<path class="st3" d="M2173.4,970c35.1-22.9,10.9-35-19.2-38.1c16.7-17.5,9.8-36.8-23.9-61.3c-15.1-11-35.3-7.9-55.9,1.9
					c-10.7-39.2-27.9-67-52.6-55.6c-20.4,9.4-36.2,21.8-46.7,35.6c-5.6-3.8-11.7-7.4-18.2-10.8c-14.2-7.5-25.8-4.2-34.9,5.7
					c-26.7-25.6-54.8-42-73.9-28.5c-33.2,23.6-39.8,46-22.6,70.7c-30.2-2-54.2,8.2-18.4,43.2c-35.1-9-61.1-6.9-49,22.8
					c27,66.2,185.7,94.4,308.3,79.1c76,3.1,140.7-8,156.3-38.4C2234.3,973.9,2208.3,968.2,2173.4,970z"/>
			</g>
		</g>
		<g>
			<g>
				<defs>
					<rect id="SVGID_5_" x="1435" y="175.2" width="1129.5" height="966.2"/>
				</defs>
				<clipPath id="SVGID_6_">
					<use xlink:href="#SVGID_5_"  style="overflow:visible;"/>
				</clipPath>
				<path class="st4" d="M2939.5,831.6c48.5-31.6,15.1-48.4-26.5-52.7c23.1-24.2,13.5-50.9-33-84.7c-20.9-15.2-48.8-10.9-77.3,2.6
					c-14.8-54.1-38.6-92.7-72.8-76.9c-28.3,13-50.1,30.1-64.6,49.3c-7.7-5.2-16.1-10.2-25.2-15c-19.7-10.4-35.6-5.8-48.3,7.9
					c-36.9-35.4-75.8-58.1-102.2-39.4c-46,32.6-55,63.6-31.2,97.8c-41.7-2.8-74.9,11.4-25.5,59.7c-48.5-12.4-84.5-9.6-67.8,31.5
					c37.3,91.6,256.8,130.6,426.3,109.4c105,4.3,194.6-11.1,216.2-53.1C3023.7,837,2987.8,829.1,2939.5,831.6z"/>
			</g>
		</g>
		<g>
			<g>
				<defs>
					<rect id="SVGID_7_" x="1435" y="175.2" width="1129.5" height="966.2"/>
				</defs>
				<clipPath id="SVGID_8_">
					<use xlink:href="#SVGID_7_"  style="overflow:visible;"/>
				</clipPath>
				<path class="st5" d="M1889.4,974.2c104-6.9,426.3-29.8,621.8-55.1c362.5-47,659.2-19.2,465.2,42.1
					c-54.2,17.1,103.6,93-280.2,133.5c-336.9,35.6-680.9,18.8-847.4,12.7c-166.5-6.1-243.5-29.2-279.3-39.6
					C1538.1,1058.7,1525.8,998.5,1889.4,974.2z"/>
			</g>
		</g>
		<g>
			<g>
				<defs>
					<rect id="SVGID_9_" x="1435" y="175.2" width="1129.5" height="966.2"/>
				</defs>
				<clipPath id="SVGID_10_">
					<use xlink:href="#SVGID_9_"  style="overflow:visible;"/>
				</clipPath>
				<g class="st6">
					<path class="st7" d="M2737,704c-44.4,40.4-67.6,97.4-66.7,151.5c48.2,11.2,103.6-3.2,148-43.5c44.4-40.4,67.6-97.4,66.7-151.5
						C2836.8,649.3,2781.5,663.6,2737,704z"/>
					<g>
						<g>
							<polygon class="st8" points="2678.7,848.4 2677.3,846.5 2866.9,674.3 2868.3,676.1 							"/>
						</g>
						<g>
							<polygon class="st8" points="2867.1,716.1 2828.6,712.1 2828.8,709.7 2867.3,713.7 							"/>
						</g>
						<g>
							<polygon class="st8" points="2843.7,746.4 2796.2,741.5 2796.4,739.1 2843.9,744 							"/>
						</g>
						<g>
							<polygon class="st8" points="2843.2,779.1 2763.9,770.9 2764.1,768.5 2843.4,776.7 							"/>
						</g>
						<g>
							<polygon class="st8" points="2808.7,808.3 2731.6,800.2 2731.8,797.9 2808.9,805.9 							"/>
						</g>
						<g>
							<polygon class="st8" points="2742.2,834.1 2699.3,829.6 2699.5,827.2 2742.4,831.7 							"/>
						</g>
						<g>
							<polygon class="st8" points="2833.3,707 2831.1,706.7 2834.7,664.5 2836.9,664.7 							"/>
						</g>
						<g>
							<polygon class="st8" points="2800.9,736.3 2798.8,736.1 2804.4,670.2 2806.6,670.4 							"/>
						</g>
						<g>
							<polygon class="st8" points="2768.6,765.7 2766.4,765.5 2773.5,683 2775.7,683.2 							"/>
						</g>
						<g>
							<polygon class="st8" points="2736.3,795.1 2734.1,794.9 2741.4,710.1 2743.6,710.4 							"/>
						</g>
						<g>
							<polygon class="st8" points="2703.9,824.5 2701.8,824.2 2708,751.4 2710.2,751.7 							"/>
						</g>
					</g>
				</g>
			</g>
		</g>
		<g>
			<g>
				<defs>
					<rect id="SVGID_11_" x="1435" y="175.2" width="1129.5" height="966.2"/>
				</defs>
				<clipPath id="SVGID_12_">
					<use xlink:href="#SVGID_11_"  style="overflow:visible;"/>
				</clipPath>
				<g class="st9">
					<g>
						<path class="st10" d="M2545.8,386.1c-148.5-21.8-285.5,93.3-305.3,256.4s84.9,313.5,233.4,335.2s285.5-93.2,305.3-256.3
							C2799.1,558.3,2694.3,407.8,2545.8,386.1z"/>
					</g>
					<g>
						<path class="st11" d="M2777.9,636.3l-28.1,42.6l-49.5,81.3l-18.4-57.8l-40.2,21.9l-19-52.5l-24.7,26.4l-10.3-4.5l-32.4-19.6
							l1.9,40.1l24.9,15.2l-60.4,116.7l-21.8,11.2l-12.9-48.4l-2.9-78.5l-34.2-6.6l-11.4-30.6l26.4-55.9l29.7-3.2l16.3,15.5
							l43.7-5.2l-43.2-34.9l-38-13l-0.5-13.1l40.4-18.4l-12.7-29.2l42.6-32.4l38.7,21.5l70.2-13.3c0,0,29.5-12.1,62.5-25.4
							C2747.5,528.4,2770,580.1,2777.9,636.3z"/>
						<path class="st11" d="M2368.6,427.4l-18.9,26.8l-33.1,49.5c-0.9,1.4-1,3.1-0.4,4.6l14.7,35.5c0.6,1.4,2.2,2.5,3.3,2.6
							c1.4,0.2,2.8-0.4,3.8-1.7l19.1-26.1l26.6,47l-68.8,51.4l-35.3-1.5c-1.6-0.1-3.1,0.9-3.9,2.5l-10.3,22.3
							c-0.6,1.4-0.6,3,0.1,4.4l19.4,35.9l-35.3-24.4l-8.9-15.8C2252.6,548.8,2301.5,472.4,2368.6,427.4z"/>
						<path class="st11" d="M2317.3,787.8l-17.7-54.4l32.3-57.9l64.3,83.3l-78.4,130.1l-8.8-33.4l8.4-65.5
							C2317.6,789.3,2317.5,788.6,2317.3,787.8z"/>
						<path class="st11" d="M2412.8,517.9l-22-74.2c46.9-18.1,77-19.3,88.5-18.9l-20.8,62.4L2412.8,517.9z"/>
					</g>
				</g>
			</g>
		</g>
		<g>
			<g>
				<defs>
					<rect id="SVGID_13_" x="1435" y="175.2" width="1129.5" height="966.2"/>
				</defs>
				<clipPath id="SVGID_14_">
					<use xlink:href="#SVGID_13_"  style="overflow:visible;"/>
				</clipPath>
				<path class="st12" d="M2372.6,859.1c-2.9-1.5-6.5-1.4-8.5-1.1c1.5-0.5,4-1.8,4-5.1c0-3.8-4.6-0.9-5.9,3.4
					c-0.8-2.6-1.8-5.3-2.4-6.5c-1.9-3.4-4.8-0.7-4.2,2.4c0.4,1.8,0.3,4.2,4.7,6.6c-1.7,0-3.5,0.3-5,1.1c-7.3,4-7.6,6.2-4.7,7
					c2.1,0.6,8.2-0.9,10.4-4.6c-0.4,3.1-0.9,8.3,0.6,10.2c2.2,2.9,4.7,2.6,4.6-3.4c0-5.8-0.8-6.6-0.8-6.6s2.6,2.3,5.1,2.3
					C2375.8,864.6,2376,860.8,2372.6,859.1z M2361.7,860.6c-0.1-0.6,0.2-1.1,0.7-1.2c0.5-0.1,0.9,0.3,1,0.9c0.1,0.6-0.2,1.1-0.7,1.2
					C2362.2,861.5,2361.8,861.1,2361.7,860.6z"/>
			</g>
		</g>
		<g>
			<g>
				<defs>
					<rect id="SVGID_15_" x="1435" y="175.2" width="1129.5" height="966.2"/>
				</defs>
				<clipPath id="SVGID_16_">
					<use xlink:href="#SVGID_15_"  style="overflow:visible;"/>
				</clipPath>
				<g class="st13">
					<path class="st14" d="M2428.8,916.5c0,0-2.3-0.2-3.8,0.9c-3,2.3-1.7,4.6,0.9,4.1c2.5-0.5,4.8-2.6,5.6-3.5s-2.7,2.1-0.8,5.1
						s4.2-5.1,0-7.4c-4.2-2.3,3.6,4.4,5.9,5.5c2.3,1.1,3-1.7,1.5-3.2c-1.1-1.1-2.1-3.2-8.8-0.7s3.5,1.5,6.2-3.9s2.1-6.8,0.1-6
						s-7,7.4-2.4,10.5s-0.4-0.1-1.5-2.4c-0.7-1.6-2.6-5.9-4.5-6.5c-2.3-0.7-3.6,0.5-1.4,4C2428.1,916.5,2428.8,916.5,2428.8,916.5z"
						/>
					<path class="st14" d="M2431.6,916.9c-0.2,0.3-0.6,0.2-0.9,0c-0.3-0.3-0.3-0.7,0-1c0.2-0.3,0.6-0.2,0.9,0
						C2431.8,916.2,2431.9,916.7,2431.6,916.9z"/>
				</g>
			</g>
		</g>
		<g>
			<g>
				<defs>
					<rect id="SVGID_17_" x="1435" y="175.2" width="1129.5" height="966.2"/>
				</defs>
				<clipPath id="SVGID_18_">
					<use xlink:href="#SVGID_17_"  style="overflow:visible;"/>
				</clipPath>
				<g class="st15">
					<path class="st16" d="M1659.3,445.7c0,4.3-3.2,7.8-7.1,7.8h-4.7v18.1l-16.5-18.1h-54.3c-3.9,0-7.1-3.5-7.1-7.8v-64.8
						c0-4.3,3.2-7.8,7.1-7.8h75.5c3.9,0,7.1,3.5,7.1,7.8V445.7z"/>
					<rect x="1583.8" y="396.5" class="st14" width="61.4" height="5.2"/>
					<rect x="1583.8" y="409.4" class="st14" width="61.4" height="5.2"/>
					<rect x="1583.8" y="422.4" class="st14" width="61.4" height="5.2"/>
				</g>
			</g>
		</g>
		<g>
			<g>
				<defs>
					<rect id="SVGID_19_" x="1435" y="175.2" width="1129.5" height="966.2"/>
				</defs>
				<clipPath id="SVGID_20_">
					<use xlink:href="#SVGID_19_"  style="overflow:visible;"/>
				</clipPath>
				<g class="st17">
					<path class="st18" d="M2424.7,766.3l-157.8-165.5c-1.5-1.8-3.1-3.5-4.9-5.1l-1.5-1.6c0,0-0.1,0-0.2,0.1
						c-7.4-6.1-16.6-9.9-26.6-9.9s-19.1,3.7-26.6,9.9c-0.1-0.1-0.2-0.1-0.2-0.1l-1.6,1.6c-1.7,1.6-3.4,3.3-4.9,5.1l-157.8,165.5
						c-3.5,3.8-5.2,8.9-5.2,13.9V976c0,16.2,12,29.4,26.7,29.4h338.8c14.8,0,26.7-13.1,26.7-29.4V780.2
						C2429.9,775.2,2428.2,770.2,2424.7,766.3z"/>
					<g>
						<path class="st19" d="M2233.8,917.4c-23.9,0-46.3-10.2-63.2-28.7s-26.2-43.2-26.2-69.4c0-54.1,40.1-98.1,89.3-98.1
							c49.3,0,89.3,44,89.3,98.1c0,26.2-9.3,50.8-26.2,69.4C2280.1,907.2,2257.6,917.4,2233.8,917.4z M2233.8,721.6
							c-49.1,0-89,43.8-89,97.7c0,26.1,9.3,50.6,26.1,69.1s39.2,28.6,62.9,28.6c23.8,0,46.1-10.2,62.9-28.6
							c16.8-18.5,26.1-43,26.1-69.1C2322.8,765.5,2282.8,721.6,2233.8,721.6z"/>
					</g>
					<path class="st20" d="M2403.2,946.6V721.4l-98.1-107.7h-214c-14.8,0-26.8,13.2-26.8,29.4v303.5L2403.2,946.6L2403.2,946.6z"/>
					<path class="st21" d="M2403.2,1005.4h-338.8c-14.8,0-26.7-13.1-26.7-29.4V780.2L2403.2,1005.4z"/>
					<path class="st22" d="M2064.4,1005.4h338.8c14.8,0,26.7-13.1,26.7-29.4V780.2L2064.4,1005.4z"/>
					<path class="st7" d="M2305.1,613.7V692c0,16.2,12,29.4,26.7,29.4h71.3L2305.1,613.7z"/>
					<rect x="2127.5" y="741" class="st2" width="216.9" height="19.6"/>
					<rect x="2127.5" y="780.2" class="st2" width="138.4" height="19.6"/>
					<rect x="2127.5" y="701.8" class="st2" width="83.8" height="19.6"/>
				</g>
			</g>
		</g>
		<g>
			<g>
				<defs>
					<rect id="SVGID_21_" x="1435" y="175.2" width="1129.5" height="966.2"/>
				</defs>
				<clipPath id="SVGID_22_">
					<use xlink:href="#SVGID_21_"  style="overflow:visible;"/>
				</clipPath>
				<path class="st23" d="M2299.4,383.1c-16.3,0-29.4,14.5-29.4,32.3c0,17.9,29.4,66.8,29.4,66.8s29.4-48.9,29.4-66.8
					C2328.9,397.6,2315.7,383.1,2299.4,383.1z M2299.4,426.8c-4.8,0-8.7-4.3-8.7-9.6c0-5.3,3.9-9.6,8.7-9.6s8.7,4.3,8.7,9.6
					C2308.1,422.5,2304.2,426.8,2299.4,426.8z"/>
			</g>
		</g>
		<g>
			<g>
				<defs>
					<rect id="SVGID_23_" x="1435" y="175.2" width="1129.5" height="966.2"/>
				</defs>
				<clipPath id="SVGID_24_">
					<use xlink:href="#SVGID_23_"  style="overflow:visible;"/>
				</clipPath>
				<g class="st24">
					<path class="st21" d="M1636.4,531.1c-2.1,0-3.7-1.8-3.7-4.1v-35.4c0-2.3,1.7-4.1,3.7-4.1h47.1c2.1,0,3.7,1.8,3.7,4.1V527
						c0,2.3-1.7,4.1-3.7,4.1H1636.4z"/>
					<path class="st21" d="M1636.4,531.1c-2.1,0-3.7-1.8-3.7-4.1v-35.4c0-2.3,1.7-4.1,3.7-4.1h47.1c2.1,0,3.7,1.8,3.7,4.1V527
						c0,2.3-1.7,4.1-3.7,4.1H1636.4z"/>
					<path class="st18" d="M1683.5,487.6h-47.1c-2.1,0-3.7,1.8-3.7,4.1v2.1l43.3,37.3h7.5c2.1,0,3.7-1.8,3.7-4.1v-35.4
						C1687.2,489.4,1685.6,487.6,1683.5,487.6z"/>
					<path class="st22" d="M1660,514.8l27.3-20.8v-2.3c0-2.3-1.7-4.1-3.7-4.1h-47.1c-2.1,0-3.7,1.8-3.7,4.1v2.3L1660,514.8z"/>
				</g>
			</g>
		</g>
		<g>
			<g>
				<defs>
					<rect id="SVGID_25_" x="1435" y="175.2" width="1129.5" height="966.2"/>
				</defs>
				<clipPath id="SVGID_26_">
					<use xlink:href="#SVGID_25_"  style="overflow:visible;"/>
				</clipPath>
				<g class="st25">
					<path class="st21" d="M1847.2,643.9c-6.3,0-11.4-5.6-11.4-12.5V523.3c0-6.9,5.1-12.5,11.4-12.5h143.9c6.3,0,11.4,5.6,11.4,12.5
						v108.1c0,6.9-5.1,12.5-11.4,12.5L1847.2,643.9L1847.2,643.9z"/>
					<path class="st21" d="M1847.2,643.9c-6.3,0-11.4-5.6-11.4-12.5V523.3c0-6.9,5.1-12.5,11.4-12.5h143.9c6.3,0,11.4,5.6,11.4,12.5
						v108.1c0,6.9-5.1,12.5-11.4,12.5L1847.2,643.9L1847.2,643.9z"/>
					<path class="st18" d="M1991.1,510.8h-143.9c-6.3,0-11.4,5.6-11.4,12.5v6.5L1968,643.9h23.1c6.3,0,11.4-5.6,11.4-12.5V523.3
						C2002.4,516.4,1997.4,510.8,1991.1,510.8z"/>
					<path class="st22" d="M1919.1,593.9l83.3-63.6v-7.1c0-6.9-5.1-12.5-11.4-12.5h-143.9c-6.3,0-11.4,5.6-11.4,12.5v7.1
						L1919.1,593.9z"/>
				</g>
			</g>
		</g>
		<g>
			<g>
				<defs>
					<rect id="SVGID_27_" x="1435" y="175.2" width="1129.5" height="966.2"/>
				</defs>
				<clipPath id="SVGID_28_">
					<use xlink:href="#SVGID_27_"  style="overflow:visible;"/>
				</clipPath>
				<g class="st26">
					<path class="st27" d="M1929.7,1012.2c-0.6,0.8-0.2,2.9-0.2,2.9s10.6,1.3,14,0.4c0.9-0.2,2.4-1.1,3.8-1.9c0.2-0.1,0.7-1,0.9-1.2
						c0.4-0.3,0.7,0.2,1-0.1c0.9-0.6,1.6-1.2,1.6-1.2c0.9-5.3-0.3-7.5-0.3-7.5s-9-3.3-10.7-1C1935.8,1008,1931,1010.4,1929.7,1012.2
						z"/>
					<path class="st27" d="M1999.3,1007.4l1.5,8.6h8c0,0,0.4-1.2,1.1-1.2c0.6,0,1.3,1.2,2.1,1.2c1.7,0,3.6,0,4.3,0
						c1.5,0,16.1,0,16.1,0s0.4-1.8-0.1-2.4c-0.2-0.3-1.6-0.9-2.5-1.2c-4.2-1.3-16-5.3-18.1-9.6
						C2009.4,997.5,1999.3,1007.4,1999.3,1007.4z"/>
					<path class="st28" d="M1946.1,636.5c0.7,3-0.3,5.9-2.2,6.4l0,0c-1.9,0.5-4-1.5-4.7-4.6l-0.9-3.8c-0.7-3,0.3-5.9,2.2-6.4l0,0
						c1.9-0.5,4,1.5,4.7,4.6L1946.1,636.5z"/>
					<g>
						<path class="st28" d="M2034.5,765.6l22.4,34.5l9.1,0.2c0,0,0-0.6-1.9-1.7c-0.6-0.3-3.4,0-3.8-0.6c-0.6-0.8-3.4-1.8-3.6-3.2
							c-1.2-9.9-1.3-24.8-5.9-34.9C2043.2,743.7,2033.9,765.2,2034.5,765.6z"/>
						<path class="st29" d="M1982.3,672.3c0,0,14.1,5.6,40.8,39.6c27.6,35.2,23.7,37.4,23.7,37.4l4,9.6l-13.8,11.6l-44.8-56.1
							L1982.3,672.3z"/>
						<path class="st30" d="M1979.7,699.1l31.7,38.2l12.7,12.7l-3.9-7.4c0,0-2.8-4.4-17.8-25.8c-8.5-12-12.6-16.2-18.2-21.7
							L1979.7,699.1z"/>
						<polygon class="st30" points="2043.4,754.1 2034.2,760.9 2032.1,762.9 2036.9,770.1 2045.6,760.1 						"/>
					</g>
					<path class="st28" d="M1963.5,665.1c-0.4,5.5-3.1,10.2-5.9,10.5c-2.7,0-5.4,0-8,0c-2.8-0.2-5.5-5-5.9-10.5
						c-0.7-9.1-1.3-18.1-2-27.1c-0.4-5.4,1.5-16.3,5.8-19.5c3.9-2.9,8.4-2.9,12.3,0c4.3,3.2,6.2,14.1,5.8,19.5
						C1964.8,647,1964.1,656,1963.5,665.1z"/>
					<path class="st28" d="M1909,756.2l21.5,38.4c0,0-32-16.9-30.3-32.6C1901.9,746.3,1909,756.2,1909,756.2z"/>
					<path class="st29" d="M1984.4,673.6c-2.5-4.6-18.1-6.3-18.1-6.3l-12.6,4.1l-15.5-1.9l-17.2,9.4c0,0-7.6,6.9-0.4,33.1
						c7.2,26.2,4.4,56.4,4.4,56.4l62.1,4.3C1987.1,772.7,1992,687.3,1984.4,673.6z"/>
					<path class="st29" d="M1932.2,678.8c0,0-9.4-5.8-18.7,7c-16,21.8-23.7,48.9-25.4,54.1c-1.7,5.2-3.9,20.9,2.8,25.6
						c6.6,4.7,6.6,4.7,6.6,4.7l13.8-9.3l-2.2-4.7l-1.1-2.9c0,0,7.7-18.6,16-35.5C1932.2,700.9,1932.2,678.8,1932.2,678.8z"/>
					<path class="st28" d="M1967.7,651.1c-1.3,5.1-3.2,6.3-6.6,6.9c-3.2,0.4-4,0.7-7.3,1.1c-3.4,0.2-6.9-4.8-7.7-9.4
						c-1.3-7.5-5-13.7-6.3-21.2c-0.8-4.5,0.9-8.5,5.9-11.8c4.6-2.9,10-8.9,14.9-7c5.3,2.1,8.3,11.1,8,15.7
						C1968.3,633,1968,643.4,1967.7,651.1z"/>
					<polygon class="st30" points="1950.7,670.9 1944.6,678.2 1938.4,668.5 1942.1,662.5 					"/>
					<polygon class="st30" points="1964.2,663.1 1952.4,671.5 1958,678.8 1967.2,667.4 					"/>
					<polygon class="st30" points="1958.5,769.9 1953.2,770.1 1949.8,671.6 1955,671.4 					"/>
					<path class="st31" d="M1950.5,799.8c0,0,12.9,74.4,28.3,101.2s23.6-4.9,23.6-4.9l-15.3-125.6l-48.5-0.3
						C1938.6,770.2,1943.2,771.1,1950.5,799.8z"/>
					<path class="st31" d="M1968.4,770.5c0,0-14.8,118.7-16.7,124.9c-6.3,20.9-18.6,5.1-20.8-1.9c-2.2-7-5.9-52-5.2-89.6
						c0.7-37.6,0.7-35.2,0.7-35.2L1968.4,770.5z"/>
					<path class="st31" d="M1950.7,872.7c0,0,2.4,28.5,4.6,49.3c1.6,15.3-0.6,50.7-3.2,81.1c-0.2,1.9-14,0.5-14,0.5
						s-6.3-80.1-8.1-99.1C1922.4,823.4,1939.7,859.1,1950.7,872.7z"/>
					<path class="st32" d="M1997.8,898.8c0,0-3.9,1.6-16.2,2.1c-12.3,0.5,16.4,107.6,16.4,107.6l17.4-8.2l-13.5-107.1L1997.8,898.8z
						"/>
					<path class="st32" d="M1937.3,622.6l2.5,5.9c0,0,5.3-6.6,9-11.9c1.2-1.7,13.3-1.8,16.3-1.3c2.2,0.4,2.4,3.5,2.9,5.3
						c1.8,6.4-0.8-10.8-0.8-10.8s-4.1-8.1-11.8-8.7c-4.2-0.4-6.2,2.3-7.8,5.9c-0.4,0.8,4.7-1.3,3.8-1.5c-0.2,0-5.2,4.8-5.4,5.1
						c-0.8,1.8-1.6,3.7-2.7,5.3C1939.3,621.9,1937.3,622.6,1937.3,622.6z"/>
					<polygon class="st33" points="1955.4,626.1 1958.7,626.6 1957.8,628.8 1960.4,629.9 1963,641.2 1958.7,641.5 1958,634.6 
						1955.3,631.2 1948.6,630.5 					"/>
					<polygon class="st29" points="1897.1,767.2 1909,756.2 1913.7,763.2 1902,773.6 					"/>
					<path class="st28" d="M2069.4,794.1c2.6,1.6,7.6,4.1,5.9,5.1l-9.1-3.9l-4.8,0.1l-2.8,2.9l-1.8-2.9c-1.2-0.3-2.1-0.7-1.5-2.8
						l-0.8-1.2c3.6-0.8,5.1-1.2,6.2-1l4.5,1.3C2066.5,792,2069.4,794.1,2069.4,794.1z"/>
				</g>
			</g>
		</g>
		<g>
			<g>
				<defs>
					<rect id="SVGID_29_" x="1435" y="175.2" width="1129.5" height="966.2"/>
				</defs>
				<clipPath id="SVGID_30_">
					<use xlink:href="#SVGID_29_"  style="overflow:visible;"/>
				</clipPath>
				<g class="st34">
					<g>
						<path class="st28" d="M1791.9,761.4c0,0-3.2-1.1,1.4-20.1s15.4-45.9,15.4-45.9l-7.3,44.9
							C1801.3,740.3,1797.9,757.4,1791.9,761.4z"/>
						<path class="st28" d="M1803.8,710.1c2-9.1-1-14-1.4-17.9s-1.4-8-1.4-8c2.8,2.9,2.3,5.8,3,7.6c0.7,1.7,0.3,1.2,1.2-2
							c0.5-1.8-1.5-5.7-2.5-8.5c-0.9-2.3-0.7-3.6-0.7-3.6s2.2,3.1,3.8,6.6c1.9,4.3,3.1,9.4,3.2,10.5c0.2,2.1-0.9,8.3-2.4,12.5
							C1805.1,712,1802.4,716.6,1803.8,710.1z"/>
						<path class="st28" d="M1808.9,695.2c0,0,0-7.4-0.5-8.8c-0.4-1-2.7-5.3-2.7-5.3s-0.2,2.7,0.6,4.5
							C1807.2,687.4,1808.9,695.2,1808.9,695.2z"/>
					</g>
					<path class="st35" d="M1804.5,719.2c0,9.5-2.7,23.9-8.1,39.3c-0.6,1.8-1.3,3.6-1.9,5.3c-1,2.6-5.2-1-5-5.9
						c0.4-9.4,3.8-20.3,8.7-34.2c0.8-2.4,1.7-4.7,2.6-7C1802,717.5,1803.2,718.3,1804.5,719.2z"/>
					<g>
						<path class="st11" d="M1767.4,662.1c-0.8,2.9,0.7,6,3.3,6.9l20.8,7l-5.9,21.1l42.7-8.8l33.7,11.3c2.7,0.9,5.5-0.8,6.3-3.7
							l33.3-119.9c0.8-2.9-0.7-6-3.3-6.9l-91.4-30.6c-2.7-0.9-5.5,0.8-6.3,3.7L1767.4,662.1z"/>
						<g>
							<g>
								<g>
									<polygon class="st14" points="1850.7,669.2 1844.9,667.3 1846.7,660.9 1852.5,662.8 									"/>
									<path class="st14" d="M1851.7,671.3l-8.8-2.9l2.7-9.6l8.8,2.9L1851.7,671.3z M1846.8,666.2l2.9,1l0.9-3.2l-2.9-1
										L1846.8,666.2z"/>
								</g>
								<g>
									<polygon class="st14" points="1844.8,677.3 1843.4,674.3 1848.6,671.3 1849.3,668.8 1852.2,669.7 1851.1,673.6 									
										"/>
								</g>
								<g>
									<polygon class="st14" points="1839,665.3 1833.2,663.4 1834.9,656.9 1840.8,658.9 									"/>
									<path class="st14" d="M1840,667.4l-8.8-2.9l2.7-9.7l8.8,2.9L1840,667.4z M1835.1,662.2l2.9,1l0.9-3.2l-2.9-1L1835.1,662.2z
										"/>
								</g>
								<g>
									<polygon class="st14" points="1833.1,673.4 1831.7,670.4 1836.8,667.4 1837.6,664.8 1840.5,665.8 1839.4,669.7 									
										"/>
								</g>
							</g>
							<g>
								<g>
									<polygon class="st14" points="1816.3,570.5 1822.2,572.4 1820.4,578.8 1814.5,576.9 									"/>
									<path class="st14" d="M1821.4,580.9l-8.8-2.9l2.7-9.6l8.8,2.9L1821.4,580.9z M1816.4,575.8l2.9,1l0.9-3.2l-2.9-1
										L1816.4,575.8z"/>
								</g>
								<g>
									<polygon class="st14" points="1817.8,570.9 1814.8,570 1815.9,566.1 1822.2,562.4 1823.6,565.4 1818.5,568.4 									"/>
								</g>
								<g>
									<polygon class="st14" points="1828,574.4 1833.9,576.3 1832.1,582.8 1826.2,580.8 									"/>
									<path class="st14" d="M1833.1,584.9l-8.8-2.9l2.7-9.6l8.8,2.9L1833.1,584.9z M1828.1,579.7l2.9,1l0.9-3.2l-2.9-1
										L1828.1,579.7z"/>
								</g>
								<g>
									<polygon class="st14" points="1829.5,574.9 1826.5,573.9 1827.6,570 1833.9,566.3 1835.4,569.3 1830.2,572.3 									"/>
								</g>
							</g>
							<g>
								<g>
									<polygon class="st14" points="1867,614.4 1807.5,594.4 1808.4,591.2 1867.9,611.2 									"/>
								</g>
								<g>
									<polygon class="st14" points="1864.7,622.8 1805.2,602.9 1806.1,599.7 1865.6,619.6 									"/>
								</g>
								<g>
									<polygon class="st14" points="1862.3,631.3 1802.8,611.3 1803.7,608.1 1863.2,628.1 									"/>
								</g>
								<g>
									<polygon class="st14" points="1860,639.7 1800.5,619.8 1801.4,616.6 1860.9,636.5 									"/>
								</g>
								<g>
									<polygon class="st14" points="1824.5,637 1798.1,628.2 1799,625 1825.4,633.8 									"/>
								</g>
							</g>
						</g>
					</g>
					<g>
						<g>
							<path class="st36" d="M1778.3,691c0.5,9.7-6.2,18.1-15.1,18.7l-4.5-8.1c-8.9,0.6-16.9-13.6-17.4-23.3l-0.4-6.6
								c-0.5-9.7,6.2-18.1,15.1-18.7l4-0.3c8.9-0.6,16.5,6.8,17,16.6L1778.3,691z"/>
							<path class="st36" d="M1743.5,671.2c-0.9,0.1-1.7,0.2-2.6,0.4c0.2,1.2,0.4,2.3,0.5,3.6c0.7,11.7-7,21.9-17.5,24
								c2.2,10.9,11.5,18.7,22.1,18c11.8-0.8,20.8-11.7,20.1-24.4C1765.4,680.1,1755.3,670.4,1743.5,671.2z"/>
							<path class="st28" d="M1770,658.7c0.1,1.6,0,3.3-0.1,5c-1,11.4-6.8,20.5-13.6,22c0.1,5.1-0.6,9.8-1.5,13.8
								c-1,4.5-5.5,9.6-5.5,9.6c-0.7,8,24.4,18,23.8,16.7c-0.7-1.2-7.2-10.1-9.7-18.6c-1.7-5.9-0.2-10.9,1.7-14.4
								c3.6-5.2,9.1-5.5,9.1-5.5c0.5,0,1-0.3,1.3-0.7c0.3-1.2,0.4-2.4,0.3-3.7l-0.8-14.5C1774.8,664.3,1772.8,660.8,1770,658.7z"/>
							<path class="st35" d="M1764.5,772.9c-2.7,7.3-17.3,7.3-20,0l-15.3-46c-3.8-10.3,10.8-15.3,18.2-19.6l5.3-0.4l7.8,4.1l3.7-4.4
								l7.3,0.3c6.3,0,9.3,6,6.6,13.3L1764.5,772.9z"/>
							<path class="st35" d="M1778.4,711.7l15.4,51c0,0,1.1,3.5-2.2,1.2c-4.5-3.3-14.7-15.2-23.8-38.8
								C1761.2,707.7,1774.3,710.7,1778.4,711.7z"/>
							<path class="st28" d="M1781.9,905.4c-0.7-2.8-1.2-5.7-1.9-8.5c-2.5-4.3-4.8-6.8-6.7-6.8c-7.1,0-10.8,26.5,3.6,77
								c0.8,2.8,13.4,53.7,13.5,51.6C1790.8,977.7,1784.5,915.7,1781.9,905.4z"/>
							<path class="st28" d="M1738.7,906c0.6-2.9,1.3-5.7,1.9-8.5c-0.4-5.1-1.4-8.5-3-9.4c-6.2-3.7-20.8,17.9-29.5,70
								c-0.5,2.9-10.9,54.4-10,52.6C1715.8,974.4,1736.6,916.4,1738.7,906z"/>
							<polygon class="st37" points="1762.7,709.5 1759.9,715.8 1749,707.4 1752.6,703.5 							"/>
							<polygon class="st37" points="1763.4,704.9 1762.7,709.5 1765.6,714.3 1765.2,707.6 							"/>
							<path d="M1785.3,920.2c0.3-1.7,0.5-3.7,0.5-5.8c-0.4-11.8,0.1-23.8-1.7-46.3c-1.7-21.8-5.6-54.1-14-91.4
								c-0.8-3.8-1.8-7.1-2.9-9.8c-7.6-1.2-15.4,4.5-23.3,7c-2.9,5.9-5.4,13-7.2,21.6c-8.6,38.6-12.9,61-15.2,79.7
								c-2.3,18.2-2.6,32.7-3.7,42.4C1739.5,957.6,1762,883.3,1785.3,920.2z"/>
						</g>
						<path class="st28" d="M1812.7,1018.5c0,0-2.6,0-9,1.5c-3.8,0.9-6.4,2.1-8.3,1.3c-3-1.4-5.3-15.9-5.7-26.3
							c0-1.2-6.5-3.9-6.2-2.6c3.9,16.9,4.1,27.6,4.5,30c0.6,4,2.3,7.6,4.1,7.7c3.5,0.3,19.6-7.9,20.9-8.6
							C1814.3,1020.8,1813,1018,1812.7,1018.5z"/>
						<path class="st31" d="M1690.8,1021.5c-1.5,10.2-0.8,18.8,1.7,19.2c2.4,0.4,5.7-7.4,7.2-17.6c1.5-10.2,0.8-18.8-1.7-19.2
							C1695.5,1003.5,1692.3,1011.4,1690.8,1021.5z"/>
						<path class="st28" d="M1692.7,1016.3c-2.1,7.2-1.2,14.4,1.2,14.8c2.4,0.4,5.1-5.1,5.9-12.7c1-9.6,0.5-13.6,3.3-18.8
							c2.9-5.4,3.3-10.7,2.7-11.5c-0.6-0.8-3.9,1.2-4.4,4c-0.6,4-2.2,7.5-2.8,8.6C1696.9,1003.8,1694.8,1008.7,1692.7,1016.3z"/>
						<path class="st31" d="M1808.9,1019c2.6,3.9-10.1,7.7-13.6,8c-3.4,0.3-5.4,0.8-5.4,0.8c-0.1,0.1-0.2,0.1-0.4,0.1
							c0,0.1,0,0.2,0.1,0.3c0.9,2.4,1.2,5.9,4.6,4.3l21.5-10C1833.3,1014.5,1808.8,1018.9,1808.9,1019z"/>
					</g>
					<g>
						<path class="st7" d="M1816.1,791c0.6-2.7-1-5.5-3.5-6.2l-19.7-5.1l4.3-19.9l-31.5,12.8l-98.3-25.7c-2.5-0.7-5,1-5.6,3.8
							l-12.6,58.1c-0.6,2.8,1,5.5,3.5,6.2l145.2,38c2.5,0.7,5-1,5.6-3.8L1816.1,791z"/>
						<g>
							<g>
								<polygon class="st14" points="1799.5,811.6 1714,789.2 1715,784.5 1800.5,806.9 								"/>
							</g>
							<g>
								<polygon class="st14" points="1777.2,818.1 1711.5,800.9 1712.5,796.2 1778.2,813.4 								"/>
							</g>
						</g>
						<path class="st14" d="M1697,800.4l0.4-1.9c0.4-1.8-0.6-3.7-2.3-4.1l-10.6-2.8c-1.7-0.4-3.3,0.7-3.7,2.5l-2.2,10
							c-0.4,1.8,0.6,3.7,2.3,4.1l10.6,2.8c1.7,0.4,3.3-0.7,3.7-2.5l0.4-1.9l3.8,4.5l2.8-12.8L1697,800.4z"/>
						<g>
							<path class="st14" d="M1681,782c-3.7-1-6.1-5.1-5.2-9.3c0.9-4.1,4.7-6.7,8.4-5.7c3.7,1,6.1,5.1,5.2,9.3
								C1688.6,780.4,1684.8,783,1681,782z M1683.6,770.4c-2.1-0.5-4.2,0.9-4.7,3.2s0.8,4.6,2.9,5.1s4.2-0.9,4.7-3.2
								C1686.9,773.2,1685.6,770.9,1683.6,770.4z"/>
						</g>
						<path class="st14" d="M1669,789.4c0.6-2.7,3.1-4.4,5.6-3.8l10.6,2.8c1.3,0.4,2.4,1.3,3,2.5l3.6,0.9c-0.5-3.2-2.7-6-5.8-6.8
							l-10.6-2.8c-4.2-1.1-8.4,1.7-9.4,6.3l-1.1,5l13.6,3.6l0.7-3.3l-10.6-2.8L1669,789.4z"/>
					</g>
					<path class="st35" d="M1728.8,766.1c0,0-3.6-0.3-6.2,16.1c-1.1,7-1.7,15.1-2.1,22.1c-0.5,9.4,4.5-0.3,4.5-0.3l5.2-18.1
						C1730.1,785.9,1733.2,771.4,1728.8,766.1z"/>
					<path class="st35" d="M1730,718.3c-6.5,15-4.9,61.1-4.9,61.1s6.4,25.4,13.1-47.6C1740.2,709.9,1731.6,714.6,1730,718.3z"/>
					<path class="st28" d="M1719.7,840l-2.6-3.8l-1.3-3.7l0.1-6.4c0,0,0.9-6.7,2-9.1c1.2-2.4,2.6-12.4,3-13.6
						c0.4-1.2,3.9-1.1,3.9-1.1s-1.8,9.1-2.8,13.2c-1,4.1-0.7,10.6-1,12.2c-0.6,2.8-1.8,4.9-1.8,4.9s0.2-4.5,0.4-5.7
						c0.2-1.2-1.1-0.8-1.1-0.8s-0.9,6.2-0.5,7.9s1.3,3.1,1.3,3.1L1719.7,840z"/>
				</g>
			</g>
		</g>
		<g>
			<g>
				<defs>
					<rect id="SVGID_31_" x="1435" y="175.2" width="1129.5" height="966.2"/>
				</defs>
				<clipPath id="SVGID_32_">
					<use xlink:href="#SVGID_31_"  style="overflow:visible;"/>
				</clipPath>
				<g class="st38">
					<g>
						<path class="st39" d="M2371.5,886.9c6.7,1.9,19.2,8.5,21.8,19.9c3.9,17-3.9,42.1,8.5,66.5c3.9,7.8-68.3,18.3-68.3,18.3
							l-14-86.1c0,0,17.4-18.7,21-20C2347.8,882.9,2358,883.2,2371.5,886.9z"/>
						<g>
							<path class="st40" d="M2319.3,905.5c-2.5,6.9-8.9,47.8-1.8,57.5c0.8,1.1-3.7,2.8-2.9,7.9c0.1,0.9,1.5,4.9,1.5,4.9l5.8,1.7
								l17.5-10.9l-3.3-4.5h-1.6c0,0-1.5-1.5-1.1-3.4s-4-4.9-10.7-36.7C2320.7,912.7,2319.8,904,2319.3,905.5z"/>
							<path class="st41" d="M2326,961.1l5.2-1.3l2.1-0.4c0,1.6,1.1,2.7,1.1,2.7l-4,0.1l-4.7,1.1l-5.7,3.5L2326,961.1z"/>
						</g>
						<path class="st42" d="M2333.4,966.4c0,0-4-0.1-7.4,2.2c-2.6,1.7-5,5.6-2.6,7.6c2.4,2.1,6,4,6,4S2338.6,980.5,2333.4,966.4z"/>
						<path class="st43" d="M2323.5,976.4l2.4-0.6c0,0,8.4-0.8,9.6-0.1c1.2,0.7,5,3.6,5,3.6l0.8,0.8c0,0-1.9,1.3-4.4-0.7
							c-2.5-1.9-2.7-0.4-2.7-0.4l0.4,2.5v3.1l0.4,1.3c0,0,0.4,0.7,0.1,1c-0.8,0.8-1.6,0.4-1.6,0.4l-2.5-4.9l-0.7,5.3
							c0,0-0.3,0.7-1.1,0.9c-0.7,0.2-0.8,0-0.8,0l-0.6-1.3c-0.1,0.3-0.2,0.7-0.5,0.9c-0.6,0.6-1.5,0.5-1.5,0.5l0.2-5.6l-1,2.8
							c0,0-0.4,0.7-1.1,0.9c-0.8,0.2-1.1,0.3-1.1,0.3L2323.5,976.4z"/>
						<g>
							<g>
								<path class="st28" d="M2366.8,954.5c0,0-6.1,16.9-20.7,21.4c-2.5,0.8-4.1,3.8-2.9,4.7c1.6,1.2,3.7,1.5,7.4,1.5
									c7.6,0,18-2.6,25.2-10.3c10.6-11.3,14-16.5,12.9-22.1C2387.7,944,2366.8,954.5,2366.8,954.5z"/>
								<path class="st40" d="M2391.2,901.1c3.1,5.6,4.9,14.5,4.9,27.4c0,9.9-7.8,26.2-9,31.2c-0.2,0.8-0.7,4.4-0.7,4.4l-8.6,9.3
									l-17.3-12.9l5.3-8.9l1.6,0.2c0,0,1-4.9,0.7-6.8c-0.3-1.9,4.8-27.5,7.3-43.9C2376.7,891.6,2388.1,895.5,2391.2,901.1z"/>
								<path class="st39" d="M2375.6,951.4l-5.1-1.7l-2.1-0.6c-0.1,1.6-1.3,2.6-1.3,2.6l4,0.5l4.6,1.5l5.4,4.1L2375.6,951.4z"/>
							</g>
							<path class="st28" d="M2347.3,975.9l-8.8-2.7c0,0-2.5,3.7-2,4.6c0.5,0.9,0,6.4,0,6.4l4.3,4l3.5-1.3c0,0,0.2-1.7-0.9-1.8
								c-1.2-0.2,0.8-1.1,1.4-1.5C2345.3,983.2,2350.4,980.3,2347.3,975.9z"/>
						</g>
						<path class="st43" d="M2360.8,886.1c1,3.1-0.5,6.5-3.3,7.6l-5,1.9c-2.8,1.1-5.9-0.6-6.9-3.6l-4.5-14c-1-3.1,0.5-6.5,3.3-7.6
							l5-1.9c2.8-1.1,5.9,0.6,6.9,3.6L2360.8,886.1z"/>
						<g>
							<path class="st28" d="M2338.9,898.4c0.5,2,2.4,3.2,4.3,2.7l15.1-4.6c1.9-0.6,2.9-2.7,2.4-4.7l-6.2-24.6
								c-0.5-2-2.4-3.2-4.3-2.7l-15.1,4.6c-1.9,0.6-2.9,2.7-2.4,4.7L2338.9,898.4z"/>
							<path class="st32" d="M2334,878.9c0,0-2.6-1.8-3.4-3.1c-0.4-0.7-0.4-3.7,1-5.3s3.3,0,3.3,0s-2.3,2.5-2.3,3.1
								C2332.7,874.2,2334,878.9,2334,878.9z"/>
							<path class="st31" d="M2358.9,877.8c0,0-0.1-10.1-1.2-12.8c-1.1-2.6-1.9-4.5-5-3.9c-4.7,0.9-4.5,2-7.1,1.2
								c-2.6-0.9-7.6-3.3-9.1-3.3c-2.5,0.1-5.9,2-4.8,6.8c0.8,3.6-1,5-0.9,5.1c0.3,0.4,1.2,0.5,2.9,0.9c4.8,1,7.4,0.7,10.4-1.2
								s8.5-5.7,9.8-3.3c1.4,2.4,3.1,10.5,3.5,11C2357.8,878.9,2358.5,878.4,2358.9,877.8z"/>
							<path class="st28" d="M2356,886.6c0.2,0.7,0.8,1.1,1.4,0.9l3.3-1c0.6-0.2,1-0.9,0.8-1.6l-1.6-6.6c-0.2-0.7-0.8-1.1-1.4-0.9
								l-3.3,1c-0.6,0.2-1,0.9-0.8,1.6L2356,886.6z"/>
							<path class="st28" d="M2336.5,892.5c0.2,0.7,0.8,1.1,1.4,0.9l3.3-1c0.6-0.2,1-0.9,0.8-1.6l-1.6-6.6c-0.2-0.7-0.8-1.1-1.4-0.9
								l-3.3,1c-0.6,0.2-1,0.9-0.8,1.6L2336.5,892.5z"/>
							<path class="st31" d="M2358,880.4c0,0,2.4,9.7,3.2,12.9c0.7,2.9,1.3,9.6-13.7,14.2c-8.9,2.7-10.4-4.6-11-6.9
								c-0.4-1.8,0-7.7,0.7-9l1,4c0,0,0.9-4.5,5.1-5.7c6.8-2.1,9.5,1.9,12.4,0.9C2358.1,889.9,2358.8,885.2,2358,880.4z"/>
							<path class="st28" d="M2347.8,895.3l-4.7,1.4c-0.6,0.2-1.3-0.2-1.4-0.9l-0.2-0.7l6.9-2.1l0.2,0.7
								C2348.8,894.4,2348.4,895.1,2347.8,895.3z"/>
						</g>
					</g>
					<path class="st44" d="M2274,993.5c2.1,6.5,39.9,30.6,52.5,29.2l38.1,2c32.4-4.3,47.7-59.6,47.7-59.6
						c-1.3-13.9-33.2,6.2-44.6,12.5c-18,9.9-29.4,10.4-29.4,10.4c-12.1,1.4-26-8.9-41.2-9.2C2280.4,978.3,2270.6,983.2,2274,993.5z"
						/>
					<g>
						<path class="st45" d="M2356.9,986.9C2356.9,986.9,2356.9,986.8,2356.9,986.9v-1.8l-65.6-1.3v1.7c0,0,0,0,0,0.1l0.2,0.3
							c0.8,1.5,2.3,1.8,4.1,1.9l57.1,1.1c1.7,0,3.2-0.2,4.1-1.7L2356.9,986.9z"/>
						<path class="st46" d="M2341.1,986.9L2341.1,986.9l0.2,0.3c0.3,0.4,0.6,0.7,0.9,0.9l10,0.2c1.7,0,3.1-0.2,4-1.4l0.2-0.3l0,0
							v-0.9l-15.2-0.3L2341.1,986.9z"/>
						<g>
							
								<rect x="2315.3" y="968.8" transform="matrix(2.004239e-02 -0.9998 0.9998 2.004239e-02 1284.3939 3280.8779)" class="st47" width="1.2" height="32.8"/>
						</g>
						<g>
							<path class="st30" d="M2340.8,984.7l-7.9-35.6c-0.2-0.9-1.1-1.7-1.9-1.7l-46-0.9c-0.8,0-1.4,0.7-1.2,1.7l7.9,35.6
								L2340.8,984.7z"/>
						</g>
					</g>
					<g>
						<path class="st28" d="M2370.5,1033.9c-4.5,0.9-8-4.9-8-4.9l-11.7-10.1l2.5-6.9l22.8,11.3C2376,1023.2,2375,1033,2370.5,1033.9
							z"/>
						<path class="st40" d="M2362.4,1028.6c0,0,0,0.6,0.9,3.2s1.9,3.6,3.1,3.9c4.4,1.4,7.5,0.7,18.1,2.9c10.5,2.2,13.7,0.5,16.8-4.8
							s-0.1-9.5-5.2-9.9c-7.4-0.6-11.6,0.3-15.4-0.3c-4.1-0.7-4.3-1.7-6.7-3.3c-2.2-1.5-4.3,7.4-2.2,9.5
							C2373.5,1031.7,2364,1032,2362.4,1028.6z"/>
						<path class="st14" d="M2364.7,1033.7c4.4,1.4,7.5,0.7,18.1,2.9c10.5,2.2,13.7,0.5,16.8-4.8c1.4-2.5,1.5-4.7,0.7-6.4
							c2.3,1.8,3.1,4.8,1,8.4c-3.1,5.3-6.2,7-16.8,4.8c-10.5-2.2-13.7-1.5-18.1-2.9c-0.9-0.3-1.7-0.9-2.4-2.4
							C2364.2,1033.5,2364.4,1033.6,2364.7,1033.7z"/>
						<path class="st28" d="M2362.5,1028.7c0-0.1,0-0.2,0-0.2C2362.5,1028.6,2362.5,1028.7,2362.5,1028.7L2362.5,1028.7z"/>
						<g>
							<path class="st14" d="M2385.2,1032.7c0.3,0.1,0.6-0.6,0.7-1.5c0.2-2,0.6-4,1.2-6c0.3-1,0.3-1.8-0.1-2c-0.4-0.1-1,0.6-1.3,1.5
								c-0.6,1.9-1,3.9-1.2,5.9C2384.6,1031.7,2384.9,1032.6,2385.2,1032.7z"/>
							<path class="st14" d="M2381.9,1032.1c0.4,0.1,0.7-0.6,0.8-1.5c0.2-1.9,0.6-3.7,1.2-5.6c0.3-0.9,0.3-1.7-0.1-1.8
								c-0.4,0-1,0.6-1.3,1.6c-0.6,1.8-1,3.7-1.1,5.5C2381.3,1031.2,2381.6,1032,2381.9,1032.1z"/>
							<path class="st14" d="M2378.5,1031.9c0.4,0.1,0.7-0.7,0.9-1.6c0.3-1.9,0.7-3.9,1.4-5.8c0.3-0.9,0.3-1.7-0.1-1.8
								c-0.4,0-1,0.7-1.4,1.7c-0.7,1.9-1.1,3.8-1.4,5.7C2377.9,1031.1,2378.1,1031.9,2378.5,1031.9z"/>
						</g>
					</g>
					<path class="st48" d="M2369.7,1017.3c0,0-80.6-36.4-85.2-36.4c-15.6-0.2-12,17.1-4.1,25.3c9.3,9.6,80.1,27.2,80.1,27.2
						L2369.7,1017.3z"/>
					<g>
						<polygon class="st28" points="2337.7,1023.7 2359.7,1000.8 2350.3,990.6 2326.3,1018.3 						"/>
						<path class="st49" d="M2333.1,1005.6c0,0,56-56.4,59.8-58c12.8-5.7,20.7,9.8,20.2,15.2c-0.6,6.9-57.5,63.4-57.5,63.4
							L2333.1,1005.6z"/>
						<g>
							<path class="st40" d="M2300,1025.5c-1.3,1.3-1.5,5.2-1.5,5.2s18.7,7.8,25.2,7.9c1.7,0,4.8-0.7,7.7-1.6
								c0.5-0.1,1.6-1.6,2.1-1.7c0.9-0.3,1.1,0.7,1.9,0.4c2-0.7,3.4-1.3,3.5-1.4c3.9-9.2,2.6-13.8,2.6-13.8s-8.6,2.7-7.1,0.6
								c3.1-4.5-5.8-9.1-7.9-6.7C2318.5,1024,2303.7,1021.6,2300,1025.5z"/>
							<path class="st14" d="M2298.9,1027.4c5.7,2.5,17.8,7.7,20.2,7.9c9.8,0.8,16.7-3.1,21.3-5.3c-0.4,1.3-0.9,2.8-1.6,4.4
								c0,0.1-1.5,0.7-3.5,1.4c-0.8,0.3-1-0.7-1.9-0.4c-0.5,0.2-1.6,1.6-2.1,1.7c-2.9,0.9-6,1.7-7.7,1.6c-6.6-0.1-25.2-7.9-25.2-7.9
								S2298.5,1028.9,2298.9,1027.4z"/>
							<g>
								<path class="st14" d="M2312.1,1021.4c-0.2,0.4,0.6,0.8,1.6,1c2.1,0.5,4.2,1.2,6.3,2.1c1,0.5,2,0.6,2.1,0.2s-0.6-1.1-1.6-1.6
									c-2-0.9-4.1-1.6-6.2-2C2313.3,1020.9,2312.3,1021,2312.1,1021.4z"/>
								<path class="st14" d="M2316.3,1019.8c-0.2,0.4,0.6,0.9,1.6,1.2c2.1,0.7,4.1,1.5,6.1,2.6c1,0.5,1.9,0.7,2,0.3
									c0.1-0.4-0.5-1.2-1.5-1.8c-2-1.1-4-1.9-6-2.5C2317.4,1019.3,2316.5,1019.4,2316.3,1019.8z"/>
								<path class="st14" d="M2320.3,1018.3c-0.1,0.4,0.5,1,1.5,1.4c2,0.8,4,1.9,5.9,3.1c0.9,0.6,1.8,0.8,1.9,0.4
									c0.1-0.4-0.5-1.3-1.5-1.9c-1.9-1.2-3.9-2.2-5.8-3C2321.4,1017.9,2320.5,1018,2320.3,1018.3z"/>
							</g>
						</g>
					</g>
				</g>
			</g>
		</g>
		<g>
			<g>
				<defs>
					<rect id="SVGID_33_" x="1435" y="175.2" width="1129.5" height="966.2"/>
				</defs>
				<clipPath id="SVGID_34_">
					<use xlink:href="#SVGID_33_"  style="overflow:visible;"/>
				</clipPath>
				<path class="st50" d="M2104.2,638v10l-10.2-10h-39.8c-2.5,0-4.6-2.2-4.6-5v-62.5c0-2.8,2-5,4.6-5h63.7c2.5,0,4.6,2.2,4.6,5V633
					c0,2.8-2,5-4.6,5h-6.8H2104.2z"/>
			</g>
		</g>
		<g>
			<g>
				<defs>
					<rect id="SVGID_35_" x="1435" y="175.2" width="1129.5" height="966.2"/>
				</defs>
				<clipPath id="SVGID_36_">
					<use xlink:href="#SVGID_35_"  style="overflow:visible;"/>
				</clipPath>
				<g class="st51">
					<path class="st14" d="M2065.5,623c0,0,0-1.6,0-2.5c0-8.3,6.1-15,13.7-15c2.5,0,11.2,0,13.7,0c7.5,0,13.7,6.7,13.7,15
						c0,0.9,0,2.5,0,2.5H2065.5z"/>
					<path class="st14" d="M2076.9,588c0,5.5,4.1,10,9.1,10s9.1-4.5,9.1-10s-4.1-10-9.1-10S2076.9,582.5,2076.9,588z"/>
				</g>
			</g>
		</g>
		<g>
			<g>
				<defs>
					<rect id="SVGID_37_" x="1435" y="175.2" width="1129.5" height="966.2"/>
				</defs>
				<clipPath id="SVGID_38_">
					<use xlink:href="#SVGID_37_"  style="overflow:visible;"/>
				</clipPath>
				<g class="st52">
					<g>
						<g>
							<path class="st10" d="M2179.5,481.4c0,2.5-1.9,4.5-4.1,4.5h-136.8c-2.3,0-4.1-2-4.1-4.5v-37l-5.7-7.1l5.7-8.2v-5.9
								c0-2.5,1.9-4.5,4.1-4.5h136.8c2.3,0,4.1,2,4.1,4.5V481.4z"/>
							<g>
								<rect x="2045.2" y="429.2" class="st11" width="31.1" height="5.4"/>
								<rect x="2080.5" y="429.2" class="st11" width="37.7" height="5.4"/>
								<rect x="2123.1" y="429.2" class="st11" width="14.1" height="5.4"/>
								<rect x="2045.2" y="442.4" class="st11" width="49.5" height="5.4"/>
								<rect x="2098.2" y="442.4" class="st11" width="8" height="5.4"/>
								<rect x="2111.1" y="442.4" class="st11" width="57.9" height="5.4"/>
								<rect x="2045.2" y="455.6" class="st11" width="12.7" height="5.4"/>
								<rect x="2062.1" y="455.6" class="st11" width="50.2" height="5.4"/>
								<rect x="2115.8" y="455.6" class="st11" width="29.9" height="5.4"/>
								<rect x="2045.2" y="468.8" class="st11" width="62.2" height="5.4"/>
								<rect x="2112.3" y="468.8" class="st11" width="13" height="5.4"/>
								<rect x="2130.9" y="468.8" class="st11" width="33.2" height="5.4"/>
							</g>
						</g>
						<g>
							<path class="st10" d="M2051.4,530.5c0,2.5,1.9,4.5,4.1,4.5h135.9c2.3,0,4.1-2,4.1-4.5v-7.1l5.7-7.1l-5.7-8.2v-5.9
								c0-2.5-1.9-4.5-4.1-4.5h-135.9c-2.3,0-4.1,2-4.1,4.5V530.5z"/>
							<g>
								<rect x="2159.6" y="513.5" class="st11" width="8.8" height="5.4"/>
								<rect x="2127.8" y="513.5" class="st11" width="28.3" height="5.4"/>
								<rect x="2064.9" y="513.5" class="st11" width="57.9" height="5.4"/>
							</g>
						</g>
					</g>
					<g>
						<path class="st11" d="M2230.1,494.6c-10.6,0-19.1,9.4-19.1,21s8.6,21,19.1,21c10.6,0,19.1-9.4,19.1-21
							C2249.2,504,2240.7,494.6,2230.1,494.6z"/>
						<path class="st10" d="M2237.2,516.7c-1.5-0.8-3.2-1.3-4.8-1.5c0.1-0.4,0.1-0.9,0.2-1.3c0.4-0.3,0.6-0.6,0.7-1
							c0-0.4,0.1-0.8,0.1-1.2c0.1,0.1,0.1,0.1,0.2,0.1c0.2,0,0.3-0.1,0.4-0.3l0.2-1.9c0-0.2-0.1-0.4-0.3-0.4c-0.1,0-0.1,0-0.2,0
							c0-0.4,0.1-0.7,0.1-1.1c0-0.5,0.2-1.8-0.6-2.6c-1.2-1.3-3.9-1.3-5.2,0c-0.9,0.8-0.6,2.1-0.6,2.6c0,0.4,0.1,0.7,0.1,1.1
							c-0.1,0-0.1-0.1-0.2,0c-0.2,0-0.3,0.2-0.3,0.4l0.2,1.9c0,0.2,0.2,0.3,0.3,0.3s0.2-0.1,0.2-0.1c0,0.4,0.1,0.8,0.1,1.2
							c0,0.3,0.3,0.7,0.7,1c0.1,0.4,0.1,0.9,0.2,1.3c-1.7,0.2-3.3,0.7-4.8,1.5c-0.5,0.3-0.8,1-0.8,1.6c0.1,0.7,0.1,1.3,0.2,2
							c0.1,0.6,0.5,1.1,1,1.2c4.2,0.7,8.4,0.7,12.6,0c0.5-0.1,0.9-0.7,1-1.2c0.1-0.7,0.1-1.3,0.2-2
							C2238,517.8,2237.7,517,2237.2,516.7z"/>
					</g>
					<g>
						<path class="st10" d="M2004.5,415.7c-10.6,0-19.1,9.4-19.1,21s8.6,21,19.1,21c10.6,0,19.1-9.4,19.1-21
							S2015.1,415.7,2004.5,415.7z"/>
						<path class="st11" d="M2011.6,437.8c-1.5-0.8-3.2-1.3-4.8-1.5c0.1-0.4,0.1-0.9,0.2-1.3c0.4-0.3,0.6-0.6,0.7-1
							c0-0.4,0.1-0.8,0.1-1.2c0.1,0.1,0.1,0.1,0.2,0.1c0.2,0,0.3-0.1,0.4-0.3l0.2-1.9c0-0.2-0.1-0.4-0.3-0.4c-0.1,0-0.1,0-0.2,0
							c0-0.4,0.1-0.7,0.1-1.1c0-0.5,0.2-1.8-0.6-2.6c-1.2-1.3-3.9-1.3-5.2,0c-0.9,0.8-0.6,2.1-0.6,2.6c0,0.4,0.1,0.7,0.1,1.1
							c-0.1,0-0.1-0.1-0.2,0c-0.2,0-0.3,0.2-0.3,0.4l0.2,1.9c0,0.2,0.2,0.3,0.3,0.3c0.1,0,0.2-0.1,0.2-0.1c0,0.4,0.1,0.8,0.1,1.2
							c0,0.3,0.3,0.7,0.7,1c0.1,0.4,0.1,0.9,0.2,1.3c-1.7,0.2-3.3,0.7-4.8,1.5c-0.5,0.3-0.8,1-0.8,1.6c0.1,0.7,0.1,1.3,0.2,2
							c0.1,0.6,0.5,1.1,1,1.2c4.2,0.7,8.4,0.7,12.6,0c0.5-0.1,0.9-0.7,1-1.2c0.1-0.7,0.1-1.3,0.2-2
							C2012.4,438.9,2012,438.1,2011.6,437.8z"/>
					</g>
				</g>
			</g>
		</g>
		<g>
			<g>
				<defs>
					<rect id="SVGID_39_" x="1435" y="175.2" width="1129.5" height="966.2"/>
				</defs>
				<clipPath id="SVGID_40_">
					<use xlink:href="#SVGID_39_"  style="overflow:visible;"/>
				</clipPath>
				<path class="st53" d="M1769.1,498.9c-15.3,0-27.7-13.6-27.7-30.4v-7.6c0-2.1,1.6-3.8,3.5-3.8h6.9c0.8,0,1.1,0.3,1.2,0.4
					c0.5,0.5,0.5,1.4,0.5,2.9v8.6c0,1.4,0,2.3-0.5,2.9c-0.1,0.1-0.4,0.4-1.2,0.4l-1.9,0.1l0.2,2.1c0.9,7.8,6.4,13.9,13.5,14.8
					l1.9,0.3v-2.1c0-0.9,0.3-1.2,0.4-1.3c0.4-0.5,1.1-0.5,2.2-0.5h8.7c1.1,0,1.7,0.1,2.2,0.5c0.1,0.1,0.4,0.4,0.4,1.4v7.6
					c0,2.1-1.6,3.8-3.5,3.8L1769.1,498.9L1769.1,498.9z"/>
			</g>
		</g>
	</g>
</g>
</svg>
