<?xml version="1.0" encoding="utf-8"?>
<!-- Generator: Adobe Illustrator 24.0.1, SVG Export Plug-In . SVG Version: 6.00 Build 0)  -->
<svg version="1.1" id="Layer_1" xmlns="http://www.w3.org/2000/svg" xmlns:xlink="http://www.w3.org/1999/xlink" x="0px" y="0px"
	 viewBox="0 0 2560 1200" style="enable-background:new 0 0 2560 1200;" xml:space="preserve">
<style type="text/css">
	.st0{fill:#05031B;}
	.st1{fill:#EFC55E;}
	.st2{fill:#6C5BDD;}
	.st3{fill:#CB0111;}
	.st4{fill:#E1E1E1;}
	.st5{fill:#E4BF47;}
	.st6{fill:#DBA585;}
	.st7{fill:#BD8A6D;}
	.st8{fill:#C99A7D;}
	.st9{fill:#D88B35;}
	.st10{fill:#2C2E46;}
	.st11{fill:#EECAA2;}
	.st12{fill:#DBA686;}
	.st13{fill:#CFC3BC;}
	.st14{fill:#F3E4DC;}
	.st15{fill:#B1A69F;}
	.st16{fill:#54588B;}
	.st17{fill:#997761;}
	.st18{fill:url(#SVGID_1_);}
	.st19{fill:url(#SVGID_2_);}
	.st20{fill:#2E3D6E;}
	.st21{fill:#F0C85E;}
	.st22{fill:#E6E6E6;}
	.st23{fill:#3E4148;}
	.st24{fill:#BC9E4B;}
	.st25{fill:#484D90;}
	.st26{fill:#353967;}
	.st27{fill:#6588F5;}
	.st28{fill:url(#SVGID_3_);}
	.st29{fill:url(#SVGID_4_);}
	.st30{fill:url(#SVGID_5_);}
	.st31{fill:#E9A55B;}
	.st32{fill:#E8A35B;}
	.st33{fill:#838383;}
	.st34{fill:#DCD0C8;}
	.st35{fill:#2E3048;}
	.st36{fill:#222333;}
	.st37{fill:#363957;}
	.st38{fill:#292A3F;}
	.st39{fill:#2D2F46;}
	.st40{fill:#E6D8D1;}
	.st41{fill:#252638;}
	.st42{fill:#525686;}
	.st43{fill:#CFC3BD;}
	.st44{fill:#1F2531;}
	.st45{fill:#B74242;}
	.st46{fill:#A59E93;}
	.st47{fill:#8C867F;}
	.st48{fill:#6C6760;}
	.st49{fill:#6D6865;}
	.st50{fill:#CB4949;}
	.st51{fill:#C4957A;}
	.st52{fill:#191A24;}
	.st53{fill:#8E633F;}
	.st54{fill:#98A246;}
	.st55{fill:#765334;}
	.st56{fill:#B27A4B;}
	.st57{fill:#3A3D5D;}
	.st58{fill:#42466C;}
	.st59{fill:#CD7250;}
	.st60{fill:#C8BCB6;}
	.st61{fill:#4C507D;}
	.st62{fill:#6D76BA;}
	.st63{fill:#2A2B41;}
	.st64{fill:#414469;}
	.st65{fill:#FFFFFF;}
	.st66{fill:#F4DA81;}
</style>
<g>
	<rect class="st0" width="2560" height="1200"/>
</g>
<g>
	<g>
		<g>
			<polygon class="st1" points="2182.3,636.8 2123.5,636.8 2123.5,679.4 2173.4,679.4 2182.3,688.4 			"/>
		</g>
		<g>
			<polygon class="st2" points="1655.6,530.1 1726.1,530.1 1738.8,542.8 1738.8,530.1 1738.8,469.8 1655.6,469.8 			"/>
		</g>
		<g>
			<path class="st3" d="M1832.8,791.6c0-78.3,6.1-111.7,18.2-141.3c12.1-29.6,37.2-55.3,75.1-77.4c11.4-6.8,25.4-14.6,42.1-23.3
				c16.7-8.7,33-19.2,49-31.3s29.4-26.4,40.4-42.6c11-16.3,16.5-35.1,16.5-56.3c0-16-3-30-9.1-42.1c-6.1-12.1-14.1-22.3-23.9-30.7
				c-9.9-8.3-21.4-14.6-34.7-18.7s-26.8-6.2-40.4-6.2c-16.7,0-31.8,2.9-45.5,8.5c-13.7,5.7-26,12.9-37,21.6
				c-11,8.8-20.9,18.6-29.6,29.6c-8.8,11-16.1,21.4-22.2,31.3l-99-68.3c9.8-23.5,22.9-44.4,39.3-62.5c16.3-18.2,34.9-33.6,55.7-46.1
				c20.9-12.5,43.4-22,67.7-28.4c24.2-6.5,49.3-9.7,75.1-9.7c28.8,0,57.3,4.2,85.3,12.5c28.1,8.3,53.3,21.6,75.6,39.8
				c22.3,18.2,40.6,41.5,54.6,70c14,28.4,21,62.4,21,101.8c0,24.3-2.9,45.7-8.5,64.3c-5.6,18.6-13.8,35.4-24.5,50.7
				c-10.6,15.1-23.2,28.8-37.6,40.9c-14.4,12.1-30.7,23.9-49,35.3c-15.1,9.1-30.4,17.8-45.5,26.2c-15.1,8.3-29,17.6-41.5,27.9
				c-12.5,10.2-22.8,22-30.7,35.3c-7.9,13.3-12,29.4-12,89.6h-125.1V791.6z M1835.1,1015.5v-157h126.3v157H1835.1z"/>
		</g>
		<g>
			<path class="st4" d="M1767,604.8h-178.5c-3.1,0-5.6-2.5-5.6-5.6l0,0c0-3.1,2.5-5.6,5.6-5.6H1767c3.1,0,5.6,2.5,5.6,5.6l0,0
				C1772.5,602.4,1770.1,604.8,1767,604.8z"/>
			<path class="st4" d="M1709.2,699.8h-120.7c-3.1,0-5.6-2.5-5.6-5.6l0,0c0-3.1,2.5-5.6,5.6-5.6h120.7c3.1,0,5.6,2.5,5.6,5.6l0,0
				C1714.7,697.3,1712.3,699.8,1709.2,699.8z"/>
			<path class="st4" d="M1687.2,628.6h-98.6c-3.1,0-5.6-2.5-5.6-5.6l0,0c0-3.1,2.5-5.6,5.6-5.6h98.6c3.1,0,5.6,2.5,5.6,5.6l0,0
				C1692.7,626.1,1690.3,628.6,1687.2,628.6z"/>
			<path class="st4" d="M1726.9,652.3h-138.4c-3.1,0-5.6-2.5-5.6-5.6l0,0c0-3.1,2.5-5.6,5.6-5.6h138.4c3.1,0,5.6,2.5,5.6,5.6l0,0
				C1732.5,649.9,1730,652.3,1726.9,652.3z"/>
			<path class="st4" d="M1641.1,676.1h-52.6c-3.1,0-5.6-2.5-5.6-5.6l0,0c0-3.1,2.5-5.6,5.6-5.6h52.6c3.1,0,5.6,2.5,5.6,5.6l0,0
				C1646.7,673.6,1644.2,676.1,1641.1,676.1z"/>
			<path class="st5" d="M1641.1,581.4h-52.6c-3.1,0-5.6-2.5-5.6-5.6l0,0c0-3.1,2.5-5.6,5.6-5.6h52.6c3.1,0,5.6,2.5,5.6,5.6l0,0
				C1646.7,578.9,1644.2,581.4,1641.1,581.4z"/>
		</g>
		<g>
			<g>
				<g>
					<path class="st6" d="M1983.6,663.7c0,0-7.9-10.3-9-12c-1.1-1.6-1.1-7.5,0.4-13.7c1.6-6,2.7-14.6,3.7-15.1
						c1-0.6,1.6-1.5,4.4-1.2c2.9,0.2,5.1,2,5.1,2s3.6-1.3,6.2,1.1c0,0,3.4-1.1,6,2.1c0,0,3.4-1,5.1,1.5c0,0,0.2,5.6,0.7,7.5
						c0.7,2-0.8,16.6-3,27.7C2003.1,663.5,1998.5,670.1,1983.6,663.7z"/>
				</g>
			</g>
			<g>
				<g>
					<path class="st7" d="M1986.8,645.6c0,0,5.6,3.3,6.8,5c1.1,1.7,10.5-9.3,10.5-9.3S1991,638.9,1986.8,645.6z"/>
				</g>
			</g>
			<g>
				<g>
					<path class="st8" d="M1978.3,624.6c0,0-0.7,16.1,2,16.5c2.6,0.4,3.8-1,3.8-1l2.8,6.8c0,0,4.3,3.4,6.9-2.3c0,0,3.8,3.7,5.5-2.2
						c0,0,3.5,1.3,4.8-1.2c1.3-2.5,1.3-12.9,1.3-12.9s-0.9-2.5-5-1.9c0,0-2.2-3-6-2c0,0-3.7-2.9-7.7-1.7c0,0-4.3-2.6-8.2,0.2
						C1978.6,622.9,1978.4,623.9,1978.3,624.6z"/>
				</g>
			</g>
			<g>
				<g>
					<path class="st6" d="M1974.6,651.2c0,0,5.5-9.7,10.8-13.6c1.2-0.9,2.5-1.6,3.8-0.7c1.3,0.7,1.8,3.6-0.3,7.9
						c-2.1,4.3-2.9,10.8-2.9,10.8S1982.3,659.4,1974.6,651.2z"/>
				</g>
			</g>
			<g>
				<path class="st6" d="M1986.7,622.8c0,0-2.9,17.3-2.1,18.9c0.7,1.6-5.7,0.7-6.2-0.8c-0.5-1.5-0.4-16-0.1-17.5
					C1978.7,622,1983.8,619.3,1986.7,622.8z"/>
			</g>
			<g>
				<path class="st6" d="M1977.4,626.5c0,0,4.9-28.2,8.2-27.9c3.2,0.3,4.7,7.1,0.2,28.7C1981.3,648.3,1977.4,626.5,1977.4,626.5z"/>
			</g>
			<path class="st6" d="M2003.1,663.5c0,0-3,7.4-5.9,10.6c-2.9,3.2-12.5-4.4-13.8-10.4C1982.3,657.8,2003.1,663.5,2003.1,663.5z"/>
			<g>
				<rect x="1801.4" y="525.8" class="st9" width="1.6" height="37.8"/>
			</g>
			<path class="st10" d="M1927.6,524.9L1846,551l-81.5-26.1L1846,495L1927.6,524.9z"/>
			<path class="st11" d="M1876.5,578.1c0,0,26.9,56.2,8.3,59.5c-25.4,4.6-35.6-41.9-35.6-41.9L1876.5,578.1z"/>
			<path class="st10" d="M1910.3,728.6c7,10.5,22.1,24.5,29.6,24.4c4.8-0.1,82.4-67.2,82.4-71.1c0-4.4-45.1-23.5-45.1-23.5
				s-13.1,16-20.4,26c-8.3,11.5-14.9,19.2-17.4,21c-2.5,1.7-13.7-17.4-13.7-17.4c-5.3-9.1-11.3-19.2-19.5-35
				c-7.9-15.2-39.1-25-39.1-25c-37.2,16.6,32.3,82.4,32.3,82.4S1907,723.8,1910.3,728.6z"/>
			<path class="st10" d="M1923.2,861h-154.8c0.2-3.3,0.5-6.5,0.7-9.7c2.8-35.8,6-63,9.3-71.9c13.3-35.4-6.6-137.9-6.6-137.9
				s9.4-8.5,45.1-16.4l73.9,15.3c0,0,19.3,14.7,21.1,41.4c1.9,26.7-3.7,98.8,0.3,119.2c0.9,4.5,4.3,23.4,9.1,50.3
				C1922,854.3,1922.6,857.6,1923.2,861z"/>
			<g>
				<path class="st6" d="M1861.9,604.3c0,0-3.2,29.5-2.5,39c0,0-16.8,16.7-35.9-19.5c0,0,8-14.9,2-35.3
					C1819.4,568.2,1861.9,604.3,1861.9,604.3z"/>
			</g>
			<g>
				<polygon class="st6" points="1859.4,643.4 1859.4,658.6 1840,644.3 				"/>
			</g>
			<path class="st12" d="M1816.4,552.8c0,0-3.5-4.2-4.8,0c-1.3,4.3,3,16.9,3.4,18.7c0,0,2.1,7,3,6.1
				C1818.9,576.7,1816.4,552.8,1816.4,552.8z"/>
			<path class="st12" d="M1878.1,553.3c0,0,3.5-4.2,4.8,0c1.3,4.3-3,16.9-3.4,18.7c0,0-2.1,7-3,6.1
				C1875.6,577.2,1878.1,553.3,1878.1,553.3z"/>
			<path class="st12" d="M1852.8,512.5c0,0,32.4,4.9,27.7,55.6s-33.3,46.6-35.3,46.6c-1.9-0.1-28.7,1.1-31-60.7
				C1814.2,553.9,1813.1,508.2,1852.8,512.5z"/>
			<path class="st11" d="M1820.4,550.9c0,0,35.9,10.6,53.2,7.2c0,0,1.1,6.3,3.6,6.7c2.5,0.4,3.8-12,3.8-12s0.8-41.2-36.7-41.6
				c-37.6-0.4-30,44.6-30,44.6l0.5,7.7C1814.8,563.5,1820.2,565.5,1820.4,550.9z"/>
			<path class="st9" d="M1867.2,627.9v56.2l25.4-44.5C1892.5,639.6,1883,630.8,1867.2,627.9z"/>
			<g>
				<path class="st13" d="M1859.4,658.6l9.8-11.4l-8.5-30C1860.6,617.2,1857.8,633.9,1859.4,658.6z"/>
			</g>
			<g>
				<polygon class="st14" points="1869.2,647.2 1882.4,652.9 1860.6,617.2 				"/>
			</g>
			<polygon class="st15" points="1867.2,684.2 1867.2,649.5 1859.4,658.6 1849.6,651.1 1844.6,657.6 			"/>
			<g>
				<polygon class="st13" points="1859.4,658.6 1851.3,648.8 1824.3,622 1819.6,628.2 				"/>
			</g>
			<path class="st10" d="M1802.7,851.2c1.3,4.3,2.3,7.6,2.9,9.7h-50.8c-0.3-3.1,1.1-6.3,1-9.7c-0.9-19.3-0.8-29.1-1.4-43.3
				c-1.4-33.8,0.7-57.1,1.1-62.8c0.3-5.7-0.2-40.4,1.1-48.8c1.4-8.4-3.6-25.9,5.6-43.7s35.2-22.4,35.2-22.4
				c22.5,7.4,0.7,50.8-2.4,72c-3,21-12.7,69.8-7.2,94.8C1791.5,813.3,1798.4,837.1,1802.7,851.2z"/>
			<path class="st9" d="M1816.9,625.1l50.3,59.1l-93.1-44.4C1774.1,639.8,1792.6,626,1816.9,625.1z"/>
			<g>
				<polygon class="st14" points="1851.3,648.8 1840,663.5 1816.9,625.1 1824.3,622 				"/>
			</g>
			<path class="st9" d="M1802.1,562.4L1802.1,562.4C1802.1,562.3,1802.1,562.3,1802.1,562.4C1802.1,562.3,1802.1,562.3,1802.1,562.4
				L1802.1,562.4c-3.7,0.2-3.3,18.6-3.3,18.6h3.2h0.1h3.2C1805.3,581,1805.8,562.6,1802.1,562.4z"/>
			<path class="st10" d="M1879,530.3c0,0-4.3-26.5-32.9-23.7c-28.7,2.9-30.6,12.4-32.8,26L1879,530.3z"/>
			<path class="st16" d="M1879.9,543c0,0-21-10.2-66.2,0.8l-0.4-11.3c0,0,0.7-0.2,2-0.7c7.8-2.5,36.6-10.8,62.1-2.1
				c0.5,0.2,1,0.3,1.6,0.6L1879.9,543L1879.9,543z"/>
			<path class="st17" d="M1830.4,608c0,0,10.6,13.1,28.4,4c0,0-5.9,9.6-15.1,8.9C1834.6,620.3,1830.4,608,1830.4,608z"/>
			
				<linearGradient id="SVGID_1_" gradientUnits="userSpaceOnUse" x1="1709.0928" y1="343.8941" x2="1981.1992" y2="343.8941" gradientTransform="matrix(1 0 0 -1 0 1200)">
				<stop  offset="0" style="stop-color:#8A5CFA"/>
				<stop  offset="0.9948" style="stop-color:#4A59BA"/>
			</linearGradient>
			<rect x="1709.1" y="851.2" class="st18" width="272.1" height="9.7"/>
		</g>
		<g>
			<g>
				
					<linearGradient id="SVGID_2_" gradientUnits="userSpaceOnUse" x1="2014.0513" y1="468.299" x2="2014.0513" y2="180.1501" gradientTransform="matrix(1 0 0 -1 0 1200)">
					<stop  offset="0" style="stop-color:#8A5CFA"/>
					<stop  offset="0.9948" style="stop-color:#4A59BA"/>
				</linearGradient>
				<path class="st19" d="M2138.6,854.7c0,96.1-2.7,114.9-26.9,136.5c-9.4,8.4-26.9,25.9-76.9,34.7c-15.1,2.6-33.1,4.4-54.7,5
					c-8.8,0.2-16.9-0.1-24.3-0.9c-6.2-0.7-12-1.7-17.2-3c-55.1-13.8-59.3-61.1-35.1-100.8c6.4-10.6,13.7-20.2,21.4-29.2
					c11.8-13.9,24.5-26.3,35.9-37.8c10.6-10.6,20.1-20.5,27.1-30.4c2.9-4.2,5.4-8.3,7.3-12.4c0.4-1,0.9-2,1.3-2.9
					c1.5-3.1,3-6.1,4.6-9c2.9-5.4,5.8-10.3,8.7-14.7c2.3-3.5,4.5-6.7,6.5-9.6c7-9.7,12.3-15.2,12.3-15.2s0.7-0.3,1.9-0.8
					c0.7-0.2,1.5-0.6,2.4-1c0.4-0.2,0.7-0.3,1.2-0.5c0.4-0.2,0.9-0.3,1.3-0.5c0.4-0.2,0.9-0.3,1.3-0.5c0.6-0.2,1.1-0.3,1.6-0.6
					c0.3-0.1,0.7-0.2,1.1-0.3c0.2-0.1,0.4-0.2,0.7-0.2c0.1,0,0.2-0.1,0.2-0.1c7.1-2.2,16.9-4.5,27.7-4.8
					C2099.4,754.6,2138.6,770.3,2138.6,854.7z"/>
			</g>
			<g>
				<path class="st20" d="M2010.4,999.4c0,0,0.8,6.5,1.8,9.3c1.1,2.9,6.7,9.4,4.3,15.7c-2.6,6.8-14,0.2-18.6-1.8
					c-4.7-2-3.6-5.9-4.1-10.5c-0.5-4.7-2.8-4.7-1.9-8c0.8-3.3,5.9-9.5,5.9-9.5L2010.4,999.4z"/>
			</g>
			<g>
				<g>
					<path class="st6" d="M2000,991.1c0,0-2.9,4.1-2.9,4.2c0.1,0.1,12.4,7.6,13.3,5.2c0.7-2,1-4.7,1-4.7L2000,991.1z"/>
				</g>
			</g>
			<g>
				<path class="st20" d="M1958.1,1003.9c0,0-3.8,3.3-7.2,8.4c-3.4,5.1-12.4,5.3-12.8,12.3c-0.4,7,12.3,7.1,18.9,4.9
					c6.6-2.3,7.6-9,11.6-10.7c4-1.7,6.1-3,5.8-6.4c-0.3-3.3-2.5-8.7-2.5-8.7s-2.5,0.8-3.9,1
					C1966.5,1004.8,1961.6,1004.9,1958.1,1003.9z"/>
			</g>
			<g>
				<path class="st21" d="M2003.5,815.8c0,0-2.5,15.1-4.6,25l0,0c-0.8,4-1.6,7.3-2,8.3c-0.6,1.3-5.3,6.4-11.2,12.4
					c-10.2,10.6-23.7,23.8-23.7,23.8l-5.3-10.1c0,0,12-14.1,20.1-23.5c3.8-4.3,6.7-7.7,7.3-8.2c1.7-1.6,3.7-16.5,6.5-28.9
					c2.8-12.4,8.3-19.2,8.3-19.2L2003.5,815.8z"/>
			</g>
			<g>
				<path class="st6" d="M1985.7,861.5c-10.2,10.6-23.7,23.8-23.7,23.8l-5.3-10.1c0,0,12-14.1,20.1-23.5
					C1979.3,853,1983.9,856,1985.7,861.5z"/>
			</g>
			<g>
				<path class="st6" d="M1958.7,999.3l-0.6,4.6c0,0,6.5,2.3,13.8-0.2l0.2-4.1L1958.7,999.3z"/>
			</g>
			<g>
				<path class="st21" d="M2052,883.3c0.4,1.3-69.6,0-69.6,0s19.4-14.1,20.6-17.8s-4.9-26.4-5.7-33.7c-0.7-5.9-2.3-32.2,1.6-36.2
					c4.1-4.2,18.7-8.6,18.7-8.6l21.3,0.8c0,0,3.5,0.7,6.1,1.9c2.5,1.1,16.9,6.3,19.2,13.4c2.3,7.2-14.3,30.2-14.3,30.2
					s0,1.1-0.1,2.7l0,0c-0.1,2.3-0.2,5.7-0.2,9.4c-0.1,4.8-0.2,10.2-0.2,14.1C2049.1,868.7,2051.6,881.9,2052,883.3z"/>
			</g>
			<g>
				<path class="st22" d="M2052,883.3c0,0,9.5,14,9.7,23.5c0.2,9.6-16.9,41.5-19.5,46.1c-7.8,13.8-29,43.4-29,43.4
					s-3.7-0.1-15.1-4.5c0,0,14.2-39.2,16-43.2c7.6-17.3,11.9-29.5,9.3-32.4c-2.5-2.9-9.5-5.9-11.5-7.7c-2-1.7-37.2,6.6-40.8,7.6
					c-9.5,2.5-5.2,19.1-3.1,26.5c3.5,12.4,6.6,57.4,6.6,57.4s-6.8,2.9-18.2,0.4c0,0-22.3-81.1-23.1-89.2
					c-0.7-8.1-1.1-21.4,53.9-31.5L2052,883.3z"/>
			</g>
			<g>
				<path class="st6" d="M2023.4,740.7c0,0-18.5-4.2-14.2,19.1c4.3,23.2,8.7,25,19.8,20.3c11.1-4.8,10.2-19.7,10.7-27
					C2040.1,745.7,2029.3,741,2023.4,740.7z"/>
			</g>
			<g>
				<path class="st6" d="M2018.4,792.9c0,0,8.2,8.7,21.1,0.8c0,0-2.9-18.8-1.4-27.9c1.6-9.2-16.9,14.2-16.9,14.2
					c0.2,0.2,0.4,1,0.4,2.2c0,1.1,0,2.4-0.2,3.7C2021.2,788.9,2020.2,792.1,2018.4,792.9z"/>
			</g>
			<g>
				<path class="st23" d="M2038.7,765c0,0-0.5-7.3-3.1-7.5c-2.7-0.2-3.1,2.7-3.1,2.7l-2.7,0.5c0,0,0.8-6.4-1.8-7.5
					c-2.7-1.1-17.3,3.5-19.5,1.6c-2.1-1.9-1.1-14.9,2.7-16.7c3.8-1.8,14.6-5.8,22.4-0.5c0,0,6.1-0.7,7,4.3
					C2041.6,746.8,2040.4,761.3,2038.7,765z"/>
			</g>
			<g>
				<path class="st17" d="M2021.6,785.9c13.3-4.1,14.3-12.1,14.3-12.3c-4.4,7.5-14.2,8.5-14.2,8.5
					C2021.8,783.2,2021.7,784.5,2021.6,785.9z"/>
			</g>
			<g>
				<path class="st6" d="M2045.1,789.7c0,0-9.7,19.5-25.5,18.2c-15.8-1.2-2.7-20.8-2-21C2018.3,786.7,2033.7,782.9,2045.1,789.7z"/>
			</g>
			<g>
				<path class="st21" d="M1974.3,882.3c0,0,48.4,6,77.6,1l-56-7C1996,876.3,1995.7,877.8,1974.3,882.3z"/>
			</g>
			<g>
				<path class="st6" d="M2010.5,874.1l-3.6,1.8c0,0,0.8,5.7,2.8,7.4l4-1.1C2013.8,882.3,2012.9,876.1,2010.5,874.1z"/>
			</g>
			<g>
				<path class="st21" d="M2066.4,862.4c-0.7,0.8-10.2,4.7-21,8.8l0,0c-14.7,5.6-31.2,11-31.2,11l-3.8-8.1c0,0,17.4-9.4,29.1-16
					c5.6-3.1,9.8-5.6,10.4-6.2c1.9-1.8,2.4-4.7,1-9.7c-1.4-5-4.6-28.1-4.9-30.8s0.9-9.8,7.6-10.2c6.7-0.3,10.2,1.6,10.2,1.6
					s1.7,0.7,2.9,17C2068,836.1,2068.1,860.4,2066.4,862.4z"/>
			</g>
			<g>
				<path class="st24" d="M2049.6,836L2049.6,836c-0.1,2.3-0.2,5.7-0.2,9.4c-6.5-16-2.8-28.9-2.7-29.1
					C2046,820.7,2049.6,835.8,2049.6,836z"/>
			</g>
			<g>
				<path class="st24" d="M1999,840.8L1999,840.8c-0.8,4-1.6,7.3-2,8.3c-2.2-10.8-0.2-24.7-0.2-24.7C1997,831,1999,840.8,1999,840.8
					z"/>
			</g>
			<g>
				<path class="st6" d="M2045.5,871.2L2045.5,871.2c-14.7,5.6-31.8,11.1-31.8,11.1l-3.3-8.3c0,0,17.4-9.4,29.1-16
					C2039.6,858.1,2043.8,860.2,2045.5,871.2z"/>
			</g>
			<g>
				<polygon class="st25" points="2009.4,882.8 1940.8,881.9 1975.5,899.5 				"/>
			</g>
			<g>
				<polygon class="st26" points="1975.5,899.5 2009.4,886.3 2009.4,882.8 1972.8,896.1 				"/>
			</g>
			<g>
				<g>
					<path class="st6" d="M2007.7,876c0,0-4.3-0.7-7.3-1.4c-2.3-0.6-8,0.2-9.5,1.6c-1.5,1.5-6.1,11.7-7,12.4c-0.9,0.7,0.4,2,2,1.3
						c0,0,1.4,4.5,4.9,2.8c3.5-1.7,5.8-5.3,7.7-6c1.8-0.7,12.4-3.9,12.4-3.9S2010.4,875,2007.7,876z"/>
				</g>
			</g>
			<g>
				<g>
					<path class="st6" d="M1992,875.7c0,0-2.8,1.3-3.4,2c-0.7,0.6-3.6,2.8-4.3,3.3c-0.7,0.5,1.1,2,6.3-0.2
						C1995.7,878.4,1992,875.7,1992,875.7z"/>
				</g>
			</g>
			<g>
				<polygon class="st26" points="1975.5,899.5 1955,843.6 1889.1,844.7 1908.6,896.1 				"/>
			</g>
			<g>
				<path class="st27" d="M1934,868.3c2,4,1.4,8.4-1.4,9.7c-2.8,1.4-6.6-0.7-8.7-4.7c-2-4-1.4-8.4,1.4-9.7
					C1928.1,862.1,1931.9,864.3,1934,868.3z"/>
			</g>
			<g>
				<path class="st6" d="M2032.5,757c0.2-2,4.3-2.8,4.6,0.2c0.3,3.1-1.9,8.4-3.4,7.9C2032.2,764.7,2032.2,759.8,2032.5,757z"/>
			</g>
		</g>
		<g>
			<g>
				<g>
					
						<linearGradient id="SVGID_3_" gradientUnits="userSpaceOnUse" x1="1819.0322" y1="364.7305" x2="1819.0322" y2="403.7956" gradientTransform="matrix(1 0 0 -1 0 1200)">
						<stop  offset="0" style="stop-color:#E79D5A"/>
						<stop  offset="1" style="stop-color:#F2D05F"/>
					</linearGradient>
					<path class="st28" d="M1839,798.3l-22.4,50.5l-0.6,1.4c-1.1,0.2-2.1-0.2-2.5-0.2l0.5-1.1l22.2-50l-32.3-34.8l-4.8-1.1l0.5-2.3
						l5.6,1.2L1839,798.3z"/>
				</g>
				
					<linearGradient id="SVGID_4_" gradientUnits="userSpaceOnUse" x1="-10054.166" y1="345.8588" x2="-10033.3789" y2="345.8588" gradientTransform="matrix(-1 0 0 -1 -8228.9531 1200)">
					<stop  offset="0" style="stop-color:#E79D5A"/>
					<stop  offset="1" style="stop-color:#F2D05F"/>
				</linearGradient>
				<path class="st29" d="M1804.5,858.6h20.8c0,0,0-0.5-0.2-1.2c-0.7-2.5-2.9-7.7-11-7.7s-9.4,5.2-9.6,7.7
					C1804.4,858.1,1804.5,858.6,1804.5,858.6z"/>
				
					<linearGradient id="SVGID_5_" gradientUnits="userSpaceOnUse" x1="-10032.0869" y1="433.6208" x2="-10012.2559" y2="433.6208" gradientTransform="matrix(-1 0 0 -1 -8228.9531 1200)">
					<stop  offset="0" style="stop-color:#E79D5A"/>
					<stop  offset="1" style="stop-color:#F2D05F"/>
				</linearGradient>
				<path class="st30" d="M1783.3,752.8l1.4,4l8.5,24.1c3.4-1.2,6.2-3.6,7.9-6.5c2.1-3.7,2.7-8.2,1.1-12.4
					C1799.5,754.1,1791,750.1,1783.3,752.8z"/>
				<path class="st31" d="M1817.1,848.9v1.1c-0.4,0.2-0.7,0.2-1.1,0.2c-1.1,0.2-2.1-0.2-2.5-0.2c-0.1,0-0.2-0.1-0.2-0.1v-1.1h0.7
					h2.6L1817.1,848.9z"/>
				<path class="st32" d="M1804.5,858.6h20.8c0,0,0-0.5-0.2-1.2h-20.5C1804.4,858.1,1804.5,858.6,1804.5,858.6z"/>
				<path class="st31" d="M1783.3,752.8l1.4,4c5,3.9,12.7,10.6,16.4,17.5c2.1-3.7,2.7-8.2,1.1-12.4
					C1799.5,754.1,1791,750.1,1783.3,752.8z"/>
			</g>
			<g>
				<g>
					<g>
						<g>
							<path class="st6" d="M1710.6,795.4c0,0,3.6-4.6,4.2-5.2c0.6-0.7,2.8-1.3,5.5-1.8c2.6-0.5,6.3,0.2,6.6,0.5
								c0.3,0.3,0.7,0.6,0.9,1.9c0.1,1.3-0.4,2.5-0.4,2.5s0.8,1.5,0.1,2.9c0,0,0.7,1.4-0.4,2.9c0,0,0.7,1.4-0.2,2.4
								c0,0-2.2,0.7-3,1.1s-5.6,1.5-10.2,1.7C1713.5,804.2,1709.1,802.7,1710.6,795.4z"/>
						</g>
					</g>
				</g>
			</g>
			<g>
				<g>
					<polygon class="st33" points="1606.2,936.5 1585.6,1022.5 1581.1,1022.5 1598.5,936.4 					"/>
				</g>
			</g>
			<g>
				<g>
					<polygon class="st33" points="1628.7,936.5 1608.1,1022.5 1603.6,1022.5 1621,936.4 					"/>
				</g>
			</g>
			<g>
				<g>
					<polygon class="st33" points="1665.1,936.5 1685.7,1022.5 1690.2,1022.5 1672.7,936.4 					"/>
				</g>
			</g>
			<g>
				<g>
					<path class="st34" d="M1684.5,937.4h-88.8c0,0-6.2-0.2-10.3-18.5c-4.7-20.6-14.1-89.5-14.1-89.5s2.5-6.4,41.5-5.6l69.9,90.7
						C1682.8,914.6,1685.2,928.8,1684.5,937.4z"/>
				</g>
			</g>
			<g>
				<g>
					<path class="st6" d="M1687.3,851.5c0,0,4.5-2,7.9-1.1c3.4,0.8,11.4,3.8,15.2,4.3c3.9,0.5,7.7,2.8,7.6,4.1
						c-0.1,1.3-30.3,2.4-30.5-0.6C1687.5,855.1,1687.3,851.5,1687.3,851.5z"/>
				</g>
			</g>
			<g>
				<g>
					<g>
						<g>
							<path class="st6" d="M1710.6,795.4c0,0-5.9,3.8-6.1,5.1c-0.2,2,1,8.1,1.1,8c0.2-0.1,8.9-4.4,8.9-4.4L1710.6,795.4z"/>
						</g>
					</g>
				</g>
			</g>
			<g>
				<g>
					<g>
						<path class="st35" d="M1710.4,1007.8c0,0,7.6,4.5,11.1,6.2c3.4,1.7,16.9,2.2,18.2,3.4c1.3,1.2,0.8,5.2-1.4,5.6
							s-18.5,1.8-24,0.6c-5.4-1.3-15.6,0.8-17.8,0.1c-2.2-0.7-0.7-12.9,0.1-15.6C1697.5,1005.5,1710.4,1007.8,1710.4,1007.8z"/>
					</g>
				</g>
			</g>
			<g>
				<g>
					<g>
						<path class="st36" d="M1710.3,1002.7l0.1,5.2c0,0-10.2,1.9-13.8,0.3l0.2-5.6L1710.3,1002.7z"/>
					</g>
				</g>
			</g>
			<g>
				<g>
					<g>
						<path class="st37" d="M1728.2,1007.8c0,0,7.6,4.5,11.1,6.2s16.9,2.2,18.2,3.4c1.3,1.2,0.8,5.2-1.4,5.6s-18.5,1.8-24,0.6
							c-5.4-1.3-15.6,0.8-17.8,0.1c-2.2-0.7-0.7-12.9,0.1-15.6C1715.2,1005.5,1728.2,1007.8,1728.2,1007.8z"/>
					</g>
				</g>
			</g>
			<g>
				<g>
					<g>
						<path class="st36" d="M1728.2,1002.7l0.1,5.2c0,0-10.2,1.9-13.8,0.3l0.2-5.6L1728.2,1002.7z"/>
					</g>
				</g>
			</g>
			<g>
				<g>
					<polygon class="st38" points="1668.2,883.2 1656.7,881.1 1664.4,861.7 					"/>
				</g>
			</g>
			<g>
				<g>
					<path class="st39" d="M1633.6,887.2c0,0,58.2,12.4,67.3,16.2s14.5,5.5,15.2,7.4c0.7,2,14.9,94.2,14.9,94.2h-19.3
						c0,0-15-69.7-16.8-74c-1.8-4.3-73.8-4.5-79-9.7s-9.7-19.5-4.1-32.3C1617.4,876,1633.6,887.2,1633.6,887.2z"/>
				</g>
			</g>
			<g>
				<g>
					<path class="st39" d="M1663,880.6c0,0,66.7,18.7,72.2,27.3c5.6,8.8-22.3,96.9-22.3,96.9h-19.1c0,0,18.4-82.6,16.1-86.2
						c-2.3-3.6-102.8-0.1-84.1-29.9C1644.7,859.1,1663,880.6,1663,880.6z"/>
				</g>
			</g>
			<g>
				<g>
					<path class="st37" d="M1656.1,788c2.5-1.3,10.9,1.6,13.3,5.4c5.7,8.9,16.6,20,16.6,20l24.2-20.4l4.8,12.1l-28.7,24.2
						c-2.5,2-6.1,2-8.3-0.3c-7.5-7.4-23.1-22.8-24.3-26.6C1652.1,797.4,1651.3,790.4,1656.1,788z"/>
				</g>
			</g>
			<g>
				<g>
					<path class="st12" d="M1647.9,736.1c0,0,11.5,2,11.7,21.5c0.1,19.6-7.4,21.4-18.6,18.6c-6.8-1.7-13.2-11.4-10.6-28.2
						C1632.8,731.1,1647.9,736.1,1647.9,736.1z"/>
				</g>
			</g>
			<g>
				<g>
					<path class="st40" d="M1649.4,783c0,0,16,5.8,18.3,9.4c2.4,3.6,0.8,36.3-0.5,48c-1.4,11.7-5.1,36.9-4.2,40.3l-37.1,8.2
						c0,0-12-43.4-12.3-50.3c-0.3-7-9.1-39.1-4.9-41.7c4.2-2.6,22.4-12.9,22.4-12.9L1649.4,783z"/>
				</g>
			</g>
			<g>
				<g>
					<polygon class="st41" points="1625.9,888.8 1624.1,882.1 1663.2,874.6 1663,880.6 					"/>
				</g>
			</g>
			<g>
				<g>
					<polygon class="st42" points="1645.3,877.7 1654.6,875.7 1654.6,883 1645.3,885.2 					"/>
				</g>
			</g>
			<g>
				<g>
					<path class="st37" d="M1641.2,858.6c-0.1,1.9-0.2,3.8-0.3,5.8l0,0c-1.3,21.5-3.3,44-3.3,44c-2.7,2.3-37.1-5.7-37.1-5.7
						s4.3-5.7,8.3-21.7c4.1-15.9,0.9-31.2-3.4-57.1c-4.3-25.9-0.7-25.7-0.7-25.7l26.5-14.4c1.7,6.6,8.8,30.6,10.5,44.4
						C1642.3,833.4,1642,845.3,1641.2,858.6z"/>
				</g>
			</g>
			<g>
				<g>
					<path class="st37" d="M1649.7,783c0,0,7.7,20,11.1,40.4c3.4,20.8,3.2,58.4,6.8,59.3c3.6,0.9,2.5,0.3,2.5,0.3s-0.7-22.8-1-30.3
						c-0.7-16.8,2.4-54.7,1-58.5C1668.5,790.3,1658.1,784.5,1649.7,783z"/>
				</g>
			</g>
			<g>
				<g>
					<path class="st12" d="M1649.1,779.9c0,1.2,0.1,2.4,0.4,3.1c0,0-2,7.9-18.2,1c0,0,3.2-11.9,0-21.8l18.2,11.3
						c0,0-0.2,1.8-0.3,3.8C1649.1,778.1,1649,779,1649.1,779.9z"/>
				</g>
			</g>
			<g>
				<g>
					<path class="st43" d="M1631.9,780.8c0,0,6.3,3,12.7,3.7l-3.1,6.6l-10.2-7.1L1631.9,780.8z"/>
				</g>
			</g>
			<g>
				<g>
					<path class="st43" d="M1644.7,784.4c0,0,4.4-1.5,4.4-3.7l0.6,2.2l-1.8,7L1644.7,784.4z"/>
				</g>
			</g>
			<g>
				<g>
					<path class="st44" d="M1658.2,747.4c0,0,3.3-7,0.9-12s-8.4-2.9-11.3-2.4c-2.8,0.6-8.1-5.6-17.4,2c-9.4,7.5-6.5,15.5-2.5,25
						c4.2,9.5,4.7,10.2,4.7,10.2s0-9.6,1.1-11.3c1.3-2,6.2-3,6.2-3s-3.7-5.1-0.1-7C1643.5,746.9,1651.1,750.5,1658.2,747.4z"/>
				</g>
			</g>
			<g>
				<g>
					<path class="st12" d="M1635.2,753.8c-0.5-1.5-2.9-3.1-4.2-0.4s2,7.4,3.7,7.4S1636.3,757.2,1635.2,753.8z"/>
				</g>
			</g>
			<g>
				<g>
					<path class="st45" d="M1644.7,784.4l2.3,4c0,0-1.1,1.2-4.5,0.7L1644.7,784.4z"/>
				</g>
			</g>
			<g>
				<g>
					<path class="st45" d="M1646.5,788.9c0,0,9.5,28,9.6,47.9c0.1,19.9-1.5,31.8-1.5,31.8l-2.1,3.9l-3-3.6c0,0,2.1-57.8-6.3-79.6
						C1643.1,789.3,1646.1,787.8,1646.5,788.9z"/>
				</g>
			</g>
			<g>
				<g>
					<path class="st37" d="M1607.7,796.8c7-2.9,14.2,6.8,18,16.5s11.2,27.2,11.2,27.2l51.6,8.3l0.7,9.8h-60.1c0,0-22.9-41-24.5-46.2
						C1603,807.4,1602.7,798.8,1607.7,796.8z"/>
				</g>
			</g>
			<g>
				<g>
					<rect x="1670.9" y="858.6" class="st34" width="169.9" height="5.9"/>
				</g>
			</g>
			<rect x="1770.5" y="756.2" class="st46" width="4.1" height="90.7"/>
			<g>
				<path class="st47" d="M1780.6,858.6h30.6v-1.9h-30.6c-1.6,0-2.8-0.4-3.4-1.1c-0.8-0.9-0.7-2.1-0.7-2.1v-0.1v-0.1v-39.5h-1.9
					v39.5c0,0.4-0.1,2.1,1.1,3.5C1776.7,858,1778.3,858.6,1780.6,858.6z"/>
			</g>
			<path class="st48" d="M1740,855.3h31.2v3.3h-34.5l0,0C1736.7,856.8,1738.2,855.3,1740,855.3z"/>
			<g>
				<g>
					<rect x="1823.2" y="864.5" class="st49" width="4.8" height="159"/>
				</g>
				<g>
					<rect x="1683.8" y="864.5" class="st49" width="4.8" height="159"/>
				</g>
			</g>
			<path class="st41" d="M1641.2,858.6c-0.1,1.9-0.2,3.8-0.3,5.8l0,0c0,0-6.7,0.9-12.3-1.6c-5.6-2.5-9.6-21.9-9.8-23
				c0.6,1.1,9.6,18.8,11.8,18.8C1632.8,858.6,1641.2,858.6,1641.2,858.6z"/>
			<path class="st17" d="M1649.1,777.3c-0.1,0.8-0.1,1.7-0.1,2.5c-12.8,0.2-13-7.1-13-7.1C1638,778.1,1649.1,777.3,1649.1,777.3z"/>
			<g>
				
					<rect x="1715.9" y="787.3" transform="matrix(0.7196 -0.6943 0.6943 0.7196 -63.4137 1419.1033)" class="st50" width="19.5" height="1.6"/>
				<polygon class="st6" points="1732.1,780.8 1734.8,779.3 1733.2,781.9 				"/>
			</g>
			<g>
				<g>
					<g>
						<g>
							<path class="st51" d="M1726.1,788.9c0,0-6.6,1.4-6.6,2.6s0.7,1.6,0.7,1.6l-2.5,2c0,0-1.1,2.3,1.5,2.8c0,0-1.2,2,1.3,2.2
								c0,0-0.2,1.7,0.9,2c1.1,0.3,5.4-0.8,5.4-0.8s0.9-0.7,0.3-2.4c0,0,1.1-1.4,0.4-2.9c0,0,0.7-1.2-0.1-2.9c0,0,1.4-2.8-0.6-4.3
								C1726.8,788.9,1726.4,788.9,1726.1,788.9z"/>
						</g>
					</g>
				</g>
			</g>
			<g>
				<g>
					<g>
						<g>
							<path class="st6" d="M1715,790.1c0,0,4.3,1.4,6.4,3.4c0.5,0.4,0.8,1,0.7,1.6c-0.2,0.7-1.3,1.1-3.3,0.7
								c-1.9-0.5-4.7-0.2-4.7-0.2S1712.2,794.4,1715,790.1z"/>
						</g>
					</g>
				</g>
			</g>
			<path class="st52" d="M1720.6,938.3c0,0-4.1-25.5-4.3-26.4c-0.2-1.1-4.3-4.7-24.2-11.2c0,0,22,4.3,27.8,8
				C1724.3,911.5,1720.6,938.3,1720.6,938.3z"/>
			<g>
				<path class="st53" d="M1803.6,858.6c2.2-0.9,5.7-11.2,7.4-16.5c0.6-1.9,1-3.1,1-3.1H1792c1.7,12.3,5.9,19.6,5.9,19.6H1803.6z"/>
				<path class="st54" d="M1805.1,832.8c0-0.7,3.2-3.7,4.8-5.6c1.6-2-0.7-5.6-0.7-5.6c-7.1,2.9-5.9,11.3-5.9,11.3
					S1805.1,833.6,1805.1,832.8z"/>
				<path class="st54" d="M1801.1,833.1h0.8c0,0,0.7-14.5-4.7-16.5c-5.3-2-5.3-5.9-5.3-5.9s-1.6,5.4,1,8.3c2.6,2.9,5.6,6.1,5.1,8.8
					C1797.5,830.6,1801.1,833.1,1801.1,833.1z"/>
				<path class="st55" d="M1810.9,842.1c0.6-1.9,1-3.1,1-3.1H1792c1.7,12.3,5.9,19.6,5.9,19.6h1.3
					C1799,847.1,1806.5,843.3,1810.9,842.1z"/>
				<polygon class="st56" points="1811.9,832.8 1791.9,832.8 1790.7,839 1812.7,839 				"/>
			</g>
		</g>
		<g>
			<g>
				<path class="st57" d="M2153.6,1015.6c0,0-8.4,11.8-7.3,13.7c1.1,1.9,10,2.1,15.4,0c5.4-2.1,5.5-16,7.9-21.9
					c1-2.5-1.1-9.8-4.3-10.4c-3.1-0.6-6.4,1.1-6.4,1.1S2162.2,1006.4,2153.6,1015.6z"/>
			</g>
			<g>
				<g>
					<path class="st6" d="M2159,997.8c0,0-1.8,5.1-2.5,9.8c-0.6,4-6,12.4-5.7,13.5c0.2,1.1,7.2,2,10-0.7c2.8-2.8,4.7-10.8,5.2-15.6
						c0.6-4.5,1.3-6.7,1.3-6.7S2161.6,995,2159,997.8z"/>
				</g>
			</g>
			<g>
				<path class="st57" d="M2226.9,1015.8c0,0-8.1,11.6-7,13.5s10,2.1,15.4,0c5.4-2.1,5.5-16,7.9-21.9c1-2.5-1.1-9.8-4.3-10.4
					c-3-0.6-6.6,1.1-6.6,1.1S2235.5,1006.5,2226.9,1015.8z"/>
			</g>
			<g>
				<g>
					<path class="st6" d="M2232.3,998.1c0,0-0.7,5.5-1.6,9.3c-1.1,3.8-6.5,12.7-6.3,13.8c0.2,1.1,7.2,2,10-0.7
						c2.8-2.8,5-10.7,5.2-15.6c0.2-4.8-0.7-8-0.7-8S2235.1,995.1,2232.3,998.1z"/>
				</g>
			</g>
			<g>
				<g>
					<path class="st6" d="M2191.7,805.6c0,0-7.2,35-8.8,43.9s-6.3,51.6-6.8,58.9s-7.5,34.6-7.2,37.2s-10.4,54.8-10.4,54.8
						s3.7,3.1,7.5,0.2c2-1.5,23.7-48.8,23.7-61.8c0-17.9,12.7-41.3,14.3-45.4c15.2-37.3,12.3-48.7,14.2-51.1c2-2.5,2.1,1.5,3.4,6.9
						c1.1,5.4,3.7,51.7,5.2,57.6c1.5,5.9,0.3,25.8,1.1,35.9c0.8,10.1,4.5,55.4,4.5,55.4s2.8,4.6,6.8,0.1c0.8-1,6.8-50.6,7-62.5
						s0.3-28.4,0.7-33.6c3.1-49.5,10.6-56.6-1.3-91.6C2223.2,744.9,2191.7,805.6,2191.7,805.6z"/>
				</g>
			</g>
			<g>
				<path class="st58" d="M2240.3,795.8c0,0,20.5,30,11.7,94c0,0-48.8,7-75-8c0,0,10.8-65.9,14.7-76.1
					C2195.7,795.3,2240.3,795.8,2240.3,795.8z"/>
			</g>
			<g>
				<polygon class="st57" points="2169.9,1006.3 2169.9,1018.6 2168.3,1018.6 2168.3,1009.1 				"/>
			</g>
			<g>
				<polygon class="st57" points="2243.5,1006.3 2243.5,1018.6 2241.9,1018.6 2241.9,1009.1 				"/>
			</g>
			<path class="st6" d="M2215.9,662.5c0,0-13.8,13.9-9.1,31.8s12.2,18,20.5,10.3c8.3-7.7,13.2-15.8,14.3-24.8
				C2242.7,670.8,2228.5,650.2,2215.9,662.5z"/>
			<path class="st6" d="M2213.2,722.1c0,0,2-4.7,3.4-9.9c0.2-0.9,0.5-1.9,0.7-2.8c0.7-3.3,1-6.5,0.2-8.8c-2.2-6.5,13.8-2,13.8-2
				s-3.1,17.2,0,23C2234.5,727.4,2213.2,722.1,2213.2,722.1z"/>
			<path class="st40" d="M2253.7,730.3c-2.5-5-4.4-6.6-9.3-8.2c-2.7-0.9-14.9-4-14.9-4l-14.6-0.6c0,0-10.1,1.6-17.8,4.3
				s-18,17.4-18,17.4s14.1,33.1,16.8,42.6c2.7,9.5,0.9,24.1,0.9,24.1c16.9,9.2,44-0.9,44-0.9c-2-7.4-2.1-16-1.1-22.2
				c0.2-0.7,0.2-1.4,0.4-2c0.2-0.6,0.3-1.5,0.6-2.4c0-0.1,0-0.1,0-0.2c10.7,1.1,20.8,1.6,21-0.6
				C2263,768.1,2257.2,737.2,2253.7,730.3z M2246.3,768.1c-0.4-0.1-1.4-0.1-2.3-0.2c1.2-3.4,2.5-6.3,2.5-6.3
				C2247.2,763.7,2250.1,768.6,2246.3,768.1z"/>
			<path class="st59" d="M2220.4,672.5c0,0,6.6,12,10.7,16.3c4.1,4.3,3.6,7.7,3.6,7.7s16-19.6,4.6-31.6c-11.4-11.9-26-7.1-30.4,3.3
				c-4.3,10.4-2.7,23.1-2.7,23.1S2206.3,679.1,2220.4,672.5z"/>
			<path class="st59" d="M2224.7,660c0,0-1.6-8.8,12.2-12.3c13.8-3.5,20,12.4,18.3,22c-1.7,9.7-13.4,34.2-7,37.4
				c6.4,3.2,8.8-3.7,8.8-3.7s-2,12-10.9,9.3c-8.8-2.8-7.7-22.4-6.3-30.2C2241,674.7,2224.7,660,2224.7,660z"/>
			<path class="st17" d="M2229.2,702.8c-0.1,0.2-3.5,8.1-12.5,9.4c0.2-0.9,0.5-1.9,0.7-2.8C2217.4,709.4,2222.3,710.4,2229.2,702.8z
				"/>
			<path class="st60" d="M2246.3,761.7c0,0-0.7,1.4-2.5,6.9c-1.8-15.3-0.9-23.3-0.9-23.3C2243.2,753.4,2246.3,761.7,2246.3,761.7z"
				/>
			<path class="st40" d="M2226.9,658.1c0,0,9.7,1.9,14.7,9.8c0,0-1-7.2-5.8-9.3C2230.8,656.7,2226.9,658.1,2226.9,658.1z"/>
			<path class="st60" d="M2240.7,778.6c-0.2,1-0.4,1.8-0.6,2.4c-0.2,0.7-0.3,1.3-0.4,2c-6.1-3.3-10.4-5.9-10.4-5.9
				C2231,777.6,2240.7,778.6,2240.7,778.6z"/>
			<path class="st6" d="M2230.4,718.4l-17.2,14l1.8-14.7C2215,717.6,2225,715.4,2230.4,718.4z"/>
			<polygon class="st13" points="2218.2,730 2213.2,732.4 2230.1,715.7 			"/>
			<path class="st61" d="M2241.7,777.4c-2.4,9.8,6.4,31.8,6.4,31.8l-17.4,5.4c-2.5,0.8-5.2-0.7-5.6-3.3c-2.3-10.8-7.8-37.3-8.4-52.1
				c-0.8-18.8,12.9-41.1,12.9-41.1c24.4,4.2,17.7,41.1,17.7,41.1s-0.9,2.3-2,6l0,0c-0.3,0.9-0.6,1.9-0.9,2.9
				C2243.4,770.8,2242.5,774,2241.7,777.4z"/>
			<path class="st61" d="M2213.2,718.5l0.3-0.8c0,0-12.5,1.9-18.8,5.1c-6.4,3.2-18.5,19.6-18.5,19.6l15.9,21
				c0,16.1-2.6,44.8-2.6,44.8l7.3,4.2c2,1.1,4.4-0.2,4.4-2.5c0.2-10.9,0.7-36.8,1-49.4c0.3-16.1,11.9-42.2,11.9-42.2
				C2213.8,718.2,2213.5,718.3,2213.2,718.5z"/>
			<path class="st6" d="M2190.6,794c0,0,12,0.5,13.8,0c1.9-0.5,14.3-5.9,15.1-11.2c0.7-5.3-28.9,4.7-28.9,4.7V794L2190.6,794z"/>
			<polygon class="st62" points="2227.8,777.4 2179.1,771.7 2201.1,789.6 			"/>
			<polygon class="st37" points="2201.1,789.6 2227.8,780.5 2227.8,777.4 2200.2,786.2 			"/>
			<g>
				<path class="st6" d="M2213.6,768.5c0,0-4,0-6.3-0.5c-1.7-0.3-6.1,0.2-7.2,1.1c-1.1,1-4.6,7.8-5.2,8.2c-0.7,0.4,0.3,1.4,1.5,0.9
					c0,0,1.1,2.9,3.7,1.9c2.6-1.1,4.4-3.5,5.8-4c1.4-0.4,9.4-2.6,9.4-2.6S2215.7,767.7,2213.6,768.5z"/>
			</g>
			<polygon class="st14" points="2215.9,714.9 2206.6,729.6 2202.1,732.4 2212.5,717.8 			"/>
			<polygon class="st13" points="2206.6,729.6 2213.2,732.4 2215,717.6 2215.9,714.9 			"/>
			<path class="st61" d="M2192.1,787.1c0,0-0.5,6.2,0,7.4c0,0-30-3-32.8-7.2c-2.8-4.2-2.7-9.3-2.7-9.3L2192.1,787.1z"/>
			<polygon class="st63" points="2201.1,789.6 2186.9,736.9 2133,731.1 2147.8,779.7 			"/>
			<polygon class="st14" points="2230.1,715.7 2218.2,730 2224.7,735.8 2231.7,718.6 			"/>
			<path class="st64" d="M2245.6,764l-0.4,1.2c-0.3,0.9-0.6,1.9-0.9,2.9c-2.3,0.7-22.2-0.7-22.2-0.7S2238.7,763.5,2245.6,764z"/>
			<path class="st61" d="M2244.5,767.7c-3.2-0.2-8.4-0.6-12.8-0.6c-6.7,0-18.2,0.7-18.2,0.7l1.4,7.1c0,0,20.3,3.3,31.4,4.1l0,0
				c0,0,14.7,1.6,15.7-0.5c1.1-2.2-0.3-16.2-2.7-28.8s-4.8-19.9-7.7-23.7c-2.9-3.9-18.3-7-18.3-7l13,42.6c0,0,1.9,3.8,1.8,5.4
				c0,0.5-0.4,0.7-0.8,0.8c-0.3,0-1.1-0.1-2-0.2L2244.5,767.7z"/>
		</g>
		<rect x="1658.1" y="348.8" class="st65" width="39.4" height="2.8"/>
		<rect x="1658.1" y="354" class="st65" width="39.4" height="11.6"/>
		<rect x="1704" y="334" class="st65" width="1.7" height="32.5"/>
		<rect x="2203.1" y="546.2" class="st66" width="47.6" height="3.5"/>
		<rect x="2203.1" y="551.1" class="st66" width="47.6" height="9.7"/>
	</g>
</g>
</svg>
