<?xml version="1.0" encoding="utf-8"?>
<!-- Generator: Adobe Illustrator 24.1.3, SVG Export Plug-In . SVG Version: 6.00 Build 0)  -->
<svg version="1.1" id="Layer_1" xmlns="http://www.w3.org/2000/svg" xmlns:xlink="http://www.w3.org/1999/xlink" x="0px" y="0px"
	 viewBox="0 0 2560 1200" style="enable-background:new 0 0 2560 1200;" xml:space="preserve">
<style type="text/css">
	.st0{fill:#FFFFFF;}
	.st1{fill:#CB0111;}
	.st2{fill:none;stroke:#000000;stroke-miterlimit:10;}
	.st3{enable-background:new    ;}
	.st4{fill:#05091B;}
</style>
<rect y="0" class="st0" width="2560" height="1200"/>
<g>
	<path class="st1" d="M764.7,1091c0,11.4-9.3,20.7-20.7,20.7H471c-11.4,0-20.7-9.3-20.7-20.7v-88.8c0-11.4,9.3-20.7,20.7-20.7h273
		c11.4,0,20.7,9.3,20.7,20.7V1091z"/>
	<path class="st2" d="M764.7,1091c0,11.4-9.3,20.7-20.7,20.7H471c-11.4,0-20.7-9.3-20.7-20.7v-88.8c0-11.4,9.3-20.7,20.7-20.7h273
		c11.4,0,20.7,9.3,20.7,20.7V1091z"/>
</g>
<g class="st3">
	<path class="st4" d="M444.3,1048.8c0-12.7,9.3-23.1,20.7-23.1h1643.5c11.4,0,20.7,10.4,20.7,23.1v114.3c0,12.7-9.3,23.1-20.7,23.1
		H464.9c-11.4,0-20.7-10.4-20.7-23.1v-114.3H444.3z"/>
</g>
</svg>
