<?xml version="1.0" encoding="utf-8"?>
<!-- Generator: Adobe Illustrator 24.0.1, SVG Export Plug-In . SVG Version: 6.00 Build 0)  -->
<svg version="1.1" id="Layer_1" xmlns="http://www.w3.org/2000/svg" xmlns:xlink="http://www.w3.org/1999/xlink" x="0px" y="0px"
	 viewBox="0 0 650 180" style="enable-background:new 0 0 650 180;" xml:space="preserve">
<style type="text/css">
	.st0{fill:#FFFFFF;}
	.st1{fill-rule:evenodd;clip-rule:evenodd;fill:#FFFFFF;}
</style>
<path class="st0" d="M599.5,117.7l-9.3-15.3c-0.3-0.5-0.8-0.8-1.4-0.8c-0.6,0-1.1,0.3-1.4,0.8l-9.8,15.3h-9.5
	c-0.8,0-1.5,0.6-1.6,1.4l-6.1,31.9l-3.8-100.1c0-0.9-0.7-1.6-1.6-1.6c-0.9,0-1.6,0.6-1.7,1.5l-7.8,79.2l-4.1-11.1
	c-0.2-0.7-0.9-1.1-1.6-1.1H535l-7.2-9.8c-0.3-0.4-0.8-0.7-1.4-0.7c-0.5,0-1.1,0.3-1.3,0.8l-6.3,9.7h-15.1l-9.3-15.3
	c-0.3-0.5-0.8-0.8-1.4-0.8c-0.6,0-1.1,0.3-1.4,0.8l-9.8,15.3h-9.5c-0.8,0-1.5,0.6-1.6,1.4l-6.1,31.9L460.8,51c0-0.9-0.7-1.6-1.6-1.6
	c-0.9,0-1.6,0.6-1.7,1.5l-5,50.9c1.1,0,2.2,0,3.4,0l2.6-26.3l3.5,90.4c0,0.8,0.7,1.5,1.5,1.6h0.1c0.8,0,1.5-0.6,1.6-1.4l8.6-44.9h9
	c0.6,0,1.1-0.3,1.4-0.8l8.9-13.8l8.4,13.8c0.3,0.5,0.8,0.8,1.4,0.8h16.9c0.6,0,1.1-0.3,1.4-0.8l5.5-8.5l6.3,8.6
	c0.3,0.4,0.8,0.7,1.3,0.7h4.5l6.2,16.9c0.3,0.7,1,1.2,1.8,1.1s1.4-0.7,1.4-1.5l6.1-62.2l3.5,90.4c0,0.8,0.7,1.5,1.5,1.6h0.1
	c0.8,0,1.5-0.6,1.6-1.4l8.6-44.9h9c0.6,0,1.1-0.3,1.4-0.8l8.9-13.8l8.4,13.8c0.3,0.5,0.8,0.8,1.4,0.8h8.3c0-1.1,0-2.2,0-3.3h-7.5
	V117.7z"/>
<path class="st0" d="M203.2,106.9l-9.9-16.2c-0.3-0.5-0.9-0.8-1.5-0.8s-1.2,0.3-1.5,0.8l-10.4,16.2h-10.1c-0.8,0-1.6,0.6-1.7,1.4
	l-6.5,33.8l-4.1-106.2c0-0.9-0.8-1.7-1.7-1.7c-0.9,0-1.7,0.7-1.8,1.6l-8.3,84.1l-4.4-11.8c-0.3-0.7-0.9-1.2-1.7-1.2h-5.1l-7.7-10.4
	c-0.3-0.5-0.9-0.7-1.5-0.7s-1.1,0.3-1.4,0.8l-6.7,10.3h-16l-9.8-16.2c-0.3-0.5-0.9-0.8-1.5-0.8s-1.2,0.3-1.5,0.8L78,106.9H67.9
	c-0.8,0-1.6,0.6-1.7,1.4l-6.5,33.8L55.6,35.9c0-0.9-0.8-1.7-1.7-1.7c-0.9,0-1.7,0.7-1.8,1.6l-8.3,84.1l-0.2-0.5c0,3.2,0,6.5,0,9.7
	c0.4,0.3,0.9,0.5,1.4,0.5c0.8-0.1,1.5-0.8,1.5-1.6L53,62l3.7,95.9c0,0.9,0.7,1.6,1.6,1.7h0.1c0.8,0,1.6-0.6,1.7-1.4l9.1-47.6h9.6
	c0.6,0,1.2-0.3,1.5-0.8l9.4-14.7l8.9,14.6c0.3,0.5,0.9,0.8,1.5,0.8H118c0.6,0,1.2-0.3,1.5-0.8l5.8-9l6.7,9.1
	c0.3,0.5,0.9,0.7,1.4,0.7h4.8l6.6,17.9c0.3,0.8,1.1,1.2,1.9,1.1s1.5-0.8,1.5-1.6l6.5-66l3.7,95.9c0,0.9,0.7,1.6,1.6,1.7h0.1
	c0.8,0,1.6-0.6,1.7-1.4l9.1-47.6h9.6c0.6,0,1.2-0.3,1.5-0.8l9.4-14.7l8.9,14.6c0.3,0.5,0.9,0.8,1.5,0.8h8.8c0-1.2,0-2.4,0-3.5
	L203.2,106.9L203.2,106.9z"/>
<g>
	<path class="st1" d="M449.4,101.2c0.2,0,0.4,0,0.6,0V83.4h-1.5v-7.5h-0.8v7.5h-1.5v18.4h1.5v5.2h0.8v-5.2h1.5v-0.6
		C449.8,101.2,449.6,101.2,449.4,101.2z"/>
	<polygon class="st1" points="445.3,79.2 443.8,79.2 443.8,91.8 443,91.8 443,79.2 441.5,79.2 441.5,73.5 443,73.5 443,70.1 
		443.8,70.1 443.8,73.5 445.3,73.5 	"/>
	<path class="st1" d="M440.6,81.9h-1.5V88h-0.8v-6.1h-1.5V67.6h1.5v-3.9h0.8v3.9h1.5V81.9L440.6,81.9z M439.8,80.9V68.5h-2.2v12.4
		H439.8z"/>
	<polygon class="st1" points="435.8,54.1 434.3,54.1 434.3,41.7 433.5,41.7 433.5,54.1 432,54.1 432,75.2 433.5,75.2 433.5,78.6 
		434.3,78.6 434.3,75.2 435.8,75.2 	"/>
	<polygon class="st1" points="431.1,27.3 429.6,27.3 429.6,22.2 428.8,22.2 428.8,27.3 427.3,27.3 427.3,53.6 428.8,53.6 428.8,62 
		429.6,62 429.6,53.6 431.1,53.6 	"/>
	<path class="st1" d="M426.3,25.8h-1.5v8.7H424v-8.7h-1.5V9.3h1.5v-7h0.8v7h1.5V25.8L426.3,25.8z M425.6,24.8V10.2h-2.2v14.6H425.6z
		"/>
	<path class="st1" d="M421.6,45.4h-1.5v2.3h-0.8v-2.3h-1.5V19.9h1.5V9.2h0.8v10.7h1.5V45.4L421.6,45.4z M420.8,44.5V21h-2.2v23.5
		H420.8z"/>
	<polygon class="st1" points="416.9,9.3 415.4,9.3 415.4,0.8 414.6,0.8 414.6,9.3 413.1,9.3 413.1,32 414.6,32 414.6,45.9 
		415.4,45.9 415.4,32 416.9,32 	"/>
	<path class="st1" d="M412.1,42.3h-1.5v10.6h-0.8V42.3h-1.5V21.1h1.5v-3.9h0.8v3.9h1.5V42.3L412.1,42.3z M411.3,41.3V22.1h-2.2v19.2
		H411.3z"/>
	<path class="st1" d="M407.4,51.9h-1.5v4.8h-0.8v-4.8h-1.5V38.8h1.5v-3.9h0.8v3.9h1.5V51.9L407.4,51.9z M406.6,50.9V39.7h-2.2v11.2
		H406.6z"/>
	<path class="st1" d="M402.7,58.9h-1.5v12.2h-0.8V58.9h-1.5v-8.6h1.5v-3.9h0.8v3.9h1.5V58.9L402.7,58.9z M401.9,57.9v-6.6h-2.2v6.6
		H401.9z"/>
	<path class="st1" d="M397.9,70.3h-1.5v8.4h-0.8v-8.4h-1.5V58.9h1.5v-8.6h0.8v8.6h1.5V70.3L397.9,70.3z M397.1,69.4V60h-2.2v9.4
		H397.1z"/>
	<polygon class="st1" points="393.2,69.1 391.7,69.1 391.7,56.6 390.9,56.6 390.9,69.1 389.4,69.1 389.4,76.5 390.9,76.5 
		390.9,80.1 391.7,80.1 391.7,76.5 393.2,76.5 	"/>
	<polygon class="st1" points="388.5,59.7 387,59.7 387,54.3 386.2,54.3 386.2,59.7 384.7,59.7 384.7,74.2 386.2,74.2 386.2,92.5 
		387,92.5 387,74.2 388.5,74.2 	"/>
	<path class="st1" d="M383.7,60.1h-1.5v12.5h-0.8V60.1h-1.5v-3.8h1.5v-6h0.8v6h1.5V60.1L383.7,60.1z M382.9,59.2v-1.9h-2.2v1.9
		H382.9z"/>
	<path class="st1" d="M379,63.3h-1.5v6.6h-0.8v-6.6h-1.5v-3.1h1.5v-9h0.8v9h1.5V63.3L379,63.3z M378.2,62.3v-1.1H376v1.1H378.2z"/>
	<path class="st1" d="M374.3,79.7h-1.5v2.7H372v-2.7h-1.5V61.1h1.5v-4.5h0.8v4.5h1.5V79.7L374.3,79.7z M373.5,78.8V62.1h-2.2v16.7
		H373.5z"/>
	<path class="st1" d="M369.5,88.3H368v3.6h-0.8v-3.6h-1.5V75.7h1.5v-3.3h0.8v3.3h1.5V88.3L369.5,88.3z M368.7,87.4V76.7h-2.2v10.7
		H368.7z"/>
	<path class="st1" d="M364.8,99.2h-1.5v3.6h-0.8v-3.6H361V84.1h1.5v-4.9h0.8v4.9h1.5V99.2L364.8,99.2z M364,98.3V85.1h-2.2v13.2H364
		z"/>
	<path class="st1" d="M360,111.1h-1.5v10.7h-0.8v-10.7h-1.5V96.2h1.5v-2h0.8v2h1.5V111.1L360,111.1z M359.3,110.1v-13h-2.2v13H359.3
		z"/>
	<polygon class="st1" points="355.3,114.2 353.8,114.2 353.8,97.9 353,97.9 353,114.2 351.5,114.2 351.5,117.9 353,117.9 353,128.2 
		353.8,128.2 353.8,117.9 355.3,117.9 	"/>
	<polygon class="st1" points="350.6,93.8 349.1,93.8 349.1,86.4 348.3,86.4 348.3,93.8 346.8,93.8 346.8,115.7 348.3,115.7 
		348.3,123.1 349.1,123.1 349.1,115.7 350.6,115.7 	"/>
	<path class="st1" d="M345.8,98.6h-1.5v4.2h-0.8v-4.2H342V88.3h1.5v-9.7h0.8v9.7h1.5V98.6L345.8,98.6z M345,97.6v-8.4h-2.2v8.4H345z
		"/>
	<path class="st1" d="M341.1,110.2h-1.5v9.5h-0.8v-9.5h-1.5V93.1h1.5V90h0.8v3.1h1.5V110.2L341.1,110.2z M340.3,109.3V94.1h-2.2
		v15.1L340.3,109.3L340.3,109.3z"/>
	<path class="st1" d="M336.4,127.3h-1.5V138h-0.8v-10.7h-1.5v-18.1h1.5v-6.4h0.8v6.4h1.5V127.3L336.4,127.3z M335.6,126.4v-16.2
		h-2.2v16.2H335.6z"/>
	<path class="st1" d="M331.6,150h-1.5v8.4h-0.8V150h-1.5v-30.3h1.5v-6.9h0.8v6.9h1.5V150L331.6,150z M330.8,149v-28.3h-2.2V149
		H330.8z"/>
	<path class="st1" d="M326.9,161.2h-1.5v17.5h-0.8v-17.5h-1.5v-20.6h1.5v-3.1h0.8v3.1h1.5V161.2L326.9,161.2z M326.1,160.2v-18.7
		h-2.2v18.7H326.1z"/>
	<polygon class="st1" points="322.2,136.5 320.6,136.5 320.6,128.2 319.9,128.2 319.9,136.5 318.4,136.5 318.4,167.8 319.9,167.8 
		319.9,171.3 320.6,171.3 320.6,167.8 322.2,167.8 	"/>
	<path class="st1" d="M317.4,154.2h-1.5v5.2h-0.8v-5.2h-1.5v-19.4h1.5v-14.1h0.8v14.1h1.5V154.2L317.4,154.2z M316.6,153.3v-17.5
		h-2.2v17.5H316.6z"/>
	<polygon class="st1" points="312.7,115.1 311.2,115.1 311.2,102.5 310.4,102.5 310.4,115.1 308.9,115.1 308.9,140.7 310.4,140.7 
		310.4,150.3 311.2,150.3 311.2,140.7 312.7,140.7 	"/>
	<polygon class="st1" points="307.9,102.8 306.4,102.8 306.4,92.1 305.7,92.1 305.7,102.8 304.1,102.8 304.1,120.2 305.7,120.2 
		305.7,128.2 306.4,128.2 306.4,120.2 307.9,120.2 	"/>
	<path class="st1" d="M303.2,108.3h-1.5v5.8h-0.8v-5.8h-1.5v-15h1.5v-8.6h0.8v8.6h1.5V108.3L303.2,108.3z M302.4,107.4V94.3h-2.2
		v13.1H302.4z"/>
	<polygon class="st1" points="298.5,80.3 297,80.3 297,65.3 296.2,65.3 296.2,80.3 294.7,80.3 294.7,97 296.2,97 296.2,102.8 
		297,102.8 297,97 298.5,97 	"/>
	<path class="st1" d="M293.7,106.2h-1.5v7.1h-0.8v-7.1h-1.5V84.6h1.5v-7.7h0.8v7.7h1.5V106.2L293.7,106.2z M292.9,105.2V85.5h-2.2
		v19.7H292.9z"/>
	<path class="st1" d="M289,119.3h-1.5v8.8h-0.8v-8.8h-1.5v-16.5h1.5v-7.7h0.8v7.7h1.5V119.3L289,119.3z M288.2,118.4v-14.6H286v14.6
		H288.2z"/>
	<polygon class="st1" points="284.3,93.7 282.8,93.7 282.8,85.3 282,85.3 282,93.7 280.5,93.7 280.5,110.5 282,110.5 282,124.1 
		282.8,124.1 282.8,110.5 284.3,110.5 	"/>
	<path class="st1" d="M279.5,96.8H278v21.8h-0.8V96.8h-1.5v-5.4h1.5V70.5h0.8v20.9h1.5V96.8L279.5,96.8z M278.7,95.8v-3.5h-2.2v3.5
		H278.7z"/>
	<polygon class="st1" points="274.8,86 273.3,86 273.3,72.7 272.5,72.7 272.5,86 271,86 271,97.6 272.5,97.6 272.5,106.6 
		273.3,106.6 273.3,97.6 274.8,97.6 	"/>
	<polygon class="st1" points="270.1,67.8 268.6,67.8 268.6,50.3 267.8,50.3 267.8,67.8 266.3,67.8 266.3,92.1 267.8,92.1 
		267.8,96.1 268.6,96.1 268.6,92.1 270.1,92.1 	"/>
	<polygon class="st1" points="265.3,62.1 263.8,62.1 263.8,50.3 263,50.3 263,62.1 261.5,62.1 261.5,66.8 263,66.8 263,80.1 
		263.8,80.1 263.8,66.8 265.3,66.8 	"/>
	<polygon class="st1" points="260.6,48.6 259.1,48.6 259.1,38.6 258.3,38.6 258.3,48.6 256.8,48.6 256.8,65.2 258.3,65.2 
		258.3,71.9 259.1,71.9 259.1,65.2 260.6,65.2 	"/>
	<path class="st1" d="M255.9,31.2h-1.5V20.1h-0.8v11.1h-1.5v9.9h1.5v9.3h0.8v-9.3h1.5V31.2L255.9,31.2z M255.1,32.1v8h-2.2v-8H255.1
		z"/>
	<path class="st1" d="M251.1,54.8h-1.5v8.3h-0.8v-8.3h-1.5V35.1h1.5v-5.4h0.8v5.4h1.5V54.8L251.1,54.8z M250.3,53.8V36.1h-2.2v17.7
		H250.3z"/>
	<polygon class="st1" points="246.4,51.6 244.9,51.6 244.9,39.6 244.1,39.6 244.1,51.6 242.6,51.6 242.6,54.4 244.1,54.4 
		244.1,69.1 244.9,69.1 244.9,54.4 246.4,54.4 	"/>
	<path class="st1" d="M241.6,71.1h-1.5v5.8h-0.8v-5.8h-1.5V50.3h1.5v-5.4h0.8v5.4h1.5V71.1L241.6,71.1z M240.9,70.1V51.3h-2.2v18.8
		H240.9z"/>
	<polygon class="st1" points="236.9,59.1 235.4,59.1 235.4,53.6 234.6,53.6 234.6,59.1 233.1,59.1 233.1,74.6 234.6,74.6 234.6,83 
		235.4,83 235.4,74.6 236.9,74.6 	"/>
	<path class="st1" d="M214.2,100.6h1.5V93h0.8v7.6h1.5v8.8h-1.5v6.7h-0.8v-6.7h-1.5V100.6L214.2,100.6z M215,101.6v6.8h2.2v-6.8H215
		z"/>
	<path class="st1" d="M218.9,85.9h1.5v-7.6h0.8v7.6h1.5v13.3h-1.5v4.8h-0.8v-4.8h-1.5V85.9L218.9,85.9z M219.7,86.9v11.4h2.2V86.9
		H219.7z"/>
	<path class="st1" d="M223.6,75.7h1.5v-9.4h0.8v9.4h1.5v18h-1.5v9.5h-0.8v-9.5h-1.5V75.7L223.6,75.7z M224.4,76.7v16.1h2.2V76.7
		H224.4z"/>
	<path class="st1" d="M228.4,70.5h1.5v-7.6h0.8v7.6h1.5v7.3h-1.5v4.8h-0.8v-4.8h-1.5V70.5L228.4,70.5z M229.2,71.5v5.3h2.2v-5.3
		H229.2z"/>
</g>
</svg>
