<?xml version="1.0" encoding="utf-8"?>
<!-- Generator: Adobe Illustrator 24.0.1, SVG Export Plug-In . SVG Version: 6.00 Build 0)  -->
<svg version="1.1" id="Layer_1" xmlns="http://www.w3.org/2000/svg" xmlns:xlink="http://www.w3.org/1999/xlink" x="0px" y="0px"
	 viewBox="0 0 500 380" style="enable-background:new 0 0 500 380;" xml:space="preserve">
<style type="text/css">
	.st0{fill:url(#SVGID_1_);}
	.st1{fill:url(#SVGID_2_);}
	.st2{fill:url(#SVGID_3_);}
	.st3{fill:#FFFFFF;}
	.st4{fill:#00213C;}
	.st5{fill:#C8D6FD;}
	.st6{opacity:0.3;fill:#94B2FD;enable-background:new    ;}
	.st7{fill:#0A2A44;}
	.st8{fill:#F9FCFF;}
	.st9{fill:#CB0111;}
	.st10{fill:#1DE113;}
	.st11{opacity:0.3;fill:#1DE113;enable-background:new    ;}
	.st12{fill:#00141E;}
	.st13{fill:none;stroke:#F9FCFF;stroke-miterlimit:10;}
	.st14{fill:none;stroke:#F9FCFF;stroke-miterlimit:10;stroke-dasharray:3.0537,3.0537;}
	.st15{fill:none;stroke:#F9FCFF;stroke-miterlimit:10;stroke-dasharray:3.0254,3.0254;}
	.st16{fill:#F1F4FE;}
	.st17{fill:#E2E8FD;}
	.st18{fill:#E8EEF6;}
	.st19{fill:none;stroke:#E8EEF6;stroke-miterlimit:10;}
</style>
<g>
	<g>
		<g>
			
				<linearGradient id="SVGID_1_" gradientUnits="userSpaceOnUse" x1="349.7648" y1="-100.4771" x2="172.3143" y2="211.99" gradientTransform="matrix(1 0 0 1 0 120)">
				<stop  offset="0" style="stop-color:#FFFFFF"/>
				<stop  offset="1" style="stop-color:#BECFFD"/>
			</linearGradient>
			<path class="st0" d="M483.3,318.7H25.8V58.5c0-6.1,4.9-11,11-11h435.5c6.1,0,11,4.9,11,11V318.7z"/>
			
				<linearGradient id="SVGID_2_" gradientUnits="userSpaceOnUse" x1="349.7648" y1="-100.4771" x2="172.3143" y2="211.99" gradientTransform="matrix(1 0 0 1 0 120)">
				<stop  offset="0" style="stop-color:#FFFFFF"/>
				<stop  offset="1" style="stop-color:#BECFFD"/>
			</linearGradient>
			<path class="st1" d="M483.3,318.7H25.8V58.5c0-6.1,4.9-11,11-11h435.5c6.1,0,11,4.9,11,11V318.7z"/>
			
				<linearGradient id="SVGID_3_" gradientUnits="userSpaceOnUse" x1="421.5344" y1="-123.3116" x2="202.4618" y2="147.4763" gradientTransform="matrix(1 0 0 1 0 120)">
				<stop  offset="0" style="stop-color:#FFFFFF"/>
				<stop  offset="1" style="stop-color:#BECFFD"/>
			</linearGradient>
			<path class="st2" d="M402,47.5L130.8,318.7h-20.2L381.9,47.5H402z M25.8,174.9v41L194.3,47.5h-41L25.8,174.9z M362.2,47.5h-93.7
				L25.9,290.1v28.6H91L362.2,47.5z M395.8,318.7l87.5-87.5v-40.3L355.5,318.7H395.8z M472,47.5h-12.3L188.5,318.7h136.7
				l158.1-158.1V58.8C483.3,52.6,478.2,47.5,472,47.5z"/>
			<path class="st3" d="M472.3,360.5H36.8c-6.1,0-11-4.9-11-11v-30.8h457.5v30.8C483.3,355.6,478.4,360.5,472.3,360.5z"/>
			<path class="st4" d="M472,47.5H37.1c-6.2,0-11.3,5.1-11.3,11.3v259.9h457.5V58.8C483.3,52.6,478.2,47.5,472,47.5z M469,304.5H40
				V61.7h429V304.5z"/>
		</g>
		<path class="st5" d="M258.8,339.6c0,3.3-2.7,6-6,6s-6-2.7-6-6s2.7-6,6-6S258.8,336.3,258.8,339.6z"/>
	</g>
	<g>
		<path class="st6" d="M316.8,122.2h140.4c2.5,0,4.5-2,4.5-4.5V47.5H312.3v70.2C312.3,120.2,314.3,122.2,316.8,122.2z"/>
		<path class="st7" d="M454.4,119.4H313.8c-2.4,0-4.4-2-4.4-4.4V30.9c0-2.4,2-4.4,4.4-4.4h140.6c2.4,0,4.4,2,4.4,4.4V115
			C458.8,117.4,456.8,119.4,454.4,119.4z"/>
		<g>
			<path class="st6" d="M418.3,20.2c-16.8,0-30.4,13.6-30.4,30.4c0,16.8,13.6,30.4,30.4,30.4s30.4-13.6,30.4-30.4
				C448.8,33.8,435.2,20.2,418.3,20.2z M418.3,65.2c-8,0-14.6-6.5-14.6-14.6c0-8,6.5-14.6,14.6-14.6c8,0,14.6,6.5,14.6,14.6
				C432.9,58.7,426.4,65.2,418.3,65.2z"/>
			<path class="st8" d="M417.4,19.3c-16.8,0-30.4,13.6-30.4,30.4c0,16.8,13.6,30.4,30.4,30.4c16.8,0,30.4-13.6,30.4-30.4
				C447.8,32.9,434.2,19.3,417.4,19.3z M417.4,64.3c-8,0-14.6-6.5-14.6-14.6c0-8,6.5-14.6,14.6-14.6S432,41.6,432,49.7
				C432,57.7,425.4,64.3,417.4,64.3z"/>
			<g>
				<path class="st9" d="M404.2,60.7c-2.5-3-4-6.8-4-11c0-8.9,6.9-16.3,15.6-17.1V22c-14.6,0.8-26.2,13-26.2,27.7
					c0,7.1,2.7,13.6,7.1,18.5L404.2,60.7z"/>
				<path class="st10" d="M419,32.6c8.2,0.8,14.8,7.3,15.5,15.5h10.6C444.3,34,433,22.7,418.9,21.9v10.7H419z"/>
				<path class="st7" d="M434.5,51.3c-0.8,8.7-8.2,15.6-17.1,15.6c-4.2,0-8-1.5-11-4l-7.5,7.5c4.9,4.4,11.4,7.1,18.5,7.1
					c14.8,0,26.9-11.6,27.7-26.2L434.5,51.3L434.5,51.3z"/>
			</g>
		</g>
	</g>
	<g>
		<g>
			<path class="st6" d="M170.9,157.2H9.1c-2.9,0-5.3-2.4-5.3-5.3V40.1c0-2.9,2.4-5.3,5.3-5.3h161.8c2.9,0,5.3,2.4,5.3,5.3v111.8
				C176.2,154.9,173.8,157.2,170.9,157.2z"/>
		</g>
		<g>
			<path class="st8" d="M173.6,158.4H11.8c-2.9,0-5.3-2.4-5.3-5.3V41.3c0-2.9,2.4-5.3,5.3-5.3h161.8c2.9,0,5.3,2.4,5.3,5.3v111.8
				C178.9,156.1,176.5,158.4,173.6,158.4z"/>
			<g>
				<g>
					<rect x="31.7" y="94.4" class="st10" width="11.8" height="25.3"/>
					<rect x="36.7" y="84.3" class="st11" width="1.9" height="10.2"/>
					<rect x="36.7" y="119.7" class="st11" width="1.9" height="10.2"/>
				</g>
				<g>
					<rect x="75.8" y="105.4" class="st9" width="11.8" height="3.4"/>
					<rect x="80.7" y="95.3" class="st6" width="1.9" height="10.2"/>
					<rect x="80.7" y="108.8" class="st6" width="1.9" height="10.2"/>
				</g>
				<g>
					<rect x="97.8" y="101.6" class="st9" width="11.8" height="14.3"/>
					<rect x="102.8" y="91.5" class="st6" width="1.9" height="10.2"/>
					<rect x="102.8" y="115.9" class="st6" width="1.9" height="10.2"/>
				</g>
				<g>
					<rect x="119.8" y="96.1" class="st9" width="11.8" height="39.7"/>
					<rect x="124.8" y="85.9" class="st6" width="1.9" height="10.2"/>
					<rect x="124.8" y="135.8" class="st6" width="1.9" height="10.2"/>
				</g>
				<g>
					<rect x="141.9" y="72.5" class="st10" width="11.8" height="47.2"/>
					<rect x="146.8" y="62.4" class="st11" width="1.9" height="10.2"/>
					<rect x="146.8" y="119.7" class="st11" width="1.9" height="10.2"/>
				</g>
				<g>
					<rect x="53.8" y="59.9" class="st10" width="11.8" height="47.2"/>
					<rect x="58.7" y="49.7" class="st11" width="1.9" height="10.2"/>
					<rect x="58.7" y="107.1" class="st11" width="1.9" height="10.2"/>
				</g>
			</g>
		</g>
	</g>
	<g>
		<path class="st6" d="M255.8,109.1c21.9,0,39.7-17.8,39.7-39.7c0-8.1-2.4-15.6-6.6-21.9h-66.3c-4.1,6.3-6.6,13.8-6.6,21.9
			C216.1,91.3,233.9,109.1,255.8,109.1z"/>
		<ellipse class="st8" cx="253.9" cy="66.1" rx="39.7" ry="39.7"/>
		<g>
			<path class="st10" d="M229.8,81.7h46c1.5,0,2.6-1.2,2.6-2.6V53.3c0-1.5-1.2-2.6-2.6-2.6h-46c-1.5,0-2.6,1.2-2.6,2.6v25.8
				C227.1,80.6,228.3,81.7,229.8,81.7z"/>
			<g>
				<path class="st8" d="M252.8,72.4l-17-10.4c-0.9-0.6-1.2-1.8-0.7-2.7c0.6-0.9,1.8-1.2,2.7-0.7l14.9,9.2l14.9-9.2
					c0.9-0.6,2.2-0.3,2.7,0.7c0.6,0.9,0.3,2.1-0.7,2.7L252.8,72.4z"/>
			</g>
		</g>
	</g>
	<g>
		<path class="st6" d="M447.2,287.1H212.7c-2.4,0-4.4-2-4.4-4.4V144.1c0-2.4,2-4.4,4.4-4.4h234.5c2.4,0,4.4,2,4.4,4.4v138.6
			C451.6,285.1,449.6,287.1,447.2,287.1z"/>
		<path class="st12" d="M442.3,282.2H207.8c-2.4,0-4.4-2-4.4-4.4V139.3c0-2.4,2-4.4,4.4-4.4h234.5c2.4,0,4.4,2,4.4,4.4v138.6
			C446.7,280.3,444.8,282.2,442.3,282.2z"/>
		<rect x="215.9" y="147.4" class="st4" width="218.4" height="122.5"/>
		<rect x="231.5" y="147.3" class="st7" width="50.8" height="122.5"/>
		<rect x="333" y="147.3" class="st7" width="50.8" height="122.5"/>
		<path class="st9" d="M367.2,228.6v41.2H215.9v-50.7l10.8-25.1l1.9,9.9l5.7-7.5l5.9,15.7l2.5-35l11.1,30.2l7.2-8.5l3.4,13.3
			l10.7,28.4l6.9-44.1l2.3,24.8l6.5-20.2l2.8,7.5l3.3-15.2l3.8,5.4l3.1-13.8c0,0,2.7,5.4,3.8,7.6h5.1l10.1,24.6l4.6-15.2l4.5,28.3
			l5-9.5l12.2,33.4l9.5-25.5L367.2,228.6"/>
		<g>
			<g>
				<line class="st13" x1="367.2" y1="228.6" x2="368.7" y2="228.6"/>
				<line class="st14" x1="371.7" y1="228.6" x2="431.3" y2="228.6"/>
				<line class="st13" x1="432.8" y1="228.6" x2="434.3" y2="228.6"/>
			</g>
		</g>
		<path class="st8" d="M370.3,228.6c0,1.7-1.4,3.1-3.1,3.1c-1.7,0-3.1-1.4-3.1-3.1s1.4-3.1,3.1-3.1
			C368.9,225.4,370.3,226.8,370.3,228.6z"/>
		<g>
			<g>
				<line class="st13" x1="216.5" y1="177.1" x2="218" y2="177.1"/>
				<line class="st15" x1="221" y1="177.1" x2="431.3" y2="177.1"/>
				<line class="st13" x1="432.8" y1="177.1" x2="434.3" y2="177.1"/>
			</g>
		</g>
		<g>
			<polygon class="st6" points="483.3,220.1 451.9,220.1 439.8,230.7 451.9,241.3 483.3,241.3 			"/>
			<polygon class="st9" points="496.1,239.2 449.8,239.2 437.6,228.6 449.8,217.9 496.1,217.9 			"/>
		</g>
		<polygon class="st6" points="483.3,168.7 451.9,168.7 439.8,179.3 451.9,189.9 483.3,189.9 		"/>
		<polygon class="st10" points="496.1,187.7 449.8,187.7 437.6,177.1 449.8,166.5 496.1,166.5 		"/>
	</g>
	<g>
		<path class="st6" d="M410.5,99.4h-7v-2.5c0-1.4-1.1-2.5-2.5-2.5s-2.5,1.1-2.5,2.5v2.5h-36v-2.5c0-1.4-1.1-2.5-2.5-2.5l0,0
			c-1.4,0-2.5,1.1-2.5,2.5v2.5H350c-2.8,0-5,2.3-5,5v60.5c0,2.8,2.3,5,5,5h60.5c2.8,0,5-2.3,5-5v-60.4
			C415.5,101.7,413.2,99.4,410.5,99.4z"/>
		<g>
			<path class="st9" d="M413.6,110h-70.5v-7.5c0-2.7,2.2-4.9,4.9-4.9h60.7c2.7,0,4.9,2.2,4.9,4.9L413.6,110L413.6,110z"/>
			<path class="st8" d="M408.7,168.1H348c-2.7,0-4.9-2.2-4.9-4.9V110h70.5v53.2C413.6,165.9,411.4,168.1,408.7,168.1z"/>
			<g>
				<rect x="351.5" y="125.1" class="st16" width="13.3" height="13.7"/>
				<rect x="351.5" y="146" class="st16" width="13.3" height="13.7"/>
				<rect x="372" y="125.1" class="st16" width="13.3" height="13.7"/>
				<rect x="372" y="146" class="st16" width="13.3" height="13.7"/>
				<rect x="392.4" y="125.1" class="st16" width="13.3" height="13.7"/>
				<rect x="392.4" y="146" class="st16" width="13.3" height="13.7"/>
			</g>
			<path class="st8" d="M358.1,102.6L358.1,102.6c-1.4,0-2.5-1.1-2.5-2.5V95c0-1.4,1.1-2.5,2.5-2.5l0,0c1.4,0,2.5,1.1,2.5,2.5v5.1
				C360.6,101.5,359.5,102.6,358.1,102.6z"/>
			<path class="st8" d="M399.1,102.6L399.1,102.6c-1.4,0-2.5-1.1-2.5-2.5V95c0-1.4,1.1-2.5,2.5-2.5l0,0c1.4,0,2.5,1.1,2.5,2.5v5.1
				C401.6,101.5,400.4,102.6,399.1,102.6z"/>
		</g>
		<rect x="365" y="116.4" class="st17" width="27.1" height="3"/>
	</g>
	<g>
		<path class="st6" d="M179.2,279.4H62.5c-2.2,0-4-1.8-4-4v-75.8c0-2.2,1.8-4,4-4h116.7c2.2,0,4,1.8,4,4v75.8
			C183.2,277.6,181.4,279.4,179.2,279.4z"/>
		<path class="st8" d="M174.6,274.8H57.9c-2.2,0-4-1.8-4-4V195c0-2.2,1.8-4,4-4h116.7c2.2,0,4,1.8,4,4v75.8
			C178.6,273,176.8,274.8,174.6,274.8z"/>
		<rect x="77.7" y="228.3" class="st10" width="7.9" height="15.7"/>
		<rect x="95.1" y="244" class="st10" width="7.9" height="7.8"/>
		<rect x="112.5" y="237.6" class="st10" width="7.9" height="11.1"/>
		<rect x="129.9" y="217.2" class="st10" width="7.9" height="21.2"/>
		<rect x="147.3" y="206.1" class="st10" width="7.9" height="26.8"/>
		<rect x="77.7" y="244" class="st18" width="7.9" height="15.7"/>
		<rect x="95.1" y="251.9" class="st18" width="7.9" height="7.8"/>
		<rect x="112.5" y="248.6" class="st18" width="7.9" height="11.1"/>
		<rect x="129.9" y="238.5" class="st18" width="7.9" height="21.2"/>
		<rect x="147.3" y="232.9" class="st18" width="7.9" height="26.8"/>
		<polyline class="st19" points="163.5,259.7 69,259.7 69,206.1 		"/>
	</g>
</g>
</svg>
