<?xml version="1.0" encoding="utf-8"?>
<!-- Generator: Adobe Illustrator 24.0.1, SVG Export Plug-In . SVG Version: 6.00 Build 0)  -->
<svg version="1.1" id="Layer_1" xmlns="http://www.w3.org/2000/svg" xmlns:xlink="http://www.w3.org/1999/xlink" x="0px" y="0px"
	 viewBox="0 0 1080 800" style="enable-background:new 0 0 1080 800;" xml:space="preserve">
<style type="text/css">
	.st0{fill:#E4EFFF;}
	.st1{fill:#367082;}
	.st2{fill:#88BDDA;}
	.st3{fill:#ACD5F4;}
	.st4{fill:#001F46;}
	.st5{fill:#3DC7C9;}
	.st6{fill:#33A8B5;}
	.st7{fill:#E9D6B8;}
	.st8{fill:#964532;}
	.st9{fill:#194866;}
	.st10{fill:#E2C59C;}
	.st11{fill:#163F59;}
	.st12{fill:#161711;}
	.st13{fill:#B4C0C7;}
	.st14{fill:#D6E3EB;}
	.st15{fill:#8599A4;}
	.st16{fill:#D7DFE2;}
	.st17{fill:#E1EEFE;}
	.st18{fill:#CB0111;}
	.st19{fill:#3D7AA8;}
	.st20{fill:#F4DA80;}
	.st21{fill:#34688F;}
	.st22{fill:#FFFFFF;}
	.st23{fill:#3BB6D5;}
	.st24{fill:#D1DBEA;}
	.st25{fill:#AD5C49;}
	.st26{fill:#FFC40E;}
	.st27{fill:#EDF4FC;}
	.st28{fill:#D9E1E4;}
	.st29{fill:#BAC2C6;}
	.st30{opacity:0.34;fill:#FFFFFF;enable-background:new    ;}
	.st31{fill:#165670;}
	.st32{fill:#ECF6F8;}
	.st33{fill:#5BA9DD;}
	.st34{fill:#B0BFDE;}
	.st35{fill:#BCD0E2;}
	.st36{fill:#86BBD8;}
	.st37{fill:url(#SVGID_1_);}
	.st38{fill:#C4D1E1;}
	.st39{fill:#B6C2C9;}
	.st40{fill:#D8E5ED;}
	.st41{fill:#879BA6;}
	.st42{fill:#35A5C1;}
	.st43{fill:#F8C44F;}
	.st44{fill:#D0DEE6;}
	.st45{fill:url(#SVGID_2_);}
	.st46{fill:#316091;}
	.st47{fill:#7DCCD0;}
</style>
<g>
	<path class="st0" d="M539.6,664.5c-48.2,0.6-197.9,1.8-288.9-3c-168.6-8.9-305.6,15.7-214.8,37.9c25.4,6.3-46.6,48.7,131.8,53.8
		c156.5,4.3,315.7-16.8,392.7-25.9c76.9-9.2,112.3-23.3,128.8-29.7C703.6,692,708.4,662.5,539.6,664.5z"/>
	<g>
		<g>
			<g>
				<path class="st1" d="M190.9,640c-2.1,0-5.2-0.5-8.1-3c-4-3.6-5.8-10.3-5.2-19.4c0.4-6.3,2.8-12.5,5.2-19.2
					c4.1-11.2,8.9-23.9,6.4-40.6l4.6-0.7c2.7,18.1-2.5,32-6.6,43.2c-2.4,6.6-4.6,12.3-4.9,17.7c-0.5,7.5,0.7,12.8,3.5,15.4
					c2.7,2.4,6,1.8,6.2,1.8l1,4.7C192.9,639.8,192,640,190.9,640z"/>
			</g>
			<g>
				<g>
					<path class="st2" d="M226.4,678.5l4.5,7.2L193,698.4c0,0-2.5-2.5,6.8-7.6C210.6,684.8,226.4,678.5,226.4,678.5z"/>
					<path class="st2" d="M233.1,678.5l-4.5,7.2l37.9,12.7c0,0,2.5-2.5-6.8-7.6C248.9,684.8,233.1,678.5,233.1,678.5z"/>
				</g>
				<rect x="225.8" y="657" class="st2" width="8" height="29.5"/>
				<g>
					<path class="st3" d="M225.9,680l3.9,6.9L197.3,699c0,0-2.2-2.4,5.8-7.2C212.4,686.1,225.9,680,225.9,680z"/>
					<path class="st3" d="M233.6,680l-3.9,6.9l32.4,12.2c0,0,2.2-2.4-5.8-7.2C247.1,686.1,233.6,680,233.6,680z"/>
				</g>
				<path class="st4" d="M201.1,701.7c0,1.6-1.2,2.9-2.8,2.9s-2.8-1.3-2.8-2.9s1.2-2.9,2.8-2.9S201.1,700.1,201.1,701.7z"/>
				<path class="st4" d="M263.9,701.7c0,1.6-1.2,2.9-2.8,2.9s-2.8-1.3-2.8-2.9s1.2-2.9,2.8-2.9C262.6,698.9,263.9,700.1,263.9,701.7
					z"/>
				<path class="st1" d="M194.3,701.7c0,1.6-1.2,2.9-2.8,2.9s-2.8-1.3-2.8-2.9s1.2-2.9,2.8-2.9S194.3,700.1,194.3,701.7z"/>
				<path class="st1" d="M270.5,701.7c0,1.6-1.2,2.9-2.8,2.9s-2.8-1.3-2.8-2.9s1.2-2.9,2.8-2.9S270.5,700.1,270.5,701.7z"/>
			</g>
			<rect x="226.7" y="646.2" class="st1" width="5.8" height="10.6"/>
			<path class="st1" d="M236.9,640.6c0,3.3-2.5,5.9-5.7,5.9h-3.1c-3.1,0-5.7-2.7-5.7-5.9l0,0c0-3.3,2.5-5.9,5.7-5.9h3.1
				C234.3,634.7,236.9,637.4,236.9,640.6L236.9,640.6z"/>
			<path class="st5" d="M272.7,635.2c0.1-0.7,0.2-5.1,0.2-5.8c0-4.8-2.9-8.7-6.6-8.7H193c-3.6,0-6.6,3.9-6.6,8.7
				c0,0.7,0.1,5.1,0.2,5.8H272.7z"/>
			<path class="st1" d="M185.7,637.5c0,1.4,0.8,2.7,1.8,2.7h84.2c1,0,1.8-1.2,1.8-2.7l0,0c0-1.4-0.8-2.7-1.8-2.7h-84.2
				C186.6,634.9,185.7,636.1,185.7,637.5L185.7,637.5z"/>
			<g>
				<path class="st5" d="M189.8,590.8c1.8,0.1,13.3,0.4,15.3,0.4c12.5,0.1,23.4-2.3,24-5.5c2.5-13.5,2.7-27.4,0.4-40.8
					c-0.5-3.3-11.6-5.7-24.4-5.5c-2.1,0-13.7,0.2-15.6,0.4C193.5,556.5,193.6,574.1,189.8,590.8z"/>
				<path class="st1" d="M188.2,539.7c-1.4,0-2.4,0.7-2.2,1.6c3.5,15.8,3.6,32.2,0.4,48.1c-0.2,0.8,0.8,1.6,2.2,1.6l0,0
					c1.3,0,2.7-0.6,2.8-1.6c3.3-15.9,3.1-32.3-0.4-48.2C190.8,540.3,189.5,539.7,188.2,539.7L188.2,539.7z"/>
				<path class="st6" d="M187.5,590.8c0.4,0.1,2.9,0.2,3.3,0.2c2.8,0,5.5-2.5,6.2-5.7c2.3-13.3,2.2-26.9-0.2-40.2
					c-0.6-3.1-3.5-5.8-6.3-5.7c-0.5,0-3,0.1-3.4,0.2C191,556.5,191.3,574.1,187.5,590.8z"/>
			</g>
		</g>
		<g>
			<g>
				<path class="st7" d="M315.9,565.7l-3-3.9l-3.1-2.3l-6-1.4c0,0-6.6-0.7-9.2,0c-2.5,0.7-12.4-0.2-13.7,0c-1.2,0.2-2.1,4-2.1,4
					s9,0.4,13.3,0.1c4.2-0.1,10.3,1.8,11.8,1.8c1.3,0,2.5-0.1,3.4-0.4c1.1-0.2,1-0.6,0.1-0.7c-1.3-0.2-3.3-0.6-4-0.6
					c-1.2-0.1-0.5-1.4-0.5-1.4s6,0.5,7.6,1.3c1.6,0.8,2.1,1.6,2.7,2.2C314.4,565.5,315.9,565.7,315.9,565.7z"/>
				<path class="st8" d="M263.3,488.2c0,8-6.2,14.5-13.9,14.5l-3.5-6.9c-7.6,0-13.9-12.1-13.9-20v-5.4c0-8,6.2-14.5,13.9-14.5h3.5
					c7.6,0,13.9,6.5,13.9,14.5V488.2z"/>
				<path class="st8" d="M234.3,470.1c-0.7,0-1.4,0-2.2,0.1c0.1,1,0.2,1.9,0.2,2.9c0,9.6-7,17.6-16.2,18.7c1.3,9,8.9,15.9,18.1,15.9
					c10.1,0,18.5-8.4,18.5-18.8C252.8,478.6,244.6,470.1,234.3,470.1z"/>
				<path class="st7" d="M257.7,461.3c0,1.3-0.1,2.7-0.4,4.1c-1.4,9.3-6.8,16.4-12.7,17.2c-0.2,4.2-1,8-1.9,11.2
					c-1.1,3.6-5.2,7.6-5.2,7.6c-1,6.5,20.1,16,19.7,15c-0.5-1.1-5.7-8.7-7.4-15.7c-1.2-4.9,0.4-8.9,2.2-11.7c3.3-4.1,8.1-4,8.1-4
					c0.5,0,0.8-0.2,1.2-0.5c0.2-1,0.5-1.9,0.5-3v-11.9C261.6,466.1,260,463.2,257.7,461.3z"/>
				<g>
					<path class="st9" d="M211.3,595.3c0-0.1,0-0.1-0.1-0.2l0.1-0.1c1.9-10.6,4.9-20.9,9.5-30.2c3.3-6.5,9.8-12.8,12.7-15.9
						c7.5,4.2,14.8,2.3,21.7,7.8c1,3,1.6,6.3,2.2,9.8c1.1,6.4,1.9,12.3,2.8,17.8c12.8,4,17.1,7.6,24,12.2c0.8,0.5,4.1,3.9,4.9,4.6
						c-0.5,10.1-1.9,17.1-6.6,25.2c-0.8,1.4-10.3,0.8-18.6-0.6c-3.9-0.6-16.4-1.4-17.7-2.1C204.9,619.2,209.7,603.5,211.3,595.3z"/>
					<path class="st10" d="M289.9,620.7c1.3-2.3,2.7-4.6,4-6.9c1-4.5,1-7.5-0.2-8.6c-4.6-4.2-22.7,5.5-45.1,54.8
						c-1.1,2.4-23.3,42-22.4,41.5C236.9,694.7,269.7,655.2,289.9,620.7z"/>
					<path class="st11" d="M225.9,697.2l7.1-12.1c0.7-1.2,1.8-1.8,2.9-1.7l-5.5,9.3c-1.1,1.8-0.8,4.2,0.6,5.4c0.5,0.4,1,0.6,1.6,0.6
						l-1.7,2.8c-1.1,1.8-3,2.3-4.5,1.1C225.1,701.4,224.8,699,225.9,697.2z"/>
					<path class="st7" d="M252.7,538.1l13-21.2c3.9-6.3,1.6-12.7-5.1-14.1l-37.9-8.3c-4.2-0.6-11,5.8-9.4,13.3l8.1,24.5L252.7,538.1
						z"/>
					<path class="st11" d="M261.7,505c-5.1,18.1,5.4,53.2,5.4,53.2s5.7,3,7,0c1.7-3.9-1.1-16.2-3-42.1
						C269.9,499.9,262.6,501.9,261.7,505z"/>
					<path class="st11" d="M215.9,495.2c-13.4,10-22.6,41.4-22.6,41.4s1.9,3.4,4.6,2.1c3.4-1.8,8.6-10.1,20.1-29.9
						C225.2,496.4,218.1,493.5,215.9,495.2z"/>
					<path class="st8" d="M226.9,547.3c0,2.8,2.9,7.4,4.9,7.4l21.8,1.2c2.1,0,5.1-4,5.1-6.9l-0.2-9.5c0-2.9-1.8-5.1-3.9-5.1
						l-25.8-6.4c-2.1,0-3.7,2.4-3.6,5.2L226.9,547.3z"/>
					<path class="st12" d="M255,556.3c0,0.4-1.4,0.5-3.3,0.4l-19.8-1.3c-1.7-0.1-3.1-0.5-3.1-0.7l0.1-1.2c0-0.4,1.4-0.5,3.3-0.4
						l19.8,1.3c1.7,0.1,3.1,0.5,3.1,0.7L255,556.3z"/>
					<path class="st8" d="M219.9,505.2c0.4-1.4,0.8-2.7,1.4-3.7c18.3,13.6,31.4,7.8,40.8,5.5c0.1,0.6,0.1,1.2,0.2,1.8
						c0.4,6.8-0.1,13.6,0.1,20.4c0.2,5.4-7,10.1-10.5,10.3c-13,0.6-15.9-0.2-28.5-3.7c-3.4-1-9.5-6.6-8.2-11.6
						C216.9,517.9,218.4,511.6,219.9,505.2z"/>
					<path class="st9" d="M252.3,500c0,0,13.6-0.5,15.9,6.4c2.4,6.8-3.4,16.8-3.4,16.8s-3.5,12.7-4.5,19.4c-1,6.8,3.3,13.4,1.9,12.1
						c-0.2-0.2-3.4,0-8.2-2.4c-4.9-2.4-2.2-11.7-1.7-14.7s2.9-17.8,2.3-20.3C254.2,514.7,252.3,500,252.3,500z"/>
					<path class="st9" d="M212.9,504.4c0,0-1.1-5.7,1.2-8c3.3-3.4,11.2-2.9,13.9-2.1c2.5,0.8,4.3,1.7,4.3,1.7s-8.9,3.9-8.7,23.3
						c0.1,3.4,0.8,10.1,1.9,15.3s1.4,15.3,1.4,15.3s-5.3,1.2-5.7,1.9c-0.2,0.8-0.6-6-4.2-12.5C213.5,532.7,212.9,504.4,212.9,504.4z
						"/>
					<path class="st11" d="M224.8,493.7c-5.1,4.3-8.1,8.1-7.2,30.8c0.1,3.6-0.1,10.4,0.6,16.6c-0.4-0.6-0.6-1.3-1-1.9
						c-3.6-6.5-4.2-35-4.2-35s-1.1-5.7,1.2-8C216.5,494,221.3,493.5,224.8,493.7z"/>
					<path class="st10" d="M284.4,598.7c3.4,1.9,6.4,4.1,9.2,6.5c-5.1,2.5-7.4,8.8-13.3,11.1c-3.7-2.1-12.7-15.2-9.9-14.6
						C279,603.7,278.2,600.8,284.4,598.7z"/>
					<path class="st7" d="M268.2,600.8c3.9,0.4,6.3,1.6,9,4c-5.1,2.5-7.4,8.8-13.3,11.1c-4.3,3.1-6.5,11.9-6.5,8.9
						C257.4,620.9,261.8,600.2,268.2,600.8z"/>
					<path class="st7" d="M276.1,620.3c1-2.5,1.8-5.1,2.7-7.6c0.2-4.6-0.4-7.5-1.7-8.3c-5.3-3.1-21.2,10-34.5,62.7
						c-0.4,1.6-4,16.3-9.5,28c-1.1,2.3-2.4,1.8-3,3.7c-1.9,5.9-1.1,13.3-0.8,13C238.4,703,262.4,658,276.1,620.3z"/>
					<path class="st9" d="M225.4,707.5l6.3-12.5c0.6-1.2,1.7-1.9,2.8-1.9l-4.8,9.6c-1,1.8-0.5,4.2,1,5.3c0.5,0.4,1.1,0.5,1.6,0.5
						l-1.4,2.9c-1,1.8-2.9,2.5-4.3,1.4C224.9,711.7,224.5,709.3,225.4,707.5z"/>
					<g>
						<path class="st10" d="M224.8,558.8c0,0,2.4,1.8,2.9,3.4c0.4,1,1.1,6.2,1.1,6.2s-1.3-1.2-1.7-3.4
							C226.6,561.9,224.8,558.8,224.8,558.8z"/>
						<path class="st10" d="M226.4,561.9c1.6,1,2.4,3.1,2.8,5.8c0.4,2.5,1.8,3.4,1.8,3.4s-0.1-1.7-1-5.5c-0.2-1.1-0.6-2.2-1-3.3
							C228,558.6,222.3,559.4,226.4,561.9z"/>
						<path class="st10" d="M225.3,555.3c0.5,1.2,1.9,3.3,2.7,3.6c2.2,1.3,4,2.2,4,2.2c-2.3,1.4-5.3-1.6-7-2.1
							C223.4,558.6,223.9,552,225.3,555.3z"/>
						<path class="st7" d="M210.8,547.1c4.2,2.7,9.2,4.7,10.9,7c2.4,3.4,2.3,6.3,4.7,7.7c0.2,0.1,0.5,0.4,0.7,0.6
							c0.6,0.5,1.4,1,1.7,1.2c0.2,0.2,1,1.2,0.8,0.7c-1.2-4.2-2.9-8.8-3.6-9.6c-1.4-1.6-10.1-9.6-14-11.9
							C207.8,540.3,205.2,543.7,210.8,547.1z"/>
						<path class="st7" d="M226.6,561.5c0,0,0.5-1,1.2-0.5c1.1,0.6,2.8,2.8,3.3,3.6c0.6,0.8,2.8,5.5,2.8,5.5s-1.7-0.7-2.5-2.7
							C230,564.7,226.6,561.5,226.6,561.5z"/>
						<path class="st7" d="M206.2,537.6c-0.7,1.7-1.3,3.4-1.8,5.2c11.1,6.6,20.9,11.8,20.9,11.8L206.2,537.6z"/>
					</g>
					<path class="st11" d="M193,537.4C197,547.7,212,548,212,548s1.9-2.8,1.4-4.9c-0.6-2.8-4.5-5.5-13.5-11.3
						C194.4,528,192.4,535.7,193,537.4z"/>
				</g>
			</g>
			<path class="st11" d="M283.9,557.2c0.8,0.6-1.1,6.3-3,6.2l-1.4,0.1c0,0-12.9,0.2-12.4-6.6C267,556.8,270.2,550.4,283.9,557.2z"/>
		</g>
		<g>
			<path class="st13" d="M246,573.3L246,573.3v-2.1h79.7v2.1l0,0l-0.2,0.4c-1,1.8-2.9,2.1-4.9,2.1h-69.3c-2.1,0-4-0.4-4.9-2.1
				L246,573.3z"/>
			<path class="st14" d="M265.2,573.7L265.2,573.7l-0.2,0.4c-0.4,0.5-0.7,0.8-1.2,1.1h-12.2c-2.1,0-3.7-0.2-4.8-1.7l-0.2-0.4l0,0v-1
				H265v1.6H265.2z"/>
			<g>
				<rect x="276" y="571.8" class="st15" width="39.8" height="1.4"/>
			</g>
			<g>
				<path class="st16" d="M265.7,571.2l10.4-41c0.2-1.1,1.3-1.9,2.4-1.9h55.8c1,0,1.7,0.8,1.3,1.9l-10.4,41H265.7z"/>
				<path class="st13" d="M297.3,549.7c-0.5,2.1,0.7,3.7,2.7,3.7c2.1,0,4-1.7,4.6-3.7c0.5-2.1-0.7-3.7-2.7-3.7
					C299.8,546,297.8,547.7,297.3,549.7z"/>
			</g>
		</g>
	</g>
	<g>
		<path class="st17" d="M493.6,431.2c28.8,1,76.3-1.9,95.6-9.2c19.4-7.4,22.6-62.8,9.5-77.1c-13.1-14-50.2-18.3-68.5-19.5
			c-45.8-3-86.8,0.6-79.7,43.2C458.1,412.9,462.4,430.1,493.6,431.2z"/>
		<path class="st17" d="M580.1,417.6c0,0,0.8,16.9-19.7,29.1c0,0,8.6-24.6-2.9-34.7C550.7,406.1,580.1,417.6,580.1,417.6z"/>
	</g>
	<g>
		<path class="st18" d="M565.3,329.6c0-24.5-14.1-44.3-39.6-44.3c-25.4,0-39.6,19.8-39.6,44.3c0,19.1,12.8,25.7,23.6,41.5
			c2.2,3.1,0,15.4,0,15.4h31.8c0,0-2.2-12.3,0-15.4C552.5,355.3,565.3,348.7,565.3,329.6z"/>
		<path class="st19" d="M509.3,386.5v4.6c0,7.6,5.9,13.7,13.1,13.7h6.6c7.2,0,13.1-6.2,13.1-13.7v-4.6H509.3z"/>
		<g>
			<polygon class="st20" points="518.4,330.9 513.3,324.1 509.6,329.2 507,327.1 513.3,318.4 518.4,325.3 523.4,318.4 528.5,325.3 
				533.6,318.4 538.6,325.3 543.7,318.4 550,327.1 547.4,329.2 543.7,324.1 538.6,330.9 533.6,324.1 528.5,330.9 523.4,324.1 			"/>
		</g>
		<g>
			<polygon class="st20" points="523.1,385.9 519.8,385.9 519.8,357.2 512.6,334.7 515.7,333.6 523.1,356.7 			"/>
		</g>
		<g>
			<polygon class="st20" points="533.2,385.9 529.8,385.9 529.8,356.7 537.3,333.6 540.4,334.7 533.2,357.2 			"/>
		</g>
		<g>
			<polygon class="st20" points="551.4,274.4 548.4,272.8 558.5,251.2 561.4,252.8 			"/>
		</g>
		<g>
			<polygon class="st20" points="530.4,269.8 527.2,269.3 530.1,245.5 533.3,245.9 			"/>
		</g>
		<g>
			<polygon class="st20" points="505,272.2 498.1,249.3 501.2,248.2 508.1,271.2 			"/>
		</g>
		<rect x="518.2" y="388.8" class="st21" width="20.6" height="3.6"/>
		<rect x="518.2" y="395.3" class="st21" width="14.8" height="3.6"/>
		<path class="st21" d="M514.3,401.7c2.3,1.9,5.1,3.1,8.2,3.1h6.6c3.1,0,5.9-1.2,8.2-3.1H514.3z"/>
	</g>
	<path class="st22" d="M1049,719c0.1-0.1,0.2-0.2,0.5-0.4c-0.1,0-0.1,0-0.2-0.1c-1.9-0.8-3.3-2.4-2.9-3.4c0.4-1.1,2.3-1.3,4.3-0.5
		c0.1,0.1,0.4,0.1,0.5,0.2c0-0.1,0-0.1,0-0.2c-0.4-2.2,0.4-4.1,1.4-4.3c1.1-0.1,2.3,1.4,2.5,3.6c0,0.2,0,0.4,0.1,0.6
		c0.1,0,0.1-0.1,0.1-0.1c1.7-1.4,3.6-1.8,4.2-0.8c0.7,1-0.1,2.8-1.8,4.2c-0.1,0.1-0.2,0.2-0.5,0.4c0.1,0,0.1,0,0.2,0.1
		c1.9,0.8,3.3,2.4,2.9,3.4c-0.4,1.1-2.3,1.3-4.3,0.5c-0.1-0.1-0.4-0.1-0.5-0.2c0,0.1,0,0.1,0,0.2c0.4,2.2-0.4,4.1-1.4,4.3
		c-1.1,0.1-2.3-1.4-2.5-3.6c0-0.2,0-0.4-0.1-0.6c-0.1,0-0.1,0.1-0.2,0.1c-1.7,1.4-3.6,1.8-4.2,0.8
		C1046.6,722.3,1047.3,720.5,1049,719z M1053.9,720.5c1.1-0.2,1.9-1.3,1.7-2.5c-0.1-1.2-1.2-2.1-2.4-1.8c-1.1,0.2-1.9,1.3-1.7,2.5
		C1051.6,719.9,1052.7,720.7,1053.9,720.5z"/>
	<g>
		<path class="st23" d="M143.4,278.6c-31.1-1.3-59.7,8-79.2,20c-19.7,12.4-30.4,27.6-29.8,43.8c0.6,16.2,6.5,47.2,22.4,62
			c16,14.6,158.1,35,171.5-25.1C239.7,328.5,207.1,279.8,143.4,278.6z"/>
		<path class="st23" d="M72.6,395.2c0,0,6.6,31.1,45.3,44.1c0,0-25.2-41-11.7-64.6C114.5,360.5,72.6,395.2,72.6,395.2z"/>
	</g>
	<g>
		<g>
			<path class="st24" d="M1074,725.1c-140.1-83.5-280.3-152.9-420.3-208.4c0-90.2,0-180.5,0-270.8C793.8,191,934,122.5,1074,40.4
				C1074,268.6,1074,496.9,1074,725.1z"/>
			<path class="st17" d="M1074,82.6c-140.1,71.9-280.3,131.9-420.3,179.9c0-5.5,0-11.2,0-16.8C793.8,190.9,934,122.4,1074,40.3
				C1074,54.5,1074,68.5,1074,82.6z"/>
			<path class="st25" d="M662.1,251.1c0,1.9-1.1,3.7-2.3,4.2c-1.2,0.5-2.3-0.7-2.3-2.5c0-1.9,1-3.7,2.3-4.2
				C661,248.1,662.1,249.2,662.1,251.1z"/>
			<path class="st26" d="M669.4,248.4c0,1.9-1.1,3.9-2.3,4.3c-1.2,0.5-2.3-0.7-2.3-2.7c0-1.9,1-3.9,2.3-4.3
				C668.4,245.3,669.4,246.5,669.4,248.4z"/>
			<path class="st23" d="M676.7,245.7c0,1.9-1.1,4-2.3,4.5s-2.3-0.7-2.3-2.7c0-1.9,1-4,2.3-4.5C675.6,242.5,676.7,243.7,676.7,245.7
				z"/>
		</g>
		<path class="st27" d="M1063.3,676c-124.9-64.5-250-119.4-375-164.4c0-80.6,0-161.2,0-241.8c124.9-38,250-84.1,375-138.2
			C1063.3,313.1,1063.3,494.6,1063.3,676z"/>
		<g>
			<path class="st28" d="M767.8,281.4c-20,4.8-40.2,9.5-60.2,14.1c0-1.4,0-2.8,0-4.2c20.1-4.8,40.2-9.6,60.2-14.8
				C767.8,278.1,767.8,279.8,767.8,281.4z"/>
		</g>
		<g>
			<path class="st28" d="M727,281.6c-6.5,1.7-13,3.3-19.5,4.9c0-1.4,0-2.8,0-4.2c6.5-1.7,13-3.4,19.5-5.2
				C727,278.6,727,280.2,727,281.6z"/>
		</g>
		<g>
			<path class="st28" d="M894.3,248.8c-20,5.4-40.2,10.9-60.2,16c0-1.9,0-3.9,0-5.7c20-5.4,40.2-11,60.2-16.8
				C894.3,244.5,894.3,246.6,894.3,248.8z"/>
		</g>
		<g>
			<path class="st26" d="M837.1,468.1c-1-0.2-2.1-0.4-3-0.6c0-1.9,0-3.9,0-5.7c1,0.1,2.1,0.4,3,0.6
				C837.1,464.2,837.1,466.1,837.1,468.1z"/>
		</g>
		<g>
			<path class="st28" d="M884.8,492.9c-16.9-4-33.8-8-50.8-11.7c0-1.9,0-3.9,0-5.7c16.9,3.6,33.8,7.2,50.8,11.1
				C884.8,488.7,884.8,490.9,884.8,492.9z"/>
		</g>
		<g>
			<path class="st23" d="M905,481.8c-1-0.2-2.1-0.4-3-0.6c0-2.2,0-4.5,0-6.6c1,0.2,2.1,0.4,3,0.6C905,477.3,905,479.5,905,481.8z"/>
		</g>
		<g>
			<path class="st28" d="M952.7,509.5c-16.9-4.2-33.8-8.4-50.8-12.5c0-2.2,0-4.5,0-6.6c16.9,3.9,33.8,7.7,50.8,11.8
				C952.7,504.7,952.7,507.1,952.7,509.5z"/>
		</g>
		<g>
			<path class="st28" d="M853.7,247c-6.5,1.9-13,3.7-19.5,5.7c0-1.9,0-3.9,0-5.7c6.5-1.9,13-3.9,19.5-5.9
				C853.7,243.1,853.7,245.1,853.7,247z"/>
		</g>
		<g>
			<path class="st28" d="M1047.8,203.9c-20,6.3-40.2,12.4-60.2,18.3c0-2.7,0-5.2,0-7.8c20-6.3,40.2-12.7,60.2-19.2
				C1047.8,198.1,1047.8,201,1047.8,203.9z"/>
		</g>
		<g>
			<path class="st28" d="M1007.1,199.2c-6.5,2.2-13,4.3-19.5,6.5c0-2.7,0-5.2,0-7.8c6.5-2.3,13-4.5,19.5-6.8
				C1007.1,193.8,1007.1,196.5,1007.1,199.2z"/>
		</g>
		<g>
			<g>
				<g>
					<g>
						<path class="st29" d="M804,513.2c-31.4-9.6-62.8-18.9-94.2-27.7c0-60.7,0-121.2,0-181.9c31.4-6.4,62.8-13.1,94.2-20.1
							C804,360.1,804,436.6,804,513.2z M709.9,485.3c31.4,8.7,62.6,17.8,94,27.5c0-76.3,0-152.8,0-229.2c-31.4,7-62.6,13.7-94,20
							C709.9,364.3,709.9,424.9,709.9,485.3z"/>
					</g>
					<g>
						<path class="st29" d="M804,480.4c-31.4-7.2-62.7-14.2-94.1-20.9c0,0,0-0.1,0-0.2c31.4,6.6,62.7,13.5,94.1,20.7
							C804,480.2,804,480.4,804,480.4z"/>
					</g>
					<g>
						<path class="st29" d="M804,447.7c-31.4-4.9-62.7-9.5-94.1-14c0,0,0-0.1,0-0.2c31.4,4.5,62.7,9,94.1,14
							C804,447.4,804,447.6,804,447.7z"/>
					</g>
					<g>
						<path class="st29" d="M804,414.9c-31.4-2.5-62.7-4.9-94.1-7.2c0,0,0-0.1,0-0.2c31.4,2.3,62.7,4.6,94.1,7.1
							C804,414.8,804,414.8,804,414.9z"/>
					</g>
					<g>
						<path class="st29" d="M804,382.1c-31.4-0.1-62.7-0.2-94.1-0.4c0,0,0-0.1,0-0.2c31.4,0.1,62.7,0.2,94.1,0.4
							C804,381.9,804,381.9,804,382.1z"/>
					</g>
					<g>
						<path class="st29" d="M804,349.3c-31.4,2.3-62.7,4.5-94.1,6.5c0,0,0-0.1,0-0.2c31.4-2.1,62.7-4.2,94.1-6.5
							C804,349.1,804,349.3,804,349.3z"/>
					</g>
					<g>
						<path class="st29" d="M804,316.6c-31.4,4.7-62.7,9-94.1,13.3c0,0,0-0.1,0-0.2c31.4-4.2,62.7-8.7,94.1-13.3
							C804,316.3,804,316.5,804,316.6z"/>
					</g>
					<g>
						<path class="st29" d="M772.6,503.5h-0.1c0-71,0-142,0-213h0.1C772.6,361.6,772.6,432.6,772.6,503.5z"/>
					</g>
					<g>
						<path class="st29" d="M741.2,494.4L741.2,494.4c-0.1-65.7-0.1-131.5-0.1-197.1h0.1C741.2,363,741.2,428.6,741.2,494.4z"/>
					</g>
				</g>
				<g>
					<path class="st29" d="M705.1,313c0,0,0-0.1-0.1-0.1c1.6-3,3.3-6.2,4.8-9.2c0,0,0,0.1,0.1,0.1
						C708.3,306.9,706.6,309.9,705.1,313z"/>
				</g>
				<g>
					<path class="st29" d="M705.1,338.6c0,0,0-0.1-0.1-0.1c1.6-2.9,3.3-5.9,4.8-8.8c0,0,0,0.1,0.1,0.1
						C708.3,332.7,706.6,335.6,705.1,338.6z"/>
				</g>
				<g>
					<path class="st29" d="M705.1,364.2c0,0,0-0.1-0.1-0.1c1.6-2.8,3.3-5.7,4.8-8.6c0,0,0,0.1,0.1,0.1
						C708.3,358.5,706.6,361.4,705.1,364.2z"/>
				</g>
				<g>
					<path class="st29" d="M705.1,389.9c0,0,0-0.1-0.1-0.1c1.6-2.8,3.3-5.4,4.8-8.2c0,0,0,0.1,0.1,0.1
						C708.3,384.4,706.6,387.1,705.1,389.9z"/>
				</g>
				<g>
					<path class="st29" d="M705.1,415.5c0,0,0-0.1-0.1-0.1c1.6-2.7,3.3-5.2,4.8-7.8c0,0,0,0.1,0.1,0.1
						C708.3,410.3,706.6,412.8,705.1,415.5z"/>
				</g>
				<g>
					<path class="st29" d="M705.1,441c0,0,0-0.1-0.1-0.1c1.6-2.5,3.3-4.9,4.8-7.5c0,0,0,0.1,0.1,0.1
						C708.3,436.1,706.6,438.6,705.1,441z"/>
				</g>
				<g>
					<path class="st29" d="M705.1,466.7c0,0,0-0.1-0.1-0.1c1.6-2.4,3.3-4.8,4.8-7.1c0,0,0,0.1,0.1,0.1
						C708.3,461.9,706.6,464.3,705.1,466.7z"/>
				</g>
				<g>
					<path class="st29" d="M700.7,466.4L700.7,466.4c-0.1,0.1-0.4,0.2-0.5,0.4c0-0.1,0-0.4-0.1-0.5c0.2-0.1,0.4-0.2,0.6-0.4
						c0.1,0,0.2,0,0.4,0.1c0,1.6,0,3,0,4.6c-0.1,0-0.2,0-0.4-0.1C700.7,469,700.7,467.7,700.7,466.4z"/>
					<path class="st29" d="M703.9,468.8c0,1.6-0.4,2.4-1,2.2c-0.5-0.1-1-1.1-1-2.5c0-1.6,0.4-2.3,1-2.2
						C703.6,466.4,703.9,467.3,703.9,468.8z M702.4,468.5c0,1.2,0.2,1.9,0.6,2.1c0.4,0.1,0.6-0.6,0.6-1.8s-0.1-1.9-0.6-2.1
						C702.7,466.6,702.4,467.2,702.4,468.5z"/>
				</g>
				<g>
					<path class="st29" d="M699.9,445.1c0-0.1,0-0.2,0-0.4c0.1-0.1,0.2-0.2,0.2-0.5c0.7-1,1-1.6,1-2.2c0-0.5-0.1-1-0.6-1
						c-0.2,0-0.5,0.1-0.6,0.2c0-0.1-0.1-0.4-0.1-0.5c0.2-0.2,0.5-0.4,0.7-0.4c0.6,0.1,0.8,0.8,0.8,1.4c0,0.8-0.4,1.4-1,2.3
						c-0.1,0.1-0.1,0.2-0.2,0.4l0,0c0.4,0.1,0.8,0.1,1.2,0.2c0,0.1,0,0.4,0,0.5C701.1,445.3,700.5,445.1,699.9,445.1z"/>
					<path class="st29" d="M703.9,443.5c0,1.6-0.4,2.4-1,2.3c-0.5-0.1-1-1-1-2.5s0.4-2.3,1-2.3C703.6,441,703.9,441.9,703.9,443.5z
						 M702.4,443.2c0,1.2,0.2,1.9,0.6,1.9c0.4,0.1,0.6-0.6,0.6-1.8s-0.1-1.9-0.6-1.9C702.7,441.4,702.4,442,702.4,443.2z"/>
				</g>
				<g>
					<path class="st29" d="M700,419.3c0.1,0.1,0.4,0.4,0.6,0.4c0.5,0,0.6-0.5,0.6-0.8c0-0.6-0.4-1-0.7-1c-0.1,0-0.1,0-0.2,0
						c0-0.1,0-0.4,0-0.5c0.1,0,0.1,0,0.2,0c0.2,0,0.6-0.1,0.6-0.7c0-0.4-0.1-0.7-0.5-0.7c-0.2,0-0.5,0.1-0.6,0.2
						c0-0.1-0.1-0.4-0.1-0.5c0.1-0.1,0.4-0.4,0.7-0.2c0.5,0,0.8,0.6,0.8,1.2c0,0.5-0.1,0.8-0.5,1.1l0,0c0.4,0.1,0.6,0.6,0.6,1.2
						c0,0.7-0.4,1.3-1,1.3c-0.4,0-0.6-0.2-0.7-0.4C699.9,419.6,700,419.5,700,419.3z"/>
					<path class="st29" d="M703.9,418c0,1.6-0.4,2.4-1,2.3c-0.5,0-1-1-1-2.4c0-1.6,0.4-2.4,1-2.3C703.6,415.7,703.9,416.6,703.9,418
						z M702.4,418c0,1.2,0.2,1.9,0.6,1.9s0.6-0.7,0.6-1.8c0-1.2-0.1-1.9-0.6-1.9C702.7,416.1,702.4,416.7,702.4,418z"/>
				</g>
				<g>
					<path class="st29" d="M701.1,395c0-0.4,0-0.8,0-1.2c-0.5,0-0.8,0-1.3,0c0-0.1,0-0.2,0-0.4c0.4-1,0.8-1.9,1.2-2.9
						c0.1,0,0.2,0,0.4,0c0,1,0,1.9,0,2.9c0.1,0,0.2,0,0.4,0c0,0.1,0,0.4,0,0.5c-0.1,0-0.2,0-0.4,0c0,0.4,0,0.8,0,1.2
						C701.3,395,701.2,395,701.1,395z M701.1,393.2c0-0.5,0-1,0-1.6c0-0.2,0-0.5,0-0.7l0,0c-0.1,0.2-0.1,0.5-0.2,0.7
						c-0.2,0.5-0.5,1.1-0.7,1.6l0,0C700.5,393.2,700.7,393.2,701.1,393.2z"/>
					<path class="st29" d="M703.9,392.7c0,1.6-0.4,2.4-1,2.4c-0.5,0-1-0.8-1-2.4c0-1.6,0.4-2.4,1-2.4
						C703.6,390.4,703.9,391.2,703.9,392.7z M702.4,392.7c0,1.2,0.2,1.9,0.6,1.9s0.6-0.7,0.6-1.9c0-1.1-0.1-1.9-0.6-1.9
						C702.7,390.8,702.4,391.5,702.4,392.7z"/>
				</g>
				<g>
					<path class="st29" d="M701.6,365.7c-0.4,0-0.7,0-1.1,0c0,0.4-0.1,0.7-0.1,1.2c0.1,0,0.1,0,0.2,0c0.2,0,0.5,0,0.6,0.2
						c0.2,0.2,0.4,0.6,0.4,1.2c0,0.8-0.5,1.6-1.1,1.6c-0.4,0-0.6-0.1-0.7-0.2c0-0.1,0.1-0.4,0.1-0.5c0.1,0.1,0.4,0.2,0.6,0.2
						c0.4,0,0.6-0.4,0.6-1s-0.2-1-0.8-1c-0.1,0-0.2,0-0.4,0c0.1-0.7,0.1-1.4,0.2-2.2c0.5,0,0.8,0,1.3,0
						C701.6,365.3,701.6,365.5,701.6,365.7z"/>
					<path class="st29" d="M703.9,367.4c0,1.6-0.4,2.4-1,2.4c-0.5,0-1-0.8-1-2.4c0-1.6,0.4-2.4,1-2.4
						C703.6,364.9,703.9,365.9,703.9,367.4z M702.4,367.5c0,1.2,0.2,1.8,0.6,1.8s0.6-0.7,0.6-1.9c0-1.1-0.1-1.9-0.6-1.8
						C702.7,365.5,702.4,366.1,702.4,367.5z"/>
				</g>
				<g>
					<path class="st29" d="M701.4,340.5c-0.1,0-0.1,0-0.2,0c-0.6,0.2-0.8,1-1,1.7l0,0c0.1-0.4,0.4-0.6,0.7-0.6
						c0.5,0,0.8,0.5,0.8,1.4c0,0.8-0.4,1.7-1,1.7s-1-0.6-1-1.8c0-1,0.2-1.7,0.5-2.2c0.2-0.4,0.5-0.6,0.8-0.7c0.1,0,0.2,0,0.2,0
						C701.4,340.1,701.4,340.2,701.4,340.5z M701.3,343.1c0-0.6-0.2-1.1-0.6-1c-0.2,0-0.5,0.2-0.5,0.6c0,0.1,0,0.1,0,0.2
						c0,0.7,0.2,1.3,0.6,1.2C701.1,344.2,701.3,343.7,701.3,343.1z"/>
					<path class="st29" d="M703.9,342c0,1.6-0.4,2.5-1,2.5c-0.5,0-1-0.7-1-2.3c0-1.6,0.4-2.4,1-2.5
						C703.6,339.6,703.9,340.5,703.9,342z M702.4,342.1c0,1.2,0.2,1.8,0.6,1.8s0.6-0.8,0.6-1.9c0-1.2-0.1-1.8-0.6-1.8
						C702.7,340.2,702.4,340.9,702.4,342.1z"/>
				</g>
				<g>
					<path class="st29" d="M701.7,314.8c0,0.1,0,0.2,0,0.4c-0.4,1.4-0.8,2.9-1.2,4.3c-0.1,0-0.2,0-0.4,0c0.4-1.4,0.8-2.9,1.2-4.2
						l0,0c-0.5,0.1-1,0.1-1.3,0.2c0-0.1,0-0.4,0-0.5C700.5,314.9,701.1,314.9,701.7,314.8z"/>
					<path class="st29" d="M703.9,316.6c0,1.6-0.4,2.5-1,2.7c-0.5,0.1-1-0.7-1-2.2c0-1.6,0.4-2.4,1-2.5
						C703.6,314.3,703.9,315.1,703.9,316.6z M702.4,316.9c0,1.2,0.2,1.8,0.6,1.8s0.6-0.8,0.6-2.1s-0.1-1.8-0.6-1.8
						C702.7,315,702.4,315.6,702.4,316.9z"/>
				</g>
				<g>
					<path class="st29" d="M719.8,498.1c0-0.1,0-0.2,0-0.4c0.1-0.1,0.2-0.2,0.2-0.4c0.7-1,1-1.4,1.1-2.2c0-0.5-0.1-1-0.6-1.1
						c-0.2-0.1-0.5,0.1-0.6,0.2c0-0.1-0.1-0.4-0.1-0.5c0.2-0.2,0.5-0.4,0.7-0.2c0.6,0.2,0.8,1,0.8,1.7c0,0.8-0.4,1.6-1,2.3
						c-0.1,0.1-0.1,0.2-0.2,0.2l0,0c0.5,0.1,0.8,0.2,1.2,0.4c0,0.1,0,0.4,0,0.6C721,498.5,720.4,498.2,719.8,498.1z"/>
					<path class="st29" d="M723.8,496.8c0,1.7-0.4,2.4-1,2.3c-0.5-0.1-1-1.2-1-2.8c0-1.7,0.4-2.4,1-2.3
						C723.5,494.2,723.8,495.2,723.8,496.8z M722.3,496.4c0,1.2,0.2,2.1,0.6,2.2s0.6-0.6,0.6-1.8s-0.1-2.1-0.6-2.2
						C722.6,494.5,722.3,495.1,722.3,496.4z"/>
					<path class="st29" d="M725,495.3L725,495.3c-0.1,0.1-0.4,0.2-0.5,0.4c0-0.1,0-0.4-0.1-0.5c0.2-0.1,0.4-0.2,0.6-0.4
						c0.1,0,0.2,0,0.4,0.1c0,1.7,0,3.3,0,4.9c-0.1,0-0.2-0.1-0.4-0.1C725,498.2,725,496.8,725,495.3z"/>
					<path class="st29" d="M728.1,495.7c0,0.1,0,0.2,0,0.5c-0.4,1.3-0.8,2.8-1.2,4.1c-0.1,0-0.2-0.1-0.4-0.1c0.4-1.3,0.8-2.7,1.2-4
						l0,0c-0.5-0.1-1-0.2-1.3-0.4c0-0.1,0-0.4,0-0.6C727,495.3,727.5,495.6,728.1,495.7z"/>
				</g>
				<g>
					<path class="st29" d="M751.7,508.1c0-0.1,0-0.2,0-0.5c0.1-0.1,0.2-0.4,0.2-0.5c0.7-1.1,1-1.6,1.1-2.4c0-0.5-0.1-1.1-0.6-1.2
						c-0.2-0.1-0.5,0.1-0.6,0.2c0-0.2-0.1-0.4-0.1-0.5c0.2-0.2,0.5-0.4,0.7-0.2c0.6,0.1,0.8,1.1,0.8,1.8c0,1-0.4,1.7-1,2.5
						c-0.1,0.1-0.1,0.2-0.2,0.4l0,0c0.4,0.1,0.8,0.2,1.2,0.4c0,0.2,0,0.4,0,0.6C752.9,508.5,752.3,508.2,751.7,508.1z"/>
					<path class="st29" d="M755.8,506.7c0,1.8-0.4,2.7-1,2.5c-0.5-0.1-1-1.2-1-3s0.4-2.7,1-2.4C755.5,503.9,755.8,505,755.8,506.7z
						 M754.3,506.3c0,1.3,0.2,2.2,0.6,2.3c0.4,0.1,0.6-0.7,0.6-2.1c0-1.3-0.1-2.2-0.6-2.3C754.5,504.1,754.3,504.8,754.3,506.3z"/>
					<path class="st29" d="M756.9,505.1L756.9,505.1c-0.1,0.1-0.4,0.2-0.5,0.4c0-0.2,0-0.4-0.1-0.6c0.2-0.1,0.4-0.2,0.6-0.5
						c0.1,0,0.2,0,0.4,0.1c0,1.8,0,3.5,0,5.3c-0.1,0-0.2-0.1-0.4-0.1C756.9,508.2,756.9,506.7,756.9,505.1z"/>
					<path class="st29" d="M758.3,508.8c0-0.7,0.2-1.1,0.6-1.2l0,0c-0.4-0.4-0.5-0.8-0.5-1.3c0-0.8,0.4-1.3,0.8-1.2s0.8,0.8,0.8,1.6
						c0,0.5-0.1,1-0.5,1.1l0,0c0.4,0.4,0.6,1,0.6,1.6c0,1-0.4,1.4-1,1.2C758.6,510.4,758.3,509.5,758.3,508.8z M759.8,509.2
						c0-0.6-0.2-1.1-0.6-1.3c-0.4,0.1-0.5,0.5-0.5,1c0,0.6,0.2,1.1,0.6,1.2C759.6,510.1,759.8,509.8,759.8,509.2z M758.7,506.3
						c0,0.5,0.2,0.8,0.5,1.2c0.2-0.1,0.5-0.4,0.5-0.8s-0.1-1-0.5-1C759,505.4,758.7,505.8,758.7,506.3z"/>
				</g>
				<g>
					<path class="st29" d="M783.8,518.5c0-0.1,0-0.4,0-0.5c0.1-0.1,0.2-0.4,0.2-0.5c0.7-1.2,1.1-1.8,1.1-2.7c0-0.6-0.1-1.2-0.6-1.3
						c-0.2-0.1-0.5,0.1-0.6,0.2c0-0.2-0.1-0.4-0.1-0.6c0.2-0.2,0.5-0.5,0.7-0.4c0.6,0.2,0.8,1.1,0.8,1.9c0,1.1-0.4,1.8-1,2.8
						c-0.1,0.1-0.1,0.2-0.2,0.4l0,0c0.5,0.1,0.8,0.2,1.2,0.4c0,0.2,0,0.5,0,0.6C784.9,518.8,784.3,518.6,783.8,518.5z"/>
					<path class="st29" d="M787.8,516.9c0,1.9-0.4,2.9-1,2.7c-0.5-0.2-1-1.3-1-3.3c0-1.9,0.4-2.9,1-2.7
						C787.4,513.9,787.8,515,787.8,516.9z M786.2,516.4c0,1.4,0.2,2.4,0.6,2.5c0.4,0.1,0.6-0.7,0.6-2.2s-0.1-2.4-0.6-2.5
						C786.5,514.1,786.2,514.9,786.2,516.4z"/>
					<path class="st29" d="M788.9,515.1L788.9,515.1c-0.1,0.1-0.4,0.2-0.5,0.4c0-0.2,0-0.4-0.1-0.6c0.2-0.1,0.4-0.4,0.6-0.5
						c0.1,0,0.2,0.1,0.4,0.1c0,1.9,0,3.9,0,5.8c-0.1,0-0.2-0.1-0.4-0.1C788.9,518.5,788.9,516.8,788.9,515.1z"/>
					<path class="st29" d="M790.6,520.2c0.1,0,0.1,0,0.4,0.1c0.2,0,0.5-0.1,0.6-0.4s0.4-0.7,0.4-1.4l0,0c-0.1,0.4-0.4,0.5-0.6,0.4
						c-0.5-0.1-0.8-1.1-0.8-2.1c0-1.1,0.4-1.9,1-1.8c0.6,0.1,1,1.2,1,2.8c0,1.3-0.2,2.1-0.5,2.5c-0.2,0.4-0.5,0.5-0.8,0.5
						c-0.1,0-0.2,0-0.4-0.1C790.6,520.5,790.6,520.3,790.6,520.2z M790.7,516.9c0,0.7,0.2,1.3,0.5,1.4c0.2,0.1,0.5-0.1,0.5-0.5
						c0-0.1,0-0.1,0-0.2c0-1-0.1-1.8-0.6-1.9C790.9,515.6,790.7,516.1,790.7,516.9z"/>
				</g>
				<path class="st30" d="M709.9,355.7c31.4-2.1,62.7-4.2,94.1-6.5c0-11,0-21.8,0-32.8c-31.4,4.7-62.7,9-94.1,13.3
					C709.9,338.4,709.9,347,709.9,355.7z"/>
				<path class="st30" d="M709.9,407.5c31.4,2.3,62.7,4.6,94.1,7.1c0-11,0-21.8,0-32.8c-31.4-0.1-62.7-0.2-94.1-0.4
					C709.9,390.3,709.9,399,709.9,407.5z"/>
				<path class="st30" d="M709.9,459.5c31.4,6.6,62.7,13.5,94.1,20.9c0-11,0-21.8,0-32.8c-31.4-4.9-62.7-9.5-94.1-14
					C709.9,442.1,709.9,450.8,709.9,459.5z"/>
			</g>
			<g>
				<path class="st18" d="M752.1,328.5c-14.1,1.8-28.2,3.6-42.3,5.3c0-1.3,0-2.8,0-4.1c14.1-1.9,28.2-3.9,42.3-5.8
					C752.1,325.4,752.1,326.9,752.1,328.5z"/>
				<path class="st31" d="M782.5,337.6c-24.2,2.4-48.4,4.8-72.6,7.1c0-1.3,0-2.8,0-4.1c24.2-2.5,48.4-5.2,72.6-8
					C782.5,334.3,782.5,336,782.5,337.6z"/>
				<path class="st23" d="M735.8,354c-8.7,0.6-17.2,1.2-25.9,1.7c0-1.3,0-2.8,0-4.1c8.6-0.6,17.2-1.3,25.9-2.1
					C735.8,351,735.8,352.5,735.8,354z"/>
				<path class="st18" d="M786.2,386.9c-25.4-0.4-50.9-0.8-76.3-1.2c0-1.3,0-2.8,0-4.1c25.4,0.1,50.9,0.1,76.3,0.2
					C786.2,383.5,786.2,385.2,786.2,386.9z"/>
				<path class="st31" d="M741.2,398.1c-10.5-0.5-20.9-1-31.4-1.3c0-1.4,0-2.8,0-4.1c10.5,0.4,20.9,0.7,31.4,1
					C741.2,395.1,741.2,396.5,741.2,398.1z"/>
				<path class="st23" d="M772.6,412.2c-20.9-1.6-41.9-3.1-62.7-4.7c0-1.3,0-2.8,0-4.1c20.9,1.3,41.9,2.7,62.7,4
					C772.6,409.1,772.6,410.7,772.6,412.2z"/>
				<path class="st18" d="M741.2,442.9c-10.5-1.7-20.9-3.3-31.4-4.8c0-1.3,0-2.8,0-4.1c10.5,1.4,20.9,3,31.4,4.6
					C741.2,439.8,741.2,441.4,741.2,442.9z"/>
				<path class="st31" d="M772.6,460.7c-20.9-4.1-41.9-8-62.7-11.8c0-1.3,0-2.8,0-4.1c20.9,3.6,41.9,7.2,62.7,11.1
					C772.6,457.4,772.6,459.1,772.6,460.7z"/>
				<path class="st23" d="M761.6,471.1c-17.2-3.9-34.5-7.6-51.7-11.2c0-1.3,0-2.8,0-4.1c17.2,3.5,34.5,7,51.7,10.6
					C761.6,467.9,761.6,469.5,761.6,471.1z"/>
			</g>
		</g>
		<g>
			<path class="st28" d="M990.8,261.9c-1.1,0.2-2.2,0.5-3.3,0.7c0-3.4,0-6.8,0-10.1c1.1-0.2,2.2-0.5,3.3-0.7
				C990.8,255.1,990.8,258.4,990.8,261.9z"/>
			<path class="st28" d="M999.9,259.9c-1.1,0.2-2.2,0.5-3.3,0.7c0-3.5,0-6.9,0-10.4c1.1-0.2,2.2-0.5,3.3-0.7
				C999.9,253,999.9,256.4,999.9,259.9z"/>
			<path class="st28" d="M1009,257.8c-1.1,0.2-2.2,0.5-3.3,0.7c0-3.5,0-7,0-10.5c1.1-0.2,2.2-0.5,3.3-0.7
				C1009,250.8,1009,254.3,1009,257.8z"/>
			<path class="st29" d="M1018.2,255.8c-1.1,0.2-2.2,0.5-3.3,0.7c0-3.5,0-7.1,0-10.7c1.1-0.2,2.2-0.5,3.3-0.8
				C1018.2,248.7,1018.2,252.2,1018.2,255.8z"/>
			<path class="st29" d="M1027.3,253.7c-1.1,0.2-2.2,0.5-3.3,0.7c0-3.6,0-7.2,0-10.9c1.1-0.2,2.2-0.5,3.3-0.8
				C1027.3,246.4,1027.3,250.1,1027.3,253.7z"/>
			<path class="st18" d="M1036.4,251.6c-1.1,0.2-2.2,0.5-3.3,0.7c0-3.6,0-7.4,0-11c1.1-0.2,2.2-0.5,3.3-0.8
				C1036.4,244.2,1036.4,248,1036.4,251.6z"/>
			<path class="st18" d="M1045.5,249.5c-1.1,0.2-2.2,0.5-3.3,0.7c0-3.7,0-7.5,0-11.2c1.1-0.2,2.2-0.5,3.3-0.8
				C1045.5,242,1045.5,245.8,1045.5,249.5z"/>
			<path class="st29" d="M990.8,287.4c-1.1,0.2-2.2,0.4-3.3,0.6c0-3.4,0-6.8,0-10.1c1.1-0.2,2.2-0.4,3.3-0.6
				C990.8,280.6,990.8,284,990.8,287.4z"/>
			<path class="st29" d="M999.9,285.8c-1.1,0.2-2.2,0.4-3.3,0.6c0-3.5,0-6.9,0-10.4c1.1-0.2,2.2-0.4,3.3-0.6
				C999.9,278.9,999.9,282.4,999.9,285.8z"/>
			<path class="st29" d="M1009,284.3c-1.1,0.2-2.2,0.4-3.3,0.6c0-3.5,0-7,0-10.5c1.1-0.2,2.2-0.5,3.3-0.6
				C1009,277.3,1009,280.8,1009,284.3z"/>
			<path class="st29" d="M1018.2,282.7c-1.1,0.2-2.2,0.4-3.3,0.6c0-3.5,0-7.1,0-10.7c1.1-0.2,2.2-0.5,3.3-0.6
				C1018.2,275.5,1018.2,279.1,1018.2,282.7z"/>
			<path class="st29" d="M1027.3,281c-1.1,0.2-2.2,0.4-3.3,0.6c0-3.6,0-7.2,0-10.9c1.1-0.2,2.2-0.5,3.3-0.6
				C1027.3,273.8,1027.3,277.4,1027.3,281z"/>
			<path class="st18" d="M1036.4,279.4c-1.1,0.2-2.2,0.4-3.3,0.6c0-3.7,0-7.4,0-11c1.1-0.2,2.2-0.5,3.3-0.6
				C1036.4,272,1036.4,275.7,1036.4,279.4z"/>
			<path class="st18" d="M1045.5,277.7c-1.1,0.2-2.2,0.4-3.3,0.6c0-3.7,0-7.5,0-11.2c1.1-0.2,2.2-0.5,3.3-0.6
				C1045.5,270.3,1045.5,274,1045.5,277.7z"/>
			<path class="st29" d="M990.8,313c-1.1,0.1-2.2,0.2-3.3,0.4c0-3.4,0-6.8,0-10.1c1.1-0.1,2.2-0.4,3.3-0.5
				C990.8,306.2,990.8,309.6,990.8,313z"/>
			<path class="st29" d="M999.9,311.8c-1.1,0.1-2.2,0.2-3.3,0.4c0-3.5,0-6.9,0-10.4c1.1-0.1,2.2-0.4,3.3-0.5
				C999.9,304.9,999.9,308.4,999.9,311.8z"/>
			<path class="st23" d="M1009,310.7c-1.1,0.1-2.2,0.2-3.3,0.4c0-3.5,0-7,0-10.5c1.1-0.1,2.2-0.4,3.3-0.5
				C1009,303.6,1009,307.2,1009,310.7z"/>
			<path class="st23" d="M1018.2,309.5c-1.1,0.1-2.2,0.2-3.3,0.4c0-3.6,0-7.1,0-10.7c1.1-0.1,2.2-0.4,3.3-0.5
				C1018.2,302.3,1018.2,305.8,1018.2,309.5z"/>
			<path class="st29" d="M1027.3,308.3c-1.1,0.1-2.2,0.2-3.3,0.4c0-3.6,0-7.2,0-10.9c1.1-0.1,2.2-0.4,3.3-0.5
				C1027.3,301,1027.3,304.6,1027.3,308.3z"/>
			<path class="st18" d="M1036.4,307.2c-1.1,0.1-2.2,0.2-3.3,0.5c0-3.6,0-7.4,0-11c1.1-0.1,2.2-0.4,3.3-0.5
				C1036.4,299.7,1036.4,303.4,1036.4,307.2z"/>
			<path class="st18" d="M1045.5,306c-1.1,0.1-2.2,0.2-3.3,0.5c0-3.7,0-7.5,0-11.2c1.1-0.1,2.2-0.4,3.3-0.5
				C1045.5,298.4,1045.5,302.2,1045.5,306z"/>
			<path class="st31" d="M990.8,338.5c-1.1,0.1-2.2,0.1-3.3,0.2c0-3.4,0-6.8,0-10.1c1.1-0.1,2.2-0.2,3.3-0.4
				C990.8,331.7,990.8,335,990.8,338.5z"/>
			<path class="st29" d="M999.9,337.8c-1.1,0.1-2.2,0.1-3.3,0.2c0-3.5,0-6.9,0-10.4c1.1-0.1,2.2-0.2,3.3-0.4
				C999.9,330.8,999.9,334.3,999.9,337.8z"/>
			<path class="st29" d="M1009,337.1c-1.1,0.1-2.2,0.1-3.3,0.2c0-3.5,0-7,0-10.5c1.1-0.1,2.2-0.2,3.3-0.4
				C1009,330,1009,333.6,1009,337.1z"/>
			<path class="st29" d="M1018.2,336.4c-1.1,0.1-2.2,0.1-3.3,0.2c0-3.6,0-7.1,0-10.7c1.1-0.1,2.2-0.2,3.3-0.4
				C1018.2,329.1,1018.2,332.7,1018.2,336.4z"/>
			<path class="st29" d="M1027.3,335.6c-1.1,0.1-2.2,0.1-3.3,0.2c0-3.6,0-7.2,0-10.9c1.1-0.1,2.2-0.2,3.3-0.4
				C1027.3,328.3,1027.3,332,1027.3,335.6z"/>
			<path class="st18" d="M1036.4,334.9c-1.1,0.1-2.2,0.1-3.3,0.2c0-3.6,0-7.4,0-11c1.1-0.1,2.2-0.2,3.3-0.4
				C1036.4,327.4,1036.4,331.2,1036.4,334.9z"/>
			<path class="st18" d="M1045.5,334.2c-1.1,0.1-2.2,0.1-3.3,0.2c0-3.7,0-7.5,0-11.2c1.1-0.1,2.2-0.2,3.3-0.4
				C1045.5,326.6,1045.5,330.3,1045.5,334.2z"/>
			<path class="st29" d="M990.8,364c-1.1,0-2.2,0-3.3,0.1c0-3.4,0-6.8,0-10.1c1.1,0,2.2-0.1,3.3-0.1
				C990.8,357.2,990.8,360.6,990.8,364z"/>
			<path class="st29" d="M999.9,363.7c-1.1,0-2.2,0-3.3,0.1c0-3.5,0-6.9,0-10.4c1.1,0,2.2-0.1,3.3-0.1
				C999.9,356.9,999.9,360.2,999.9,363.7z"/>
			<path class="st29" d="M1009,363.5c-1.1,0-2.2,0-3.3,0.1c0-3.5,0-7,0-10.5c1.1,0,2.2-0.1,3.3-0.1C1009,356.4,1009,360,1009,363.5z
				"/>
			<path class="st29" d="M1018.2,363.1c-1.1,0-2.2,0-3.3,0.1c0-3.6,0-7.1,0-10.7c1.1,0,2.2-0.1,3.3-0.1
				C1018.2,356,1018.2,359.6,1018.2,363.1z"/>
			<path class="st29" d="M1027.3,362.9c-1.1,0-2.2,0-3.3,0.1c0-3.6,0-7.2,0-10.9c1.1,0,2.2-0.1,3.3-0.1
				C1027.3,355.7,1027.3,359.3,1027.3,362.9z"/>
			<path class="st18" d="M1036.4,362.6c-1.1,0-2.2,0-3.3,0.1c0-3.7,0-7.4,0-11.1c1.1,0,2.2-0.1,3.3-0.1
				C1036.4,355.2,1036.4,358.9,1036.4,362.6z"/>
			<path class="st18" d="M1045.5,362.3c-1.1,0-2.2,0-3.3,0.1c0-3.7,0-7.5,0-11.2c1.1,0,2.2-0.1,3.3-0.1
				C1045.5,354.8,1045.5,358.5,1045.5,362.3z"/>
			<path class="st29" d="M990.8,389.5c-1.1,0-2.2,0-3.3,0c0-3.4,0-6.8,0-10.1c1.1,0,2.2,0,3.3,0
				C990.8,382.7,990.8,386.2,990.8,389.5z"/>
			<path class="st29" d="M999.9,389.7c-1.1,0-2.2,0-3.3,0c0-3.5,0-6.9,0-10.4c1.1,0,2.2,0,3.3,0
				C999.9,382.8,999.9,386.3,999.9,389.7z"/>
			<path class="st29" d="M1009,389.9c-1.1,0-2.2,0-3.3,0c0-3.5,0-7,0-10.5c1.1,0,2.2,0,3.3,0C1009,382.8,1009,386.3,1009,389.9z"/>
			<path class="st29" d="M1018.2,390c-1.1,0-2.2,0-3.3,0c0-3.6,0-7.1,0-10.6c1.1,0,2.2,0,3.3,0
				C1018.2,382.9,1018.2,386.4,1018.2,390z"/>
			<path class="st29" d="M1027.3,390.1c-1.1,0-2.2,0-3.3,0c0-3.6,0-7.2,0-10.9c1.1,0,2.2,0,3.3,0
				C1027.3,382.9,1027.3,386.5,1027.3,390.1z"/>
			<path class="st28" d="M1036.4,390.4c-1.1,0-2.2,0-3.3,0c0-3.6,0-7.4,0-11c1.1,0,2.2,0,3.3,0
				C1036.4,382.9,1036.4,386.6,1036.4,390.4z"/>
			<path class="st28" d="M1045.5,390.5c-1.1,0-2.2,0-3.3,0c0-3.7,0-7.5,0-11.2c1.1,0,2.2,0,3.3,0
				C1045.5,383,1045.5,386.8,1045.5,390.5z"/>
		</g>
		<g>
			<g>
				<path class="st29" d="M930.1,417.2H930c0-54.9,0-109.8,0-164.6h0.1C930.1,307.4,930.1,362.3,930.1,417.2z"/>
			</g>
			<g>
				<path class="st29" d="M906.4,415.5h-0.1c0-52.3,0-104.6,0-156.9h0.1C906.4,310.8,906.4,363.1,906.4,415.5z"/>
			</g>
			<g>
				<path class="st29" d="M882.6,413.8h-0.1c0-49.8,0-99.6,0-149.3h0.1C882.6,314.2,882.6,364,882.6,413.8z"/>
			</g>
			<g>
				<path class="st29" d="M858.7,412.1h-0.1c0-47.3,0-94.7,0-142h0.1C858.7,317.4,858.7,364.7,858.7,412.1z"/>
			</g>
			<g>
				<path class="st30" d="M930,417.2c-15.8-1.2-31.7-2.3-47.5-3.5c0-49.8,0-99.6,0-149.4c15.8-3.9,31.7-7.8,47.5-11.8
					C930,307.4,930,362.3,930,417.2z"/>
				<g>
					<g>
						<path class="st29" d="M953.9,419.1c-39.7-3-79.4-5.9-119-8.6c0-45,0-90,0-135c39.7-9.3,79.4-19.1,119-29.4
							C953.9,303.8,953.9,361.4,953.9,419.1z M835,410.3c39.6,2.7,79.2,5.4,118.8,8.4c0-57.4,0-114.8,0-172.2
							c-39.6,10.3-79.2,20-118.8,29.3C835,320.7,835,365.4,835,410.3z"/>
					</g>
					<g>
						<path class="st29" d="M953.9,390.4c-39.7-0.8-79.2-1.6-118.9-2.2c0-0.1,0-0.2,0-0.2c39.7,0.7,79.2,1.3,118.9,2.2
							C953.9,390.1,953.9,390.3,953.9,390.4z"/>
					</g>
					<g>
						<path class="st29" d="M953.9,361.6c-39.7,1.4-79.2,2.8-118.9,4.1c0-0.1,0-0.2,0-0.2c39.7-1.3,79.2-2.7,118.9-4.1
							C953.9,361.3,953.9,361.4,953.9,361.6z"/>
					</g>
					<g>
						<path class="st29" d="M953.9,332.9c-39.7,3.6-79.2,7.1-118.9,10.4c0-0.1,0-0.2,0-0.2c39.7-3.3,79.2-6.8,118.9-10.5
							C953.9,332.6,953.9,332.7,953.9,332.9z"/>
					</g>
					<g>
						<path class="st29" d="M953.9,304c-39.7,5.9-79.2,11.5-118.9,16.6c0-0.1,0-0.2,0-0.2c39.7-5.3,79.2-10.9,118.9-16.8
							C953.9,303.8,953.9,303.9,953.9,304z"/>
					</g>
					<g>
						<path class="st29" d="M953.9,275.3c-39.7,8.1-79.2,15.8-118.9,23c0-0.1,0-0.2,0-0.2c39.7-7.2,79.2-15,118.9-23
							C953.9,275.1,953.9,275.2,953.9,275.3z"/>
					</g>
					<g>
						<path class="st29" d="M832.9,409.1c0,1.9-0.4,3-0.8,3s-0.8-1.1-0.8-3c0-1.9,0.4-3,0.8-3C832.7,406.1,832.9,407.3,832.9,409.1z
							 M831.6,409.1c0,1.6,0.2,2.4,0.5,2.4c0.4,0,0.5-1,0.5-2.4c0-1.4-0.1-2.4-0.5-2.4C831.8,406.7,831.6,407.5,831.6,409.1z"/>
					</g>
					<g>
						<path class="st29" d="M830,384.5L830,384.5c-0.1,0.1-0.4,0.4-0.5,0.6c0-0.2,0-0.4-0.1-0.6c0.1-0.2,0.4-0.5,0.6-0.7
							c0.1,0,0.2,0,0.2,0c0,1.9,0,3.9,0,5.8c-0.1,0-0.2,0-0.4,0C830,387.9,830,386.2,830,384.5z"/>
						<path class="st29" d="M832.9,386.6c0,1.9-0.4,3-0.8,3s-0.8-1.1-0.8-3c0-1.9,0.4-3,0.8-3C832.7,383.8,832.9,384.8,832.9,386.6z
							 M831.6,386.8c0,1.6,0.2,2.4,0.5,2.4c0.4,0,0.5-1,0.5-2.4c0-1.4-0.1-2.4-0.5-2.4C831.8,384.4,831.6,385.1,831.6,386.8z"/>
					</g>
					<g>
						<path class="st29" d="M829.3,367.4c0-0.1,0-0.4,0-0.5c0.1-0.2,0.1-0.4,0.2-0.6c0.6-1.4,1-2.2,1-3c0-0.6-0.1-1.1-0.5-1.1
							c-0.2,0-0.5,0.2-0.5,0.5c0-0.2-0.1-0.4-0.1-0.6c0.1-0.4,0.5-0.6,0.7-0.6c0.5,0,0.7,0.8,0.7,1.7c0,1.1-0.4,1.9-0.8,3.1
							c-0.1,0.1-0.1,0.2-0.2,0.5l0,0c0.4,0,0.7,0,1.1,0c0,0.2,0,0.5,0,0.6C830.4,367.2,829.8,367.2,829.3,367.4z"/>
						<path class="st29" d="M832.9,364.2c0,1.9-0.4,3-0.8,3.1c-0.5,0-0.8-1.1-0.8-2.9c0-1.9,0.4-3,0.8-3
							C832.7,361.3,832.9,362.4,832.9,364.2z M831.6,364.3c0,1.6,0.2,2.4,0.5,2.3c0.4,0,0.5-1,0.5-2.4c0-1.4-0.1-2.4-0.5-2.4
							C831.8,361.9,831.6,362.8,831.6,364.3z"/>
					</g>
					<g>
						<path class="st29" d="M829.3,344.2c0.1,0.1,0.4,0.4,0.6,0.4c0.5,0,0.6-0.7,0.6-1.2c0-0.8-0.4-1.1-0.6-1.1c-0.1,0-0.1,0-0.2,0
							c0-0.2,0-0.4,0-0.6c0.1,0,0.1,0,0.2,0c0.2,0,0.6-0.4,0.6-1.1c0-0.5-0.1-0.8-0.5-0.8c-0.2,0-0.4,0.2-0.5,0.5
							c0-0.1-0.1-0.4-0.1-0.6c0.1-0.2,0.4-0.5,0.7-0.5c0.5,0,0.7,0.6,0.7,1.3c0,0.6-0.1,1.1-0.5,1.4l0,0c0.4,0.1,0.6,0.6,0.6,1.4
							c0,1-0.4,1.8-1,1.8c-0.2,0-0.5-0.1-0.6-0.4C829.3,344.6,829.3,344.3,829.3,344.2z"/>
						<path class="st29" d="M832.9,341.8c0,1.9-0.4,3.1-0.8,3.1s-0.8-1-0.8-2.9c0-1.9,0.4-3,0.8-3.1
							C832.7,338.9,832.9,340,832.9,341.8z M831.6,342c0,1.6,0.2,2.3,0.5,2.3c0.4,0,0.5-1,0.5-2.4c0-1.4-0.1-2.4-0.5-2.3
							C831.8,339.6,831.6,340.5,831.6,342z"/>
					</g>
					<g>
						<path class="st29" d="M830.3,322.7c0-0.5,0-1.1,0-1.6c-0.4,0-0.7,0.1-1.2,0.1c0-0.1,0-0.4,0-0.5c0.4-1.3,0.7-2.5,1.1-3.9
							c0.1,0,0.2,0,0.4,0c0,1.2,0,2.4,0,3.6c0.1,0,0.2,0,0.4,0c0,0.2,0,0.4,0,0.6c-0.1,0-0.2,0-0.4,0c0,0.5,0,1.1,0,1.6
							C830.5,322.6,830.4,322.6,830.3,322.7z M830.3,320.4c0-0.6,0-1.3,0-1.9c0-0.4,0-0.6,0-1l0,0c-0.1,0.4-0.1,0.6-0.2,0.8
							c-0.2,0.7-0.4,1.3-0.6,2.1l0,0C829.8,320.6,830,320.6,830.3,320.4z"/>
						<path class="st29" d="M832.9,319.4c0,1.9-0.4,3.1-0.8,3.1c-0.5,0.1-0.8-1-0.8-2.9c0-1.9,0.4-3,0.8-3.1
							C832.7,316.5,832.9,317.5,832.9,319.4z M831.6,319.6c0,1.6,0.2,2.3,0.5,2.3c0.4,0,0.5-1,0.5-2.5c0-1.4-0.1-2.3-0.5-2.3
							C831.8,317.2,831.6,318,831.6,319.6z"/>
					</g>
					<g>
						<path class="st29" d="M830.7,295.2c-0.4,0.1-0.6,0.1-1,0.1c0,0.5-0.1,1-0.1,1.4c0.1,0,0.1-0.1,0.2-0.1c0.2,0,0.4,0,0.5,0.2
							c0.2,0.2,0.4,0.7,0.4,1.4c0,1.1-0.4,2.1-1,2.2c-0.2,0-0.5-0.1-0.6-0.2c0-0.2,0.1-0.4,0.1-0.6c0.1,0.1,0.4,0.2,0.5,0.2
							c0.4,0,0.6-0.6,0.6-1.3s-0.2-1.2-0.7-1.1c-0.1,0-0.2,0.1-0.4,0.1c0-1,0.1-1.8,0.1-2.8c0.4-0.1,0.8-0.1,1.2-0.2
							C830.7,294.7,830.7,295,830.7,295.2z"/>
						<path class="st29" d="M832.9,296.9c0,1.9-0.4,3.1-0.8,3.3c-0.5,0.1-0.8-1-0.8-2.8c0-1.9,0.4-3,0.8-3.1
							C832.7,294,832.9,295.1,832.9,296.9z M831.6,297.3c0,1.6,0.2,2.3,0.5,2.3c0.4,0,0.5-1.1,0.5-2.5c0-1.4-0.1-2.3-0.5-2.3
							C831.8,294.9,831.6,295.7,831.6,297.3z"/>
					</g>
					<g>
						<path class="st29" d="M846.4,418.9L846.4,418.9c-0.1,0.1-0.2,0.4-0.5,0.5c0-0.2,0-0.4-0.1-0.6c0.1-0.2,0.4-0.4,0.5-0.6
							c0.1,0,0.1,0,0.2,0c0,1.8,0,3.7,0,5.7c-0.1,0-0.2,0-0.4,0C846.4,422.1,846.4,420.4,846.4,418.9z"/>
					</g>
					<g>
						<path class="st29" d="M869.6,426c0-0.1,0-0.4,0-0.5c0.1-0.2,0.1-0.4,0.2-0.6c0.6-1.3,0.8-2.2,0.8-3c0-0.6-0.1-1.2-0.5-1.2
							c-0.2,0-0.4,0.2-0.5,0.5c0-0.2-0.1-0.4-0.1-0.6c0.1-0.4,0.4-0.6,0.7-0.6c0.5,0,0.7,1,0.7,1.8c0,1.1-0.4,1.9-0.8,3.1
							c-0.1,0.1-0.1,0.2-0.2,0.4l0,0c0.4,0,0.7,0.1,1.1,0.1c0,0.2,0,0.5,0,0.6C870.5,426.1,870.1,426,869.6,426z"/>
					</g>
					<g>
						<path class="st29" d="M893.5,427.4c0.1,0.1,0.4,0.4,0.5,0.5c0.4,0,0.5-0.6,0.5-1.2c0-0.8-0.4-1.2-0.6-1.3c-0.1,0-0.1,0-0.1,0
							c0-0.2,0-0.5,0-0.6c0.1,0,0.1,0,0.1,0c0.2,0,0.5-0.2,0.5-1c0-0.5-0.1-1-0.5-1c-0.2,0-0.4,0.1-0.5,0.4c0-0.2-0.1-0.4-0.1-0.6
							c0.1-0.2,0.4-0.5,0.6-0.5c0.5,0,0.7,0.8,0.7,1.6c0,0.6-0.1,1.2-0.5,1.4l0,0c0.2,0.2,0.5,0.8,0.5,1.7c0,1-0.2,1.8-0.8,1.8
							c-0.2,0-0.5-0.2-0.6-0.5C893.3,427.8,893.3,427.5,893.5,427.4z"/>
					</g>
					<g>
						<path class="st29" d="M918.1,430.8c0-0.6,0-1.2,0-1.8c-0.4,0-0.7-0.1-1.1-0.1c0-0.2,0-0.4,0-0.6c0.4-1.3,0.7-2.8,1.1-4.1
							c0.1,0,0.2,0,0.4,0c0,1.3,0,2.7,0,4.1c0.1,0,0.2,0,0.4,0c0,0.2,0,0.5,0,0.7c-0.1,0-0.2,0-0.4,0c0,0.6,0,1.2,0,1.8
							C918.3,430.9,918.2,430.9,918.1,430.8z M918.1,428.4c0-0.7,0-1.4,0-2.2c0-0.4,0-0.7,0-1.1l0,0c-0.1,0.4-0.1,0.6-0.2,1
							c-0.2,0.7-0.4,1.4-0.6,2.2l0,0C917.6,428.4,917.8,428.4,918.1,428.4z"/>
					</g>
					<g>
						<path class="st29" d="M942.3,427.3c-0.4,0-0.6,0-1-0.1c0,0.6-0.1,1.2-0.1,1.8c0,0,0.1,0,0.2,0c0.1,0,0.4,0.1,0.5,0.4
							c0.2,0.4,0.4,1,0.4,1.8c0,1.3-0.4,2.3-0.8,2.3c-0.2,0-0.5-0.2-0.6-0.5c0-0.2,0-0.5,0.1-0.7c0.1,0.2,0.2,0.4,0.5,0.5
							c0.4,0,0.6-0.5,0.6-1.4c0-0.8-0.2-1.6-0.7-1.6c-0.1,0-0.2,0-0.4,0c0-1.1,0.1-2.2,0.1-3.3c0.4,0,0.7,0.1,1.1,0.1
							C942.3,426.8,942.3,427.1,942.3,427.3z"/>
					</g>
				</g>
			</g>
			<g>
				<g>
					<path class="st18" d="M835.1,412.1c-0.1-0.5-0.1-1-0.2-1.6c8-7.2,15.8-14.6,23.8-22.1c8-8.6,15.8-17.4,23.8-26.2
						c8-8.8,15.9-17.7,23.9-26.8c8-0.7,16-1.4,24-2.2c7.8-10,15.7-20,23.5-30.3c0.1,0.6,0.1,1.3,0.2,1.9
						c-7.8,10.3-15.8,20.4-23.6,30.4c-8,0.7-16,1.4-24,2.2c-8,9-15.8,17.8-23.8,26.5c-8,8.8-15.8,17.6-23.8,26.2
						C850.9,397.6,843,405,835.1,412.1z"/>
				</g>
				<g>
					<path class="st23" d="M882.5,389.8c-8-8.2-15.8-16.3-23.8-24.1c-7.8,7.8-15.8,15.6-23.6,23c-0.1-0.5-0.1-1-0.2-1.6
						c8-7.7,15.9-15.4,23.9-23.4c8,7.8,15.8,15.9,23.8,24c7.8-7.7,15.7-15.7,23.5-23.6c8-27.4,15.8-55.1,23.8-83.3
						c8-11.6,15.9-23.4,23.9-35.5c0.1,0.6,0.2,1.2,0.2,1.9c-8,11.9-15.8,23.6-23.6,35.1c-8,28.2-15.8,56-23.8,83.3
						C898.5,373.9,890.4,381.9,882.5,389.8z"/>
				</g>
				<g>
					<path class="st22" d="M931.4,281.4c0,2.2-0.6,4-1.3,4.1c-0.7,0.1-1.3-1.4-1.3-3.6c0-2.2,0.6-4,1.3-4.1S931.4,279.2,931.4,281.4
						z"/>
					<path class="st23" d="M930,286.4c-1,0.1-1.7-1.8-1.7-4.5c0-2.7,0.7-4.9,1.7-5.2s1.7,1.8,1.7,4.5C931.8,284,931,286.3,930,286.4
						z M930,278.8c-0.6,0.1-1,1.4-1,3c0,1.6,0.5,2.8,1,2.7c0.6-0.1,1-1.4,1-3C931.1,279.9,930.6,278.7,930,278.8z"/>
				</g>
				<g>
					<path class="st22" d="M907.7,364.9c0,2.1-0.6,3.7-1.3,3.7c-0.7,0-1.3-1.6-1.3-3.6c0-2.1,0.6-3.6,1.3-3.7
						C907.1,361.3,907.7,362.9,907.7,364.9z"/>
					<path class="st23" d="M906.2,369.6c-1,0-1.7-2.1-1.7-4.6s0.7-4.6,1.7-4.7c1,0,1.7,2.1,1.7,4.6
						C908,367.5,907.2,369.5,906.2,369.6z M906.2,362.3c-0.6,0-1,1.2-1,2.8c0,1.4,0.5,2.7,1,2.7s1-1.2,1-2.8
						C907.3,363.5,906.8,362.3,906.2,362.3z"/>
				</g>
				<g>
					<path class="st22" d="M883.8,388.8c0,1.9-0.6,3.5-1.3,3.5s-1.3-1.6-1.3-3.5c0-1.9,0.6-3.5,1.3-3.5S883.8,386.9,883.8,388.8z"/>
					<path class="st23" d="M882.5,393.3c-1,0-1.7-2.1-1.7-4.5s0.7-4.3,1.7-4.3c1,0,1.7,2.1,1.7,4.5
						C884.2,391.4,883.4,393.3,882.5,393.3z M882.5,386.3c-0.6,0-1,1.1-1,2.5c0,1.4,0.5,2.5,1,2.7c0.6,0,1-1.1,1-2.5
						C883.4,387.4,883.1,386.3,882.5,386.3z"/>
				</g>
				<g>
					<path class="st22" d="M860,364.7c0,1.8-0.6,3.4-1.3,3.4s-1.3-1.4-1.3-3.3s0.6-3.4,1.3-3.4S860,362.9,860,364.7z"/>
					<path class="st23" d="M858.7,368.9c-1,0-1.7-1.8-1.7-4.1s0.7-4.2,1.7-4.2c1,0,1.7,1.8,1.7,4.1
						C860.4,367,859.7,368.9,858.7,368.9z M858.7,362.3c-0.6,0-1,1.1-1,2.4c0,1.3,0.5,2.4,1,2.4c0.6,0,1-1.1,1-2.4
						C859.7,363.4,859.3,362.3,858.7,362.3z"/>
				</g>
				<g>
					<path class="st18" d="M907.1,336.7c0,2.1-0.6,3.7-1.3,3.7c-0.7,0-1.3-1.6-1.3-3.5c0-2.1,0.6-3.7,1.3-3.7
						C906.5,333.2,907.1,334.8,907.1,336.7z"/>
					<path class="st18" d="M905.8,341.5c-1,0.1-1.7-1.9-1.7-4.5c0-2.5,0.7-4.7,1.7-4.8c1-0.1,1.7,1.9,1.7,4.5
						C907.4,339.3,906.7,341.4,905.8,341.5z M905.8,334.2c-0.6,0-1,1.3-1,2.8c0,1.4,0.5,2.7,1,2.7c0.6,0,1-1.3,1-2.8
						C906.7,335.3,906.2,334.1,905.8,334.2z"/>
				</g>
				<g>
					<path class="st18" d="M931.4,334.5c0,2.2-0.6,3.9-1.3,4c-0.7,0-1.3-1.6-1.3-3.7c0-2.2,0.6-3.9,1.3-4
						C930.8,330.8,931.4,332.5,931.4,334.5z"/>
					<path class="st18" d="M930,339.5c-1,0.1-1.7-2.1-1.7-4.7s0.7-4.9,1.7-4.9c1-0.1,1.7,2.1,1.7,4.7
						C931.8,337.2,931,339.5,930,339.5z M930,331.9c-0.6,0-1,1.3-1,2.9s0.5,2.8,1,2.8s1-1.3,1-2.9C931,333.1,930.6,331.8,930,331.9z
						"/>
				</g>
			</g>
		</g>
		<g>
			<g>
				<g>
					<path class="st29" d="M984.5,567.6L984.5,567.6c-0.1,0.1-0.1,0.2-0.2,0.4c0-0.1,0-0.4,0-0.5c0.1-0.1,0.2-0.2,0.4-0.5
						c0.1,0,0.1,0,0.1,0c0,1.6,0,3,0,4.6c-0.1,0-0.1,0-0.2-0.1C984.5,570.2,984.5,568.9,984.5,567.6z"/>
					<path class="st29" d="M986.2,569.8c0,1.6-0.1,2.4-0.5,2.3c-0.2-0.1-0.5-1-0.5-2.5s0.2-2.3,0.5-2.2
						C986.1,567.4,986.2,568.4,986.2,569.8z M985.4,569.6c0,1.2,0.1,1.9,0.4,1.9c0.2,0.1,0.4-0.6,0.4-1.8c0-1.1-0.1-1.9-0.4-1.9
						S985.4,568.4,985.4,569.6z"/>
				</g>
				<g>
					<path class="st29" d="M984,547.8c0-0.1,0-0.2,0-0.4c0-0.1,0.1-0.2,0.1-0.4c0.4-1,0.5-1.6,0.5-2.3c0-0.5-0.1-1-0.2-1
						c-0.1,0-0.2,0.1-0.4,0.2c0-0.1,0-0.4-0.1-0.5c0.1-0.2,0.2-0.4,0.5-0.4c0.4,0.1,0.5,0.8,0.5,1.4c0,0.8-0.2,1.4-0.5,2.3
						c0,0.1-0.1,0.2-0.1,0.4l0,0c0.2,0.1,0.5,0.1,0.7,0.2c0,0.1,0,0.4,0,0.5C984.6,548,984.4,547.9,984,547.8z"/>
					<path class="st29" d="M986.2,546.1c0,1.6-0.1,2.4-0.5,2.3c-0.2-0.1-0.5-1-0.5-2.5c0-1.6,0.2-2.3,0.5-2.2
						C986.1,543.8,986.2,544.6,986.2,546.1z M985.4,546c0,1.2,0.1,1.9,0.4,1.9s0.4-0.6,0.4-1.8c0-1.1-0.1-1.9-0.4-1.9
						C985.5,544,985.4,544.6,985.4,546z"/>
				</g>
				<g>
					<path class="st29" d="M984.1,523.4c0.1,0.1,0.1,0.4,0.4,0.4c0.2,0.1,0.4-0.4,0.4-0.8c0-0.6-0.2-1-0.4-1.1h-0.1
						c0-0.1,0-0.4,0-0.5h0.1c0.1,0,0.4-0.1,0.4-0.7c0-0.4-0.1-0.7-0.2-0.7c-0.1,0-0.2,0.1-0.2,0.2c0-0.1,0-0.4,0-0.5
						c0.1-0.1,0.2-0.4,0.4-0.2c0.2,0.1,0.5,0.6,0.5,1.2c0,0.5-0.1,0.8-0.2,1l0,0c0.1,0.1,0.4,0.6,0.4,1.2c0,0.7-0.1,1.3-0.5,1.2
						c-0.1,0-0.4-0.2-0.4-0.4C984,523.8,984.1,523.7,984.1,523.4z"/>
					<path class="st29" d="M986.2,522.3c0,1.6-0.1,2.4-0.5,2.3c-0.2-0.1-0.5-1-0.5-2.5s0.2-2.3,0.5-2.3
						C986.1,520,986.2,520.9,986.2,522.3z M985.4,522.2c0,1.2,0.1,1.9,0.4,1.9s0.4-0.6,0.4-1.8c0-1.1-0.1-1.9-0.4-1.9
						S985.4,521,985.4,522.2z"/>
				</g>
				<g>
					<path class="st29" d="M984.6,500.6c0-0.5,0-0.8,0-1.2c-0.2,0-0.5-0.1-0.7-0.1c0-0.1,0-0.2,0-0.4c0.2-1,0.5-1.8,0.6-2.8
						c0.1,0,0.1,0,0.2,0c0,1,0,1.9,0,2.9c0.1,0,0.1,0,0.2,0c0,0.1,0,0.4,0,0.5c-0.1,0-0.1,0-0.2,0c0,0.4,0,0.8,0,1.2
						C984.8,500.7,984.8,500.6,984.6,500.6z M984.6,498.9c0-0.5,0-1.1,0-1.6c0-0.2,0-0.5,0-0.7l0,0c0,0.2-0.1,0.5-0.1,0.6
						c-0.1,0.5-0.2,1-0.4,1.4l0,0C984.4,498.8,984.5,498.9,984.6,498.9z"/>
					<path class="st29" d="M986.2,498.7c0,1.6-0.1,2.4-0.5,2.3c-0.2,0-0.5-1-0.5-2.4c0-1.6,0.2-2.4,0.5-2.3
						C986.1,496.3,986.2,497.1,986.2,498.7z M985.4,498.6c0,1.2,0.1,1.9,0.4,1.9s0.4-0.7,0.4-1.8s-0.1-1.9-0.4-1.9
						C985.5,496.6,985.4,497.2,985.4,498.6z"/>
				</g>
				<g>
					<path class="st29" d="M985,473c-0.2,0-0.4,0-0.6-0.1c0,0.4,0,0.7-0.1,1.2h0.1c0.1,0,0.2,0.1,0.4,0.4c0.1,0.2,0.2,0.6,0.2,1.2
						c0,0.8-0.2,1.6-0.5,1.4c-0.1,0-0.4-0.2-0.4-0.4s0-0.4,0-0.5c0.1,0.1,0.1,0.2,0.4,0.4c0.1,0,0.4-0.4,0.4-1s-0.1-1.1-0.5-1.1
						c-0.1,0-0.1,0-0.2,0c0-0.7,0.1-1.4,0.1-2.2c0.2,0,0.5,0.1,0.7,0.1C985,472.6,985,472.8,985,473z"/>
					<path class="st29" d="M986.2,474.9c0,1.6-0.1,2.4-0.5,2.3c-0.2,0-0.5-1-0.5-2.4c0-1.6,0.2-2.4,0.5-2.3
						C986.1,472.5,986.2,473.5,986.2,474.9z M985.4,474.8c0,1.2,0.1,1.9,0.4,1.9s0.4-0.7,0.4-1.8c0-1.2-0.1-1.9-0.4-1.9
						C985.5,472.9,985.4,473.6,985.4,474.8z"/>
				</g>
				<g>
					<path class="st29" d="M984.9,449.1h-0.1c-0.4,0.1-0.5,0.8-0.5,1.6l0,0c0.1-0.2,0.2-0.5,0.4-0.5c0.2,0,0.5,0.6,0.5,1.6
						c0,0.8-0.1,1.6-0.5,1.6c-0.4,0-0.5-0.8-0.5-2.1c0-1,0.1-1.6,0.2-2.1c0.1-0.4,0.2-0.6,0.5-0.6c0.1,0,0.1,0,0.1,0
						C984.9,448.9,984.9,449,984.9,449.1z M984.9,451.8c0-0.6-0.1-1.1-0.4-1.1c-0.1,0-0.2,0.2-0.2,0.5c0,0.1,0,0.1,0,0.2
						c0,0.7,0.1,1.3,0.4,1.3C984.8,452.9,984.9,452.5,984.9,451.8z"/>
					<path class="st29" d="M986.2,451.2c0,1.6-0.1,2.4-0.5,2.4c-0.2,0-0.5-1-0.5-2.4c0-1.6,0.2-2.4,0.5-2.3
						C986.1,448.8,986.2,449.7,986.2,451.2z M985.4,451.2c0,1.2,0.1,1.9,0.4,1.9s0.4-0.7,0.4-1.9c0-1.1-0.1-1.9-0.4-1.9
						S985.4,449.8,985.4,451.2z"/>
				</g>
				<g>
					<path class="st29" d="M993.2,591.8L993.2,591.8c-0.1,0.1-0.1,0.2-0.2,0.4c0-0.1,0-0.2,0-0.5c0.1-0.1,0.2-0.2,0.2-0.4h0.1
						c0,1.3,0,2.8,0,4.1c0,0-0.1,0-0.1-0.1C993.2,594.2,993.2,593,993.2,591.8z"/>
				</g>
				<g>
					<path class="st29" d="M1004.4,599.9c0-0.1,0-0.2,0-0.4c0-0.1,0.1-0.2,0.1-0.4c0.4-0.8,0.5-1.3,0.5-1.9c0-0.5-0.1-0.8-0.2-1
						c-0.1,0-0.2,0.1-0.2,0.2c0-0.1,0-0.2-0.1-0.5c0.1-0.2,0.2-0.4,0.4-0.2c0.2,0.1,0.4,0.7,0.4,1.3c0,0.7-0.1,1.3-0.5,2.1
						c0,0.1-0.1,0.1-0.1,0.2l0,0c0.2,0.1,0.4,0.1,0.6,0.2c0,0.1,0,0.4,0,0.5C1005,600.1,1004.8,600,1004.4,599.9z"/>
				</g>
				<g>
					<path class="st29" d="M1016.1,604c0,0.1,0.1,0.4,0.2,0.4c0.2,0.1,0.2-0.4,0.2-0.7c0-0.6-0.1-1-0.4-1h-0.1c0-0.1,0-0.2,0-0.5
						h0.1c0.1,0,0.2-0.1,0.2-0.6c0-0.4-0.1-0.6-0.2-0.7c-0.1,0-0.2,0.1-0.2,0.2c0-0.1,0-0.2,0-0.5c0.1-0.1,0.2-0.2,0.4-0.2
						c0.2,0.1,0.4,0.6,0.4,1.2c0,0.5-0.1,0.7-0.2,1l0,0c0.1,0.1,0.2,0.6,0.2,1.2c0,0.7-0.1,1.2-0.5,1.1c-0.1,0-0.2-0.2-0.4-0.4
						C1016.1,604.2,1016.1,604.1,1016.1,604z"/>
				</g>
				<g>
					<path class="st29" d="M1028.2,609.6c0-0.4,0-0.8,0-1.2c-0.2-0.1-0.4-0.1-0.6-0.2c0-0.1,0-0.2,0-0.4c0.2-0.8,0.4-1.7,0.6-2.5
						c0.1,0,0.1,0,0.1,0.1c0,1,0,1.8,0,2.7c0.1,0,0.1,0,0.1,0.1c0,0.1,0,0.4,0,0.5c-0.1,0-0.1,0-0.1-0.1c0,0.4,0,0.8,0,1.2
						C1028.3,609.6,1028.3,609.6,1028.2,609.6z M1028.2,608c0-0.5,0-1,0-1.4c0-0.2,0-0.5,0-0.7l0,0c0,0.2-0.1,0.4-0.1,0.6
						c-0.1,0.5-0.2,1-0.4,1.3l0,0C1027.9,607.8,1028,608,1028.2,608z"/>
				</g>
				<g>
					<path class="st29" d="M1040.1,610.6c-0.1,0-0.4-0.1-0.5-0.2c0,0.4,0,0.7,0,1.1c0,0,0,0,0.1,0s0.2,0.1,0.2,0.4
						c0.1,0.2,0.1,0.6,0.1,1.2c0,0.8-0.2,1.4-0.5,1.3c-0.1,0-0.2-0.2-0.4-0.4c0-0.1,0-0.2,0-0.5c0.1,0.1,0.1,0.4,0.2,0.4
						c0.1,0.1,0.4-0.2,0.4-0.8s-0.1-1-0.4-1.1c-0.1,0-0.1,0-0.1,0c0-0.7,0-1.4,0.1-2.1c0.2,0.1,0.4,0.1,0.6,0.2
						C1040.1,610.3,1040.1,610.5,1040.1,610.6z"/>
				</g>
				<g>
					<g>
						<path class="st29" d="M1046.1,607.4c-19.7-7.8-39.2-15.7-58.9-23.2c0-48.6,0-97.2,0-145.9c19.7,2.2,39.2,4.3,58.9,6.6
							C1046.1,499.1,1046.1,553.2,1046.1,607.4z M987.4,583.8c19.5,7.5,39.1,15.2,58.6,23c0-53.9,0-107.7,0-161.6
							c-19.5-2.3-39.1-4.5-58.6-6.6C987.4,487.1,987.4,535.5,987.4,583.8z"/>
					</g>
					<g>
						<path class="st29" d="M1046.1,580.3c-19.5-7-39.1-13.7-58.7-20.4c0-0.1,0-0.2,0-0.4c19.5,6.6,39.1,13.4,58.7,20.3
							C1046.1,580.1,1046.1,580.2,1046.1,580.3z"/>
					</g>
					<g>
						<path class="st29" d="M1046.1,553.3c-19.5-6-39.1-11.8-58.7-17.6c0-0.1,0-0.2,0-0.4c19.5,5.7,39.1,11.6,58.7,17.6
							C1046.1,553.1,1046.1,553.2,1046.1,553.3z"/>
					</g>
					<g>
						<path class="st29" d="M1046.1,526.3c-19.5-5.1-39.1-10-58.7-14.8c0-0.1,0-0.2,0-0.4c19.5,4.8,39.1,9.8,58.7,14.8
							C1046.1,526.1,1046.1,526.2,1046.1,526.3z"/>
					</g>
					<g>
						<path class="st29" d="M1046.1,499.3c-19.5-4.1-39.1-8.2-58.7-12.1c0-0.1,0-0.2,0-0.4c19.5,4,39.1,8,58.7,12.1
							C1046.1,499.1,1046.1,499.2,1046.1,499.3z"/>
					</g>
					<g>
						<path class="st29" d="M1046.1,472.3c-19.5-3.3-39.1-6.4-58.7-9.4c0-0.1,0-0.2,0-0.4c19.5,3,39.1,6.2,58.7,9.3
							C1046.1,472,1046.1,472.2,1046.1,472.3z"/>
					</g>
					<g>
						<path class="st29" d="M1034.4,602.4h-0.1c0-52.9,0-105.8,0-158.6h0.1C1034.4,496.6,1034.4,549.6,1034.4,602.4z"/>
					</g>
					<g>
						<path class="st29" d="M1022.6,597.8h-0.1c0-51.7,0-103.6,0-155.3h0.1C1022.6,494.2,1022.6,546,1022.6,597.8z"/>
					</g>
					<g>
						<path class="st29" d="M1010.9,593.1L1010.9,593.1c-0.1-50.8-0.1-101.4-0.1-152.1h0.1C1010.9,491.8,1010.9,542.5,1010.9,593.1z
							"/>
					</g>
					<g>
						<path class="st29" d="M999.2,588.5C999.1,588.5,999.1,588.5,999.2,588.5c-0.1-49.7-0.1-99.3-0.1-148.8h0.1
							C999.2,489.4,999.2,539,999.2,588.5z"/>
					</g>
				</g>
			</g>
			<g>
				<path class="st31" d="M994.6,586.9c-1-0.4-1.9-0.7-2.8-1.1c0-20.9,0-41.6,0-62.5c1,0.2,1.9,0.5,2.8,0.7
					C994.6,545,994.6,565.9,994.6,586.9z"/>
				<path class="st18" d="M1006.5,591.4c-1-0.4-1.9-0.7-2.8-1.1c0-21.2,0-42.6,0-63.8c1,0.2,1.9,0.5,2.8,0.7
					C1006.5,548.6,1006.5,570,1006.5,591.4z"/>
				<path class="st23" d="M1018.2,596c-1-0.4-1.9-0.7-2.8-1.1c0-21.7,0-43.4,0-65.2c1,0.2,1.9,0.5,2.8,0.7
					C1018.2,552.2,1018.2,574.2,1018.2,596z"/>
				<path class="st31" d="M1029.9,600.6c-1-0.4-1.9-0.7-2.8-1.1c0-22.2,0-44.4,0-66.6c1,0.2,1.9,0.5,2.8,0.7
					C1029.9,556,1029.9,578.3,1029.9,600.6z"/>
				<path class="st23" d="M1041.6,605.3c-1-0.4-1.9-0.7-2.8-1.1c0-22.7,0-45.3,0-68c1,0.2,1.9,0.5,2.8,0.7
					C1041.6,559.7,1041.6,582.5,1041.6,605.3z"/>
				<path class="st31" d="M994.6,513c-1-0.2-1.9-0.5-2.8-0.7c0,3.6,0,7.2,0,11c1,0.2,1.9,0.5,2.8,0.7
					C994.6,520.4,994.6,516.8,994.6,513z"/>
				<path class="st18" d="M1006.5,477.8c-1-0.1-1.9-0.4-2.8-0.5c0,16.4,0,32.8,0,49.2c1,0.2,1.9,0.5,2.8,0.7
					C1006.5,510.8,1006.5,494.2,1006.5,477.8z"/>
				<path class="st31" d="M1029.9,488.3c-1-0.2-1.9-0.4-2.8-0.6c0,15.1,0,30.2,0,45.2c1,0.2,1.9,0.5,2.8,0.7
					C1029.9,518.6,1029.9,503.4,1029.9,488.3z"/>
				<path class="st23" d="M1041.6,450.9c-1-0.1-1.9-0.2-2.8-0.4c0,28.6,0,57,0,85.6c1,0.2,1.9,0.5,2.8,0.7
					C1041.6,508.2,1041.6,479.6,1041.6,450.9z"/>
				<path class="st18" d="M1001,489.8c0,5.7-1.4,9.9-3.1,9.5c-1.7-0.4-3.1-5.2-3.1-10.9c0-5.7,1.4-9.9,3.1-9.5
					C999.6,479.3,1001,484.1,1001,489.8z"/>
				<g>
					<path class="st32" d="M997.3,491.9c0-0.6,0-1.2,0-1.8c-0.4,0-0.6-0.1-1-0.2c0-0.2,0-0.4,0-0.6c0.4-1.3,0.6-2.7,0.8-4
						c0.1,0,0.2,0,0.2,0c0,1.3,0,2.7,0,4c0.1,0,0.1,0,0.2,0c0,0.2,0,0.5,0,0.7c-0.1,0-0.1,0-0.2,0c0,0.6,0,1.2,0,1.8
						C997.4,491.9,997.3,491.9,997.3,491.9z M997.3,489.5c0-0.7,0-1.4,0-2.2c0-0.4,0-0.7,0-1l0,0c-0.1,0.4-0.1,0.6-0.1,1
						c-0.1,0.7-0.4,1.4-0.5,2.1l0,0C996.8,489.4,997.1,489.4,997.3,489.5z"/>
					<path class="st32" d="M999.2,486.6c-0.2,0-0.5-0.1-0.7-0.1c0,0.6,0,1.1-0.1,1.7h0.1c0.1,0,0.4,0.1,0.5,0.5
						c0.1,0.4,0.2,1,0.2,1.7c0,1.2-0.4,2.2-0.7,2.1c-0.2,0-0.4-0.2-0.5-0.5c0-0.2,0-0.5,0.1-0.6c0.1,0.1,0.2,0.4,0.5,0.5
						c0.2,0,0.5-0.5,0.5-1.3c0-0.8-0.1-1.4-0.6-1.6c-0.1,0-0.2,0-0.2,0c0-1,0.1-2.1,0.1-3c0.4,0,0.6,0.1,1,0.2
						C999.2,486.1,999.2,486.4,999.2,486.6z"/>
				</g>
				<g>
					<path class="st18" d="M1003.6,490.7c-0.8-0.1-1.7-0.4-2.5-0.5c0-0.4,0-0.6,0-1c0.8,0.2,1.7,0.4,2.5,0.5
						C1003.6,490.1,1003.6,490.5,1003.6,490.7z"/>
				</g>
				<path class="st23" d="M1036.3,470.5c0,6-1.4,10.6-3.1,10.4c-1.7-0.4-3.1-5.4-3.1-11.3s1.4-10.6,3.1-10.4
					C1034.8,459.4,1036.3,464.4,1036.3,470.5z"/>
				<g>
					<path class="st32" d="M1032.9,467c-0.2,0-0.5-0.1-0.7-0.1c0,0.6,0,1.2-0.1,1.8h0.1c0.1,0,0.4,0.1,0.5,0.5
						c0.1,0.4,0.2,1,0.2,1.8c0,1.3-0.4,2.3-0.7,2.2c-0.2,0-0.4-0.2-0.5-0.5c0-0.2,0-0.5,0.1-0.7c0.1,0.2,0.2,0.5,0.5,0.5
						c0.2,0,0.5-0.5,0.5-1.4c0-0.8-0.1-1.6-0.6-1.6c-0.1,0-0.2,0-0.2,0c0-1.1,0.1-2.2,0.1-3.3c0.4,0,0.6,0.1,1,0.1
						C1032.9,466.5,1032.9,466.7,1032.9,467z"/>
					<path class="st32" d="M1033.2,471.4c0-0.8,0.1-1.4,0.4-1.8l0,0c-0.2-0.4-0.4-1-0.4-1.6c0-1.1,0.2-1.8,0.6-1.7
						c0.4,0,0.6,1,0.6,1.8c0,0.6-0.1,1.2-0.4,1.6l0,0c0.2,0.4,0.4,1,0.4,1.8c0,1.2-0.4,1.9-0.7,1.9
						C1033.5,473.4,1033.2,472.4,1033.2,471.4z M1034.3,471.6c0-0.8-0.1-1.2-0.5-1.6c-0.2,0.2-0.4,0.7-0.4,1.3
						c0,0.7,0.1,1.3,0.4,1.3C1034.1,472.8,1034.3,472.3,1034.3,471.6z M1033.5,467.9c0,0.7,0.1,1.1,0.4,1.3c0.1-0.1,0.4-0.6,0.4-1.2
						s-0.1-1.2-0.4-1.2C1033.6,466.9,1033.5,467.3,1033.5,467.9z"/>
				</g>
				<g>
					<path class="st23" d="M1036.3,470.5c0.8,0.1,1.7,0.2,2.5,0.4L1036.3,470.5z"/>
					<path class="st33" d="M1038.8,471.4c-0.8-0.1-1.7-0.2-2.5-0.5c0-0.4,0-0.6,0-1c0.8,0.1,1.7,0.2,2.5,0.4
						C1038.8,470.7,1038.8,471.1,1038.8,471.4z"/>
				</g>
			</g>
		</g>
		<path class="st34" d="M667.4,285.3c-1.4,0.4-2.9,0.7-4.3,1.2c0-1.1,0-2.2,0-3.3c1.4-0.4,2.9-0.8,4.3-1.2
			C667.4,283.2,667.4,284.3,667.4,285.3z"/>
		<path class="st34" d="M681.4,290c-6,1.6-12.2,3-18.2,4.6c0-1.1,0-2.2,0-3.3c6-1.6,12.2-3.1,18.2-4.7
			C681.4,287.8,681.4,288.8,681.4,290z"/>
		<path class="st34" d="M667.4,314.6c-1.4,0.2-2.9,0.5-4.3,0.8c0-1.1,0-2.2,0-3.3c1.4-0.2,2.9-0.6,4.3-0.8
			C667.4,312.5,667.4,313.6,667.4,314.6z"/>
		<path class="st34" d="M681.4,320.4c-6,1-12.2,2.1-18.2,3c0-1.1,0-2.2,0-3.3c6-1.1,12.2-2.2,18.2-3.1
			C681.4,318.1,681.4,319.4,681.4,320.4z"/>
		<path class="st34" d="M667.4,343.8c-1.4,0.1-2.9,0.4-4.3,0.5c0-1.1,0-2.2,0-3.3c1.4-0.1,2.9-0.4,4.3-0.5
			C667.4,341.8,667.4,342.9,667.4,343.8z"/>
		<path class="st34" d="M681.4,351c-6,0.5-12.2,1-18.2,1.4c0-1.1,0-2.2,0-3.3c6-0.6,12.2-1.1,18.2-1.7
			C681.4,348.7,681.4,349.7,681.4,351z"/>
		<path class="st34" d="M667.4,373.1c-1.4,0-2.9,0-4.3,0.1c0-1.1,0-2.2,0-3.3c1.4,0,2.9-0.1,4.3-0.1
			C667.4,371,667.4,372.1,667.4,373.1z"/>
		<path class="st34" d="M681.4,381.3c-6,0-12.2,0-18.2,0c0-1.1,0-2.2,0-3.3c6,0,12.2-0.1,18.2-0.1
			C681.4,379.1,681.4,380.3,681.4,381.3z"/>
		<path class="st34" d="M667.4,402.4c-1.4-0.1-2.9-0.2-4.3-0.2c0-1.1,0-2.2,0-3.3c1.4,0.1,2.9,0.1,4.3,0.2
			C667.4,400.3,667.4,401.4,667.4,402.4z"/>
		<path class="st34" d="M681.4,411.7c-6-0.5-12.2-1.1-18.2-1.6c0-1.1,0-2.2,0-3.3c6,0.5,12.2,1,18.2,1.4
			C681.4,409.6,681.4,410.7,681.4,411.7z"/>
		<path class="st34" d="M667.4,431.8c-1.4-0.2-2.9-0.4-4.3-0.6c0-1.1,0-2.2,0-3.3c1.4,0.2,2.9,0.4,4.3,0.6
			C667.4,429.6,667.4,430.7,667.4,431.8z"/>
		<path class="st34" d="M681.4,442.2c-6-1.1-12.2-2.1-18.2-3.1c0-1.1,0-2.2,0-3.3c6,1,12.2,1.9,18.2,2.9
			C681.4,440,681.4,441,681.4,442.2z"/>
	</g>
	<g>
		<g>
			<path class="st34" d="M138,496.9c5.2,4.9,9.4,16.4,15.7,56.6c0.2,1.3,15.1,11.5,15.1,11.5l-27.9,6l-0.6-18.5
				c0,0,1.4-10.5,1.3-41.1C141.4,502.4,137.6,496.6,138,496.9z"/>
		</g>
		<g>
			<g>
				<path class="st1" d="M74.4,643.1c-1.8,0-4.7-0.5-7.2-2.8c-3.6-3.4-5.2-9.3-4.7-17.5c0.4-5.7,2.5-11.3,4.7-17.4
					c3.7-10.1,8.1-21.6,5.8-36.8l4.1-0.6c2.4,16.4-2.3,28.9-6,39.1c-2.2,5.9-4.1,11.1-4.5,16c-0.5,6.8,0.7,11.6,3.3,13.9
					c2.4,2.2,5.4,1.7,5.5,1.6l0.8,4.3C76.2,642.9,75.5,643.1,74.4,643.1z"/>
			</g>
			<g>
				<g>
					<path class="st2" d="M106.5,677.9l4.1,6.5l-34.3,11.5c0,0-2.3-2.3,6.2-6.9C92.3,683.6,106.5,677.9,106.5,677.9z"/>
					<path class="st2" d="M112.7,677.9l-4.1,6.5l34.3,11.5c0,0,2.3-2.3-6.2-6.9C126.9,683.6,112.7,677.9,112.7,677.9z"/>
				</g>
				<rect x="106" y="658.5" class="st2" width="7.1" height="26.8"/>
				<g>
					<path class="st3" d="M106.1,679.2l3.5,6.3l-29.3,11c0,0-1.9-2.2,5.2-6.6C93.8,684.8,106.1,679.2,106.1,679.2z"/>
					<path class="st3" d="M113.1,679.2l-3.5,6.3l29.3,11c0,0,1.9-2.2-5.2-6.6C125.3,684.8,113.1,679.2,113.1,679.2z"/>
				</g>
				<path class="st4" d="M83.6,698.9c0,1.4-1.1,2.7-2.5,2.7c-1.4,0-2.5-1.2-2.5-2.7s1.1-2.7,2.5-2.7
					C82.4,696.4,83.6,697.5,83.6,698.9z"/>
				<path class="st4" d="M140.4,698.9c0,1.4-1.1,2.7-2.5,2.7c-1.4,0-2.5-1.2-2.5-2.7s1.1-2.7,2.5-2.7
					C139.3,696.4,140.4,697.5,140.4,698.9z"/>
				<path class="st1" d="M77.6,698.9c0,1.4-1.1,2.7-2.5,2.7c-1.4,0-2.5-1.2-2.5-2.7s1.1-2.7,2.5-2.7
					C76.5,696.4,77.6,697.5,77.6,698.9z"/>
				<path class="st1" d="M146.4,698.9c0,1.4-1.1,2.7-2.5,2.7c-1.4,0-2.5-1.2-2.5-2.7s1.1-2.7,2.5-2.7
					C145.3,696.4,146.4,697.5,146.4,698.9z"/>
			</g>
			<rect x="106.9" y="648.7" class="st1" width="5.2" height="9.6"/>
			<path class="st1" d="M116,643.7c0,3-2.3,5.3-5.1,5.3h-2.9c-2.8,0-5.1-2.4-5.1-5.3l0,0c0-3,2.3-5.3,5.1-5.3h2.9
				C113.7,638.2,116,640.6,116,643.7L116,643.7z"/>
			<path class="st5" d="M148.5,638.7c0.1-0.6,0.2-4.6,0.2-5.3c0-4.3-2.7-7.8-5.9-7.8H76.5c-3.3,0-5.9,3.5-5.9,7.8
				c0,0.7,0.1,4.6,0.2,5.3H148.5z"/>
			<path class="st1" d="M69.7,640.9c0,1.3,0.7,2.4,1.7,2.4h76.2c1,0,1.7-1.1,1.7-2.4l0,0c0-1.3-0.7-2.4-1.7-2.4H71.4
				C70.4,638.5,69.7,639.6,69.7,640.9L69.7,640.9z"/>
			<g>
				<path class="st5" d="M73.5,598.6c1.7,0.1,12.1,0.4,13.9,0.4c11.3,0.1,21.2-2.1,21.7-5.1c2.3-12.2,2.3-24.7,0.2-36.9
					c-0.5-2.9-10.5-5.2-22.1-5.1c-1.8,0-12.4,0.2-14.1,0.4C76.7,567.6,76.8,583.4,73.5,598.6z"/>
				<path class="st1" d="M71.9,552.2c-1.3,0-2.2,0.6-2.1,1.4c3.1,14.4,3.3,29.2,0.4,43.5c-0.1,0.7,0.7,1.4,1.9,1.4l0,0
					c1.2,0,2.4-0.6,2.5-1.3c3-14.4,2.9-29.2-0.2-43.5C74.3,552.8,73.2,552.2,71.9,552.2L71.9,552.2z"/>
				<path class="st6" d="M71.4,598.6c0.4,0.1,2.7,0.2,3,0.2c2.5,0,5.1-2.3,5.5-5.2c2.1-12.1,2.1-24.4-0.1-36.4
					c-0.5-2.9-3.1-5.2-5.7-5.2c-0.4,0-2.7,0.1-3,0.2C74.7,567.6,74.8,583.4,71.4,598.6z"/>
			</g>
		</g>
		<g>
			<polygon class="st1" points="138.1,683.7 147.6,689.2 155.7,673.9 146.1,668.5 			"/>
			<path class="st11" d="M171.7,608.6l-34.3,71.2l13.5,4.6c0,0,39.9-67.1,37-72.1C185.1,607.2,173.4,605.4,171.7,608.6z"/>
			<path class="st11" d="M136.2,688.5l7,4l1.2-2.2l1.9,4l17.6,10.1c0,0,1.3-3.3-10.4-10.5c-3-1.8-2.8-7.5-2.8-7.5s-0.7-2.3-4.8-0.2
				c-1.1,0.5-6.5-4.8-6.5-4.8S136.3,685.5,136.2,688.5z"/>
		</g>
		<g>
			<path class="st11" d="M93,556.1c0,0-7.1,22.8-11.7,29.8c-3.3,4.9-6.2,15.3-5.8,19.9c0.4,4.6,0.7,19.4,8.3,20.3
				c11,1.2,31.7-0.4,31.7-0.4s12.1-32.4,11.7-36.7c-0.4-4.2-2.9-9.2-3.5-11.3c-0.5-2.1,3.1-10.1,3.1-10.1L93,556.1z"/>
			<g>
				<path class="st11" d="M116.8,602.3l58.5,32c0,0,20.3-21.6,11.8-27.4c-16.2-11.1-63.2-29.2-63.2-29.2L116.8,602.3z"/>
			</g>
			<polygon class="st1" points="176.8,690.8 177.7,707.3 190.1,706.9 186.8,688.2 			"/>
			<path class="st9" d="M84.7,625.9l77.3-0.2c0,0,14.2-6.6,7.4-15.2c-4.3-5.5-57.9-16.3-73.3-16.5C64.7,593.5,84.7,625.9,84.7,625.9
				z"/>
			<path class="st9" d="M150.3,624l25.4,73.4l13.6-1c0,0-11.5-80.6-20-82.7C160.5,611.5,149.7,621.3,150.3,624z"/>
			<path class="st11" d="M177.8,709.3l8.3,0.2l0.1-2.7l3.6,2.8l21.1,0.7c0,0-0.2-3.6-14.5-4.7c-3.6-0.2-6-5.5-6-5.5
				s-1.8-1.8-4.6,2.2c-0.7,1-8.3-1.2-8.3-1.2S176.6,706.4,177.8,709.3z"/>
			<polygon class="st11" points="86.2,583.2 87.9,583.1 87.6,575.5 86,575.6 			"/>
		</g>
		<path class="st35" d="M123.5,492.7c-14.4-1-32.3,3-35.1,13.6c-3.3,12.4-1,55.7-11.6,82.6c-0.4,1,0.2,3.9,2.2,3.7
			c11.3-1.3,46.1-1.7,46.1-1.7l16-42.2l2.5-22.4c0,0,1.6-26.4-6.8-31.5C135.1,493.6,128.9,493,123.5,492.7z"/>
		<g>
			<polygon class="st3" points="323.4,718.8 331.6,718.8 317.9,580.2 305.9,580.2 			"/>
			<polygon class="st36" points="306.7,586.6 312,628.6 318.3,583.2 317.9,580.2 307.4,580.2 			"/>
			<polygon class="st3" points="212.3,718.8 220.6,718.8 206.8,580.2 194.9,580.2 			"/>
			<polygon class="st36" points="195.6,586.6 200.9,628.6 207.2,583.2 206.8,580.2 196.4,580.2 			"/>
			<polygon class="st3" points="125.3,718.8 117,718.8 130.6,580.2 142.7,580.2 			"/>
			<polygon class="st36" points="141.8,586.6 125.8,629.3 130.4,583.2 130.6,580.2 141.1,580.2 			"/>
			<rect x="119" y="575.6" class="st1" width="99.9" height="8.1"/>
			
				<radialGradient id="SVGID_1_" cx="-18159.582" cy="1245.4948" r="367.0759" gradientTransform="matrix(-0.3817 0 0 -0.3999 -6609.0752 960.7289)" gradientUnits="userSpaceOnUse">
				<stop  offset="1.574020e-03" style="stop-color:#CDF7F1"/>
				<stop  offset="1" style="stop-color:#5DCFCA"/>
			</radialGradient>
			<rect x="214.3" y="575.6" class="st37" width="113.5" height="8.1"/>
		</g>
		<path class="st38" d="M162.9,557.2c0,0,4.3,0,8.1,2.3c2.8,1.8,5.4,5.8,2.8,8c-2.7,2.2-6.6,4.1-6.6,4.1S157.3,571.9,162.9,557.2z"
			/>
		<g>
			<g>
				<path class="st7" d="M123.7,548.7c0,0,8.7,15,25.1,17.4c2.8,0.4,4.9,3,3.7,4.1c-1.6,1.3-3.9,1.9-7.8,2.4
					c-8.3,1-19.9-0.1-28.6-6.3c-13-9.2-17.2-13.5-16.8-18.9C99.9,541.7,123.7,548.7,123.7,548.7z"/>
				<path class="st34" d="M90.7,502.1c-2.7,5.7-3.5,14.2-1.8,26.2c1.3,9.3,11.8,23.4,13.7,28c0.4,0.7,1.3,4.1,1.3,4.1l10.6,7.6
					l17.1-14.4l-6.9-7.6l-1.7,0.4c0,0-1.7-4.5-1.7-6.3s-8.7-25.1-13.5-40C105.2,491.3,93.4,496.5,90.7,502.1z"/>
				<path class="st35" d="M113.9,547.1l5.3-2.3l2.2-0.8c0.4,1.4,1.8,2.3,1.8,2.3l-4.2,1l-4.8,2.1l-5.3,4.5L113.9,547.1z"/>
			</g>
			<path class="st7" d="M147.7,566.2l9.3-3.6c0,0,3.1,3.1,2.8,4c-0.4,0.8,0.8,5.9,0.8,5.9l-4.1,4.2l-4-0.7c0,0-0.5-1.6,0.8-1.8
				c1.3-0.4-1-1-1.7-1.2C150.8,572.7,144.9,570.7,147.7,566.2z"/>
		</g>
		<g>
			<path class="st39" d="M134.8,573.7C134.8,573.6,134.7,573.6,134.8,573.7v-1.8l71.6-1.3v1.8l0,0l-0.2,0.4
				c-0.8,1.6-2.5,1.9-4.5,1.9l-62.4,1.2c-1.9,0-3.5-0.2-4.5-1.8L134.8,573.7z"/>
			<path class="st40" d="M152.1,573.6C152.1,573.6,152.1,573.7,152.1,573.6L152,574c-0.2,0.4-0.6,0.7-1.1,1l-10.9,0.2
				c-1.8,0-3.4-0.1-4.3-1.4l-0.2-0.2l0,0v-0.8l16.6-0.4L152.1,573.6z"/>
			<g>
				<polygon class="st41" points="161.7,573 197.6,572.3 197.6,571.1 161.7,571.7 				"/>
			</g>
			<g>
				<path class="st28" d="M152.5,571.4l8.7-37c0.2-1,1.2-1.8,2.1-1.8l50.3-1c1,0,1.4,0.7,1.3,1.7l-8.7,37L152.5,571.4z"/>
				<path class="st39" d="M180.6,551.5c-0.5,1.9,0.7,3.4,2.4,3.4c1.8,0,3.6-1.6,4.1-3.5c0.5-1.9-0.7-3.4-2.4-3.4
					S180.9,549.6,180.6,551.5z"/>
			</g>
		</g>
		<path class="st10" d="M131.5,492.4c-0.4,3.5-2.5,6.6-4.8,6.8c-2.2,0-4.3,0-6.5-0.1c-2.3-0.1-4.5-3.3-4.7-6.9
			c-0.5-5.9-1-11.7-1.3-17.6c-0.4-3.5,1.3-10.6,4.8-12.7c3.1-1.8,6.8-1.8,9.9,0.1c3.4,2.2,4.9,9.2,4.5,12.7
			C132.7,480.7,132.1,486.6,131.5,492.4z"/>
		<polygon class="st34" points="130.7,496.3 126.3,504.6 110.4,494.4 114.1,489.8 		"/>
		<polygon class="st34" points="131.3,493.4 130.1,496.4 133.9,503.2 134.2,497.8 		"/>
		<g>
			<path class="st11" d="M129.9,458l1-4.2l1.8,0.4l4.9,1l2.9,0.6c3.3,0.6,5.3,3.7,4.7,6.8l-1,4.2l-1.8-0.4l-4.9-1l-3-0.6
				C131.2,464.2,129.2,461.2,129.9,458z"/>
			<path class="st7" d="M114.7,482c-0.6,2.8,1.2,5.4,4.1,6l11.9,2.4c2.9,0.6,5.8-1.2,6.4-3.9l5.2-22.7c0.6-2.8-1.2-5.4-4.1-6
				l-11.9-2.4c-2.9-0.6-5.8,1.2-6.4,4L114.7,482z"/>
			<path class="st11" d="M130.5,453.7c-2.1-0.5-4.1,0.2-5.5,1.6l-2.1-0.4c-2.5-0.5-5.1,1-5.5,3.4l-2.4,10.7l3.3,0.6l1-4.3
				c0.4-1.7,2.2-2.8,4-2.4l1.9,0.4l4.9,1l2.9,0.6c3.3,0.6,6.5-1.3,7.2-4.3l1.1-4.6L130.5,453.7z"/>
			<path class="st7" d="M118.6,472.6c0.4-1.4-0.6-2.9-2.2-3.3h-0.2c-1.6-0.4-3.1,0.6-3.4,2.1l-0.7,3.3c-0.4,1.4,0.6,2.9,2.2,3.3h0.2
				c1.1,0.2,2.3-0.2,2.9-1.1L118.6,472.6z"/>
		</g>
	</g>
	<g>
		<g>
			<g>
				<path class="st1" d="M474.3,637.6c-1.8,0-4.7-0.5-7.2-2.8c-3.6-3.4-5.2-9.3-4.7-17.5c0.4-5.7,2.5-11.3,4.7-17.4
					c3.7-10.1,8.1-21.6,5.8-36.8l4.1-0.6c2.4,16.4-2.3,28.9-6,39.1c-2.2,5.9-4.1,11.1-4.5,16c-0.4,6.8,0.7,11.6,3.3,13.9
					c2.4,2.2,5.4,1.7,5.5,1.6l0.8,4.3C476,637.4,475.4,637.6,474.3,637.6z"/>
			</g>
			<g>
				<g>
					<path class="st2" d="M506.4,672.4l4.1,6.5l-34.3,11.5c0,0-2.3-2.3,6.2-6.9C492.2,678.2,506.4,672.4,506.4,672.4z"/>
					<path class="st2" d="M512.6,672.4l-4.1,6.5l34.3,11.5c0,0,2.3-2.3-6.2-6.9C526.8,678.2,512.6,672.4,512.6,672.4z"/>
				</g>
				<rect x="505.9" y="653.1" class="st2" width="7.1" height="26.8"/>
				<g>
					<path class="st3" d="M506.1,673.8l3.5,6.3l-29.4,10.9c0,0-1.9-2.2,5.2-6.6C493.8,679.2,506.1,673.8,506.1,673.8z"/>
					<path class="st3" d="M513.1,673.8l-3.5,6.3l29.3,11c0,0,1.9-2.2-5.2-6.6C525.2,679.2,513.1,673.8,513.1,673.8z"/>
				</g>
				<path class="st4" d="M483.5,693.5c0,1.4-1.1,2.7-2.5,2.7c-1.3,0-2.5-1.2-2.5-2.7c0-1.4,1.1-2.7,2.5-2.7
					C482.3,690.8,483.5,692,483.5,693.5z"/>
				<path class="st4" d="M540.3,693.5c0,1.4-1.1,2.7-2.5,2.7c-1.3,0-2.5-1.2-2.5-2.7c0-1.4,1.1-2.7,2.5-2.7
					C539.2,690.8,540.3,692,540.3,693.5z"/>
				<path class="st1" d="M477.5,693.5c0,1.4-1.1,2.7-2.5,2.7c-1.3,0-2.5-1.2-2.5-2.7c0-1.4,1.1-2.7,2.5-2.7
					C476.3,690.8,477.5,692,477.5,693.5z"/>
				<path class="st1" d="M546.4,693.5c0,1.4-1.1,2.7-2.5,2.7c-1.3,0-2.5-1.2-2.5-2.7c0-1.4,1.1-2.7,2.5-2.7
					C545.3,690.8,546.4,692,546.4,693.5z"/>
			</g>
			<rect x="506.8" y="643.2" class="st1" width="5.2" height="9.6"/>
			<path class="st1" d="M516,638.1c0,3-2.3,5.3-5.1,5.3H508c-2.8,0-5.1-2.4-5.1-5.3l0,0c0-3,2.3-5.3,5.1-5.3h2.9
				C513.7,632.8,516,635.2,516,638.1L516,638.1z"/>
			<path class="st5" d="M548.4,633.3c0.1-0.6,0.2-4.6,0.2-5.3c0-4.3-2.7-7.8-5.9-7.8h-66.3c-3.3,0-5.9,3.5-5.9,7.8
				c0,0.7,0.1,4.6,0.2,5.3H548.4z"/>
			<path class="st1" d="M469.6,635.3c0,1.3,0.7,2.4,1.7,2.4h76.2c1,0,1.7-1.1,1.7-2.4l0,0c0-1.3-0.7-2.4-1.7-2.4h-76.2
				C470.4,633,469.6,634,469.6,635.3L469.6,635.3z"/>
			<g>
				<path class="st5" d="M473.4,593.1c1.7,0.1,12.1,0.4,13.9,0.4c11.3,0.1,21.2-2.1,21.7-5.1c2.3-12.2,2.3-24.7,0.2-36.9
					c-0.5-2.9-10.5-5.2-22.1-5.1c-1.8,0-12.4,0.2-14.1,0.4C476.6,562,476.8,577.9,473.4,593.1z"/>
				<path class="st1" d="M471.8,546.8c-1.3,0-2.2,0.6-2.1,1.4c3.1,14.4,3.3,29.2,0.4,43.5c-0.1,0.7,0.7,1.4,1.9,1.4l0,0
					c1.2,0,2.4-0.6,2.5-1.3c3-14.4,2.9-29.3-0.2-43.5C474.2,547.4,473.1,546.8,471.8,546.8L471.8,546.8z"/>
				<path class="st6" d="M471.3,593.1c0.4,0.1,2.7,0.2,3,0.2c2.5,0,5.1-2.3,5.5-5.2c2.1-12.1,2.1-24.4-0.1-36.4
					c-0.5-2.9-3.1-5.2-5.7-5.2c-0.4,0-2.7,0.1-3,0.2C474.5,562,474.6,577.9,471.3,593.1z"/>
			</g>
		</g>
		<g>
			<g>
				<g>
					<polygon class="st1" points="537.8,679.1 547.3,684.2 554.7,669 545.1,663.9 					"/>
					<path class="st11" d="M568.7,604.5l-30,69.6l12.3,6.8c0,0,36.9-68.5,33.9-73.2C581.7,602.7,570.1,601.3,568.7,604.5z"/>
					<path class="st11" d="M536.1,683.8l7,3.7l1.1-2.2l1.9,3.9l17.6,9.4c0,0,1.2-3.1-10.4-10c-3-1.7-3-7.2-3-7.2s-0.8-2.2-4.7-0.1
						c-1,0.6-6.5-4.5-6.5-4.5S536.2,680.8,536.1,683.8z"/>
				</g>
				<g>
					<path class="st11" d="M490.9,553.1c0,0-6.9,22.3-11.5,29.2c-3.3,4.8-6,15-5.7,19.4c0.4,4.5,0.7,19.1,8.2,19.8
						c10.7,1.1,31-0.4,31-0.4s11.8-31.7,11.5-35.8c-0.4-4.1-2.9-9-3.4-11.1c-0.5-2.1,3-9.9,3-9.9L490.9,553.1z"/>
					<g>
						<path class="st11" d="M514.1,598.3l57.3,31.2c0,0,19.8-21.1,11.6-26.8c-15.9-10.9-61.9-28.6-61.9-28.6L514.1,598.3z"/>
					</g>
					<polygon class="st1" points="573,685 573.8,701.2 585.9,700.8 582.8,682.5 					"/>
					<path class="st9" d="M482.7,621.5l75.7-0.2c0,0,13.9-6.4,7.1-15c-4.3-5.4-56.7-16-71.8-16.2
						C463.1,589.7,482.7,621.5,482.7,621.5z"/>
					<path class="st9" d="M547,619.7l25.8,74.5l12.5-2.9c0,0-11.3-79.5-19.8-81.7C557.1,607.4,546.4,617.1,547,619.7z"/>
					<path class="st11" d="M574,703.1l8.2,0.2l0.1-2.7l3.5,2.8l20.7,0.7c0,0-0.2-3.6-14.1-4.6c-3.6-0.2-5.9-5.4-5.9-5.4
						s-1.7-1.7-4.6,2.1c-0.7,1-8.2-1.2-8.2-1.2S572.8,700.2,574,703.1z"/>
					<polygon class="st11" points="484.2,579.7 485.9,579.6 485.6,572.1 484,572.3 					"/>
				</g>
				<path class="st23" d="M518.6,473.1c-7.2,1.9-29.4,10.7-32.3,22.3c-4.2,17.4,4,63.7-9.3,88.6c-4.2,8,55.2,0.7,55.2,0.7l34.3-46.7
					l-15.6-49.6c0,0-15.6-10.7-19.4-12.1C523.7,474.1,533.1,469.4,518.6,473.1z"/>
				<g>
					<path class="st42" d="M550.9,488.8c4.1,6.2,21.6,46.4,16.4,57.8c-0.6,1.3,4.5,1.9,4.7,7.1c0,0.8-0.5,5.3-0.5,5.3l-5.7,3.1
						l-20.6-6.4l2.5-5.3l1.7-0.4c0,0,1.2-1.9,0.4-3.6c-0.8-1.8,3-5.9,2.9-39.2C552.7,497.5,550.1,487.4,550.9,488.8z"/>
					<path class="st35" d="M567.2,548.9l-5.5-1.2l-2.3-0.4c0,1.6-1.2,2.8-1.2,2.8l4.3,0.1l5.1,1.1l6,3.6L567.2,548.9z"/>
				</g>
			</g>
			<g>
				<path class="st38" d="M559.4,554.2c0,0,4.2,0,8,2.3c2.8,1.8,5.3,5.7,2.8,7.7c-2.5,2.1-6.5,4.1-6.5,4.1S553.8,568.6,559.4,554.2z
					"/>
				<g>
					<g>
						<path class="st7" d="M521,541.5c0,0,8.6,16.3,24.6,18.7c2.8,0.5,4.8,3.3,3.6,4.3c-1.6,1.4-3.7,2.1-7.6,2.5
							c-8.1,1.1-19.4-0.1-28-6.8c-12.7-9.9-16.9-14.7-16.4-20.6C497.6,533.9,521,541.5,521,541.5z"/>
						<path class="st42" d="M488.6,491c-2.7,6-3.4,15.4-1.8,28.3c1.2,10,11.6,25.3,13.4,30.3c0.4,0.8,1.3,4.3,1.3,4.3l10.4,8.2
							l16.8-15.6l-6.8-8.2l-1.7,0.4c0,0-1.7-4.8-1.6-6.8c0-1.9-8.4-27.1-13.1-43.4C502.8,479.3,491.2,484.9,488.6,491z"/>
						<path class="st23" d="M511.4,539.7l5.2-2.4l2.2-0.8c0.4,1.6,1.7,2.4,1.7,2.4l-4.1,1.1l-4.7,2.2l-5.2,4.8L511.4,539.7z"/>
					</g>
					<path class="st7" d="M544.4,560.3l9-4c0,0,3.1,3.4,2.8,4.3c-0.4,1,0.8,6.5,0.8,6.5l-4.1,4.6l-3.9-0.7c0,0-0.5-1.7,0.8-2.1
						c1.2-0.4-1-1-1.7-1.3C547.4,567.4,541.6,565.3,544.4,560.3z"/>
				</g>
				<g>
					<path class="st7" d="M537.4,481.8c-0.5,1.9-2.4,3-4.2,2.5l-14.8-4.2c-1.8-0.5-2.9-2.5-2.4-4.3l6-22.9c0.5-1.9,2.4-3,4.2-2.5
						l14.8,4.2c1.8,0.5,2.9,2.5,2.4,4.3L537.4,481.8z"/>
					<path class="st11" d="M542.3,463.7c0,0,2.5-1.7,3.3-2.9c0.4-0.6,0.4-3.4-1-4.9c-1.3-1.4-3.3,0-3.3,0s2.2,2.3,2.2,2.9
						C543.6,459.4,542.3,463.7,542.3,463.7z"/>
					<path class="st9" d="M517.9,462.6c0,0,0.1-9.4,1.2-11.9c1.1-2.4,1.8-4.2,4.9-3.6c4.6,0.8,4.5,1.9,7,1.1c2.5-0.8,7.4-3.1,8.8-3
						c2.4,0.1,5.8,1.9,4.7,6.4c-0.7,3.3,1,4.7,1,4.8c-0.2,0.4-1.2,0.5-2.8,0.8c-4.7,1-7.2,0.7-10.1-1.1c-2.9-1.8-8.3-5.3-9.6-3.1
						c-1.3,2.3-3,9.8-3.4,10.3C519,463.7,518.4,463.2,517.9,462.6z"/>
					<path class="st7" d="M520.8,470.8c-0.1,0.6-0.8,1-1.4,0.8l-3.3-1c-0.6-0.1-1-0.8-0.8-1.4l1.6-6.2c0.1-0.6,0.8-1,1.4-0.8l3.3,1
						c0.6,0.1,1,0.8,0.8,1.4L520.8,470.8z"/>
					<path class="st7" d="M539.8,476.4c-0.1,0.6-0.8,1-1.4,0.8l-3.3-1c-0.6-0.2-1-0.8-0.8-1.4l1.6-6.2c0.1-0.6,0.8-1,1.4-0.8l3.3,1
						c0.6,0.1,1,0.8,0.8,1.4L539.8,476.4z"/>
					<path class="st9" d="M518.9,465c0,0-2.4,9-3.1,12.1c-0.7,2.8-1.2,9,13.4,13.3c8.7,2.5,10.1-4.2,10.7-6.5c0.5-1.7,0-7.2-0.7-8.4
						l-1,3.7c0,0-0.8-4.1-4.9-5.3c-6.6-1.9-9.3,1.7-12.2,0.8C518.7,474,518,469.6,518.9,465z"/>
					<path class="st7" d="M528.7,478.9l4.6,1.3c0.6,0.2,1.2-0.2,1.4-0.8l0.2-0.6l-6.8-1.9l-0.2,0.6
						C527.8,478.1,528.1,478.8,528.7,478.9z"/>
				</g>
				<g>
					<path class="st39" d="M531.9,570.3C531.8,570.3,531.8,570.3,531.9,570.3v-1.8l70.2-1.3v1.8l0,0l-0.2,0.4
						c-0.8,1.6-2.5,1.8-4.3,1.9l-61,1.2c-1.8,0-3.5-0.2-4.5-1.7L531.9,570.3z"/>
					<path class="st40" d="M548.8,570.3L548.8,570.3l-0.1,0.4c-0.2,0.4-0.6,0.7-1,1l-10.6,0.2c-1.8,0-3.4-0.1-4.2-1.3l-0.1-0.2l0,0
						v-0.8l16.3-0.4L548.8,570.3z"/>
					<g>
						
							<rect x="558.1" y="568" transform="matrix(0.9998 -1.900259e-02 1.900259e-02 0.9998 -10.7015 11.0419)" class="st41" width="35.1" height="1.2"/>
					</g>
					<g>
						<path class="st28" d="M549.1,568.2l8.4-36.3c0.2-1,1.1-1.8,2.1-1.8l49.2-1c1,0,1.4,0.7,1.2,1.7l-8.4,36.3L549.1,568.2z"/>
						<path class="st39" d="M576.6,548.6c-0.5,1.8,0.6,3.4,2.4,3.3c1.8,0,3.5-1.6,4-3.4c0.4-1.8-0.6-3.4-2.4-3.3
							C578.8,545.2,577,546.8,576.6,548.6z"/>
					</g>
				</g>
			</g>
		</g>
		<g>
			<g>
				<g>
					<path class="st1" d="M354.9,637.6c-1.8,0-4.7-0.5-7.2-2.8c-3.6-3.4-5.2-9.3-4.7-17.5c0.4-5.7,2.5-11.3,4.7-17.4
						c3.7-10.1,8.1-21.6,5.8-36.8l4.1-0.6c2.4,16.4-2.3,28.9-6,39.1c-2.2,5.9-4.1,11.1-4.5,16c-0.5,6.8,0.7,11.6,3.3,13.9
						c2.4,2.2,5.4,1.7,5.5,1.6l0.8,4.3C356.8,637.4,356,637.6,354.9,637.6z"/>
				</g>
				<g>
					<g>
						<path class="st2" d="M387.2,672.4l4.1,6.5L357,690.3c0,0-2.3-2.3,6.2-6.9C372.8,678.2,387.2,672.4,387.2,672.4z"/>
						<path class="st2" d="M393.2,672.4l-4.1,6.5l34.3,11.5c0,0,2.3-2.3-6.2-6.9C407.5,678.2,393.2,672.4,393.2,672.4z"/>
					</g>
					<rect x="386.5" y="653.1" class="st2" width="7.1" height="26.8"/>
					<g>
						<path class="st3" d="M386.7,673.8l3.5,6.3l-29.3,11c0,0-1.9-2.2,5.2-6.6C374.5,679.2,386.7,673.8,386.7,673.8z"/>
						<path class="st3" d="M393.7,673.8l-3.5,6.3l29.3,11c0,0,1.9-2.2-5.2-6.6C406,679.2,393.7,673.8,393.7,673.8z"/>
					</g>
					<path class="st4" d="M364.1,693.5c0,1.4-1.1,2.7-2.5,2.7c-1.3,0-2.5-1.2-2.5-2.7c0-1.4,1.1-2.7,2.5-2.7
						C363,690.8,364.1,692,364.1,693.5z"/>
					<path class="st4" d="M421,693.5c0,1.4-1.1,2.7-2.5,2.7c-1.3,0-2.5-1.2-2.5-2.7c0-1.4,1.1-2.7,2.5-2.7
						C420,690.8,421,692,421,693.5z"/>
					<path class="st1" d="M358.1,693.5c0,1.4-1.1,2.7-2.5,2.7c-1.3,0-2.5-1.2-2.5-2.7c0-1.4,1.1-2.7,2.5-2.7
						C357,690.8,358.1,692,358.1,693.5z"/>
					<path class="st1" d="M427.1,693.5c0,1.4-1.1,2.7-2.5,2.7c-1.3,0-2.5-1.2-2.5-2.7c0-1.4,1.1-2.7,2.5-2.7
						C426,690.8,427.1,692,427.1,693.5z"/>
				</g>
				<rect x="387.5" y="643.2" class="st1" width="5.2" height="9.6"/>
				<path class="st1" d="M396.7,638.1c0,3-2.3,5.3-5.1,5.3h-2.9c-2.8,0-5.1-2.4-5.1-5.3l0,0c0-3,2.3-5.3,5.1-5.3h2.9
					C394.4,632.8,396.7,635.2,396.7,638.1L396.7,638.1z"/>
				<path class="st5" d="M429,633.3c0.1-0.6,0.2-4.6,0.2-5.3c0-4.3-2.7-7.8-5.9-7.8H357c-3.3,0-5.9,3.5-5.9,7.8
					c0,0.7,0.1,4.6,0.2,5.3H429z"/>
				<path class="st1" d="M350.4,635.3c0,1.3,0.7,2.4,1.7,2.4h76.2c1,0,1.7-1.1,1.7-2.4l0,0c0-1.3-0.7-2.4-1.7-2.4h-76.2
					C351.1,633,350.4,634,350.4,635.3L350.4,635.3z"/>
				<g>
					<path class="st5" d="M354.1,593.1c1.7,0.1,12.1,0.4,13.9,0.4c11.3,0.1,21.2-2.1,21.7-5.1c2.3-12.2,2.3-24.7,0.2-36.9
						c-0.5-2.9-10.5-5.2-22.1-5.1c-1.8,0-12.4,0.2-14.1,0.4C357.4,562,357.4,577.9,354.1,593.1z"/>
					<path class="st1" d="M352.5,546.8c-1.3,0-2.2,0.6-2.1,1.4c3.1,14.4,3.3,29.2,0.4,43.5c-0.1,0.7,0.7,1.4,1.9,1.4l0,0
						c1.2,0,2.4-0.6,2.5-1.3c3-14.4,2.9-29.3-0.2-43.5C354.9,547.4,353.7,546.8,352.5,546.8L352.5,546.8z"/>
					<path class="st6" d="M351.9,593.1c0.4,0.1,2.7,0.2,3,0.2c2.5,0,5.1-2.3,5.5-5.2c2.1-12.1,2.1-24.4-0.1-36.4
						c-0.5-2.9-3.1-5.2-5.7-5.2c-0.4,0-2.7,0.1-3,0.2C355.2,562,355.3,577.9,351.9,593.1z"/>
				</g>
			</g>
			<g>
				<g>
					<g>
						<g>
							<path class="st10" d="M421,558.3c0,0,0.1,3,14.1,3c14,0,34.7-3.6,34.7-3.6l-32.4-3.3C437.4,554.5,425,553.9,421,558.3z"/>
							<path class="st10" d="M458.9,558.9c6.8,0.2,9.4,3.9,12.1,4.9c2.7,1.2,5.2,2.9,5.2,2.9c-1.4-3-3.5-3.3-4.6-4.2
								s-0.8-0.5,1.6-0.6c1.3,0,3.6,2.5,5.3,4c1.4,1.2,2.4,1.3,2.4,1.3s-1.7-2.5-3.9-4.7c-2.7-2.5-5.8-4.7-6.6-5.1
								c-1.4-0.6-5.9-1-9-0.6C457.7,557.3,454.1,558.6,458.9,558.9z"/>
							<path class="st10" d="M470.1,557.7c0,0,5.1,1.6,5.9,2.3c0.6,0.5,3.1,3.5,3.1,3.5s-1.9-0.4-3-1.6
								C475.1,560.7,470.1,557.7,470.1,557.7z"/>
						</g>
						<path class="st43" d="M424.7,553.2c0,0-10.3-0.6-9.6,7.5c0.4,4.6,2.1,6.3,7.1,6c7.4-0.2,15.6-1.2,15.6-1.2l4-11.1L424.7,553.2
							z"/>
					</g>
					<path class="st43" d="M424.7,553.2l-11.3-41.9c0,0-1.7-6.2-4.8-5.1c-4.5,1.4-2.4,6.5-2.2,9.5c0.6,6,0,8.6,3.6,23.3
						c2.2,9,4.1,19.3,6.2,25.3c1.4,4.1,4.1-1.6,8.1-3C431.7,558.4,424.7,553.2,424.7,553.2z"/>
				</g>
				<path class="st4" d="M417.9,488.4c-1.4,7-13.5,13.3-15.1,27.1c0,0-12.4-32.6-10.9-39.6l1-4.7c1.4-7,8.1-11.5,14.8-9.8l3,0.7
					c6.6,1.6,10.9,8.4,9.4,15.6L417.9,488.4z"/>
				<path class="st7" d="M417.1,468.7c-0.2,1.2-1.8,3-2.9,3.6c-3.7,2.2-7.1,12.9-12.4,12.4c-1,3.6-2.4,6.8-3.9,9.4
					c-1.7,3-5.9,5.5-5.9,5.5c-2.1,5.4,18.8,23.8,19.8,23.4c1.9-1-1.6-14.2-4.9-18.3c-1.6-1.9-3.3-4.2-3.3-5.4
					c-0.1-4.6,1.2-5.4,3.4-7.6c3.6-2.9,7.8-1.8,7.8-1.8c0.4,0.1,0.8,0,1.1-0.2c0.4-0.7,0.7-1.7,1-2.5l2.2-10.5
					C419.5,473.7,417.3,471.3,417.1,468.7z"/>
				<path class="st8" d="M395.4,585.2c0,0,5.3,5.1,6.9,5.5c2.1,0.6,7.7-1.9,7.7-1.9s-1.6-26.4-1-36.8s2.9-13.5,2.7-16.6
					c-0.5-5.2,3.5-7.8,2.4-11.7c-1.2-4-4.1-18.1-4.3-16c-1.7,16.8-7.8,3.9-9,1.8C399.8,508.1,395.4,585.2,395.4,585.2z"/>
				<path class="st20" d="M406.6,502.9c0,0,7.1,5.4,7,8s3.6,10,2.2,21.1c-1.7,12.8-2.4,21.3-2.1,29.4c0.4,8.2,4,15.2,4.1,25.2
					c0.1,7.8-1.6,8.6-1.6,8.6s-3.4,1.3-6.2-1.4c-2.8-2.7-2.3-29.5-1.9-36.3s2.4-22.7,2.9-27.4c0.6-5.8-0.2-11.5-0.6-13
					c-1-5.7-2.2-9.3-3-11.3c-0.1-0.4-1.9-1.9-2.1-2.2C404.9,502.4,406,502.3,406.6,502.9z"/>
				<path class="st43" d="M404.6,500.3c0,0-1.4-0.4-0.2,1.4c0.7,1,0.7,1.8,0.7,1.8s0.6-0.7,1.6,0.4c0.8,1,2.3,2.1,2.3,2.1
					s-0.8-2.7-1.1-2.8C407.2,502.3,404.6,500.3,404.6,500.3z"/>
				<path class="st4" d="M390.2,505.4c-5.3,8-3.4,30.8-12.7,28.6c-9.3-2.2-12.5-11.5-9.5-16.5c3.6-6.2,23.2-33,25.2-44.3
					c2.3-12.9,15.3-4.5,12.3,0.4C396.2,488.4,411.4,474,390.2,505.4z"/>
				<polygon class="st7" points="433.5,675.4 430.2,701.2 444.1,707.9 451.8,709.6 438.2,698.9 442.6,675.6 				"/>
				<path class="st11" d="M429.2,705.2l3,0.8l2.1-1.9l11.1,5.7l9.9,2.4c0,0,0.1-0.8-0.2-1.2c-1.2-1.7-8.2-5.3-8.2-5.3
					s-0.1,2.4-1.1,2.4c-1,0.1-9.5-4.5-11.5-5.7c-3.4-2.2-4-3.5-4.3-3.4C429.5,699.4,429.2,705.2,429.2,705.2z"/>
				<polygon class="st7" points="467,639.4 478.1,661.5 493.4,660.7 501,658.5 484.1,655.6 474.8,636.8 				"/>
				<path class="st11" d="M478.9,665.4l3-0.7l1-2.7l13.7-0.2l8.2-1.9c0,0-1-1.1-1.6-1.3c-1.8-0.7-8.3-1.2-8.3-1.2s0.7,1.8-0.1,2.4
					s-10.3,0.8-12.5,0.7c-4-0.2-5.1-1.2-5.3-1C476.5,660.2,478.9,665.4,478.9,665.4z"/>
				<path class="st9" d="M386.2,573.6l8.2,3.7l3.6,11.2l53.1-9.2c0,0,5.4-1.8,8.8,7.2c4.9,12.7,17.4,52.2,17.4,52.2l-7.8,8.7
					l-24.7-44.7c0,0-50.8,25-67.4,19.5c-6.4-2.1-11.3-13.9-10.4-25.9c0.7-9.4,2.5-18.1,2.5-18.1L386.2,573.6z"/>
				<path class="st11" d="M393.4,622.1l40.5-3l-3.5,65.6l11.9,0.4l8.8-76.8c0,0-2.4-11.5-10.1-9.6
					C433.5,600.2,414.6,615.3,393.4,622.1z"/>
				<path class="st20" d="M398.5,590.2c0,0,1-26.7,1.7-39.3c0.7-12.7,0.6-37,0.7-40.2c0.1-3-0.6-7.4-0.6-7.4s-3.6-6.5-7.7-6
					c-3.6,0.5-9.4,5.4-12.7,8.2c-6.2,5.2-3,47-3.3,49.2c-0.6,8.1-5.2,16-8.7,23.9c-2.2,4.9-2.8,12.9-2.8,12.9
					S369.9,598.8,398.5,590.2z"/>
				<polygon class="st43" points="393.9,495.3 396.8,498.3 400.9,502.9 398.9,508.1 391.6,497.5 				"/>
				<g>
					<path class="st7" d="M388.4,565c0,0,0.5,3.3,17.1,1.3c16.6-1.9,40.8-8.7,40.8-8.7l-38.8,1C407.4,558.8,392.6,559.8,388.4,565z"
						/>
					<path class="st7" d="M433.2,560.4c8-0.7,11.7,2.8,14.8,3.7c3.3,1,6.5,2.4,6.5,2.4c-2.1-3.1-4.6-3-5.9-3.9c-1.3-1-1-0.5,1.8-0.8
						c1.6-0.2,4.6,2.2,6.8,3.5c1.8,1.2,3,1.2,3,1.2s-2.3-2.5-5.1-4.6c-3.4-2.4-7.5-4.2-8.4-4.6c-1.7-0.5-7.1-0.2-10.9,0.6
						C431.8,558.9,427.4,560.9,433.2,560.4z"/>
					<path class="st7" d="M446.4,557.5c0,0,6.2,1,7.4,1.7c0.8,0.5,4.1,3.4,4.1,3.4s-2.3-0.1-3.7-1.2
						C452.8,560.2,446.4,557.5,446.4,557.5z"/>
				</g>
				<path class="st43" d="M395.2,557.5l-1.8-41.2c0,0-2.2-8.7-5.2-10.6c-3.7-2.4-8.7,2.1-8.7,2.1s-2.7,6.4-0.8,36.9
					c1.2,20.4,3.3,28.9,12.4,27.5c8.6-1.4,19.3-3.3,19.3-3.3l1.8-10.7L395.2,557.5z"/>
			</g>
			<g>
				<path class="st44" d="M428.4,567.8C428.3,567.8,428.3,567.7,428.4,567.8v-2.2h80.9v2.1l0,0l-0.2,0.4c-1.1,1.8-2.9,2.1-5.1,2.1
					h-70.4c-2.2,0-4-0.4-5.1-2.1L428.4,567.8z"/>
				<path class="st39" d="M447.8,568.2L447.8,568.2l-0.2,0.4c-0.4,0.5-0.7,0.8-1.2,1.1h-12.3c-2.1,0-3.9-0.2-4.8-1.7l-0.2-0.4l0,0
					v-1h18.8L447.8,568.2L447.8,568.2z"/>
				<g>
					<rect x="458.8" y="566.1" class="st39" width="40.4" height="1.4"/>
				</g>
				<g>
					<path class="st16" d="M448.3,565.6l10.5-41.6c0.2-1.1,1.3-2.1,2.4-2.1H518c1.1,0,1.7,0.8,1.4,2.1L509,565.6H448.3z"/>
					<path class="st39" d="M480.4,543.8c-0.5,2.2,0.7,3.9,2.8,3.9s4.1-1.7,4.6-3.9s-0.7-3.9-2.8-3.9
						C483,539.9,481,541.6,480.4,543.8z"/>
				</g>
			</g>
			<g>
				<polygon class="st3" points="627.9,713.4 636.1,713.4 622.5,574.7 610.4,574.7 				"/>
				<polygon class="st36" points="611.2,581.1 616.5,623 622.7,577.8 622.5,574.7 612,574.7 				"/>
				<polygon class="st3" points="516.8,713.4 525.1,713.4 511.4,574.7 499.4,574.7 				"/>
				<polygon class="st36" points="500.2,581.1 505.5,623 511.7,577.8 511.4,574.7 500.9,574.7 				"/>
				<polygon class="st3" points="429.8,713.4 421.5,713.4 435.2,574.7 447.2,574.7 				"/>
				<polygon class="st36" points="446.4,581.1 430.3,623.9 434.9,577.8 435.2,574.7 445.6,574.7 				"/>
				<rect x="423.6" y="570.2" class="st1" width="99.9" height="8.1"/>
				
					<radialGradient id="SVGID_2_" cx="-22426.0371" cy="1259.2285" r="367.1173" gradientTransform="matrix(-0.3817 0 0 -0.3999 -7933.0571 960.7289)" gradientUnits="userSpaceOnUse">
					<stop  offset="1.574020e-03" style="stop-color:#CDF7F1"/>
					<stop  offset="1" style="stop-color:#5DCFCA"/>
				</radialGradient>
				<rect x="518.9" y="570.2" class="st45" width="113.5" height="8.1"/>
			</g>
		</g>
	</g>
	<g>
		<path class="st34" d="M424.2,449.7c0,3.3,2.5,5.8,5.5,5.8h3.7V469l12.9-13.5h42.6c3,0,5.5-2.7,5.5-5.8v-48.4
			c0-3.3-2.5-5.8-5.5-5.8h-59.2c-3,0-5.5,2.7-5.5,5.8V449.7L424.2,449.7z"/>
		<rect x="435.3" y="412.9" class="st22" width="48.1" height="3.9"/>
		<rect x="435.3" y="422.6" class="st22" width="48.1" height="3.9"/>
		<rect x="435.3" y="432.2" class="st22" width="48.1" height="3.9"/>
	</g>
	<g>
		<rect x="428" y="333.8" class="st23" width="35" height="37.5"/>
		<g>
			<path class="st22" d="M452.8,349h-6c0.2-0.7,0.6-1.6,0.7-2.1s0-1.6,0-1.6c0-0.8-0.6-1.4-1.4-1.4h-0.7v2.3c0,0-2.4,3-2.4,4.2v7.2
				c0,0.8,0.6,1.4,1.4,1.4h4.9c0.7,0,1.6-0.6,1.9-1.4l2.5-7.2C453.8,349.6,453.5,349,452.8,349z"/>
			<rect x="441.9" y="350.1" class="st22" width="1.9" height="8.1"/>
			<rect x="436.4" y="349" class="st22" width="3.4" height="10.1"/>
		</g>
	</g>
	<g>
		<path class="st46" d="M415,388.2c0,1.8-1.3,3.1-2.8,3.1h-5.4v11.8l-13.4-11.8h-27.5c-1.6,0-2.8-1.4-2.8-3.1v-35.9
			c0-1.8,1.3-3.1,2.8-3.1h46.3c1.6,0,2.8,1.4,2.8,3.1V388.2z"/>
		<polygon class="st22" points="397.6,370.1 390,374.7 382.4,379.3 382.4,370.1 382.4,361 390,365.5 		"/>
	</g>
	<g>
		<g>
			<rect x="59.6" y="381.6" class="st9" width="7" height="6.8"/>
		</g>
		<g>
			<rect x="69" y="383.3" class="st22" width="32.9" height="3.4"/>
		</g>
		<g>
			<rect x="111.3" y="381.6" class="st8" width="7" height="6.8"/>
		</g>
		<g>
			<rect x="120.7" y="383.3" class="st22" width="28.7" height="3.4"/>
		</g>
		<g>
			<rect x="159.9" y="381.6" class="st22" width="7" height="6.8"/>
		</g>
		<g>
			<rect x="169.3" y="383.3" class="st22" width="28.7" height="3.4"/>
		</g>
		<g>
			<g>
				<rect x="212.8" y="354.4" class="st22" width="5.3" height="18.3"/>
				<rect x="202.5" y="348.5" class="st9" width="5.3" height="24.2"/>
				<rect x="192.4" y="358.1" class="st22" width="5.3" height="14.6"/>
				<rect x="182.1" y="338.6" class="st8" width="5.3" height="34.1"/>
				<rect x="172" y="344.8" class="st22" width="5.3" height="27.9"/>
				<rect x="161.7" y="334.9" class="st8" width="5.3" height="37.9"/>
				<rect x="151.6" y="357.5" class="st9" width="5.3" height="15.2"/>
				<rect x="141.4" y="347.9" class="st8" width="5.3" height="24.7"/>
				<rect x="131.2" y="340" class="st9" width="5.3" height="32.8"/>
				<rect x="121" y="331.2" class="st22" width="5.3" height="41.6"/>
				<rect x="110.8" y="337.1" class="st8" width="5.3" height="35.6"/>
				<rect x="100.6" y="326.2" class="st9" width="5.3" height="46.6"/>
				<rect x="90.5" y="344.2" class="st22" width="5.3" height="28.6"/>
				<rect x="80.3" y="348.8" class="st8" width="5.3" height="23.9"/>
				<rect x="70.1" y="335.9" class="st9" width="5.3" height="36.8"/>
				<rect x="59.9" y="340.5" class="st22" width="5.3" height="32.2"/>
			</g>
		</g>
	</g>
	<g>
		<path class="st24" d="M169.9,296.1c-4.9-7.4-7.8-16.4-7.7-26.1c0.4-24.4,19.5-43.9,42.8-43.5c18.7,0.2,34.5,13.3,39.7,31.1l18-5.8
			c0-0.1-0.1-0.4-0.1-0.5c-0.2-0.8-0.5-1.6-0.7-2.4c-0.1-0.2-0.1-0.5-0.2-0.6c-8.6-24.1-29.1-40-53.8-41.4c-0.6,0-1.2,0-1.7,0
			c-0.2,0-0.5,0-0.7,0h-0.1c-0.8,0-1.6,0-2.4,0c-0.2,0-0.5,0-0.7,0c-0.6,0-1.3,0.1-1.9,0.1c-0.5,0-0.8,0.1-1.3,0.1
			c-0.4,0-0.7,0.1-1.1,0.1c-0.7,0.1-1.4,0.1-2.2,0.2h-0.1c-5.2,0.8-10.1,2.3-14.8,4.3c-0.6,0.2-1.2,0.5-1.7,0.8l0,0
			c-18.7,9.2-32.3,27.9-34.9,50.4c0,0.1,0,0.2,0,0.4c-0.1,0.7-0.1,1.6-0.2,2.3c0,0.4-0.1,0.7-0.1,1.2s0,1.1-0.1,1.6
			c0,0.5,0,0.8,0,1.3c-0.2,14,4,27,11.1,37.7L169.9,296.1z"/>
		<g>
			<g>
				<path class="st47" d="M242.5,320.6c13.7-11.5,21.6-27.1,22.7-45.5c0.1-1.1,0.1-2.3,0.1-3.4l0,0l0,0c0.1-7.1-0.7-13-2.8-19.8
					c-0.1-0.1-0.1-0.4-0.1-0.5c0,0.1,0.1,0.4,0.1,0.5l-18,5.8c1.3,4.3,1.9,8.9,1.9,13.6l0,0c-0.2,14.7-7.2,27.6-17.8,35.5l10.9,16.2
					C240.6,322.1,241.6,321.3,242.5,320.6z"/>
				<path class="st46" d="M239.5,322.8l-10.9-16.2c-7,5.2-15.7,8.2-24.8,8.1l0,0c-14-0.2-26.3-7.6-33.9-18.7l-15.4,11.3l0,0
					c0.7,1,1.4,2.1,2.2,3c10.3,13.6,24.2,21.8,40.5,23.6c0.1,0,0.2,0,0.4,0c0.8,0.1,1.7,0.1,2.5,0.2h0.1c0.2,0,0.5,0,0.7,0
					c0.8,0,1.7,0.1,2.5,0.1c13.1,0.2,25.3-4,35.3-11.2C240.1,322.5,240.6,322.1,239.5,322.8z"/>
			</g>
			<g>
				<g>
					<g>
						<path class="st18" d="M205.6,269.8l66.3,22.6c11.9-38.4-8.2-79.5-44.7-92c-7.4-2.5-13.9-3.6-21.6-3.6V269.8L205.6,269.8z"/>
					</g>
				</g>
			</g>
		</g>
	</g>
</g>
</svg>
